<svg id="Capa_1" enable-background="new 0 0 502 502" height="512" viewBox="0 0 502 502" width="512" xmlns="http://www.w3.org/2000/svg" xmlns:xlink="http://www.w3.org/1999/xlink"><linearGradient id="lg1"><stop offset="0" stop-color="#d4dbdb"/><stop offset="1" stop-color="#f3f3f3"/></linearGradient><linearGradient id="SVGID_1_" gradientUnits="userSpaceOnUse" x1="258.38" x2="258.38" xlink:href="#lg1" y1="213.393" y2="103.802"/><linearGradient id="lg2"><stop offset="0" stop-color="#74d2e8"/><stop offset="1" stop-color="#baeaf5"/></linearGradient><linearGradient id="SVGID_2_" gradientUnits="userSpaceOnUse" x1="93.772" x2="213.225" xlink:href="#lg2" y1="222.877" y2="222.877"/><linearGradient id="SVGID_3_" gradientUnits="userSpaceOnUse" x1="-4.176" x2="153.91" xlink:href="#lg2" y1="119.587" y2="119.587"/><linearGradient id="SVGID_4_" gradientUnits="userSpaceOnUse" x1="16.782" x2="152.938" y1="119.576" y2="119.576"><stop offset="0" stop-color="#6dc8dd"/><stop offset="1" stop-color="#9fd8e6"/></linearGradient><linearGradient id="SVGID_5_" gradientUnits="userSpaceOnUse" x1="258.38" x2="258.38" xlink:href="#lg1" y1="399.413" y2="192.075"/><linearGradient id="SVGID_6_" gradientUnits="userSpaceOnUse" x1="258.38" x2="258.38" y1="338.72" y2="474.377"><stop offset="0" stop-color="#ec6f80"/><stop offset="1" stop-color="#eca0aa"/></linearGradient><g><circle cx="258.38" cy="167.471" fill="url(#SVGID_1_)" r="61.732"/><path d="m145.521 147.612-37.672 37.672 79.528 99.923c12.748 16.017 36.599 17.368 51.074 2.893l9.885-9.885c14.475-14.475 13.124-38.327-2.893-51.074z" fill="url(#SVGID_2_)"/><path d="m135.056 174.819c-31.941 31.941-72.315 32.845-102.858 2.302-31.59-31.59-45.956-89.142-14.969-120.129 31.043-31.043 88.604-16.555 120.129 14.969 30.542 30.543 29.639 70.917-2.302 102.858z" fill="url(#SVGID_3_)"/><path d="m118.923 90.396c22.809 22.809 16.556 47.13-2.302 65.988s-43.179 25.111-65.988 2.302-33.827-64.401-14.969-83.259 60.45-7.84 83.259 14.969z" fill="url(#SVGID_4_)"/><path d="m227.125 170.744c-1.02-9.835 2.604-19.023 9.022-25.47 5.223-5.247 6.118-13.397 1.907-19.486-5.37-7.765-16.453-8.78-23.154-2.131-11.848 11.755-18.955 28.279-18.196 46.456 1.323 31.716 27.012 57.542 58.722 59.02 32.275 1.505 59.413-21.789 64-52.456-29.905-8.041-61.253-10.056-92.301-5.933z" fill="#cad1d9"/><path d="m461.842 402.433c0-112.369-91.093-203.462-203.462-203.462s-203.462 91.093-203.462 203.462z" fill="url(#SVGID_5_)"/><g><path d="m185.431 322.955c0 6.629-6.687 12.003-14.937 12.003-8.249 0-14.936-5.374-14.936-12.003s6.687-12.003 14.936-12.003c8.25 0 14.937 5.374 14.937 12.003z" fill="#eaadcd"/><path d="m361.202 322.955c0 6.629-6.687 12.003-14.936 12.003s-14.936-5.374-14.936-12.003 6.687-12.003 14.936-12.003 14.936 5.374 14.936 12.003z" fill="#eaadcd"/><circle cx="196.101" cy="293.337" fill="#fff" r="29.618"/><path d="m225.719 293.337c0 9.749-7.903 17.652-17.652 17.652s-17.652-7.903-17.652-17.652 7.903-17.652 17.652-17.652 17.652 7.903 17.652 17.652z" fill="#3b3b44"/><circle cx="320.659" cy="293.337" fill="#fff" r="29.618"/><g fill="#3b3b44"><path d="m350.214 293.337c0 9.749-7.903 17.652-17.652 17.652s-17.652-7.903-17.652-17.652 7.903-17.652 17.652-17.652 17.652 7.903 17.652 17.652z"/><ellipse cx="258.38" cy="315.789" rx="13.252" ry="17.352"/></g></g><path d="m258.38 462.243c-69.502 0-137.434-3.604-207.677-11.019-22.055-2.328-38.046-22.093-35.718-44.148 2.329-22.055 22.097-38.045 44.148-35.718 67.415 7.116 132.589 10.575 199.247 10.575s131.832-3.459 199.247-10.575c22.057-2.328 41.821 13.663 44.148 35.718 2.328 22.054-13.663 41.819-35.718 44.148-70.243 7.415-138.175 11.019-207.677 11.019z" fill="url(#SVGID_6_)"/><g fill="#ffccd3"><path d="m438.125 438.621c-5.105 0-9.463-3.89-9.945-9.074-.512-5.499 3.532-10.372 9.031-10.883 8.377-.779 16.837-1.619 25.146-2.496 1.294-.137 2.458-.759 3.278-1.754 3.512-4.262 9.814-4.869 14.077-1.355 4.261 3.513 4.868 9.816 1.355 14.077-4.173 5.062-10.072 8.23-16.61 8.921-8.391.886-16.934 1.734-25.393 2.521-.316.029-.629.043-.939.043z"/><path d="m388.447 442.611c-5.215 0-9.61-4.045-9.967-9.326-.373-5.51 3.792-10.279 9.302-10.652 2.759-.186 5.52-.379 8.282-.578 5.517-.405 10.295 3.748 10.691 9.257.396 5.508-3.748 10.295-9.257 10.691-2.79.201-5.58.395-8.367.584-.228.016-.457.024-.684.024z"/></g></g></svg>