<svg id="Capa_1" enable-background="new 0 0 502 502" height="512" viewBox="0 0 502 502" width="512" xmlns="http://www.w3.org/2000/svg" xmlns:xlink="http://www.w3.org/1999/xlink"><linearGradient id="SVGID_1_" gradientUnits="userSpaceOnUse" x1="251" x2="251" y1="435.802" y2="-22.551"><stop offset="0" stop-color="#5bd9bb"/><stop offset=".2532" stop-color="#60dabd"/><stop offset=".5725" stop-color="#70dec4"/><stop offset=".9261" stop-color="#8ae4cf"/><stop offset="1" stop-color="#90e6d2"/></linearGradient><linearGradient id="SVGID_2_" gradientUnits="userSpaceOnUse" x1="458.181" x2="153.827" y1="295.158" y2="295.158"><stop offset="0" stop-color="#dd5c6e"/><stop offset="1" stop-color="#ec8290"/></linearGradient><linearGradient id="SVGID_3_" gradientUnits="userSpaceOnUse" x1="411.954" x2="411.954" y1="207.445" y2="41.799"><stop offset="0" stop-color="#ec6f80"/><stop offset="1" stop-color="#eca0aa"/></linearGradient><g><path d="m487.382 314.43-172.952 172.952c-19.49 19.491-51.091 19.491-70.582 0l-229.23-229.231c-19.49-19.491-19.49-51.091 0-70.582l172.952-172.951c19.49-19.49 51.091-19.49 70.582 0l229.231 229.231c19.49 19.49 19.49 51.091-.001 70.581z" fill="url(#SVGID_1_)"/><path d="m277.3 133.467c-39.747-39.747-104.081-39.751-143.832 0-39.655 39.655-39.655 104.178 0 143.833 39.654 39.653 104.176 39.655 143.832 0 39.655-39.655 39.655-104.178 0-143.833zm-97.939 81.675c-11.768-14.188-23.211-34.545-25.739-61.525 26.978 2.529 47.332 13.977 61.52 25.744zm52.044-19.517c11.768 14.188 23.211 34.544 25.74 61.525-26.979-2.529-47.332-13.977-61.52-25.745zm16.301-16.301 20.862-20.862c17.174 23.096 20.044 53.532 8.628 79.092-5.971-25.888-18.612-45.391-29.49-58.23zm4.609-37.136-20.872 20.872c-12.845-10.888-32.367-23.537-58.294-29.499 25.144-11.298 55.692-8.883 79.166 8.627zm-118.743 31.023c5.972 25.885 18.608 45.395 29.487 58.232l-20.86 20.86c-17.174-23.095-20.044-53.531-8.627-79.092zm24.89 95.357 20.86-20.86c12.835 10.88 32.341 23.518 58.226 29.491-25.558 11.413-55.991 8.541-79.086-8.631z" fill="#fff"/><path d="m113.495 355.47c-28.715 28.715-29.808 75.492-1.468 104.577 28.795 29.552 76.099 29.785 105.186.698l-22.057-22.057c-7.218-7.218-7.218-18.921 0-26.138l235.252-235.252-69.371-69.371z" fill="url(#SVGID_2_)"/><path d="m361.037 107.928-29.536 29.536 44.622 44.622-57.983 57.982c-6.611 6.611-6.858 17.25-.561 24.161 6.724 7.38 18.25 7.648 25.31.588l87.519-87.519z" fill="#d45566"/><path d="m490.011 174.609v-90.505c0-19.76-16.019-35.779-35.779-35.779h-90.505c-26.521 0-39.803 32.065-21.05 50.819l96.515 96.515c18.753 18.753 50.819 5.471 50.819-21.05z" fill="url(#SVGID_3_)"/><g><path d="m314.257 417.423c4.688 4.688 3.759 13.216-2.074 19.05-5.833 5.833-14.362 6.761-19.049 2.074-4.688-4.687-3.759-13.216 2.074-19.049 5.833-5.834 14.362-6.763 19.049-2.075z" fill="#eaadcd"/><path d="m438.546 293.134c4.688 4.688 3.759 13.216-2.074 19.049s-14.362 6.762-19.049 2.074c-4.688-4.688-3.759-13.216 2.074-19.049s14.362-6.762 19.049-2.074z" fill="#eaadcd"/><circle cx="300.859" cy="388.935" fill="#fff" r="29.618"/><path d="m321.802 367.992c6.894 6.894 6.894 18.071 0 24.964-6.894 6.894-18.07 6.894-24.964 0-6.893-6.894-6.893-18.07 0-24.964 6.894-6.894 18.071-6.894 24.964 0z" fill="#3b3b44"/><circle cx="388.935" cy="300.859" fill="#fff" r="29.618"/><g fill="#3b3b44"><path d="m409.834 279.96c6.894 6.894 6.894 18.071 0 24.964-6.894 6.894-18.07 6.894-24.964 0s-6.893-18.07 0-24.964c6.893-6.893 18.07-6.893 24.964 0z"/><ellipse cx="360.773" cy="360.773" rx="13.252" ry="17.352" transform="matrix(.707 -.707 .707 .707 -149.437 360.776)"/></g></g></g></svg>