<svg id="Capa_1" enable-background="new 0 0 502 502" height="512" viewBox="0 0 502 502" width="512" xmlns="http://www.w3.org/2000/svg" xmlns:xlink="http://www.w3.org/1999/xlink"><linearGradient id="SVGID_1_" gradientUnits="userSpaceOnUse" x1="251" x2="251" y1="489.67" y2="133.818"><stop offset="0" stop-color="#d4dbdb"/><stop offset="1" stop-color="#f3f3f3"/></linearGradient><linearGradient id="SVGID_2_" gradientUnits="userSpaceOnUse" x1="251" x2="251" y1="463.653" y2="76.813"><stop offset="0" stop-color="#c5cccc"/><stop offset="1" stop-color="#e6e6e6"/></linearGradient><linearGradient id="SVGID_3_" gradientUnits="userSpaceOnUse" x1="251" x2="251" y1="404.29" y2="129.082"><stop offset="0" stop-color="#5bd9bb"/><stop offset=".2532" stop-color="#60dabd"/><stop offset=".5725" stop-color="#70dec4"/><stop offset=".9261" stop-color="#8ae4cf"/><stop offset="1" stop-color="#90e6d2"/></linearGradient><linearGradient id="SVGID_4_" gradientUnits="userSpaceOnUse" x1="251" x2="251" y1="387.151" y2="131.563"><stop offset="0" stop-color="#41c4a6"/><stop offset=".216" stop-color="#46c6a9"/><stop offset=".4884" stop-color="#56cdb2"/><stop offset=".7898" stop-color="#70d7c0"/><stop offset="1" stop-color="#86e0cd"/></linearGradient><linearGradient id="SVGID_5_" gradientUnits="userSpaceOnUse" x1="235.503" x2="235.503" y1="302.693" y2="239.332"><stop offset="0" stop-color="#f4d952"/><stop offset="1" stop-color="#f9edaf"/></linearGradient><linearGradient id="SVGID_6_" gradientUnits="userSpaceOnUse" x1="251" x2="251" y1="289.543" y2="248.261"><stop offset="0" stop-color="#f4c22c"/><stop offset="1" stop-color="#f9e198"/></linearGradient><linearGradient id="SVGID_7_" gradientUnits="userSpaceOnUse" x1="379.357" x2="379.357" y1="249.355" y2="62.951"><stop offset="0" stop-color="#ec6f80"/><stop offset="1" stop-color="#eca0aa"/></linearGradient><linearGradient id="SVGID_8_" gradientUnits="userSpaceOnUse" x1="379.373" x2="379.373" y1="97.738" y2="173.23"><stop offset="0" stop-color="#f9edaf"/><stop offset="1" stop-color="#fffcdd"/></linearGradient><g><path d="m286.756 451.497-103.296-37.596c-.206-.075-.42-.113-.638-.113s-.432.038-.637.112l-89.056 32.413c-45.527 16.571-93.129-17.42-93.129-65.21v-181.677c0-36.465 23.023-69.345 57.289-81.817l93.112-33.89c20.571-7.487 43.523-7.759 64.842-.001 106.748 38.53 103.079 38.14 104.577 37.597l89.052-32.413c45.526-16.568 93.128 17.421 93.128 65.211v181.677c0 36.465-23.023 69.346-57.29 81.818l-93.11 33.889c-20.405 7.427-43.354 7.821-64.844 0z" fill="url(#SVGID_1_)"/><path d="m319.178 121.429c-.218 0-.434-.037-.638-.112l-103.298-37.598c-10.422-3.793-21.33-5.716-32.42-5.716v335.785c.218 0 .432.038.638.113l103.296 37.596c10.423 3.793 21.331 5.717 32.423 5.717v-335.785z" fill="url(#SVGID_2_)"/><path d="m319.178 206.851c-14.275-24.313-23.493-51.778-23.493-78.379 0-5.116.484-10.115 1.363-14.978l-33.239-12.098c-2.04 8.701-3.123 17.765-3.123 27.076 0 48.867 24.197 99.774 58.493 136.869v-58.49z" fill="#b9bec4"/><path d="m424.763 132.566-89.055 32.413c-5.339 1.943-10.935 2.915-16.53 2.915-56.945 17.981-116.611-20.064-136.357-43.426-5.596 0-11.191.972-16.53 2.915l-93.11 33.889c-16.04 5.838-26.716 21.085-26.716 38.155v181.677c0 15.915 15.817 26.99 30.772 21.547l89.055-32.413c5.339-1.943 10.934-2.915 16.53-2.915 24.948-20.911 112.864 7.704 136.357 43.426 5.596 0 11.191-.972 16.53-2.915l93.11-33.889c16.04-5.838 26.716-21.085 26.716-38.155v-181.677c0-15.915-15.817-26.99-30.772-21.547z" fill="url(#SVGID_3_)"/><path d="m413.888 241.539c-5.415 5.87-11.083 11.287-16.899 16.148-10.162 8.492-24.914 8.602-35.086.122-21.632-18.035-41.222-43.769-53.387-71.934l-26.3 26.3c14.194 28.033 34.357 53.417 57.304 72.54 22.561 18.802 56.252 19.602 79.914-.173 7.11-5.941 13.853-12.4 20.187-19.264 6.37-6.904 6.149-17.611-.493-24.253-7.032-7.031-18.498-6.795-25.24.514z" fill="#12c7aa"/><path d="m262.233 150.27-62.882-22.887c-5.339-1.943-10.934-2.915-16.53-2.915v242.854c5.596 0 11.191.972 16.53 2.915l103.297 37.597c5.339 1.943 10.934 2.915 16.53 2.915v-145.408c-11.159-28.795-34.342-79.466-56.945-115.071z" fill="url(#SVGID_4_)"/><path d="m319.178 265.341v-58.49c-7.891-13.439-14.237-27.838-18.331-42.527l-38.614-14.054c5.843 41.847 27.73 83.47 56.945 115.071z" fill="#00b094"/><path d="m319.029 264.866c-29.39 7.122-116.526-20.106-136.207-44.477-7.571 0-15.141 1.311-22.347 3.934l-47.511 17.293c-12.975 4.722-19.665 19.068-14.942 32.042 4.722 12.974 19.068 19.664 32.042 14.942l47.512-17.292c1.691-.616 3.468-.924 5.245-.924 27.042-6.272 118.248 26.792 136.357 44.444 7.57 0 15.142-1.311 22.347-3.934l32.974-12.001c-6.721-10.035-35.288-31.05-55.47-34.027z" fill="url(#SVGID_5_)"/><path d="m389.037 293.601c12.974-4.722 19.664-19.068 14.941-32.043-.902-2.478-2.157-4.725-3.685-6.709-7.026 0-38.197-2.369-44.468-2.369l-31.402 11.429c-1.843.671-3.788.963-5.724.902 6.597 7.181 13.567 13.859 20.82 19.904 10.069 8.392 22.357 13.186 34.98 14.177z" fill="#efc534"/><path d="m319.178 314.828v-49.995c-1.777 0-3.554-.308-5.246-.923l-108.764-39.586c-7.206-2.623-14.776-3.934-22.347-3.934v49.995c1.777 0 3.554.308 5.246.924l108.764 39.586c7.206 2.621 14.777 3.933 22.347 3.933z" fill="url(#SVGID_6_)"/><path d="m396.99 257.686c34.54-28.864 63.872-77.338 65.952-123.965 2.144-48.055-35.607-89.015-83.709-88.937-46.155.076-83.547 37.515-83.547 83.687 0 48.281 30.328 99.428 66.241 129.358 10.158 8.466 24.917 8.336 35.063-.143z" fill="url(#SVGID_7_)"/><circle cx="379.373" cy="128.471" fill="url(#SVGID_8_)" r="40.474"/></g></svg>