<svg id="Capa_1" enable-background="new 0 0 502 502" height="512" viewBox="0 0 502 502" width="512" xmlns="http://www.w3.org/2000/svg" xmlns:xlink="http://www.w3.org/1999/xlink"><linearGradient id="SVGID_1_" gradientUnits="userSpaceOnUse" x1="251" x2="251" y1="74.361" y2="4.515"><stop offset="0" stop-color="#c5cccc"/><stop offset="1" stop-color="#e6e6e6"/></linearGradient><linearGradient id="lg1"><stop offset="0" stop-color="#4e5660"/><stop offset="1" stop-color="#64768d"/></linearGradient><linearGradient id="SVGID_2_" gradientUnits="userSpaceOnUse" x1="122.991" x2="122.991" xlink:href="#lg1" y1="363.007" y2="483.113"/><linearGradient id="SVGID_3_" gradientUnits="userSpaceOnUse" x1="379.009" x2="379.009" xlink:href="#lg1" y1="363.007" y2="483.113"/><linearGradient id="SVGID_4_" gradientUnits="userSpaceOnUse" x1="251" x2="251" y1="221.903" y2="64.589"><stop offset="0" stop-color="#f4c22c"/><stop offset="1" stop-color="#f9e198"/></linearGradient><linearGradient id="SVGID_5_" gradientUnits="userSpaceOnUse" x1="251" x2="251" y1="91.029" y2="192.247"><stop offset="0" stop-color="#74d2e8"/><stop offset="1" stop-color="#baeaf5"/></linearGradient><linearGradient id="SVGID_6_" gradientUnits="userSpaceOnUse" x1="-8.115" x2="498.007" y1="317.955" y2="317.955"><stop offset="0" stop-color="#f4d952"/><stop offset="1" stop-color="#f9edaf"/></linearGradient><linearGradient id="SVGID_7_" gradientUnits="userSpaceOnUse" x1="251" x2="251" xlink:href="#lg1" y1="355.65" y2="295.863"/><linearGradient id="lg2"><stop offset="0" stop-color="#ec6f80"/><stop offset="1" stop-color="#eca0aa"/></linearGradient><linearGradient id="SVGID_8_" gradientUnits="userSpaceOnUse" x1="96.476" x2="96.476" xlink:href="#lg2" y1="342.211" y2="286.721"/><linearGradient id="SVGID_9_" gradientTransform="matrix(-1 0 0 1 102 0)" gradientUnits="userSpaceOnUse" x1="-303.524" x2="-303.524" xlink:href="#lg2" y1="342.211" y2="286.721"/><linearGradient id="SVGID_10_" gradientUnits="userSpaceOnUse" x1="251" x2="251" y1="426.548" y2="347.552"><stop offset="0" stop-color="#d4dbdb"/><stop offset="1" stop-color="#f3f3f3"/></linearGradient><g><path d="m293.695 0h-85.391c-18.857 0-35.086 13.325-38.756 31.821l-13.062 65.827h189.026l-13.062-65.827c-3.669-18.496-19.898-31.821-38.755-31.821z" fill="url(#SVGID_1_)"/><path d="m139.284 502h-32.587c-24.954 0-45.183-20.229-45.183-45.183v-82.734h122.954v82.734c-.001 24.954-20.23 45.183-45.184 45.183z" fill="url(#SVGID_2_)"/><path d="m61.514 438.15c.352.004.699.027 1.051.027h82.461c8.204 13.744 22.349 23.547 38.863 25.841.376-2.346.578-4.749.578-7.201v-82.734h-122.953z" fill="#424e5e"/><path d="m362.716 502h32.587c24.954 0 45.183-20.229 45.183-45.183v-82.734h-122.953v82.734c0 24.954 20.229 45.183 45.183 45.183z" fill="url(#SVGID_3_)"/><path d="m451.892 348.223h-401.783l44.435-221.761c6.291-31.398 33.865-53.995 65.887-53.995h181.138c32.023 0 59.596 22.597 65.887 53.995z" fill="url(#SVGID_4_)"/><path d="m110.114 300.574 32.362-161.513c2.201-10.977 11.923-18.945 23.118-18.945h170.813c11.195 0 20.917 7.968 23.118 18.946l32.362 161.511h-281.773z" fill="url(#SVGID_5_)"/><path d="m439.435 408.176c28.143 0 50.957-22.814 50.957-50.957v-68.023c0-27.452-20.623-50.568-47.91-53.572-37.224-4.098-98.252-7.889-191.482-7.889s-154.258 3.791-191.482 7.889c-27.287 3.004-47.91 26.12-47.91 53.572v68.023c0 28.143 22.814 50.957 50.957 50.957z" fill="url(#SVGID_6_)"/><path d="m283.854 291.999h-65.709c-19.159 0-34.691 15.532-34.691 34.691v48.893h135.09v-48.893c.001-19.16-15.53-34.691-34.69-34.691z" fill="url(#SVGID_7_)"/><ellipse cx="96.476" cy="321.923" fill="url(#SVGID_8_)" rx="42.116" ry="38.789"/><ellipse cx="405.524" cy="321.923" fill="url(#SVGID_9_)" rx="42.116" ry="38.789"/><path d="m310.657 354.406h-119.314c-13.198 0-23.896 10.699-23.896 23.896v32.336c0 13.198 10.699 23.896 23.896 23.896h119.314c13.198 0 23.896-10.699 23.896-23.896v-32.336c0-13.197-10.698-23.896-23.896-23.896z" fill="url(#SVGID_10_)"/><path d="m398.024 408.176h-63.47v2.461c0 10.807-7.176 19.934-17.021 22.887v23.292c0 2.452.202 4.855.578 7.201 16.514-2.295 30.66-12.097 38.863-25.841h41.05c8.284 0 15-6.716 15-15 0-8.284-6.716-15-15-15z" fill="#424e5e"/><g><ellipse cx="163.114" cy="198.911" fill="#eaadcd" rx="14.936" ry="12.003"/><ellipse cx="338.886" cy="198.911" fill="#eaadcd" rx="14.936" ry="12.003"/><circle cx="188.721" cy="169.293" fill="#fff" r="29.618"/><circle cx="313.279" cy="169.293" fill="#fff" r="29.618"/><g fill="#3b3b44"><g><circle cx="188.721" cy="169.293" r="17.652"/><circle cx="313.279" cy="169.293" r="17.652"/></g><path d="m251 199.853c-5.247 0-10.495-1.984-14.775-5.954-2.025-1.877-2.145-5.041-.267-7.066 1.876-2.025 5.042-2.144 7.065-.267 4.697 4.354 11.256 4.354 15.953 0 2.024-1.877 5.188-1.759 7.065.267 1.878 2.025 1.759 5.189-.267 7.066-4.279 3.97-9.527 5.954-14.774 5.954z"/></g></g><g fill="#fff6bd"><path d="m390.217 175.05c-4.668 0-8.842-3.285-9.794-8.037l-1.913-9.548c-1.086-5.415 2.425-10.685 7.84-11.77 5.416-1.083 10.685 2.425 11.77 7.84l1.913 9.548c1.086 5.415-2.425 10.685-7.84 11.77-.664.133-1.325.197-1.976.197z"/><path d="m376.381 126.139c-3.17 0-6.288-1.504-8.229-4.307-5.094-7.355-12.612-12.762-21.169-15.226-5.308-1.528-8.371-7.069-6.843-12.376s7.073-8.37 12.376-6.843c12.975 3.735 24.366 11.924 32.077 23.058 3.145 4.541 2.014 10.77-2.527 13.915-1.737 1.202-3.721 1.779-5.685 1.779z"/></g></g></svg>