<svg id="Capa_1" enable-background="new 0 0 502 502" height="512" viewBox="0 0 502 502" width="512" xmlns="http://www.w3.org/2000/svg" xmlns:xlink="http://www.w3.org/1999/xlink"><linearGradient id="lg1"><stop offset="0" stop-color="#c5cccc"/><stop offset="1" stop-color="#e6e6e6"/></linearGradient><linearGradient id="SVGID_1_" gradientUnits="userSpaceOnUse" x1="251" x2="251" xlink:href="#lg1" y1="168.094" y2="93.395"/><linearGradient id="lg2"><stop offset="0" stop-color="#74d2e8"/><stop offset="1" stop-color="#baeaf5"/></linearGradient><linearGradient id="SVGID_2_" gradientUnits="userSpaceOnUse" x1="108.909" x2="108.909" xlink:href="#lg2" y1="311.371" y2="422.088"/><linearGradient id="lg3"><stop offset="0" stop-color="#4e5660"/><stop offset="1" stop-color="#64768d"/></linearGradient><linearGradient id="SVGID_3_" gradientUnits="userSpaceOnUse" x1="108.909" x2="108.909" xlink:href="#lg3" y1="331.296" y2="383.912"/><linearGradient id="SVGID_4_" gradientTransform="matrix(-1 0 0 1 902 0)" gradientUnits="userSpaceOnUse" x1="508.909" x2="508.909" xlink:href="#lg2" y1="311.371" y2="422.088"/><linearGradient id="SVGID_5_" gradientTransform="matrix(-1 0 0 1 902 0)" gradientUnits="userSpaceOnUse" x1="508.909" x2="508.909" xlink:href="#lg3" y1="331.296" y2="383.912"/><linearGradient id="SVGID_6_" gradientUnits="userSpaceOnUse" x1="161.083" x2="-5.236" xlink:href="#lg1" y1="270.431" y2="270.431"/><linearGradient id="SVGID_7_" gradientTransform="matrix(-1 0 0 1 902 0)" gradientUnits="userSpaceOnUse" x1="561.083" x2="394.764" xlink:href="#lg1" y1="270.431" y2="270.431"/><linearGradient id="SVGID_8_" gradientUnits="userSpaceOnUse" x1="251" x2="251" y1="408.574" y2="167.53"><stop offset="0" stop-color="#d4dbdb"/><stop offset="1" stop-color="#f3f3f3"/></linearGradient><linearGradient id="SVGID_9_" gradientUnits="userSpaceOnUse" x1="251" x2="251" xlink:href="#lg3" y1="333.665" y2="272.264"/><linearGradient id="SVGID_10_" gradientTransform="matrix(-1 0 0 1 902 0)" gradientUnits="userSpaceOnUse" x1="651" x2="651" xlink:href="#lg2" y1="291.183" y2="179.906"/><g><path d="m255.368 94.916h-8.737c-13.409 0-24.877 9.639-27.185 22.848l-10.809 61.877h84.725l-10.809-61.877c-2.307-13.209-13.776-22.848-27.185-22.848z" fill="url(#SVGID_1_)"/><ellipse cx="108.909" cy="354.407" fill="url(#SVGID_2_)" rx="55.982" ry="52.676"/><ellipse cx="108.909" cy="354.407" fill="url(#SVGID_3_)" rx="28.309" ry="26.638"/><ellipse cx="393.091" cy="354.407" fill="url(#SVGID_4_)" rx="55.982" ry="52.676"/><ellipse cx="393.091" cy="354.407" fill="url(#SVGID_5_)" rx="28.309" ry="26.638"/><path d="m32.966 318.141h208.659v-95.42l-213.222 29.804c-16.286 2.277-28.403 16.206-28.403 32.649 0 18.207 14.759 32.967 32.966 32.967z" fill="url(#SVGID_6_)"/><path d="m87.535 244.26c-3.901 14.902-5.413 29.781-4.534 43.881h-26.212c-8.284 0-15 6.716-15 15 0 8.284 6.716 15 15 15h184.837v-95.42z" fill="#b9bec4"/><path d="m469.034 318.141h-208.66v-95.42l213.223 29.805c16.286 2.276 28.403 16.205 28.403 32.648 0 18.207-14.759 32.967-32.966 32.967z" fill="url(#SVGID_7_)"/><path d="m389.241 280.521c0-61.171-55.052-131.658-138.241-131.658s-138.241 70.487-138.241 131.658 61.893 110.759 138.241 110.759 138.241-49.588 138.241-110.759z" fill="url(#SVGID_8_)"/><ellipse cx="251" cy="299.731" fill="url(#SVGID_9_)" rx="43.624" ry="37.368"/><path d="m251 291.183c30.449 0 70.082-13.832 94.074-26.917 12.136-6.619 16.535-21.836 9.887-33.956-3.773-6.879-8.123-14.013-12.361-20.079-5.602-8.018-14.775-12.778-24.556-12.778h-134.087c-9.781 0-18.954 4.76-24.556 12.778-4.238 6.066-8.589 13.201-12.361 20.079-6.648 12.12-2.249 27.337 9.887 33.956 23.991 13.086 63.624 26.917 94.073 26.917z" fill="url(#SVGID_10_)"/><g><ellipse cx="163.114" cy="267.767" fill="#eaadcd" rx="14.936" ry="12.003"/><ellipse cx="338.886" cy="267.767" fill="#eaadcd" rx="14.936" ry="12.003"/><path d="m188.721 242.115c7.183 0 13.813 1.589 19.159 4.273 4.544 2.281 9.962-.801 10.365-5.87.113-1.423.125-2.875.029-4.348-.991-15.146-13.602-27.24-28.775-27.629-16.713-.428-30.396 12.992-30.396 29.608 0 .843.036 1.678.105 2.503.422 5.01 5.857 7.994 10.349 5.738 5.348-2.684 11.979-4.275 19.164-4.275z" fill="#fff"/><path d="m251 277.953c-6.447 0-12.894-2.155-18.274-6.465-4.989-3.997-5.794-11.282-1.797-16.271 3.997-4.99 11.282-5.793 16.271-1.797 2.237 1.792 5.361 1.792 7.598 0 4.988-3.997 12.273-3.193 16.271 1.797 3.997 4.989 3.193 12.274-1.797 16.271-5.378 4.311-11.825 6.465-18.272 6.465z" fill="#3b3b44"/><path d="m188.721 242.115c5.926 0 11.473 1.082 16.237 2.967.911-2.129 1.415-4.47 1.415-6.933 0-9.749-7.903-17.652-17.652-17.652s-17.652 7.903-17.652 17.652c0 2.463.504 4.803 1.415 6.933 4.764-1.885 10.312-2.967 16.237-2.967z" fill="#3b3b44"/><path d="m313.279 242.115c7.183 0 13.813 1.589 19.159 4.273 4.544 2.281 9.962-.801 10.365-5.87.113-1.423.125-2.875.029-4.348-.991-15.146-13.602-27.24-28.775-27.629-16.713-.428-30.396 12.992-30.396 29.608 0 .843.036 1.678.105 2.503.422 5.01 5.857 7.994 10.349 5.738 5.347-2.684 11.979-4.275 19.164-4.275z" fill="#fff"/><path d="m313.279 242.115c5.926 0 11.474 1.082 16.237 2.967.911-2.129 1.415-4.47 1.415-6.933 0-9.749-7.903-17.652-17.652-17.652s-17.652 7.903-17.652 17.652c0 2.463.504 4.803 1.415 6.933 4.763-1.885 10.311-2.967 16.237-2.967z" fill="#3b3b44"/></g><g fill="#fff"><path d="m310.451 363.415c-3.745 0-7.335-2.113-9.044-5.721-2.365-4.991-.235-10.954 4.756-13.318 1.806-.855 3.605-1.768 5.347-2.712 4.854-2.631 10.925-.829 13.557 4.027 2.631 4.855.829 10.925-4.027 13.557-2.059 1.116-4.184 2.193-6.314 3.203-1.383.654-2.84.964-4.275.964z"/><path d="m347.077 335.66c-2.244 0-4.501-.751-6.366-2.293-4.256-3.519-4.854-9.822-1.336-14.079 5.758-6.965 9.912-14.474 12.347-22.318 1.637-5.274 7.239-8.226 12.515-6.585 5.274 1.638 8.223 7.241 6.586 12.515-3.212 10.346-8.607 20.147-16.033 29.131-1.977 2.392-4.834 3.629-7.713 3.629z"/></g></g></svg>