<svg id="Capa_1" enable-background="new 0 0 502 502" height="512" viewBox="0 0 502 502" width="512" xmlns="http://www.w3.org/2000/svg" xmlns:xlink="http://www.w3.org/1999/xlink"><linearGradient id="lg1"><stop offset="0" stop-color="#4e5660"/><stop offset="1" stop-color="#64768d"/></linearGradient><linearGradient id="SVGID_1_" gradientTransform="matrix(-1 0 0 1 702 0)" gradientUnits="userSpaceOnUse" x1="325.444" x2="325.444" xlink:href="#lg1" y1="420.786" y2="508.864"/><linearGradient id="SVGID_2_" gradientUnits="userSpaceOnUse" x1="251" x2="251" xlink:href="#lg1" y1="227.389" y2="0"/><linearGradient id="SVGID_3_" gradientUnits="userSpaceOnUse" x1="251" x2="251" y1="424.597" y2="104.821"><stop offset="0" stop-color="#ec6f80"/><stop offset="1" stop-color="#eca0aa"/></linearGradient><linearGradient id="SVGID_4_" gradientUnits="userSpaceOnUse" x1="251" x2="251" y1="217.971" y2="95.188"><stop offset="0" stop-color="#dd5c6e"/><stop offset="1" stop-color="#ec8290"/></linearGradient><linearGradient id="SVGID_5_" gradientTransform="matrix(.707 -.707 .707 .707 -276.558 509.32)" gradientUnits="userSpaceOnUse" x1="600.908" x2="600.908" y1="386.209" y2="323.009"><stop offset="0" stop-color="#f9edaf"/><stop offset="1" stop-color="#fffcdd"/></linearGradient><linearGradient id="SVGID_6_" gradientUnits="userSpaceOnUse" x1="53.864" x2="53.864" y1="298.683" y2="198.365"><stop offset="0" stop-color="#f4d952"/><stop offset="1" stop-color="#f9edaf"/></linearGradient><linearGradient id="SVGID_7_" gradientUnits="userSpaceOnUse" x1="125.444" x2="125.444" xlink:href="#lg1" y1="420.786" y2="508.864"/><g><g><circle cx="376.556" cy="453.259" fill="url(#SVGID_1_)" r="48.741"/><path d="m361.221 227.389c-17.031 0-30.837-13.806-30.837-30.838v-113.45c0-11.815-9.611-21.426-21.426-21.426h-115.916c-11.815 0-21.426 9.611-21.426 21.426v113.451c0 17.031-13.806 30.838-30.837 30.838s-30.837-13.806-30.837-30.838v-113.451c0-45.822 37.279-83.101 83.1-83.101h115.915c45.822 0 83.101 37.279 83.101 83.101v113.451c0 17.031-13.806 30.837-30.837 30.837z" fill="url(#SVGID_2_)"/><path d="m412.932 123.749h-55.237l-106.695 24.494-106.696-24.494h-55.236c-32.056 0-58.043 25.987-58.043 58.043v18.685l10.633 45.678-10.633 45.678v80.454c0 32.056 25.987 58.043 58.043 58.043h323.865c32.056 0 58.043-25.987 58.043-58.043v-190.495c-.001-32.056-25.988-58.043-58.044-58.043z" fill="url(#SVGID_3_)"/><path d="m357.695 123.749h-213.39l11.955 60.644c3.361 17.047 18.309 29.336 35.684 29.336h118.111c17.375 0 32.324-12.289 35.684-29.336z" fill="url(#SVGID_4_)"/></g><g><path d="m448.579 330.359-54.295 54.295c-6.739 6.739-17.666 6.739-24.405 0l-20.284-20.284c-6.739-6.739-6.739-17.666 0-24.405l54.295-54.295c6.739-6.739 17.666-6.739 24.405 0l20.284 20.284c6.74 6.739 6.74 17.666 0 24.405z" fill="url(#SVGID_5_)"/><path d="m375.939 358.311c-4.491-4.491-4.491-11.772 0-16.264l30.035-30.035c4.492-4.492 11.773-4.491 16.264 0s4.491 11.772 0 16.264l-30.035 30.035c-4.491 4.491-11.773 4.491-16.264 0z" fill="#efc534"/></g><g><path d="m178.051 294.047c0 6.629-6.687 12.003-14.937 12.003-8.249 0-14.936-5.374-14.936-12.003s6.687-12.004 14.936-12.004c8.25 0 14.937 5.375 14.937 12.004z" fill="#efc5db"/><path d="m353.822 294.047c0 6.629-6.687 12.003-14.936 12.003s-14.936-5.374-14.936-12.003 6.687-12.004 14.936-12.004 14.936 5.375 14.936 12.004z" fill="#efc5db"/><circle cx="188.721" cy="264.429" fill="#fff" r="29.618"/><ellipse cx="176.756" cy="264.429" fill="#3b3b44" rx="17.652" ry="17.652" transform="matrix(.707 -.707 .707 .707 -135.209 202.435)"/><circle cx="313.279" cy="264.429" fill="#fff" r="29.618"/><g fill="#3b3b44"><ellipse cx="301.313" cy="264.429" rx="17.652" ry="17.652" transform="matrix(.926 -.379 .379 .926 -77.683 133.76)"/><path d="m258.59 271.623h-15.18c-3.007 0-5.658 1.976-6.506 4.862-2.672 9.09-5.742 27.748 14.097 27.748 19.838 0 16.769-18.659 14.096-27.748-.849-2.886-3.499-4.862-6.507-4.862z"/></g></g><path d="m31.025 291.833c25.227 0 45.678-20.451 45.678-45.678s-20.451-45.678-45.678-45.678z" fill="url(#SVGID_6_)"/><circle cx="125.444" cy="453.259" fill="url(#SVGID_7_)" r="48.741"/><path d="m209.589 395.331h-120.521c-12.726 0-23.043-10.317-23.043-23.043v-27.018c0-9.665-7.835-17.5-17.5-17.5-9.665 0-17.5 7.835-17.5 17.5v27.018c0 32.056 25.987 58.043 58.043 58.043h120.521c9.665 0 17.5-7.835 17.5-17.5 0-9.666-7.835-17.5-17.5-17.5z" fill="#e05d6f"/></g></svg>