<svg id="Capa_1" enable-background="new 0 0 502 502" height="512" viewBox="0 0 502 502" width="512" xmlns="http://www.w3.org/2000/svg" xmlns:xlink="http://www.w3.org/1999/xlink"><linearGradient id="lg1"><stop offset="0" stop-color="#74d2e8"/><stop offset="1" stop-color="#baeaf5"/></linearGradient><linearGradient id="SVGID_1_" gradientUnits="userSpaceOnUse" x1="97.277" x2="97.277" xlink:href="#lg1" y1="263.18" y2="164.03"/><linearGradient id="SVGID_2_" gradientUnits="userSpaceOnUse" x1="260.924" x2="260.924" y1="473.534" y2="205.866"><stop offset="0" stop-color="#5bd9bb"/><stop offset=".2532" stop-color="#60dabd"/><stop offset=".5725" stop-color="#70dec4"/><stop offset=".9261" stop-color="#8ae4cf"/><stop offset="1" stop-color="#90e6d2"/></linearGradient><linearGradient id="SVGID_3_" gradientUnits="userSpaceOnUse" x1="182.487" x2="416.153" y1="128.599" y2="128.599"><stop offset="0" stop-color="#f9edaf"/><stop offset="1" stop-color="#fffcdd"/></linearGradient><linearGradient id="SVGID_4_" gradientUnits="userSpaceOnUse" x1="382.54" x2="382.54" xlink:href="#lg1" y1="466.258" y2="265.893"/><g><path d="m119.452 116.955c-22.444 0-42.581 9.406-56.342 24.309-2.645 2.864-6.253 4.707-10.146 4.914-29.646 1.575-52.964 25.096-52.964 53.556 0 35.983 36.003 60.833 70.712 51.837 5.165-1.339 10.61-.913 15.432 1.373 10.037 4.758 21.342 7.44 33.308 7.44 41.478 0 75.103-32.108 75.103-71.714s-33.625-71.715-75.103-71.715z" fill="url(#SVGID_1_)"/><path d="m361.208 161.73c-34.69-11.129-71.158-15.516-105.72-15.516s-71.032 4.388-105.722 15.517c-40.035 59.345-76.438 139.796-97.013 212.588-7.656 27.085 12.706 53.98 40.852 53.98h140.743l122.565-13.943 113.808 13.943c-14.65-84.144-59.215-192.013-109.513-266.569z" fill="url(#SVGID_2_)"/><path d="m102.103 171.653c-15.786 26.549-29.965 54.515-42.113 81.626 3.494-.229 7.013-.761 10.52-1.656 5.283-1.348 10.903-.904 15.837 1.416 3.322 1.562 6.784 2.892 10.36 3.979 10.974-23.609 22.936-46.427 35.469-67.481 5.152-8.655 1.91-19.86-7.047-24.467-8.211-4.222-18.308-1.352-23.026 6.583z" fill="#17c5d9"/><path d="m323.235 287.394c-1.369 3.316-2.589 6.71-3.651 10.175-65.6 10.383-104.465 72.666-87.621 130.729h37.29c-3.964-8.476-6.174-17.823-6.174-27.652 0-37.706 32.147-67.776 71.297-69.437 8.173-.347 14.992-6.354 16.475-14.399 1.019-5.528 2.62-10.869 4.741-15.97 3.201-7.698.411-16.587-6.535-21.198-9.136-6.064-21.638-2.385-25.822 7.752z" fill="#12c7aa"/><path d="m255.488 73.701c-32.525 0-70.527 35.859-105.722 88.029 37.272 2.763 71.16 21.766 105.722 21.766s68.449-19.003 105.72-21.766c-35.194-52.168-73.195-88.029-105.72-88.029z" fill="url(#SVGID_3_)"/><path d="m502 289.226c0-14.297-8.164-27.441-21.127-33.473-12.211-5.681-25.993-8.879-40.581-8.879-44.886 0-82.225 30.287-89.472 70.11-1.453 7.983-8.335 13.881-16.442 14.225-39.151 1.66-71.299 31.73-71.299 69.437 0 9.83 2.21 19.177 6.174 27.652h202.84c16.518 0 29.908-13.39 29.908-29.908v-109.164z" fill="url(#SVGID_4_)"/><path d="m417.799 381.923c-8.116-12.588-21.398-22.635-37.401-28.292-5.988-2.117-9.127-8.687-7.011-14.675 2.117-5.988 8.685-9.125 14.675-7.01 20.781 7.345 38.207 20.668 49.067 37.514 3.441 5.338 1.904 12.455-3.434 15.897-5.303 3.42-12.433 1.939-15.896-3.434z" fill="#17c5d9"/><g><path d="m182.539 251.494c0 6.629-6.687 12.003-14.936 12.003s-14.936-5.374-14.936-12.003 6.687-12.003 14.936-12.003 14.936 5.374 14.936 12.003z" fill="#eaadcd"/><path d="m358.31 251.494c0 6.629-6.687 12.003-14.936 12.003s-14.936-5.374-14.936-12.003 6.687-12.003 14.936-12.003 14.936 5.374 14.936 12.003z" fill="#eaadcd"/><circle cx="193.21" cy="221.876" fill="#fff" r="29.618"/><ellipse cx="181.244" cy="221.876" fill="#3b3b44" rx="17.652" ry="17.652" transform="matrix(.707 -.707 .707 .707 -103.805 193.145)"/><circle cx="317.767" cy="221.876" fill="#fff" r="29.618"/><g fill="#3b3b44"><ellipse cx="305.802" cy="221.876" rx="17.652" ry="17.652" transform="matrix(.173 -.985 .985 .173 34.32 484.634)"/><path d="m263.079 229.07h-15.181c-3.007 0-5.658 1.976-6.506 4.862-2.672 9.09-5.742 27.748 14.097 27.748 19.838 0 16.769-18.659 14.097-27.748-.849-2.885-3.5-4.862-6.507-4.862z"/></g></g></g></svg>