<svg id="Capa_1" enable-background="new 0 0 502 502" height="512" viewBox="0 0 502 502" width="512" xmlns="http://www.w3.org/2000/svg" xmlns:xlink="http://www.w3.org/1999/xlink"><linearGradient id="SVGID_1_" gradientUnits="userSpaceOnUse" x1="251" x2="251" y1="93.358" y2="19.116"><stop offset="0" stop-color="#4e5660"/><stop offset="1" stop-color="#64768d"/></linearGradient><linearGradient id="SVGID_2_" gradientUnits="userSpaceOnUse" x1="251" x2="251" y1="266.282" y2="62.077"><stop offset="0" stop-color="#d4dbdb"/><stop offset="1" stop-color="#f3f3f3"/></linearGradient><linearGradient id="lg1"><stop offset="0" stop-color="#74d2e8"/><stop offset="1" stop-color="#baeaf5"/></linearGradient><linearGradient id="SVGID_3_" gradientUnits="userSpaceOnUse" x1="251" x2="251" xlink:href="#lg1" y1="182.411" y2="103.471"/><linearGradient id="SVGID_5_" gradientUnits="userSpaceOnUse" x1="251" x2="251" y1="358.774" y2="177.15"><stop offset="0" stop-color="#ec6f80"/><stop offset="1" stop-color="#eca0aa"/></linearGradient><linearGradient id="SVGID_6_" gradientUnits="userSpaceOnUse" x1="251" x2="251" xlink:href="#lg1" y1="516.795" y2="339.797"/><g><path d="m304.032 0h-106.064c-19.89 0-36.013 16.124-36.013 36.013v32.103l89.045 15.416 89.045-15.415v-32.104c0-19.889-16.124-36.013-36.013-36.013z" fill="url(#SVGID_1_)"/><path d="m346.737 68.117h-191.474c-28.472 0-51.553 23.081-51.553 51.553v122.464h294.581v-122.464c0-28.472-23.081-51.553-51.554-51.553z" fill="url(#SVGID_2_)"/><path d="m251 137.64c-21.153 0-52.749 10.297-96.593 31.479-16.376 7.911-34.054 17.236-50.698 26.656v46.359h147.291z" fill="#cad1d9"/><path d="m276.178 53.117c0-8.284-6.716-15-15-15h-99.223v30h99.223c8.285 0 15-6.716 15-15z" fill="#424e5e"/><path d="m320.322 108.976h-138.644c-12.467 0-22.574 10.107-22.574 22.574v33.54c0 12.467 10.107 22.574 22.574 22.574h138.645c12.467 0 22.574-10.107 22.574-22.574v-33.54c0-12.467-10.107-22.574-22.575-22.574z" fill="url(#SVGID_3_)"/><path d="m320.322 108.976h-138.644c-12.467 0-22.574 10.107-22.574 22.574v33.54c0 .588.03 1.169.074 1.746 16.064 4.287 26.507 20.828 26.507 20.828h134.639c12.467 0 22.574-10.107 22.574-22.574v-33.54c-.001-12.468-10.108-22.574-22.576-22.574z" fill="url(#SVGID_3_)"/><path d="m302.373 166.909c3.771-8.109-.355-17.689-8.827-20.552-17.274-5.838-31.371-8.717-42.546-8.717-20.377 0-50.45 9.56-91.823 29.196.892 11.65 10.621 20.828 22.5 20.828h4.006c26.383-11.731 50.589-20.024 65.316-20.024 8.36 0 19.776 2.675 32.91 7.133 7.267 2.466 15.229-.906 18.464-7.864z" fill="#17c5d9"/><path d="m374.679 441.806c15.913-22.102 54.373-99.387 65.41-154.316 3.245-16.152-3.585-32.661-17.313-41.769-42.398-28.131-135.631-78.081-171.776-78.081s-129.378 49.95-171.776 78.081c-13.728 9.108-20.558 25.617-17.313 41.769 11.037 54.929 49.497 132.214 65.41 154.316z" fill="url(#SVGID_5_)"/><path d="m468.352 373.248-26.446-17.095c-19.473-12.587-44.516-12.587-63.989 0l-15.467 9.998c-19.473 12.587-44.516 12.587-63.989 0l-15.467-9.998c-19.473-12.587-44.516-12.587-63.989 0l-15.467 9.998c-19.473 12.587-44.516 12.587-63.989 0l-15.467-9.998c-19.473-12.587-44.516-12.587-63.989 0l-26.446 17.095c-13.102 8.47-21.015 23.006-21.015 38.608v22.853c0 37.164 30.128 67.292 67.292 67.292h342.15c37.165 0 67.292-30.128 67.292-67.292v-22.853c.001-15.602-7.912-30.139-21.014-38.608z" fill="url(#SVGID_6_)"/><path d="m329.885 438.218c-13.313 0-26.624-3.754-38.238-11.262-5.334-3.448-6.862-10.567-3.415-15.901 3.449-5.333 10.568-6.862 15.901-3.415 15.643 10.111 35.86 10.112 51.503 0 5.333-3.448 12.452-1.92 15.901 3.415 3.447 5.334 1.919 12.453-3.415 15.901-11.614 7.508-24.926 11.262-38.237 11.262z" fill="#17c5d9"/><path d="m172.115 438.218c-13.312 0-26.623-3.754-38.237-11.262-5.334-3.448-6.862-10.567-3.415-15.901 3.449-5.333 10.567-6.862 15.901-3.415 15.643 10.112 35.861 10.111 51.503 0 5.334-3.448 12.452-1.92 15.901 3.415 3.447 5.334 1.919 12.453-3.415 15.901-11.614 7.508-24.925 11.262-38.238 11.262z" fill="#17c5d9"/><g><ellipse cx="163.114" cy="287.634" fill="#efc5db" rx="14.936" ry="12.003"/><ellipse cx="338.886" cy="287.634" fill="#efc5db" rx="14.936" ry="12.003"/><path d="m188.721 261.982c7.183 0 13.813 1.589 19.159 4.273 4.544 2.281 9.962-.802 10.365-5.87.113-1.423.125-2.875.029-4.348-.991-15.146-13.602-27.24-28.775-27.629-16.713-.428-30.396 12.992-30.396 29.608 0 .843.036 1.678.105 2.503.422 5.01 5.857 7.995 10.349 5.738 5.348-2.684 11.979-4.275 19.164-4.275z" fill="#fff"/><path d="m251 297.82c-6.447 0-12.894-2.155-18.274-6.465-4.989-3.997-5.794-11.282-1.797-16.271 3.997-4.99 11.282-5.793 16.271-1.797 2.237 1.792 5.361 1.792 7.598 0 4.988-3.997 12.273-3.193 16.271 1.797 3.997 4.989 3.193 12.274-1.797 16.271-5.378 4.311-11.825 6.465-18.272 6.465z" fill="#3b3b44"/><path d="m188.721 261.982c5.926 0 11.473 1.082 16.237 2.967.911-2.129 1.415-4.47 1.415-6.933 0-9.749-7.903-17.652-17.652-17.652s-17.652 7.903-17.652 17.652c0 2.463.504 4.803 1.415 6.933 4.764-1.885 10.312-2.967 16.237-2.967z" fill="#3b3b44"/><path d="m313.279 261.982c7.183 0 13.813 1.589 19.159 4.273 4.544 2.281 9.962-.802 10.365-5.87.113-1.423.125-2.875.029-4.348-.991-15.146-13.602-27.24-28.775-27.629-16.713-.428-30.396 12.992-30.396 29.608 0 .843.036 1.678.105 2.503.422 5.01 5.857 7.995 10.349 5.738 5.347-2.684 11.979-4.275 19.164-4.275z" fill="#fff"/><path d="m313.279 261.982c5.926 0 11.474 1.082 16.237 2.967.911-2.129 1.415-4.47 1.415-6.933 0-9.749-7.903-17.652-17.652-17.652s-17.652 7.903-17.652 17.652c0 2.463.504 4.803 1.415 6.933 4.763-1.885 10.311-2.967 16.237-2.967z" fill="#3b3b44"/></g><g fill="#dff7fa"><path d="m439.522 477.634c-3.582 0-7.045-1.929-8.841-5.313-2.59-4.878-.735-10.932 4.143-13.521 3.256-1.728 6.086-4.039 8.412-6.87 3.507-4.266 9.808-4.884 14.075-1.376 4.267 3.506 4.883 9.808 1.376 14.075-4.012 4.881-8.885 8.864-14.484 11.837-1.495.792-3.1 1.168-4.681 1.168z"/><path d="m399.096 482h-44.583c-5.522 0-10-4.477-10-10s4.478-10 10-10h44.583c5.522 0 10 4.477 10 10s-4.478 10-10 10z"/></g></g></svg>