<svg id="Capa_1" enable-background="new 0 0 502 502" height="512" viewBox="0 0 502 502" width="512" xmlns="http://www.w3.org/2000/svg" xmlns:xlink="http://www.w3.org/1999/xlink"><linearGradient id="SVGID_1_" gradientUnits="userSpaceOnUse" x1="250.993" x2="250.993" y1="334.963" y2="35.583"><stop offset="0" stop-color="#ec6f80"/><stop offset="1" stop-color="#eca0aa"/></linearGradient><linearGradient id="lg1"><stop offset="0" stop-color="#f4d952"/><stop offset="1" stop-color="#f9edaf"/></linearGradient><linearGradient id="SVGID_2_" gradientUnits="userSpaceOnUse" x1="251.001" x2="251.001" xlink:href="#lg1" y1="339.143" y2="211.386"/><linearGradient id="SVGID_3_" gradientUnits="userSpaceOnUse" x1="179.842" x2="179.842" y1="460.411" y2="347.916"><stop offset="0" stop-color="#996c66"/><stop offset="1" stop-color="#ba8a6c"/></linearGradient><linearGradient id="SVGID_4_" gradientUnits="userSpaceOnUse" x1="67.606" x2="67.606" xlink:href="#lg1" y1="435.262" y2="324.425"/><linearGradient id="SVGID_5_" gradientUnits="userSpaceOnUse" x1="333.778" x2="333.778" y1="448.168" y2="352.915"><stop offset="0" stop-color="#ad7d63"/><stop offset="1" stop-color="#cb9d82"/></linearGradient><linearGradient id="SVGID_6_" gradientTransform="matrix(-1 0 0 1 179.023 0)" gradientUnits="userSpaceOnUse" x1="-255.371" x2="-255.371" xlink:href="#lg1" y1="435.262" y2="324.425"/><g><path d="m405.008 267.154c-1.985-123.231-80.372-164.353-129.499-224.348-15.356-18.752-43.509-20.235-60.432-2.883-82.432 84.522-118.121 157.064-118.121 232.032 0 85.541 69.722 154.797 155.438 154.039 85.71-.758 153.994-73.138 152.614-158.84z" fill="url(#SVGID_1_)"/><g fill="#ffccd3"><path d="m284.685 106.811c-2.56 0-5.119-.977-7.071-2.93-9.486-9.487-19.592-19.827-29.22-31.142-3.579-4.206-3.07-10.517 1.136-14.097 4.208-3.579 10.52-3.07 14.097 1.136 9.17 10.777 18.939 20.769 28.13 29.962 3.905 3.905 3.905 10.237-.001 14.142-1.953 1.953-4.513 2.929-7.071 2.929z"/><path d="m320.667 143.599c-2.73 0-5.449-1.111-7.424-3.297-2.147-2.377-4.391-4.798-6.857-7.401-3.799-4.008-3.63-10.338.379-14.137 4.008-3.8 10.338-3.629 14.137.378 2.578 2.72 4.928 5.256 7.184 7.753 3.702 4.099 3.381 10.422-.718 14.124-1.914 1.729-4.311 2.58-6.701 2.58z"/></g><path d="m251.001 400.008c51.543 0 93.326-41.784 93.326-93.327 0-43.087-29.707-95.788-69.14-134.818-13.388-13.252-34.985-13.252-48.374 0-39.432 39.03-69.14 91.73-69.14 134.818.002 51.544 41.786 93.327 93.328 93.327z" fill="url(#SVGID_2_)"/><path d="m224.471 474.224c37.338 0 67.606-30.268 67.606-67.606s-30.268-67.606-67.606-67.606h-156.865v135.213h156.865z" fill="url(#SVGID_3_)"/><path d="m233.162 406.618c0-4.642.468-9.174 1.36-13.553 1.538-7.55-3.077-14.999-10.464-17.189-8.447-2.505-17.228 2.775-18.971 11.411-1.262 6.25-1.924 12.715-1.924 19.331 0 13.321 2.686 26.026 7.539 37.606h-143.096v30h156.865c14.156 0 27.289-4.358 38.149-11.794-17.785-12.18-29.458-32.63-29.458-55.812z" fill="#8c5f59"/><circle cx="67.606" cy="406.618" fill="url(#SVGID_4_)" r="67.606"/><path d="m67.606 447.784c-22.699 0-41.166-18.467-41.166-41.166 0-5.523 4.478-10 10-10s10 4.477 10 10c0 11.671 9.495 21.166 21.166 21.166s21.166-9.495 21.166-21.166-9.495-21.167-21.166-21.167c-5.522 0-10-4.477-10-10s4.478-10 10-10c22.699 0 41.166 18.467 41.166 41.167 0 22.699-18.466 41.166-41.166 41.166z" fill="#efc534"/><path d="m300.768 474.224c-37.338 0-67.606-30.268-67.606-67.606s30.268-67.606 67.606-67.606h133.626v135.213h-133.626z" fill="url(#SVGID_5_)"/><circle cx="434.394" cy="406.618" fill="url(#SVGID_6_)" r="67.606"/><path d="m465.56 416.618c-5.522 0-10-4.477-10-10 0-11.671-9.495-21.167-21.166-21.167-5.522 0-10-4.477-10-10s4.478-10 10-10c22.699 0 41.166 18.467 41.166 41.167 0 5.523-4.478 10-10 10z" fill="#efc534"/><path d="m434.394 447.784c-22.699 0-41.166-18.467-41.166-41.166 0-5.523 4.478-10 10-10s10 4.477 10 10c0 11.671 9.495 21.166 21.166 21.166 5.522 0 10 4.477 10 10s-4.478 10-10 10z" fill="#efc534"/><g><ellipse cx="163.114" cy="252.757" fill="#efc5db" rx="14.936" ry="12.003"/><ellipse cx="338.886" cy="252.757" fill="#efc5db" rx="14.936" ry="12.003"/><circle cx="188.721" cy="223.139" fill="#fff" r="29.618"/><circle cx="313.279" cy="223.139" fill="#fff" r="29.618"/><path d="m198.505 233.57c-2.647 0-5.214-1.404-6.579-3.888-.94-1.71-2.555-1.895-3.205-1.895-.649 0-2.263.185-3.203 1.895-1.995 3.63-6.557 4.954-10.185 2.96-3.63-1.996-4.955-6.556-2.96-10.186 3.277-5.964 9.542-9.668 16.348-9.669s13.07 3.705 16.35 9.669c1.995 3.63.671 8.19-2.959 10.185-1.147.629-2.385.929-3.607.929z" fill="#3b3b44"/><path d="m303.495 233.57c-1.222 0-2.46-.299-3.606-.929-3.63-1.996-4.954-6.556-2.959-10.185 3.278-5.964 9.543-9.669 16.349-9.669h.001c6.806.001 13.07 3.705 16.348 9.669 1.995 3.63.67 8.19-2.96 10.186-3.627 1.995-8.189.67-10.185-2.96-.94-1.71-2.554-1.895-3.203-1.895-.65 0-2.265.185-3.205 1.895-1.366 2.483-3.932 3.888-6.58 3.888z" fill="#3b3b44"/><g><path d="m262.671 262.943h-23.342c-6.508 0-11.784-5.276-11.784-11.784 0-6.508 5.276-11.784 11.784-11.784h23.342c6.508 0 11.784 5.276 11.784 11.784 0 6.508-5.276 11.784-11.784 11.784z" fill="#3b3b44"/></g></g></g></svg>