<svg id="Capa_1" enable-background="new 0 0 502 502" height="512" viewBox="0 0 502 502" width="512" xmlns="http://www.w3.org/2000/svg" xmlns:xlink="http://www.w3.org/1999/xlink"><linearGradient id="SVGID_1_" gradientUnits="userSpaceOnUse" x1="304.099" x2="304.099" y1="317.874" y2="2.197"><stop offset="0" stop-color="#f4d952"/><stop offset="1" stop-color="#f9edaf"/></linearGradient><linearGradient id="SVGID_2_" gradientUnits="userSpaceOnUse" x1="140.562" x2="140.562" y1="324.032" y2="-10.094"><stop offset="0" stop-color="#f4c22c"/><stop offset="1" stop-color="#f9e198"/></linearGradient><linearGradient id="SVGID_3_" gradientUnits="userSpaceOnUse" x1="251" x2="251" y1="427.339" y2="278.529"><stop offset="0" stop-color="#f9edaf"/><stop offset="1" stop-color="#fffcdd"/></linearGradient><g><path d="m295.273 72.354c-7.736-10.905-18.498-17.89-30.117-20.997-85.23 5.477-142.989 343.712-142.989 343.712h363.865v-53.793z" fill="url(#SVGID_1_)"/><path d="m384 302.364c-87.397-3.167-195.063-29.352-279.387-31.257v30.01c82.111 1.943 188.305 27.98 278.307 31.216 8.279.298 15.202-6.244 15.458-14.524.255-8.221-6.158-15.147-14.378-15.445z" fill="#efc534"/><path d="m122.167 395.07 119.829-321.437c4.008-10.751 12.654-18.808 23.16-22.275-20.877-5.583-44.529 1.402-58.428 20.997l-190.759 268.922v53.793z" fill="url(#SVGID_2_)"/><path d="m166.639 275.776c-25.081-2.875-49.199-4.781-71.49-4.781-10.764 0-20.823.445-30.264 1.324l-48.916 68.959v53.793h106.198z" fill="#fca800"/><path d="m28.755 310.013c98.493-33.978 299.292 40.607 426.104 18.476 24.576-4.29 47.141 14.382 47.141 39.33v31.769c0 29.224-23.69 52.914-52.914 52.914h-396.172c-29.224 0-52.914-23.69-52.914-52.914v-48.926c0-18.275 11.479-34.689 28.755-40.649z" fill="url(#SVGID_3_)"/><g><path d="m218.44 255.516c0 6.629-6.687 12.004-14.936 12.004s-14.936-5.374-14.936-12.004c0-6.629 6.687-12.003 14.936-12.003 8.249-.001 14.936 5.374 14.936 12.003z" fill="#eaadcd"/><path d="m394.211 255.516c0 6.629-6.687 12.004-14.936 12.004s-14.936-5.374-14.936-12.004c0-6.629 6.687-12.003 14.936-12.003 8.249-.001 14.936 5.374 14.936 12.003z" fill="#eaadcd"/><circle cx="229.111" cy="225.898" fill="#fff" r="29.618"/><path d="m258.728 225.898c0 9.749-7.903 17.652-17.652 17.652s-17.652-7.903-17.652-17.652 7.903-17.652 17.652-17.652 17.652 7.903 17.652 17.652z" fill="#3b3b44"/><circle cx="353.668" cy="225.898" fill="#fff" r="29.618"/><g fill="#3b3b44"><path d="m383.224 225.898c0 9.749-7.903 17.652-17.652 17.652s-17.652-7.903-17.652-17.652 7.903-17.652 17.652-17.652c9.748 0 17.652 7.903 17.652 17.652z"/><ellipse cx="291.389" cy="248.35" rx="13.252" ry="17.352"/></g></g><g fill="#f5c98d"><circle cx="87.771" cy="360.818" r="10"/><circle cx="241.626" cy="389.588" r="10"/><circle cx="426.007" cy="379.588" r="10"/></g></g></svg>