<svg id="Capa_1" enable-background="new 0 0 502 502" height="512" viewBox="0 0 502 502" width="512" xmlns="http://www.w3.org/2000/svg" xmlns:xlink="http://www.w3.org/1999/xlink"><linearGradient id="SVGID_1_" gradientUnits="userSpaceOnUse" x1="251" x2="251" y1="119.257" y2="455.409"><stop offset="0" stop-color="#d4dbdb"/><stop offset="1" stop-color="#f3f3f3"/></linearGradient><linearGradient id="SVGID_2_" gradientUnits="userSpaceOnUse" x1="251" x2="251" y1="405.595" y2="527.393"><stop offset="0" stop-color="#ad7d63"/><stop offset="1" stop-color="#cb9d82"/></linearGradient><linearGradient id="SVGID_3_" gradientUnits="userSpaceOnUse" x1="251" x2="251" y1="155.356" y2="-41.198"><stop offset="0" stop-color="#4e5660"/><stop offset="1" stop-color="#64768d"/></linearGradient><linearGradient id="SVGID_4_" gradientUnits="userSpaceOnUse" x1="251" x2="251" y1="172.282" y2="-47.444"><stop offset="0" stop-color="#f9edaf"/><stop offset="1" stop-color="#fffcdd"/></linearGradient><linearGradient id="SVGID_5_" gradientUnits="userSpaceOnUse" x1="251" x2="251" y1="157.989" y2="33.272"><stop offset="0" stop-color="#f4c22c"/><stop offset="1" stop-color="#f9e198"/></linearGradient><linearGradient id="lg1"><stop offset="0" stop-color="#74d2e8"/><stop offset="1" stop-color="#baeaf5"/></linearGradient><linearGradient id="SVGID_6_" gradientUnits="userSpaceOnUse" x1="125.022" x2="31.945" xlink:href="#lg1" y1="283.862" y2="283.862"/><linearGradient id="SVGID_7_" gradientTransform="matrix(-1 0 0 1 702 0)" gradientUnits="userSpaceOnUse" x1="325.022" x2="231.945" xlink:href="#lg1" y1="283.862" y2="283.862"/><linearGradient id="SVGID_8_" gradientUnits="userSpaceOnUse" x1="251" x2="251" xlink:href="#lg1" y1="398.179" y2="519.126"/><g><path d="m429.759 283.862 17.552-45.447v-109.267h-392.622v109.267l17.552 45.447-17.552 45.447v86.087l196.311 28.651 196.311-28.651v-86.087z" fill="url(#SVGID_1_)"/><path d="m54.689 415.396v34.816c0 28.602 23.186 51.789 51.788 51.789h70.935v-.365l73.588-12.569 73.588 12.568v.365h70.935c28.602 0 51.788-23.186 51.788-51.789v-34.816h-392.622z" fill="url(#SVGID_2_)"/><path d="m404.815 144.326c-44.172 6.346-94.794 10.272-153.815 10.272v-25.45h-196.311v43.635c19.727 3.691 39.756 6.749 60.428 9.204 8.228 33.892 38.829 59.131 75.215 59.131h121.337c36.386 0 66.987-25.24 75.215-59.131 7.719-.917 15.348-1.92 22.904-3.008 9.504-1.368 16.12-10.155 14.835-19.671-1.301-9.629-10.19-16.364-19.808-14.982z" fill="#cad1d9"/><path d="m3.075 64.605v23.986c0 21.943 15.303 40.938 36.76 45.529 56.482 12.087 124.849 20.477 211.165 20.477s154.682-8.391 211.165-20.477c21.457-4.591 36.76-23.586 36.76-45.529v-23.986c0-24.701-22.937-42.953-47.024-37.479-52.765 11.992-117.462 20.532-200.901 20.532s-148.136-8.54-200.901-20.532c-24.087-5.475-47.024 12.778-47.024 37.479z" fill="url(#SVGID_3_)"/><path d="m251 47.658c-52.961 0-98.363-3.444-137.964-9.024-.06 1.245-.095 2.497-.095 3.757v104.058c40.368 5.086 85.936 8.149 138.059 8.149z" fill="#424e5e"/><path d="m311.669 0h-121.337c-23.412 0-42.391 18.979-42.391 42.39v121.337c0 23.412 18.979 42.391 42.391 42.391h121.337c23.411 0 42.39-18.979 42.39-42.391v-121.337c0-23.411-18.979-42.39-42.39-42.39z" fill="url(#SVGID_4_)"/><path d="m244.772 165.289-18.86 5.423c-14.097 4.054-28.248-6.228-28.749-20.888l-.67-19.613c-.145-4.232-1.479-8.337-3.849-11.846l-10.986-16.261c-8.212-12.155-2.806-28.79 10.981-33.797l18.446-6.698c3.98-1.445 7.472-3.982 10.076-7.321l12.071-15.473c9.022-11.566 26.514-11.566 35.536 0l12.071 15.473c2.604 3.339 6.097 5.876 10.076 7.321l18.446 6.698c13.788 5.007 19.193 21.642 10.981 33.797l-10.986 16.261c-2.37 3.508-3.704 7.614-3.849 11.846l-.67 19.613c-.501 14.66-14.652 24.941-28.749 20.888l-18.86-5.423c-4.07-1.17-8.386-1.17-12.456 0z" fill="url(#SVGID_5_)"/><path d="m54.689 238.415h45.657c15.898 0 28.786 12.888 28.786 28.786v33.321c0 15.898-12.888 28.786-28.786 28.786h-45.657z" fill="url(#SVGID_6_)"/><path d="m447.311 238.415h-45.657c-15.898 0-28.786 12.888-28.786 28.786v33.321c0 15.898 12.888 28.786 28.786 28.786h45.657z" fill="url(#SVGID_7_)"/><path d="m289.645 386.459h-77.29c-19.298 0-34.943 15.644-34.943 34.943v80.234h147.176v-80.234c0-19.299-15.644-34.943-34.943-34.943z" fill="url(#SVGID_8_)"/><g><ellipse cx="163.114" cy="319.904" fill="#eaadcd" rx="14.936" ry="12.003"/><ellipse cx="338.885" cy="319.904" fill="#eaadcd" rx="14.936" ry="12.003"/><circle cx="188.721" cy="290.287" fill="#fff" r="29.618"/><circle cx="313.279" cy="290.287" fill="#fff" r="29.618"/><g fill="#3b3b44"><g><circle cx="188.721" cy="290.287" r="17.652"/><circle cx="313.279" cy="290.287" r="17.652"/></g><path d="m251 320.847c-5.248 0-10.495-1.984-14.776-5.954-2.025-1.878-2.145-5.041-.267-7.066 1.877-2.025 5.041-2.145 7.066-.267 4.697 4.354 11.257 4.354 15.954 0 2.024-1.878 5.188-1.758 7.066.267 1.877 2.025 1.758 5.189-.267 7.066-4.281 3.969-9.528 5.954-14.776 5.954z"/></g></g><path d="m251 481.899c-6.351 0-11.5-5.149-11.5-11.5v-52.705c0-6.351 5.149-11.5 11.5-11.5s11.5 5.149 11.5 11.5v52.705c0 6.352-5.149 11.5-11.5 11.5z" fill="#17c5d9"/></g></svg>