<svg id="Capa_1" enable-background="new 0 0 502 502" height="512" viewBox="0 0 502 502" width="512" xmlns="http://www.w3.org/2000/svg" xmlns:xlink="http://www.w3.org/1999/xlink"><linearGradient id="SVGID_1_" gradientUnits="userSpaceOnUse" x1="230.36" x2="230.36" y1="419.592" y2="-115.55"><stop offset="0" stop-color="#4e5660"/><stop offset="1" stop-color="#64768d"/></linearGradient><linearGradient id="SVGID_2_" gradientUnits="userSpaceOnUse" x1="230.36" x2="230.36" y1="352.312" y2="-36.731"><stop offset="0" stop-color="#5bd9bb"/><stop offset=".2532" stop-color="#60dabd"/><stop offset=".5725" stop-color="#70dec4"/><stop offset=".9261" stop-color="#8ae4cf"/><stop offset="1" stop-color="#90e6d2"/></linearGradient><linearGradient id="SVGID_3_" gradientUnits="userSpaceOnUse" x1="355.737" x2="179.162" y1="256.245" y2="256.245"><stop offset="0" stop-color="#f4c22c"/><stop offset="1" stop-color="#f9e198"/></linearGradient><linearGradient id="SVGID_4_" gradientUnits="userSpaceOnUse" x1="402.716" x2="402.716" y1="373.145" y2="164.439"><stop offset="0" stop-color="#f4d952"/><stop offset="1" stop-color="#f9edaf"/></linearGradient><linearGradient id="SVGID_5_" gradientUnits="userSpaceOnUse" x1="149.032" x2="149.032" y1="347.271" y2="179.455"><stop offset="0" stop-color="#ec6f80"/><stop offset="1" stop-color="#eca0aa"/></linearGradient><linearGradient id="SVGID_6_" gradientUnits="userSpaceOnUse" x1="149.046" x2="149.046" y1="210.774" y2="278.737"><stop offset="0" stop-color="#f9edaf"/><stop offset="1" stop-color="#fffcdd"/></linearGradient><g><path d="m42.829 427.657v-353.314c0-41.059 33.284-74.343 74.343-74.343h226.377c41.058 0 74.342 33.284 74.342 74.343v353.315c0 41.058-33.284 74.343-74.342 74.343h-226.377c-41.059-.001-74.343-33.285-74.343-74.344z" fill="url(#SVGID_1_)"/><path d="m133.341 354.9c-17.67-14.726-33.829-35.159-44.856-57.758-4.247-8.704-14.743-12.313-23.436-8.044-8.642 4.244-12.252 14.682-8.041 23.34 13.047 26.824 32.097 51.158 53.925 69.348z" fill="#424e5e"/><path d="m336.869 47.272h-213.018c-18.639 0-33.749 15.11-33.749 33.749v219.427l9.334 34.096-9.334 27.065v16.862c0 18.639 15.11 33.749 33.749 33.749h213.019c18.639 0 33.749-15.11 33.749-33.749v-297.449c0-18.639-15.11-33.75-33.75-33.75z" fill="url(#SVGID_2_)"/><path d="m304.756 300.448h-214.655v61.162c6.556 7.317 13.535 14.095 20.831 20.176 22.193 18.495 54.367 18.268 76.417-.159 15.688-13.11 29.473-28.941 40.675-46.179h76.731c9.665 0 17.5-7.835 17.5-17.5.002-9.665-7.834-17.5-17.499-17.5z" fill="#12c7aa"/><g fill="#efc534"><path d="m177.032 468.611h-30.522c-6.351 0-11.5-5.149-11.5-11.5s5.149-11.5 11.5-11.5h30.522c6.351 0 11.5 5.149 11.5 11.5s-5.149 11.5-11.5 11.5z"/><path d="m314.21 468.611h-30.523c-6.352 0-11.5-5.149-11.5-11.5s5.148-11.5 11.5-11.5h30.523c6.352 0 11.5 5.149 11.5 11.5s-5.148 11.5-11.5 11.5z"/></g><path d="m166.618 300.448v-88.407h185.745v88.407z" fill="url(#SVGID_3_)"/><path d="m392.057 336.714 57.671-57.671c12.591-12.591 12.591-33.006 0-45.597l-57.671-57.671c-16.9-16.9-45.795-4.931-45.795 18.969v123.001c0 23.9 28.895 35.869 45.795 18.969z" fill="url(#SVGID_4_)"/><path d="m164.907 354.77c31.095-25.986 57.502-69.625 59.374-111.603 1.93-43.262-32.056-80.138-75.361-80.067-41.552.068-75.215 33.773-75.215 75.341 0 43.467 27.303 89.513 59.635 116.457 9.145 7.623 22.432 7.506 31.567-.128z" fill="url(#SVGID_5_)"/><circle cx="149.046" cy="238.442" fill="url(#SVGID_6_)" r="36.438"/><g><ellipse cx="142.474" cy="133.405" fill="#eaadcd" rx="14.936" ry="12.003"/><ellipse cx="318.246" cy="133.405" fill="#eaadcd" rx="14.936" ry="12.003"/><ellipse cx="168.081" cy="103.787" fill="#fff" rx="29.618" ry="29.618" transform="matrix(.16 -.987 .987 .16 38.711 253.073)"/><ellipse cx="180.047" cy="103.787" fill="#3b3b44" rx="17.652" ry="17.652" transform="matrix(.23 -.973 .973 .23 37.67 255.172)"/><ellipse cx="292.639" cy="103.787" fill="#fff" rx="29.618" ry="29.618" transform="matrix(.078 -.997 .997 .078 166.314 387.427)"/><g fill="#3b3b44"><ellipse cx="304.542" cy="103.787" rx="17.652" ry="17.652" transform="matrix(.898 -.441 .441 .898 -14.566 144.873)"/><ellipse cx="230.36" cy="126.239" rx="13.252" ry="17.352"/></g></g><g fill="#8196ab"><path d="m395.619 124.617c-5.522 0-10-4.477-10-10v-8.285c0-5.523 4.478-10 10-10s10 4.477 10 10v8.285c0 5.523-4.477 10-10 10z"/><path d="m392.815 73.095c-4.229 0-8.156-2.703-9.519-6.944-3.582-11.15-11.093-20.666-21.148-26.795-4.717-2.875-6.209-9.028-3.335-13.744 2.874-4.715 9.027-6.21 13.743-3.335 14.155 8.628 24.731 22.036 29.781 37.756 1.69 5.258-1.204 10.89-6.462 12.58-1.017.327-2.048.482-3.06.482z"/></g></g></svg>