<svg id="Capa_1" enable-background="new 0 0 502 502" height="512" viewBox="0 0 502 502" width="512" xmlns="http://www.w3.org/2000/svg" xmlns:xlink="http://www.w3.org/1999/xlink"><linearGradient id="SVGID_1_" gradientUnits="userSpaceOnUse" x1="190.715" x2="190.715" y1="539.432" y2="188.756"><stop offset="0" stop-color="#d4dbdb"/><stop offset="1" stop-color="#f3f3f3"/></linearGradient><linearGradient id="lg1"><stop offset="0" stop-color="#5bd9bb"/><stop offset=".2532" stop-color="#60dabd"/><stop offset=".5725" stop-color="#70dec4"/><stop offset=".9261" stop-color="#8ae4cf"/><stop offset="1" stop-color="#90e6d2"/></linearGradient><linearGradient id="SVGID_2_" gradientUnits="userSpaceOnUse" x1="359.577" x2="359.577" xlink:href="#lg1" y1="267.779" y2="35.707"/><linearGradient id="SVGID_3_" gradientTransform="matrix(.707 -.707 .707 .707 -323.062 263.54)" gradientUnits="userSpaceOnUse" x1="168.154" x2="492.271" xlink:href="#lg1" y1="338.308" y2="338.308"/><linearGradient id="SVGID_4_" gradientUnits="userSpaceOnUse" x1="344.026" x2="344.026" y1="136.635" y2="3.523"><stop offset="0" stop-color="#f4d952"/><stop offset="1" stop-color="#f9edaf"/></linearGradient><g><path d="m371.757 321.872-162.046 162.047c-24.104 24.104-63.184 24.104-87.288 0l-104.345-104.344c-24.104-24.104-24.104-63.184 0-87.288l162.047-162.047c12.896-12.896 33.805-12.896 46.701 0l84.131 60.8 60.8 84.131c12.897 12.896 12.897 33.805 0 46.701z" fill="url(#SVGID_1_)"/><path d="m483.922 122.419-70.412-70.412s-39.469-8.479-48.48-44.73c-23.353-12.492-53.045-8.898-72.741 10.797l-65.463 65.463c-12.896 12.896-12.896 33.805 0 46.701l144.932 144.931c12.896 12.896 33.805 12.896 46.701 0l65.463-65.463c24.104-24.102 24.104-63.183 0-87.287z" fill="url(#SVGID_2_)"/><path d="m53.796 318.512 132.261-132.261c6.495-6.495 17.026-6.495 23.522 0l23.083 23.083c6.495 6.495 6.495 17.026 0 23.522l-132.261 132.261c-6.495 6.495-17.026 6.495-23.522 0l-23.083-23.083c-6.495-6.496-6.495-17.027 0-23.522z" fill="url(#SVGID_3_)"/><path d="m379.578 18.075c-4.408-4.408-9.321-8.001-14.548-10.797l-85.617 85.617c-6.495 6.495-6.495 17.026 0 23.522l23.083 23.083c6.495 6.495 17.026 6.495 23.522 0l87.492-87.492z" fill="url(#SVGID_4_)"/><g fill="#12c7aa"><path d="m395.874 217.69c-2.943 0-5.886-1.123-8.132-3.368-4.491-4.491-4.491-11.772 0-16.264l18.873-18.873c4.49-4.49 11.772-4.491 16.264 0 4.491 4.491 4.491 11.772 0 16.264l-18.873 18.873c-2.245 2.244-5.189 3.368-8.132 3.368z"/><path d="m360.743 182.559c-2.943 0-5.886-1.123-8.132-3.368-4.491-4.491-4.491-11.772 0-16.264l18.873-18.873c4.492-4.491 11.772-4.491 16.264 0 4.491 4.491 4.491 11.772 0 16.264l-18.873 18.873c-2.246 2.245-5.189 3.368-8.132 3.368z"/></g><g><path d="m179.218 414.839c4.688 4.688 3.759 13.216-2.074 19.049s-14.362 6.762-19.049 2.074c-4.688-4.688-3.759-13.216 2.074-19.049 5.833-5.832 14.362-6.761 19.049-2.074z" fill="#eaadcd"/><path d="m303.507 290.551c4.688 4.688 3.759 13.216-2.074 19.049s-14.362 6.762-19.049 2.074-3.759-13.216 2.074-19.049 14.362-6.762 19.049-2.074z" fill="#eaadcd"/><circle cx="165.821" cy="386.351" fill="#fff" r="29.618"/><path d="m186.764 365.408c6.894 6.894 6.894 18.071 0 24.964-6.894 6.894-18.07 6.894-24.964 0s-6.894-18.07 0-24.964c6.893-6.893 18.07-6.893 24.964 0z" fill="#3b3b44"/><circle cx="253.896" cy="298.276" fill="#fff" r="29.618"/><g fill="#3b3b44"><path d="m274.795 277.377c6.894 6.894 6.894 18.071 0 24.964-6.894 6.894-18.071 6.894-24.964 0-6.894-6.894-6.893-18.07 0-24.964 6.894-6.894 18.07-6.894 24.964 0z"/><ellipse cx="225.735" cy="358.19" rx="13.252" ry="17.352" transform="matrix(.707 -.707 .707 .707 -187.163 264.532)"/></g></g><path d="m230.651 441.766c-5.858-5.858-15.355-5.858-21.213 0l-20.939 20.94c-12.4 12.399-32.465 12.397-44.863 0l-80.184-80.184c-5.858-5.858-15.355-5.858-21.213 0-5.858 5.858-5.858 15.355 0 21.213l80.184 80.184c24.104 24.104 63.184 24.104 87.289 0l20.94-20.94c5.857-5.858 5.857-15.355-.001-21.213z" fill="#cad1d9"/></g></svg>