<svg id="Capa_1" enable-background="new 0 0 497 497" height="512" viewBox="0 0 497 497" width="512" xmlns="http://www.w3.org/2000/svg" xmlns:xlink="http://www.w3.org/1999/xlink"><linearGradient id="lg1"><stop offset="0" stop-color="#4e5660"/><stop offset="1" stop-color="#64768d"/></linearGradient><linearGradient id="SVGID_1_" gradientUnits="userSpaceOnUse" x1="136.029" x2="136.029" xlink:href="#lg1" y1="368.803" y2="450.855"/><linearGradient id="SVGID_2_" gradientTransform="matrix(-1 0 0 1 97 0)" gradientUnits="userSpaceOnUse" x1="-263.971" x2="-263.971" xlink:href="#lg1" y1="368.803" y2="450.855"/><linearGradient id="SVGID_3_" gradientUnits="userSpaceOnUse" x1="248.5" x2="248.5" y1="467.623" y2="40.375"><stop offset="0" stop-color="#d4dbdb"/><stop offset="1" stop-color="#f3f3f3"/></linearGradient><linearGradient id="SVGID_4_" gradientUnits="userSpaceOnUse" x1="248.5" x2="248.5" y1="312.824" y2="116.249"><stop offset="0" stop-color="#74d2e8"/><stop offset="1" stop-color="#baeaf5"/></linearGradient><linearGradient id="SVGID_5_" gradientUnits="userSpaceOnUse" x1="248.5" x2="248.5" xlink:href="#lg1" y1="127.473" y2="56.015"/><linearGradient id="lg2"><stop offset="0" stop-color="#ec6f80"/><stop offset="1" stop-color="#eca0aa"/></linearGradient><linearGradient id="SVGID_6_" gradientUnits="userSpaceOnUse" x1="139.27" x2="139.27" xlink:href="#lg2" y1="381.352" y2="318.43"/><linearGradient id="SVGID_7_" gradientTransform="matrix(-1 0 0 1 97 0)" gradientUnits="userSpaceOnUse" x1="-260.73" x2="-260.73" xlink:href="#lg2" y1="381.352" y2="318.43"/><linearGradient id="lg3"><stop offset="0" stop-color="#5bd9bb"/><stop offset=".2532" stop-color="#60dabd"/><stop offset=".5725" stop-color="#70dec4"/><stop offset=".9261" stop-color="#8ae4cf"/><stop offset="1" stop-color="#90e6d2"/></linearGradient><linearGradient id="SVGID_8_" gradientUnits="userSpaceOnUse" x1="248.5" x2="248.5" xlink:href="#lg3" y1="394.847" y2="338.749"/><linearGradient id="SVGID_9_" gradientUnits="userSpaceOnUse" x1="36.467" x2="36.467" xlink:href="#lg3" y1="209.697" y2="66.4"/><linearGradient id="SVGID_10_" gradientTransform="matrix(-1 0 0 1 97 0)" gradientUnits="userSpaceOnUse" x1="-363.533" x2="-363.533" xlink:href="#lg3" y1="209.697" y2="66.4"/><g><path d="m153.835 458.421h-35.613c-16.044 0-29.051-13.007-29.051-29.051v-68.795c0-16.044 13.007-29.051 29.051-29.051h35.613c16.044 0 29.051 13.007 29.051 29.051v68.795c0 16.044-13.006 29.051-29.051 29.051z" fill="url(#SVGID_1_)"/><path d="m343.165 458.421h35.613c16.044 0 29.051-13.007 29.051-29.051v-68.795c0-16.044-13.007-29.051-29.051-29.051h-35.613c-16.044 0-29.051 13.007-29.051 29.051v68.795c0 16.044 13.006 29.051 29.051 29.051z" fill="url(#SVGID_2_)"/><path d="m375.616 388.895h-61.502v30h61.502c8.284 0 15-6.716 15-15 0-8.285-6.716-15-15-15z" fill="#424e5e"/><path d="m118.008 418.895h64.878v-58.32c0-16.044-13.007-29.051-29.051-29.051h-35.613c-16.044 0-29.051 13.007-29.051 29.051v52.957c8.959 3.451 18.676 5.363 28.837 5.363z" fill="#424e5e"/><path d="m378.992 388.895h-260.985c-27.878 0-50.478-22.6-50.478-50.478v-218.492c0-44.926 36.42-81.345 81.346-81.345h199.249c44.926 0 81.346 36.42 81.346 81.345v218.492c0 27.878-22.599 50.478-50.478 50.478z" fill="url(#SVGID_3_)"/><path d="m384.983 250.38c0 15.947-9.806 30.315-24.726 35.945-21.663 8.174-58.151 17.517-111.757 17.517s-90.094-9.343-111.757-17.517c-14.92-5.63-24.726-19.998-24.726-35.945v-80.758c0-12.231 9.916-22.147 22.147-22.147h228.673c12.232 0 22.147 9.916 22.147 22.147v80.758z" fill="url(#SVGID_4_)"/><path d="m333.131 124.207h-169.262c-9.337 0-16.907-7.57-16.907-16.907v-23.027c0-9.337 7.57-16.907 16.907-16.907h169.261c9.337 0 16.907 7.57 16.907 16.907v23.027c.001 9.338-7.569 16.907-16.906 16.907z" fill="url(#SVGID_5_)"/><path d="m152.174 369.025h-25.808c-10.715 0-19.401-8.686-19.401-19.401v-12.015c0-10.715 8.686-19.401 19.401-19.401h25.808c10.715 0 19.401 8.686 19.401 19.401v12.015c.001 10.715-8.686 19.401-19.401 19.401z" fill="url(#SVGID_6_)"/><path d="m344.826 369.025h25.808c10.715 0 19.401-8.686 19.401-19.401v-12.015c0-10.715-8.686-19.401-19.401-19.401h-25.808c-10.715 0-19.401 8.686-19.401 19.401v12.015c-.001 10.715 8.686 19.401 19.401 19.401z" fill="url(#SVGID_7_)"/><path d="m285.367 343.616h-73.735c-8.156 0-14.768 6.612-14.768 14.767v27.367c0 8.156 6.612 14.768 14.768 14.768h73.735c8.156 0 14.767-6.612 14.767-14.768v-27.367c.001-8.155-6.611-14.767-14.767-14.767z" fill="url(#SVGID_8_)"/><path d="m50.996 181.623h-29.058c-12.116 0-21.938-9.822-21.938-21.938v-71.852c0-12.116 9.822-21.938 21.938-21.938h29.057c12.116 0 21.938 9.822 21.938 21.938v71.852c.001 12.116-9.821 21.938-21.937 21.938z" fill="url(#SVGID_9_)"/><path d="m100.634 107.287h-60.932c-6.351 0-11.5-5.149-11.5-11.5s5.149-11.5 11.5-11.5h60.932c6.352 0 11.5 5.149 11.5 11.5s-5.149 11.5-11.5 11.5z" fill="#12c7aa"/><path d="m446.004 181.623h29.057c12.116 0 21.939-9.822 21.939-21.938v-71.852c0-12.116-9.822-21.938-21.939-21.938h-29.057c-12.116 0-21.938 9.822-21.938 21.938v71.852c0 12.116 9.822 21.938 21.938 21.938z" fill="url(#SVGID_10_)"/><path d="m457.298 107.287h-60.932c-6.352 0-11.5-5.149-11.5-11.5s5.148-11.5 11.5-11.5h60.932c6.352 0 11.5 5.149 11.5 11.5s-5.149 11.5-11.5 11.5z" fill="#12c7aa"/><g><ellipse cx="160.615" cy="240.859" fill="#eaadcd" rx="14.936" ry="12.003"/><ellipse cx="336.386" cy="240.859" fill="#eaadcd" rx="14.936" ry="12.003"/><ellipse cx="186.221" cy="211.241" fill="#fff" rx="29.618" ry="29.618" transform="matrix(.848 -.531 .531 .848 -83.732 131.075)"/><ellipse cx="310.779" cy="211.241" fill="#fff" rx="29.618" ry="29.618" transform="matrix(.379 -.925 .925 .379 -2.544 418.69)"/><g fill="#3b3b44"><g><ellipse cx="186.221" cy="211.241" rx="17.652" ry="17.652" transform="matrix(.289 -.958 .958 .289 -69.76 328.608)"/><ellipse cx="310.779" cy="211.241" rx="17.652" ry="17.652" transform="matrix(.189 -.982 .982 .189 44.741 476.628)"/></g><path d="m248.5 241.801c-5.247 0-10.495-1.984-14.775-5.954-2.025-1.878-2.145-5.041-.267-7.066 1.876-2.025 5.042-2.144 7.065-.267 4.697 4.354 11.256 4.354 15.953 0 2.024-1.876 5.188-1.759 7.065.267 1.878 2.025 1.759 5.188-.267 7.066-4.279 3.97-9.527 5.954-14.774 5.954z"/></g></g><g fill="#fff"><path d="m404.829 230.032c-5.522 0-10-4.477-10-10v-4.829c0-5.523 4.478-10 10-10s10 4.477 10 10v4.829c0 5.523-4.477 10-10 10z"/><path d="m404.829 184.191c-5.522 0-10-4.477-10-10v-35.301c0-5.523 4.478-10 10-10s10 4.477 10 10v35.301c0 5.523-4.477 10-10 10z"/></g></g></svg>