<svg id="Capa_1" enable-background="new 0 0 502 502" height="512" viewBox="0 0 502 502" width="512" xmlns="http://www.w3.org/2000/svg" xmlns:xlink="http://www.w3.org/1999/xlink"><linearGradient id="lg1"><stop offset="0" stop-color="#f4c22c"/><stop offset="1" stop-color="#f9e198"/></linearGradient><linearGradient id="SVGID_1_" gradientUnits="userSpaceOnUse" x1="251" x2="251" xlink:href="#lg1" y1="125.751" y2="190.444"/><linearGradient id="SVGID_2_" gradientUnits="userSpaceOnUse" x1="251" x2="251" xlink:href="#lg1" y1="346.088" y2="385.626"/><linearGradient id="lg2"><stop offset="0" stop-color="#f4d952"/><stop offset="1" stop-color="#f9edaf"/></linearGradient><linearGradient id="SVGID_3_" gradientUnits="userSpaceOnUse" x1="165.475" x2="336.525" xlink:href="#lg2" y1="92.82" y2="92.82"/><linearGradient id="SVGID_4_" gradientUnits="userSpaceOnUse" x1="31.492" x2="470.508" xlink:href="#lg2" y1="248.346" y2="248.346"/><linearGradient id="SVGID_5_" gradientUnits="userSpaceOnUse" x1="30.089" x2="489.393" y1="437.413" y2="437.413"><stop offset="0" stop-color="#ad7d63"/><stop offset="1" stop-color="#cb9d82"/></linearGradient><g><path d="m203.982 119.761h94.035v70.142h-94.035z" fill="url(#SVGID_1_)"/><path d="m203.982 314.781h94.035v70.142h-94.035z" fill="url(#SVGID_2_)"/><path d="m292.838 57.1h-83.677c-24.127 0-43.686 19.559-43.686 43.686v7.714c0 11.068 8.973 20.041 20.041 20.041h130.968c11.068 0 20.041-8.972 20.041-20.041v-7.714c0-24.127-19.559-43.686-43.687-43.686z" fill="url(#SVGID_3_)"/><path d="m412.011 339.02c39.792 0 68.007-38.933 55.501-76.709-19.058-57.568-74.438-104.639-157.244-104.639h-118.536c-82.806 0-138.186 47.071-157.244 104.639-12.506 37.776 15.709 76.709 55.501 76.709z" fill="url(#SVGID_4_)"/><g fill="#fffde3"><path d="m396.174 223.435c-2.03 0-4.08-.617-5.851-1.898-9.46-6.84-20.138-12.311-31.738-16.263-5.228-1.781-8.022-7.462-6.241-12.69s7.461-8.023 12.69-6.241c13.483 4.593 25.934 10.981 37.007 18.987 4.476 3.236 5.48 9.487 2.244 13.963-1.954 2.704-5.011 4.142-8.111 4.142z"/><path d="m430.091 261.383c-3.507 0-6.909-1.848-8.74-5.126-1.516-2.715-3.173-5.396-4.924-7.97-3.106-4.566-1.923-10.786 2.643-13.893 4.565-3.105 10.786-1.924 13.893 2.643 2.08 3.057 4.048 6.243 5.85 9.469 2.693 4.822.967 10.913-3.855 13.606-1.544.862-3.217 1.271-4.867 1.271z"/></g><path d="m440.617 497.967h-379.234c-33.901 0-61.383-27.482-61.383-61.383 0-32.986 26.74-59.725 59.725-59.725h382.549c32.986 0 59.725 26.74 59.725 59.725.001 33.901-27.481 61.383-61.382 61.383z" fill="url(#SVGID_5_)"/><path d="m233.5 462.967h-171.48c-12.636 0-23.844-8.665-26.454-21.028-1.183-5.604-.453-10.98 1.658-15.598 3.354-7.335 1.186-16.016-5.168-20.984-8.968-7.013-22.09-3.715-26.78 6.659-3.389 7.492-5.276 15.809-5.276 24.568 0 33.901 27.482 61.383 61.383 61.383h172.117c9.665 0 17.5-7.835 17.5-17.5 0-9.665-7.835-17.5-17.5-17.5z" fill="#9e715d"/><path d="m380.544 92.284c-6.351 0-11.5-5.149-11.5-11.5 0-29.639-24.113-53.751-53.751-53.751-6.351 0-11.5-5.149-11.5-11.5s5.149-11.5 11.5-11.5c42.321 0 76.751 34.431 76.751 76.751 0 6.351-5.148 11.5-11.5 11.5z" fill="#fca800"/><path d="m121.456 92.284c-6.351 0-11.5-5.149-11.5-11.5 0-42.321 34.43-76.751 76.751-76.751 6.351 0 11.5 5.149 11.5 11.5s-5.149 11.5-11.5 11.5c-29.638 0-53.751 24.113-53.751 53.751 0 6.351-5.149 11.5-11.5 11.5z" fill="#fca800"/><g><path d="m178.051 273.958c0 6.629-6.687 12.004-14.937 12.004-8.249 0-14.936-5.374-14.936-12.004 0-6.629 6.687-12.003 14.936-12.003 8.25 0 14.937 5.374 14.937 12.003z" fill="#eaadcd"/><path d="m353.822 273.958c0 6.629-6.687 12.004-14.936 12.004s-14.936-5.374-14.936-12.004c0-6.629 6.687-12.003 14.936-12.003s14.936 5.374 14.936 12.003z" fill="#eaadcd"/><circle cx="188.721" cy="244.34" fill="#fff" r="29.618"/><path d="m218.339 244.34c0 9.749-7.903 17.652-17.652 17.652s-17.652-7.903-17.652-17.652 7.903-17.652 17.652-17.652 17.652 7.903 17.652 17.652z" fill="#3b3b44"/><circle cx="313.279" cy="244.34" fill="#fff" r="29.618"/><g fill="#3b3b44"><path d="m342.835 244.34c0 9.749-7.903 17.652-17.652 17.652s-17.652-7.903-17.652-17.652 7.903-17.652 17.652-17.652c9.748 0 17.652 7.903 17.652 17.652z"/><ellipse cx="251" cy="266.792" rx="13.252" ry="17.352"/></g></g></g></svg>