<svg id="Capa_1" enable-background="new 0 0 502 502" height="512" viewBox="0 0 502 502" width="512" xmlns="http://www.w3.org/2000/svg" xmlns:xlink="http://www.w3.org/1999/xlink"><linearGradient id="lg1"><stop offset="0" stop-color="#5bd9bb"/><stop offset=".2532" stop-color="#60dabd"/><stop offset=".5725" stop-color="#70dec4"/><stop offset=".9261" stop-color="#8ae4cf"/><stop offset="1" stop-color="#90e6d2"/></linearGradient><linearGradient id="SVGID_1_" gradientUnits="userSpaceOnUse" x1="125.309" x2="125.309" xlink:href="#lg1" y1="373.022" y2="314.039"/><linearGradient id="SVGID_2_" gradientUnits="userSpaceOnUse" x1="251" x2="251" y1="248.167" y2="392.555"><stop offset="0" stop-color="#ad7d63"/><stop offset="1" stop-color="#cb9d82"/></linearGradient><linearGradient id="SVGID_3_" gradientTransform="matrix(-1 0 0 1 755.382 0)" gradientUnits="userSpaceOnUse" x1="545.033" x2="545.033" y1="143.048" y2="-8.795"><stop offset="0" stop-color="#ec6f80"/><stop offset="1" stop-color="#eca0aa"/></linearGradient><linearGradient id="SVGID_4_" gradientUnits="userSpaceOnUse" x1="291.651" x2="291.651" y1="278.679" y2="126.836"><stop offset="0" stop-color="#f4c22c"/><stop offset="1" stop-color="#f9e198"/></linearGradient><linearGradient id="SVGID_5_" gradientUnits="userSpaceOnUse" x1="251" x2="251" xlink:href="#lg1" y1="506.132" y2="377.159"/><g><path d="m90.555 383.386c0-12.517-1.603-40.488-10.534-67.31-2.879-8.646 5.046-16.941 13.81-14.444 40.237 11.467 73.205 43.1 77.369 73.451z" fill="url(#SVGID_1_)"/><path d="m193.68 263.294h114.639v151.887h-114.639z" fill="url(#SVGID_2_)"/><path d="m211.18 346.251c9.665 0 17.5-7.835 17.5-17.5v-22.489h79.64v-42.969h-114.64v65.457c0 9.666 7.835 17.501 17.5 17.501z" fill="#9e715d"/><path d="m72.113 122.408-32.408-32.408c-12.252-12.252-12.252-32.117 0-44.369l32.408-32.408c8.467-8.466 19.95-13.223 31.924-13.223h244.844c22.81 0 41.301 18.491 41.301 41.301v53.029c0 22.81-18.491 41.301-41.301 41.301h-244.844c-11.974 0-23.457-4.756-31.924-13.223z" fill="url(#SVGID_3_)"/><path d="m290.596 79.315h-118.09c-6.351 0-11.5-5.149-11.5-11.5s5.149-11.5 11.5-11.5h118.09c6.351 0 11.5 5.149 11.5 11.5 0 6.352-5.149 11.5-11.5 11.5z" fill="#e05d6f"/><path d="m429.887 258.039 32.408-32.408c12.252-12.252 12.252-32.117 0-44.369l-32.408-32.408c-8.467-8.467-19.95-13.224-31.924-13.224h-244.844c-22.81 0-41.301 18.491-41.301 41.301v53.029c0 22.81 18.491 41.301 41.301 41.301h244.844c11.974.001 23.457-4.755 31.924-13.222z" fill="url(#SVGID_4_)"/><path d="m329.495 214.947h-118.09c-6.351 0-11.5-5.149-11.5-11.5s5.149-11.5 11.5-11.5h118.09c6.351 0 11.5 5.149 11.5 11.5s-5.149 11.5-11.5 11.5z" fill="#fca800"/><path d="m409.921 502h-317.842c-23.217 0-42.038-18.821-42.038-42.038v-28.395c0-35.555 28.823-64.377 64.377-64.377h261.33c42.09 0 76.21 34.121 76.21 76.21v16.562c.001 23.217-18.82 42.038-42.037 42.038z" fill="url(#SVGID_5_)"/><g><ellipse cx="163.184" cy="458.213" fill="#eaadcd" rx="14.925" ry="11.994"/><ellipse cx="338.816" cy="458.213" fill="#eaadcd" rx="14.924" ry="11.994"/><ellipse cx="313.229" cy="428.657" fill="#fff" rx="29.557" ry="29.557" transform="matrix(.162 -.987 .987 .162 -160.418 668.484)"/><path d="m295.658 430.104c.755 9.046 8.331 16.153 17.572 16.153s16.817-7.108 17.572-16.153z" fill="#3b3b44"/><path d="m313.229 399.1c-16.324 0-29.557 13.233-29.557 29.557 0 .486.014.968.037 1.447h59.04c.023-.48.037-.962.037-1.447 0-16.324-13.233-29.557-29.557-29.557z" fill="#9e715d"/><ellipse cx="188.771" cy="428.657" fill="#fff" rx="29.557" ry="29.557" transform="matrix(.162 -.987 .987 .162 -264.761 545.662)"/><path d="m171.199 430.104c.755 9.046 8.331 16.153 17.572 16.153s16.817-7.108 17.572-16.153z" fill="#3b3b44"/><path d="m188.771 399.1c-16.324 0-29.557 13.233-29.557 29.557 0 .486.014.968.037 1.447h59.04c.023-.48.037-.962.037-1.447 0-16.324-13.234-29.557-29.557-29.557z" fill="#9e715d"/><path d="m262.365 461.662c-1.825 0-3.654-.662-5.097-2-3.749-3.477-8.787-3.477-12.536 0-3.038 2.816-7.783 2.636-10.599-.401s-2.637-7.783.401-10.599c9.541-8.846 23.392-8.846 32.933 0 3.038 2.816 3.217 7.562.401 10.599-1.479 1.594-3.488 2.401-5.503 2.401z" fill="#3b3b44"/></g></g></svg>