<svg id="Capa_1" enable-background="new 0 0 502 502" height="512" viewBox="0 0 502 502" width="512" xmlns="http://www.w3.org/2000/svg" xmlns:xlink="http://www.w3.org/1999/xlink"><linearGradient id="lg1"><stop offset="0" stop-color="#4e5660"/><stop offset="1" stop-color="#64768d"/></linearGradient><linearGradient id="SVGID_1_" gradientUnits="userSpaceOnUse" x1="251" x2="251" xlink:href="#lg1" y1="47.466" y2="-1.646"/><linearGradient id="SVGID_2_" gradientUnits="userSpaceOnUse" x1="251" x2="251" y1="463.476" y2="423.202"><stop offset="0" stop-color="#ad7d63"/><stop offset="1" stop-color="#cb9d82"/></linearGradient><linearGradient id="SVGID_3_" gradientUnits="userSpaceOnUse" x1="158.593" x2="158.593" xlink:href="#lg1" y1="394.698" y2="487.148"/><linearGradient id="SVGID_4_" gradientTransform="matrix(-1 0 0 1 502 0)" gradientUnits="userSpaceOnUse" x1="158.593" x2="158.593" xlink:href="#lg1" y1="394.698" y2="487.148"/><linearGradient id="SVGID_5_" gradientUnits="userSpaceOnUse" x1="251" x2="251" y1="348.106" y2="13.27"><stop offset="0" stop-color="#d4dbdb"/><stop offset="1" stop-color="#f3f3f3"/></linearGradient><linearGradient id="SVGID_6_" gradientUnits="userSpaceOnUse" x1="251" x2="251" y1="317.379" y2="409.591"><stop offset="0" stop-color="#5bd9bb"/><stop offset=".2532" stop-color="#60dabd"/><stop offset=".5725" stop-color="#70dec4"/><stop offset=".9261" stop-color="#8ae4cf"/><stop offset="1" stop-color="#90e6d2"/></linearGradient><linearGradient id="SVGID_7_" gradientUnits="userSpaceOnUse" x1="251" x2="251" y1="249.132" y2="62.623"><stop offset="0" stop-color="#74d2e8"/><stop offset="1" stop-color="#baeaf5"/></linearGradient><linearGradient id="SVGID_8_" gradientUnits="userSpaceOnUse" x1="251" x2="251" xlink:href="#lg1" y1="358.677" y2="281.639"/><linearGradient id="lg2"><stop offset="0" stop-color="#ec6f80"/><stop offset="1" stop-color="#eca0aa"/></linearGradient><linearGradient id="SVGID_9_" gradientUnits="userSpaceOnUse" x1="166.101" x2="166.101" xlink:href="#lg2" y1="358.677" y2="281.639"/><linearGradient id="SVGID_10_" gradientTransform="matrix(-1 0 0 1 502 0)" gradientUnits="userSpaceOnUse" x1="166.101" x2="166.101" xlink:href="#lg2" y1="358.677" y2="281.639"/><g><path d="m303.901 0h-105.802c-11.984 0-21.699 9.715-21.699 21.699v25.767h149.2v-25.767c0-11.984-9.715-21.699-21.699-21.699z" fill="url(#SVGID_1_)"/><path d="m163.368 423.526h175.263v40.186h-175.263z" fill="url(#SVGID_2_)"/><path d="m128.581 500.223c-15.208-5.535-23.05-22.352-17.514-37.56l39.976-109.834c5.535-15.208 22.351-23.052 37.561-17.514 15.208 5.535 23.05 22.352 17.514 37.56l-39.976 109.834c-5.517 15.158-22.308 23.067-37.561 17.514z" fill="url(#SVGID_3_)"/><path d="m373.419 500.223c15.208-5.535 23.05-22.352 17.514-37.56l-39.976-109.834c-5.535-15.208-22.351-23.052-37.561-17.514-15.208 5.535-23.05 22.352-17.514 37.56l39.976 109.834c5.517 15.158 22.308 23.067 37.561 17.514z" fill="url(#SVGID_4_)"/><path d="m428.512 316.223v-94.749c0-22.478-3.933-44.783-11.621-65.906l-23.797-65.382c-11.217-30.818-40.51-51.329-73.306-51.329h-137.576c-32.795 0-62.089 20.512-73.306 51.329l-23.797 65.382c-7.688 21.123-11.621 43.427-11.621 65.906v94.749l177.512 31.883z" fill="url(#SVGID_5_)"/><path d="m342.072 393.882h-38.544l12.739 35h25.805c9.665 0 17.5-7.835 17.5-17.5 0-9.666-7.835-17.5-17.5-17.5z" fill="#424e5e"/><path d="m188.604 335.315c-15.21-5.538-32.026 2.306-37.561 17.514l-27.32 75.061c4.574.648 9.244.991 13.994.991h48.017l20.385-56.006c5.535-15.208-2.307-32.025-17.515-37.56z" fill="#424e5e"/><path d="m73.488 316.223v13.429c0 35.473 28.756 64.229 64.229 64.229h226.566c35.473 0 64.229-28.756 64.229-64.229v-13.429z" fill="url(#SVGID_6_)"/><path d="m123.145 228.524v-17.922c0-10.219 1.788-20.36 5.283-29.963l23.709-65.139c6.177-16.971 22.309-28.267 40.369-28.267h116.989c18.06 0 34.192 11.296 40.369 28.267l23.709 65.139c3.495 9.603 5.283 19.743 5.283 29.963v17.922c0 11.382-9.227 20.609-20.609 20.609h-214.494c-11.382-.001-20.608-9.228-20.608-20.609z" fill="url(#SVGID_7_)"/><g><path d="m166.101 282.22h169.797v68.006h-169.797z" fill="url(#SVGID_8_)"/><path d="m310.148 327.724h-118.296c-6.351 0-11.5-5.149-11.5-11.5s5.149-11.5 11.5-11.5h118.296c6.352 0 11.5 5.149 11.5 11.5s-5.148 11.5-11.5 11.5z" fill="#424e5e"/><circle cx="166.101" cy="316.223" fill="url(#SVGID_9_)" r="34.003"/><circle cx="335.899" cy="316.223" fill="url(#SVGID_10_)" r="34.003"/></g><g><ellipse cx="163.115" cy="189.459" fill="#eaadcd" rx="14.936" ry="12.003"/><ellipse cx="338.886" cy="189.459" fill="#eaadcd" rx="14.936" ry="12.003"/><circle cx="188.721" cy="159.841" fill="#fff" r="29.618"/><circle cx="313.279" cy="159.841" fill="#fff" r="29.618"/><g fill="#3b3b44"><g><ellipse cx="188.721" cy="159.841" rx="17.652" ry="17.652" transform="matrix(.021 -1 1 .021 25.014 345.219)"/><ellipse cx="313.279" cy="159.841" rx="17.652" ry="17.652" transform="matrix(.05 -.999 .999 .05 138.006 464.755)"/></g><path d="m251 190.401c-5.248 0-10.495-1.984-14.776-5.954-2.025-1.878-2.145-5.041-.267-7.066s5.041-2.145 7.066-.267c4.697 4.354 11.256 4.354 15.954 0 2.023-1.876 5.188-1.759 7.065.267 1.878 2.025 1.759 5.189-.267 7.066-4.28 3.97-9.528 5.954-14.775 5.954z"/></g></g><g fill="#fff"><path d="m379.689 136.451c-4.085 0-7.92-2.521-9.397-6.582l-2.405-6.607c-1.89-5.19.786-10.929 5.976-12.818 5.188-1.889 10.929.786 12.817 5.976l2.405 6.607c1.89 5.19-.786 10.929-5.976 12.818-1.13.411-2.285.606-3.42.606z"/><path d="m360.223 92.624c-2.832 0-5.646-1.196-7.624-3.523-7.167-8.431-17.131-13.75-28.054-14.978-5.488-.617-9.438-5.566-8.82-11.054.616-5.489 5.561-9.439 11.055-8.821 15.999 1.798 30.58 9.575 41.058 21.898 3.577 4.208 3.065 10.519-1.142 14.096-1.881 1.6-4.184 2.382-6.473 2.382z"/></g></g></svg>