<svg id="Capa_1" enable-background="new 0 0 502 502" height="512" viewBox="0 0 502 502" width="512" xmlns="http://www.w3.org/2000/svg" xmlns:xlink="http://www.w3.org/1999/xlink"><linearGradient id="SVGID_1_" gradientUnits="userSpaceOnUse" x1="250.665" x2="250.665" y1="319.724" y2="95.386"><stop offset="0" stop-color="#5bd9bb"/><stop offset=".2532" stop-color="#60dabd"/><stop offset=".5725" stop-color="#70dec4"/><stop offset=".9261" stop-color="#8ae4cf"/><stop offset="1" stop-color="#90e6d2"/></linearGradient><linearGradient id="SVGID_2_" gradientUnits="userSpaceOnUse" x1="309.043" x2="309.043" y1="344.895" y2="164.152"><stop offset="0" stop-color="#f4d952"/><stop offset="1" stop-color="#f9edaf"/></linearGradient><linearGradient id="SVGID_3_" gradientUnits="userSpaceOnUse" x1="171.694" x2="171.694" y1="341.655" y2="141.015"><stop offset="0" stop-color="#f4c22c"/><stop offset="1" stop-color="#f9e198"/></linearGradient><linearGradient id="SVGID_4_" gradientUnits="userSpaceOnUse" x1="144.102" x2="144.102" y1="273.185" y2="341.275"><stop offset="0" stop-color="#4e5660"/><stop offset="1" stop-color="#64768d"/></linearGradient><linearGradient id="SVGID_5_" gradientUnits="userSpaceOnUse" x1="10.696" x2="528.725" y1="415.856" y2="415.856"><stop offset="0" stop-color="#ad7d63"/><stop offset="1" stop-color="#cb9d82"/></linearGradient><g><path d="m403.367 378.889c46.376 0 83.971-37.595 83.971-83.971 0-22.521-8.867-42.972-23.299-58.051-2.278-2.38-2.48-6.07-.462-8.673 16.072-20.725 22.555-47.034 24.992-68.404 2.505-21.967-16.176-40.583-38.141-38.071-14.91 1.705-32.215 5.385-48.349 12.911-3.602 1.68-7.879-.082-9.166-3.843-16.272-47.572-71.049-69.896-115.77-48.276-3.627 1.754-7.995-.163-9.197-4.008-5.884-18.809-16.525-35.47-26.798-48.388-13.793-17.343-40.123-17.274-53.907.076-10.456 13.16-21.283 30.192-27.079 49.417-1.012 3.358-4.441 5.364-7.862 4.589-51.869-11.741-102.366 27.724-102.366 81.95 0 12.237 2.619 23.861 7.325 34.346 1.407 3.135.196 6.801-2.778 8.523-25.078 14.524-41.948 41.648-41.948 72.713 0 46.376 37.595 83.971 83.971 83.971z" fill="url(#SVGID_1_)"/><g><path d="m162.438 157.136c-3.596-11.74-17.917-16.249-27.508-8.582-5.668 4.531-10.544 10.172-14.347 16.76l-94.03 162.865c6.728 10.112 15.593 18.677 25.943 25.063l98.397-170.429c1.61-2.789 3.641-5.09 5.947-6.906 5.599-4.408 7.685-11.957 5.598-18.771z" fill="#12c7aa"/></g><path d="m351.106 182.814c-4.622-8.006-12.711-12.009-20.799-12.009h-158.614v177.05h274.699z" fill="url(#SVGID_2_)"/><path d="m287.78 347.855-95.287-165.041c-9.244-16.012-32.355-16.012-41.599 0l-95.287 165.041z" fill="url(#SVGID_3_)"/><path d="m116.511 347.855h55.183v-134.982c0-2.251-3.199-2.671-3.777-.496-14.535 54.648-35.087 108.425-51.406 135.478z" fill="url(#SVGID_4_)"/><path d="m33.463 346.855h435.075c18.481 0 33.462 14.982 33.462 33.463v47.259c0 31.634-25.645 57.279-57.279 57.279h-387.442c-31.634 0-57.279-25.645-57.279-57.279v-47.259c0-18.481 14.982-33.463 33.463-33.463z" fill="url(#SVGID_5_)"/><g><ellipse cx="163.114" cy="438.432" fill="#eaadcd" rx="14.936" ry="12.003"/><ellipse cx="338.886" cy="438.432" fill="#eaadcd" rx="14.936" ry="12.003"/><circle cx="188.721" cy="408.814" fill="#fff" r="29.618"/><circle cx="313.279" cy="408.814" fill="#fff" r="29.618"/><path d="m198.505 419.245c-2.647 0-5.214-1.404-6.579-3.888-.94-1.71-2.555-1.895-3.205-1.895-.649 0-2.263.185-3.203 1.895-1.996 3.63-6.558 4.954-10.185 2.96-3.63-1.996-4.955-6.556-2.96-10.185 3.277-5.964 9.542-9.669 16.348-9.669s13.07 3.705 16.35 9.668c1.995 3.63.671 8.19-2.959 10.186-1.147.628-2.385.928-3.607.928z" fill="#3b3b44"/><path d="m303.495 419.245c-1.222 0-2.46-.299-3.606-.929-3.63-1.996-4.954-6.556-2.959-10.186 3.278-5.964 9.543-9.668 16.349-9.668h.001c6.806 0 13.07 3.705 16.348 9.669 1.995 3.63.67 8.19-2.96 10.185-3.628 1.995-8.189.67-10.185-2.96-.94-1.71-2.554-1.895-3.203-1.895-.65 0-2.265.185-3.205 1.895-1.366 2.484-3.932 3.889-6.58 3.889z" fill="#3b3b44"/><g><path d="m262.671 448.618h-23.342c-6.508 0-11.784-5.276-11.784-11.784 0-6.508 5.276-11.784 11.784-11.784h23.342c6.508 0 11.784 5.276 11.784 11.784 0 6.508-5.276 11.784-11.784 11.784z" fill="#3b3b44"/></g></g><g fill="#fffde3"><path d="m392.631 322.271c-3.457 0-6.817-1.793-8.67-5.002l-17.94-31.074c-2.762-4.783-1.123-10.899 3.66-13.66 4.786-2.762 10.898-1.122 13.66 3.66l17.941 31.074c2.762 4.783 1.123 10.899-3.66 13.66-1.576.909-3.295 1.342-4.991 1.342z"/><path d="m354.038 255.427c-3.457 0-6.818-1.794-8.67-5.002l-4.537-7.859c-2.762-4.783-1.122-10.899 3.66-13.66 4.786-2.759 10.9-1.121 13.66 3.661l4.537 7.859c2.762 4.783 1.122 10.899-3.66 13.66-1.575.909-3.294 1.341-4.99 1.341z"/></g></g></svg>