<svg id="Capa_1" enable-background="new 0 0 502 502" height="512" viewBox="0 0 502 502" width="512" xmlns="http://www.w3.org/2000/svg" xmlns:xlink="http://www.w3.org/1999/xlink"><linearGradient id="SVGID_1_" gradientUnits="userSpaceOnUse" x1="251" x2="251" y1="279.479" y2="25.508"><stop offset="0" stop-color="#5bd9bb"/><stop offset=".2532" stop-color="#60dabd"/><stop offset=".5725" stop-color="#70dec4"/><stop offset=".9261" stop-color="#8ae4cf"/><stop offset="1" stop-color="#90e6d2"/></linearGradient><linearGradient id="SVGID_2_" gradientUnits="userSpaceOnUse" x1="251" x2="251" y1="228.666" y2="92.779"><stop offset="0" stop-color="#41c4a6"/><stop offset=".216" stop-color="#46c6a9"/><stop offset=".4884" stop-color="#56cdb2"/><stop offset=".7898" stop-color="#70d7c0"/><stop offset="1" stop-color="#86e0cd"/></linearGradient><linearGradient id="SVGID_3_" gradientUnits="userSpaceOnUse" x1="251.555" x2="251.555" y1="316.143" y2="234.638"><stop offset="0" stop-color="#f4d952"/><stop offset="1" stop-color="#f9edaf"/></linearGradient><linearGradient id="SVGID_4_" gradientUnits="userSpaceOnUse" x1="251" x2="251" y1="493.745" y2="227.153"><stop offset="0" stop-color="#ad7d63"/><stop offset="1" stop-color="#cb9d82"/></linearGradient><linearGradient id="SVGID_5_" gradientTransform="matrix(-1 0 0 1 103.111 0)" gradientUnits="userSpaceOnUse" x1="-12.69" x2="-12.69" y1="471.906" y2="420.626"><stop offset="0" stop-color="#d4dbdb"/><stop offset="1" stop-color="#f3f3f3"/></linearGradient><g><path d="m431.611 181.011-192.569 192.569c-16.479 16.479-43.196 16.479-59.675 0l-108.978-108.977c-16.479-16.479-16.479-43.196 0-59.675l192.569-192.569c16.479-16.479 43.196-16.479 59.675 0l108.977 108.977c16.479 16.479 16.479 43.197.001 59.675z" fill="url(#SVGID_1_)"/><path d="m255.207 259.33v-52.052h-71.919c-11.519-9.564-26.217-15.101-41.776-15.101h-44.555c-5.157 0-10.21.451-15.125 1.309l-11.442 11.442c-16.479 16.479-16.479 43.196 0 59.675l108.977 108.977c16.479 16.479 43.196 16.479 59.675 0l114.25-114.25z" fill="#12c7aa"/><path d="m286.987 156.982c-24.503-24.503-60.478-28.254-80.353-8.379s-16.124 55.85 8.379 80.353 60.478 28.254 80.353 8.379 16.124-55.85-8.379-80.353z" fill="url(#SVGID_2_)"/><path d="m244.892 247.278h13.935c11.046 0 20-8.954 20-20 0-11.046-8.954-20-20-20h-58.988c3.531 7.696 8.597 15.102 15.174 21.679 8.889 8.889 19.288 15.035 29.879 18.321z" fill="#00b094"/><path d="m319.471 134.498c-2.56 0-5.118-.976-7.071-2.929-3.905-3.905-3.905-10.237 0-14.143l17.023-17.023c3.906-3.905 10.236-3.905 14.143 0 3.905 3.905 3.905 10.237 0 14.143l-17.023 17.023c-1.954 1.953-4.513 2.929-7.072 2.929z" fill="#b5f2e2"/><path d="m387.722 485.788h-272.333c-23.305 0-42.197-18.892-42.197-42.197v-154.116c0-23.305 18.892-42.197 42.197-42.197h272.333c23.305 0 42.197 18.892 42.197 42.197v154.117c-.001 23.304-18.893 42.196-42.197 42.196z" fill="url(#SVGID_3_)"/><path d="m405.043 232.177h-44.554c-11.322 0-21.281 7.489-24.413 18.37-9.496 32.992-43.984 57.44-85.076 57.44s-75.581-24.447-85.076-57.44c-3.132-10.881-13.09-18.37-24.412-18.37h-44.555c-26.364 0-47.736 21.372-47.736 47.736v174.35c0 26.364 21.372 47.736 47.736 47.736h308.086c26.364 0 47.736-21.372 47.736-47.736v-174.35c0-26.364-21.372-47.736-47.736-47.736z" fill="url(#SVGID_4_)"/><path d="m97.134 471.82h37.333c9.181 0 16.623-7.443 16.623-16.623v-11.831c0-9.181-7.443-16.623-16.623-16.623h-37.333c-9.181 0-16.623 7.442-16.623 16.623v11.831c0 9.181 7.442 16.623 16.623 16.623z" fill="url(#SVGID_5_)"/><g><ellipse cx="163.114" cy="395.938" fill="#eaadcd" rx="14.936" ry="12.003"/><ellipse cx="338.886" cy="395.938" fill="#eaadcd" rx="14.936" ry="12.003"/><circle cx="188.721" cy="366.321" fill="#fff" r="29.618"/><circle cx="313.279" cy="366.321" fill="#fff" r="29.618"/><path d="m178.938 376.751c-1.222 0-2.46-.299-3.606-.929-3.63-1.995-4.954-6.555-2.959-10.185 3.278-5.963 9.542-9.668 16.348-9.668s13.07 3.704 16.35 9.668c1.995 3.629.671 8.19-2.959 10.186-3.628 1.996-8.19.671-10.186-2.959-.94-1.71-2.555-1.895-3.205-1.895-.649 0-2.264.185-3.203 1.894-1.366 2.483-3.932 3.888-6.58 3.888z" fill="#3b3b44"/><path d="m323.061 376.751c-2.647 0-5.214-1.405-6.579-3.889-.939-1.71-2.554-1.894-3.203-1.894-.65 0-2.265.185-3.205 1.895-1.995 3.63-6.554 4.954-10.185 2.959-3.63-1.996-4.954-6.556-2.959-10.186 3.279-5.963 9.544-9.668 16.349-9.668h.001c6.806 0 13.069 3.705 16.348 9.668 1.995 3.63.671 8.19-2.959 10.185-1.148.631-2.386.93-3.608.93z" fill="#3b3b44"/><g><path d="m262.671 406.125h-23.342c-6.508 0-11.784-5.276-11.784-11.784 0-6.508 5.276-11.784 11.784-11.784h23.342c6.508 0 11.784 5.276 11.784 11.784 0 6.508-5.276 11.784-11.784 11.784z" fill="#3b3b44"/></g></g></g></svg>