<svg id="Capa_1" enable-background="new 0 0 502 502" height="512" viewBox="0 0 502 502" width="512" xmlns="http://www.w3.org/2000/svg" xmlns:xlink="http://www.w3.org/1999/xlink"><linearGradient id="lg1"><stop offset="0" stop-color="#ad7d63"/><stop offset="1" stop-color="#cb9d82"/></linearGradient><linearGradient id="SVGID_1_" gradientUnits="userSpaceOnUse" x1="134.733" x2="134.733" xlink:href="#lg1" y1="434.294" y2="503.505"/><linearGradient id="SVGID_2_" gradientUnits="userSpaceOnUse" x1="367.267" x2="367.267" xlink:href="#lg1" y1="434.294" y2="503.505"/><linearGradient id="SVGID_3_" gradientUnits="userSpaceOnUse" x1="251" x2="251" xlink:href="#lg1" y1="202.525" y2="23.591"/><linearGradient id="lg2"><stop offset="0" stop-color="#74d2e8"/><stop offset="1" stop-color="#baeaf5"/></linearGradient><linearGradient id="SVGID_4_" gradientUnits="userSpaceOnUse" x1="251" x2="251" xlink:href="#lg2" y1="353.9" y2="107.365"/><linearGradient id="SVGID_5_" gradientUnits="userSpaceOnUse" x1="251" x2="251" xlink:href="#lg2" y1="448.034" y2="276.98"/><linearGradient id="SVGID_6_" gradientUnits="userSpaceOnUse" x1="251" x2="251" y1="146.634" y2="49.774"><stop offset="0" stop-color="#f9edaf"/><stop offset="1" stop-color="#fffcdd"/></linearGradient><g><path d="m158.903 502h-48.34c-15.32 0-27.739-12.419-27.739-27.739v-79.622h103.818v79.622c0 15.32-12.419 27.739-27.739 27.739z" fill="url(#SVGID_1_)"/><path d="m343.097 502h48.34c15.32 0 27.739-12.419 27.739-27.739v-79.622h-103.818v79.622c0 15.32 12.419 27.739 27.739 27.739z" fill="url(#SVGID_2_)"/><path d="m411.671 169.469h-321.342v-134.488c0-19.319 15.662-34.981 34.982-34.981h251.379c19.32 0 34.981 15.662 34.981 34.981z" fill="url(#SVGID_3_)"/><path d="m39.243 336.155 39.2-159.332c6.98-28.37 32.423-48.313 61.639-48.313h221.835c29.216 0 54.66 19.942 61.639 48.313l39.2 159.332z" fill="url(#SVGID_4_)"/><path d="m382.85 437.836h-67.492v30h67.492c8.284 0 15-6.716 15-15 0-8.284-6.716-15-15-15z" fill="#9e715d"/><path d="m82.824 394.639h103.818v73.197h-103.818z" fill="#9e715d"/><path d="m434.965 437.836h-367.93c-16.421 0-29.734-13.312-29.734-29.734v-61.374c0-16.422 13.312-29.734 29.734-29.734h367.931c16.422 0 29.734 13.312 29.734 29.734v61.374c-.001 16.422-13.313 29.734-29.735 29.734z" fill="url(#SVGID_5_)"/><path d="m159.104 105.62c0 5.69 1.15 21.402 4.285 34.104 2.418 9.794 9.941 17.546 19.698 20.11 17.457 4.586 40.098 7.059 67.913 7.059s50.455-2.472 67.913-7.059c9.757-2.563 17.28-10.315 19.698-20.11 3.136-12.701 4.285-28.414 4.285-34.104 0-5.689-1.15-21.402-4.285-34.104-2.418-9.794-9.941-17.546-19.698-20.11-17.458-4.586-40.098-7.059-67.913-7.059s-50.456 2.472-67.913 7.059c-9.757 2.563-17.28 10.315-19.698 20.11-3.136 12.702-4.285 28.414-4.285 34.104z" fill="url(#SVGID_6_)"/><path d="m322.562 173.72c-1.991-7.576-9.466-12.314-17.178-10.943-15.145 2.691-33.274 4.115-54.384 4.115-27.681 0-50.236-2.448-67.659-6.992-9.826-2.563-17.518-10.316-19.952-20.175-.888-3.596-1.616-7.432-2.204-11.215h-21.102c-3.086 0-6.127.236-9.111.667.798 5.86 1.878 12.007 3.292 17.737 5.066 20.52 20.853 36.589 41.201 41.934 20.315 5.337 45.729 8.044 75.536 8.044 22.528 0 42.547-1.546 59.752-4.605 8.599-1.53 14.028-10.12 11.809-18.567z" fill="#17c5d9"/><g><ellipse cx="163.114" cy="278.055" fill="#eaadcd" rx="14.936" ry="12.003"/><ellipse cx="338.886" cy="278.055" fill="#eaadcd" rx="14.936" ry="12.003"/><path d="m188.721 252.403c7.183 0 13.813 1.589 19.159 4.273 4.544 2.281 9.962-.801 10.365-5.87.113-1.423.126-2.875.029-4.348-.991-15.146-13.602-27.24-28.775-27.629-16.713-.428-30.396 12.992-30.396 29.608 0 .843.036 1.678.105 2.503.422 5.01 5.857 7.995 10.349 5.738 5.348-2.685 11.979-4.275 19.164-4.275z" fill="#fff"/><path d="m251 288.241c-6.447 0-12.894-2.155-18.274-6.465-4.989-3.997-5.794-11.282-1.797-16.271 3.997-4.99 11.282-5.793 16.271-1.797 2.237 1.792 5.361 1.792 7.598 0 4.988-3.997 12.273-3.193 16.271 1.797 3.997 4.989 3.193 12.274-1.797 16.271-5.378 4.31-11.825 6.465-18.272 6.465z" fill="#3b3b44"/><path d="m188.721 252.403c5.926 0 11.473 1.082 16.237 2.967.911-2.129 1.415-4.47 1.415-6.933 0-9.749-7.903-17.652-17.652-17.652s-17.652 7.903-17.652 17.652c0 2.463.504 4.803 1.415 6.933 4.764-1.885 10.312-2.967 16.237-2.967z" fill="#3b3b44"/><path d="m313.279 252.403c7.183 0 13.813 1.589 19.158 4.273 4.544 2.281 9.962-.801 10.365-5.87.113-1.423.126-2.875.029-4.348-.991-15.146-13.602-27.24-28.775-27.629-16.713-.428-30.396 12.992-30.396 29.608 0 .843.035 1.678.105 2.503.422 5.01 5.857 7.995 10.349 5.738 5.348-2.685 11.98-4.275 19.165-4.275z" fill="#fff"/><path d="m313.279 252.403c5.925 0 11.473 1.082 16.237 2.967.911-2.129 1.415-4.47 1.415-6.933 0-9.749-7.903-17.652-17.652-17.652s-17.652 7.903-17.652 17.652c0 2.463.504 4.803 1.415 6.933 4.763-1.885 10.311-2.967 16.237-2.967z" fill="#3b3b44"/></g></g></svg>