<svg id="Capa_1" enable-background="new 0 0 502 502" height="512" viewBox="0 0 502 502" width="512" xmlns="http://www.w3.org/2000/svg" xmlns:xlink="http://www.w3.org/1999/xlink"><linearGradient id="lg1"><stop offset="0" stop-color="#74d2e8"/><stop offset="1" stop-color="#baeaf5"/></linearGradient><linearGradient id="SVGID_1_" gradientTransform="matrix(-1 0 0 1 502 0)" gradientUnits="userSpaceOnUse" x1="331.625" x2="331.625" xlink:href="#lg1" y1="439.631" y2="281.287"/><linearGradient id="SVGID_2_" gradientTransform="matrix(-1 0 0 1 502 0)" gradientUnits="userSpaceOnUse" x1="170.375" x2="170.375" xlink:href="#lg1" y1="499.526" y2="341.181"/><linearGradient id="SVGID_3_" gradientUnits="userSpaceOnUse" x1="251" x2="251" y1="169.4" y2="34.788"><stop offset="0" stop-color="#4e5660"/><stop offset="1" stop-color="#64768d"/></linearGradient><linearGradient id="SVGID_4_" gradientUnits="userSpaceOnUse" x1="82.818" x2="419.182" y1="176.446" y2="176.446"><stop offset="0" stop-color="#d4dbdb"/><stop offset="1" stop-color="#f3f3f3"/></linearGradient><linearGradient id="SVGID_5_" gradientUnits="userSpaceOnUse" x1="251" x2="251" y1="331.682" y2="242.882"><stop offset="0" stop-color="#ec6f80"/><stop offset="1" stop-color="#eca0aa"/></linearGradient><g><path d="m238.864 380.218c0-42.905-29.199-66.26-51.767-97.135-8.298-11.353-25.147-11.353-33.445 0-22.568 30.875-51.767 54.23-51.767 97.135 0 34.18 30.664 61.888 68.49 61.888 37.825 0 68.489-27.708 68.489-61.888z" fill="url(#SVGID_1_)"/><path d="m185.022 313.618h-55.734c-8.702 11.013-16.565 22.295-21.611 35.341h77.346c9.759 0 17.671-7.911 17.671-17.671-.002-9.759-7.913-17.67-17.672-17.67z" fill="#17c5d9"/><path d="m400.115 440.112c0-42.905-29.199-66.26-51.767-97.135-8.298-11.353-25.147-11.353-33.445 0-22.568 30.875-51.767 54.23-51.767 97.135 0 34.18 30.664 61.888 68.49 61.888 37.825 0 68.489-27.708 68.489-61.888z" fill="url(#SVGID_2_)"/><path d="m259.459 0h-16.917c-21.45 0-38.839 17.389-38.839 38.839v120.818h94.596v-120.818c-.001-21.45-17.39-38.839-38.84-38.839z" fill="url(#SVGID_3_)"/><path d="m269.883 82.328c0-9.759-7.911-17.671-17.671-17.671h-20.095c-9.598 0-19.095.807-28.415 2.389v43.225c18.464 0 48.51-10.273 48.51-10.273 9.759.001 17.671-7.91 17.671-17.67z" fill="#424e5e"/><path d="m269.883 99.999h-37.765c-55.898 0-105.866 34.857-125.169 87.317l-24.13 65.577h336.364l-24.13-65.577c-19.304-52.46-69.272-87.317-125.17-87.317z" fill="url(#SVGID_4_)"/><g><path d="m178.051 202.07c0 6.629-6.687 12.003-14.937 12.003-8.249 0-14.936-5.374-14.936-12.003s6.687-12.003 14.936-12.003c8.25-.001 14.937 5.374 14.937 12.003z" fill="#eaadcd"/><ellipse cx="338.886" cy="202.07" fill="#eaadcd" rx="14.936" ry="12.003"/><circle cx="188.721" cy="172.452" fill="#fff" r="29.618"/><circle cx="313.279" cy="172.452" fill="#fff" r="29.618"/><path d="m198.504 182.882c-2.647 0-5.214-1.405-6.579-3.888-.94-1.71-2.554-1.895-3.204-1.895s-2.265.185-3.205 1.895c-1.997 3.629-6.557 4.953-10.186 2.959-3.63-1.996-4.954-6.556-2.959-10.186 3.279-5.963 9.543-9.668 16.349-9.668 6.806 0 13.07 3.705 16.348 9.668 1.996 3.63.671 8.19-2.959 10.186-1.144.63-2.383.929-3.605.929z" fill="#3b3b44"/><path d="m303.495 182.882c-1.222 0-2.46-.299-3.606-.929-3.63-1.996-4.954-6.556-2.959-10.186 3.279-5.963 9.544-9.668 16.349-9.668h.001c6.806 0 13.069 3.705 16.348 9.669 1.995 3.63.671 8.19-2.959 10.185-3.631 1.997-8.19.67-10.186-2.959-.939-1.71-2.554-1.894-3.203-1.894h-.001c-.65 0-2.264.185-3.204 1.895-1.366 2.482-3.932 3.887-6.58 3.887z" fill="#3b3b44"/><g><path d="m262.671 212.256h-23.342c-6.508 0-11.784-5.276-11.784-11.784 0-6.508 5.276-11.784 11.784-11.784h23.342c6.508 0 11.784 5.276 11.784 11.784 0 6.508-5.276 11.784-11.784 11.784z" fill="#3b3b44"/></g></g><path d="m415.92 313.618h-329.84c-16.209 0-29.348-13.14-29.348-29.348v-12.523c0-16.208 13.14-29.348 29.348-29.348h329.84c16.208 0 29.348 13.139 29.348 29.348v12.523c0 16.208-13.14 29.348-29.348 29.348z" fill="url(#SVGID_5_)"/><g fill="#dff7fa"><path d="m331.625 484.737c-5.522 0-10-4.477-10-10s4.478-10 10-10c9.637 0 18.612-3.492 24.625-9.581 3.881-3.93 10.214-3.968 14.142-.088 3.93 3.881 3.97 10.212.089 14.142-9.746 9.867-23.908 15.527-38.856 15.527z"/><path d="m370.114 432.197c-4.234 0-8.166-2.71-9.523-6.958-.537-1.681-1.188-3.394-1.932-5.093-2.218-5.058.085-10.956 5.143-13.174 5.059-2.217 10.957.086 13.174 5.143 1.022 2.331 1.919 4.697 2.666 7.035 1.682 5.261-1.221 10.889-6.481 12.57-1.013.323-2.039.477-3.047.477z"/></g></g></svg>