<svg id="Capa_1" enable-background="new 0 0 502 502" height="512" viewBox="0 0 502 502" width="512" xmlns="http://www.w3.org/2000/svg" xmlns:xlink="http://www.w3.org/1999/xlink"><linearGradient id="lg1"><stop offset="0" stop-color="#74d2e8"/><stop offset="1" stop-color="#baeaf5"/></linearGradient><linearGradient id="SVGID_1_" gradientUnits="userSpaceOnUse" x1="218.899" x2="21.769" xlink:href="#lg1" y1="310.657" y2="310.657"/><linearGradient id="SVGID_2_" gradientUnits="userSpaceOnUse" x1="322.376" x2="473.765" xlink:href="#lg1" y1="326.926" y2="326.926"/><linearGradient id="SVGID_3_" gradientTransform="matrix(0 -1 1 0 42.415 399.965)" gradientUnits="userSpaceOnUse" x1="196.914" x2="315.88" xlink:href="#lg1" y1="378.775" y2="378.775"/><linearGradient id="SVGID_4_" gradientTransform="matrix(0 -1 1 0 -184.475 48.03)" gradientUnits="userSpaceOnUse" x1="-100.952" x2="31.553" xlink:href="#lg1" y1="316.252" y2="316.252"/><linearGradient id="lg2"><stop offset="0" stop-color="#5bd9bb"/><stop offset=".2532" stop-color="#60dabd"/><stop offset=".5725" stop-color="#70dec4"/><stop offset=".9261" stop-color="#8ae4cf"/><stop offset="1" stop-color="#90e6d2"/></linearGradient><linearGradient id="SVGID_5_" gradientUnits="userSpaceOnUse" x1="202.568" x2="316.551" xlink:href="#lg2" y1="152.494" y2="152.494"/><linearGradient id="SVGID_6_" gradientUnits="userSpaceOnUse" x1="259.56" x2="259.56" y1="577.793" y2="172.332"><stop offset="0" stop-color="#f4d952"/><stop offset="1" stop-color="#f9edaf"/></linearGradient><linearGradient id="SVGID_7_" gradientUnits="userSpaceOnUse" x1="259.56" x2="259.56" xlink:href="#lg2" y1="393.24" y2="226.139"/><g><path d="m212.217 265.066c-1.128-41.848-36.409-75.341-78.262-74.423-46.287 1.015-80.575 42.554-74.065 87.396.752 5.178-1.503 10.302-5.793 13.298-20.345 14.21-33.465 38.049-32.742 64.911 1.127 41.848 36.407 75.341 78.26 74.424 49.253-1.079 84.921-48.042 72.306-96.045 24.583-13.232 41.106-39.504 40.296-69.561z" fill="url(#SVGID_1_)"/><circle cx="398.931" cy="326.926" fill="url(#SVGID_2_)" r="76.556"/><circle cx="421.19" cy="128.775" fill="url(#SVGID_3_)" r="59.483"/><circle cx="131.778" cy="66.252" fill="url(#SVGID_4_)" r="66.252"/><path d="m291.09 108.476h-63.061c-14.062 0-25.461 11.399-25.461 25.461v62.575h113.983v-62.575c0-14.062-11.399-25.461-25.461-25.461z" fill="url(#SVGID_5_)"/><path d="m398.781 309.046c1.008-3.566 1.876-7.166 2.603-10.794 2.052-10.234-5.204-19.994-15.6-20.923-8.952-.8-16.974 5.326-18.744 14.138-.895 4.455-2.06 8.812-3.482 13.052-2.542 7.583-.799 15.948 4.366 22.055 17.932 21.2 29.749 47.732 32.746 76.881 12.322-.276 23.923-3.466 34.148-8.904-4.149-30.733-16.322-60.355-36.037-85.505z" fill="#17c5d9"/><path d="m167.936 502h183.248c15.695 0 29.957-9.073 36.673-23.258 8.702-18.38 13.572-38.928 13.572-60.615 0-34.894-12.603-66.84-33.499-91.548-5.181-6.125-6.921-14.454-4.371-22.061 3.669-10.944 5.66-22.656 5.66-34.835 0-60.563-49.096-88.999-109.659-88.999s-109.66 28.435-109.66 88.999c0 12.179 1.992 23.891 5.66 34.835 2.55 7.606.81 15.935-4.371 22.061-20.896 24.708-33.499 56.654-33.499 91.548 0 21.687 4.87 42.235 13.572 60.615 6.717 14.185 20.979 23.258 36.674 23.258z" fill="url(#SVGID_6_)"/><path d="m116.237 289.385c.908 6.642 2.277 13.207 4.102 19.66-27.063 34.525-39.948 77.464-37.309 120.147 5.364 1.076 10.911 1.604 16.586 1.48 6.399-.14 12.565-1.061 18.429-2.652-.226-3.27-.354-6.566-.354-9.893 0-34.851 12.572-66.761 33.422-91.456 5.208-6.168 6.966-14.612 4.409-22.269-2.104-6.302-3.653-12.857-4.586-19.61-1.196-8.658-8.591-15.108-17.331-15.108-10.539 0-18.796 9.26-17.368 19.701z" fill="#17c5d9"/><ellipse cx="259.56" cy="296.132" fill="url(#SVGID_7_)" rx="59.202" ry="70.677"/><g><ellipse cx="171.674" cy="448.201" fill="#eaadcd" rx="14.936" ry="12.003"/><ellipse cx="347.445" cy="448.201" fill="#eaadcd" rx="14.936" ry="12.003"/><path d="m197.281 422.549c7.183 0 13.813 1.589 19.159 4.273 4.544 2.281 9.962-.801 10.365-5.87.113-1.423.126-2.875.029-4.348-.991-15.146-13.602-27.24-28.775-27.629-16.713-.428-30.396 12.992-30.396 29.608 0 .843.035 1.678.105 2.503.422 5.01 5.857 7.995 10.349 5.738 5.348-2.685 11.979-4.275 19.164-4.275z" fill="#fff"/><path d="m259.56 458.388c-6.447 0-12.894-2.155-18.273-6.465-4.989-3.997-5.794-11.282-1.797-16.271 3.997-4.99 11.282-5.793 16.271-1.797 2.237 1.792 5.361 1.792 7.598 0 4.988-3.997 12.273-3.193 16.271 1.797 3.997 4.989 3.193 12.274-1.797 16.271-5.379 4.31-11.826 6.465-18.273 6.465z" fill="#3b3b44"/><path d="m197.281 422.549c5.926 0 11.473 1.082 16.237 2.967.911-2.129 1.415-4.47 1.415-6.933 0-9.749-7.903-17.652-17.652-17.652s-17.652 7.903-17.652 17.652c0 2.463.504 4.803 1.415 6.933 4.764-1.885 10.312-2.967 16.237-2.967z" fill="#3b3b44"/><path d="m321.839 422.549c7.183 0 13.813 1.589 19.159 4.273 4.544 2.281 9.962-.801 10.365-5.87.113-1.423.126-2.875.029-4.348-.991-15.146-13.602-27.24-28.775-27.629-16.713-.428-30.396 12.992-30.396 29.608 0 .843.035 1.678.105 2.503.422 5.01 5.856 7.995 10.349 5.738 5.347-2.685 11.979-4.275 19.164-4.275z" fill="#fff"/><path d="m321.839 422.549c5.926 0 11.473 1.082 16.237 2.967.911-2.129 1.415-4.47 1.415-6.933 0-9.749-7.903-17.652-17.652-17.652s-17.652 7.903-17.652 17.652c0 2.463.504 4.803 1.415 6.933 4.763-1.885 10.311-2.967 16.237-2.967z" fill="#3b3b44"/></g><path d="m270.395 307.632h-21.669c-6.352 0-11.5-5.149-11.5-11.5s5.148-11.5 11.5-11.5h21.669c6.352 0 11.5 5.149 11.5 11.5s-5.149 11.5-11.5 11.5z" fill="#00b094"/><g fill="#dff7fa"><path d="m107.207 44.239c-2.999 0-5.965-1.343-7.934-3.905-3.366-4.378-2.546-10.656 1.832-14.023 8.871-6.82 19.477-10.426 30.673-10.426 2.743 0 5.497.223 8.187.663 5.45.893 9.145 6.035 8.252 11.485s-6.025 9.143-11.484 8.252c-1.624-.266-3.29-.401-4.954-.401-6.747 0-13.138 2.172-18.481 6.281-1.818 1.398-3.963 2.074-6.091 2.074z"/><path d="m93.876 90.14c-4.078 0-7.908-2.513-9.392-6.565-1.204-3.289-2.065-6.719-2.559-10.194-.777-5.468 3.026-10.53 8.494-11.307 5.457-.773 10.53 3.026 11.307 8.494.297 2.091.815 4.154 1.539 6.131 1.898 5.186-.767 10.93-5.952 12.829-1.134.414-2.295.612-3.437.612z"/></g></g></svg>