<svg id="Capa_1" enable-background="new 0 0 502 502" height="512" viewBox="0 0 502 502" width="512" xmlns="http://www.w3.org/2000/svg" xmlns:xlink="http://www.w3.org/1999/xlink"><linearGradient id="SVGID_1_" gradientUnits="userSpaceOnUse" x1="363.733" x2="133.618" y1="333.038" y2="333.038"><stop offset="0" stop-color="#996c66"/><stop offset="1" stop-color="#ba8a6c"/></linearGradient><linearGradient id="lg1"><stop offset="0" stop-color="#f9edaf"/><stop offset="1" stop-color="#fffcdd"/></linearGradient><linearGradient id="SVGID_2_" gradientTransform="matrix(-1 0 0 1 902 0)" gradientUnits="userSpaceOnUse" x1="692.907" x2="692.907" xlink:href="#lg1" y1="405.61" y2="368.256"/><linearGradient id="lg2"><stop offset="0" stop-color="#74d2e8"/><stop offset="1" stop-color="#baeaf5"/></linearGradient><linearGradient id="SVGID_3_" gradientTransform="matrix(-1 0 0 1 902 0)" gradientUnits="userSpaceOnUse" x1="505.993" x2="505.993" xlink:href="#lg2" y1="297.894" y2="130.483"/><linearGradient id="SVGID_4_" gradientUnits="userSpaceOnUse" x1="287.65" x2="287.65" y1="468.797" y2="213.838"><stop offset="0" stop-color="#ad7d63"/><stop offset="1" stop-color="#cb9d82"/></linearGradient><linearGradient id="SVGID_5_" gradientTransform="matrix(-1 0 0 1 902 0)" gradientUnits="userSpaceOnUse" x1="777.616" x2="777.616" xlink:href="#lg2" y1="318.621" y2="91.156"/><linearGradient id="SVGID_6_" gradientTransform="matrix(-1 0 0 1 902 0)" gradientUnits="userSpaceOnUse" x1="568.198" x2="568.198" xlink:href="#lg1" y1="403.633" y2="366.279"/><g><path d="m297.792 215.198 67.581 67.581-118.454 148.83c-18.987 23.857-54.513 25.869-76.073 4.309l-11.075-11.075c-19.778-19.778-19.778-51.845 0-71.624z" fill="url(#SVGID_1_)"/><path d="m196.69 340.622c-6.294 6.294-6.861 16.309-1.318 23.272l52.721 66.24 22.366-28.102-47.701-59.934c-6.507-8.174-18.68-8.864-26.068-1.476z" fill="#8c5f59"/><circle cx="209.093" cy="386.901" fill="url(#SVGID_2_)" r="20.285"/><path d="m362.542 295.503-72.527-72.527 152.135-152.135c16.223-16.223 43.84-9.77 51.194 11.962 19.991 59.071 4.734 124.369-39.363 168.466l-44.235 44.235c-13.035 13.035-34.169 13.035-47.204-.001z" fill="url(#SVGID_3_)"/><path d="m199.474 369.048 24.847 31.219c7.004-7.967 6.723-20.102-.884-27.709-6.49-6.49-16.279-7.654-23.963-3.51z" fill="#f5c98d"/><path d="m175.545 282.779 56.111-56.111 148.83 118.453c23.857 18.987 25.869 54.513 4.309 76.073l-14.723 14.724c-21.56 21.56-57.086 19.548-76.073-4.309z" fill="url(#SVGID_4_)"/><path d="m40.047 158.877 50.405 50.405c4.768 4.768 12.497 4.768 17.265 0 4.768-4.768 4.768-12.497 0-17.265l-50.405-50.405c-9.161-9.161-9.161-24.015 0-33.176 9.161-9.161 24.015-9.161 33.176 0l50.405 50.405c4.768 4.768 12.497 4.768 17.265 0 4.768-4.768 4.768-12.497 0-17.265l-50.404-50.406c-9.161-9.161-9.161-24.015 0-33.176 9.161-9.161 24.015-9.161 33.176 0l86.831 86.83c28.011 28.011 28.011 73.426 0 101.436l-32.623 32.623c-28.011 28.011-73.426 28.011-101.436 0l-86.831-86.83c-9.161-9.161-9.161-24.015 0-33.176 9.161-9.162 24.015-9.162 33.176 0z" fill="url(#SVGID_5_)"/><circle cx="333.802" cy="384.924" fill="url(#SVGID_6_)" r="20.285"/><g fill="#dff7fa"><path d="m473.976 144.265c-5.487 0-9.956-4.426-9.998-9.922-.081-10.391-1.446-20.738-4.056-30.759-1.392-5.344 1.812-10.806 7.156-12.197 5.342-1.399 10.806 1.811 12.198 7.156 3.025 11.613 4.607 23.606 4.701 35.644.043 5.523-4.399 10.035-9.921 10.078-.027 0-.055 0-.08 0z"/><path d="m465.482 192.686c-1.156 0-2.33-.202-3.478-.628-5.178-1.922-7.817-7.677-5.895-12.855.882-2.377 1.704-4.813 2.442-7.243 1.605-5.284 7.191-8.263 12.475-6.661 5.284 1.607 8.267 7.191 6.661 12.476-.854 2.814-1.806 5.635-2.828 8.388-1.496 4.03-5.315 6.523-9.377 6.523z"/></g></g></svg>