<svg id="Capa_1" enable-background="new 0 0 502 502" height="512" viewBox="0 0 502 502" width="512" xmlns="http://www.w3.org/2000/svg" xmlns:xlink="http://www.w3.org/1999/xlink"><linearGradient id="lg1"><stop offset="0" stop-color="#c5cccc"/><stop offset="1" stop-color="#e6e6e6"/></linearGradient><linearGradient id="SVGID_1_" gradientUnits="userSpaceOnUse" x1="147.161" x2="147.161" xlink:href="#lg1" y1="390.376" y2="507.49"/><linearGradient id="SVGID_2_" gradientUnits="userSpaceOnUse" x1="354.839" x2="354.839" xlink:href="#lg1" y1="390.376" y2="507.49"/><linearGradient id="SVGID_3_" gradientUnits="userSpaceOnUse" x1="251" x2="251" y1="95.941" y2="6.621"><stop offset="0" stop-color="#ec6f80"/><stop offset="1" stop-color="#eca0aa"/></linearGradient><linearGradient id="SVGID_4_" gradientTransform="matrix(-1 0 0 1 702 0)" gradientUnits="userSpaceOnUse" x1="674.59" x2="200.722" y1="258.902" y2="258.902"><stop offset="0" stop-color="#4e5660"/><stop offset="1" stop-color="#64768d"/></linearGradient><linearGradient id="SVGID_5_" gradientUnits="userSpaceOnUse" x1="251" x2="251" y1="455.706" y2="132.97"><stop offset="0" stop-color="#74d2e8"/><stop offset="1" stop-color="#baeaf5"/></linearGradient><g><g><path d="m83.126 491.858c-13.522-13.522-13.522-35.446 0-48.967l79.102-79.102c13.523-13.524 35.446-13.524 48.968 0 13.522 13.522 13.522 35.446 0 48.968l-79.102 79.101c-13.521 13.522-35.445 13.524-48.968 0z" fill="url(#SVGID_1_)"/><path d="m418.874 491.858c13.522-13.522 13.522-35.446 0-48.967l-79.102-79.102c-13.523-13.524-35.446-13.524-48.968 0-13.522 13.522-13.522 35.446 0 48.968l79.102 79.101c13.521 13.522 35.445 13.524 48.968 0z" fill="url(#SVGID_2_)"/><path d="m234.05 102.198-61.275-61.275c-9.362-9.362-9.362-24.54-.001-33.902 9.362-9.362 24.54-9.362 33.901 0l44.325 44.325 44.325-44.325c9.361-9.361 24.539-9.361 33.901 0 9.361 9.362 9.361 24.54-.001 33.902l-61.275 61.275c-9.359 9.36-24.539 9.362-33.9 0z" fill="url(#SVGID_3_)"/><path d="m162.227 363.789-79.101 79.101c-3.782 3.782-6.505 8.222-8.171 12.951 12.435 4.345 25.788 6.716 39.686 6.716h46.754l49.801-49.801c13.522-13.523 13.522-35.447 0-48.968-13.523-13.523-35.446-13.523-48.969.001z" fill="#b9bec4"/><path d="m24.032 341.949v-166.093c0-50.042 40.567-90.609 90.609-90.609h272.719c50.042 0 90.609 40.567 90.609 90.609v166.093c0 50.042-40.567 90.609-90.609 90.609h-272.719c-50.042-.001-90.609-40.567-90.609-90.609z" fill="url(#SVGID_4_)"/><path d="m382.164 432.557h-71.559l30.001 30h41.559c8.284 0 15-6.716 15-15-.001-8.284-6.717-15-15.001-15z" fill="#b9bec4"/><path d="m108.613 379.287h284.774c17.292 0 31.31-14.018 31.31-31.31v-178.149c0-17.292-14.018-31.31-31.31-31.31h-284.774c-17.292 0-31.31 14.018-31.31 31.31v178.148c0 17.293 14.018 31.311 31.31 31.311z" fill="url(#SVGID_5_)"/></g><g><ellipse cx="163.115" cy="242.757" fill="#eaadcd" rx="14.936" ry="12.003"/><ellipse cx="338.886" cy="242.757" fill="#eaadcd" rx="14.936" ry="12.003"/><ellipse cx="188.721" cy="213.14" fill="#fff" rx="29.618" ry="29.618" transform="matrix(.386 -.922 .922 .386 -80.762 304.915)"/><ellipse cx="313.279" cy="213.14" fill="#fff" rx="29.618" ry="29.618" transform="matrix(.386 -.922 .922 .386 -4.304 419.811)"/><g fill="#3b3b44"><g><ellipse cx="188.721" cy="213.14" rx="17.652" ry="17.652" transform="matrix(.161 -.987 .987 .161 -51.964 365.175)"/><ellipse cx="313.279" cy="213.14" rx="17.652" ry="17.652" transform="matrix(.231 -.973 .973 .231 33.635 468.818)"/></g><path d="m251 243.699c-5.248 0-10.495-1.984-14.776-5.954-2.025-1.877-2.145-5.041-.267-7.065 1.878-2.026 5.041-2.144 7.066-.267 4.697 4.354 11.257 4.354 15.954 0 2.023-1.878 5.188-1.759 7.066.267 1.877 2.024 1.758 5.189-.267 7.065-4.281 3.97-9.528 5.954-14.776 5.954z"/></g></g><path d="m211.273 334.812c-16.004 0-32.008-4.514-45.971-13.539-5.334-3.448-6.863-10.567-3.415-15.901 3.447-5.334 10.566-6.862 15.901-3.415 20.341 13.15 46.629 13.15 66.969 0 27.927-18.051 64.016-18.051 91.942 0 5.334 3.448 6.863 10.567 3.415 15.901-3.447 5.334-10.566 6.861-15.901 3.415-20.341-13.15-46.629-13.15-66.969 0-13.964 9.025-29.968 13.539-45.971 13.539z" fill="#17c5d9"/><g fill="#8196ab"><path d="m449.63 164.464c-4.393 0-8.42-2.917-9.638-7.359-.549-2.001-1.235-3.987-2.041-5.904-2.14-5.092.253-10.953 5.345-13.093 5.093-2.142 10.954.254 13.093 5.345 1.141 2.715 2.113 5.528 2.891 8.365 1.46 5.326-1.674 10.827-7 12.288-.884.242-1.775.358-2.65.358z"/><path d="m418.474 127.204c-1.448 0-2.918-.315-4.311-.982-6.521-3.121-13.511-4.704-20.776-4.704h-22.032c-5.523 0-10-4.478-10-10s4.477-10 10-10h22.032c10.278 0 20.173 2.242 29.412 6.665 4.981 2.385 7.086 8.355 4.702 13.338-1.718 3.587-5.298 5.683-9.027 5.683z"/></g></g></svg>