<svg id="Capa_1" enable-background="new 0 0 502 502" height="512" viewBox="0 0 502 502" width="512" xmlns="http://www.w3.org/2000/svg" xmlns:xlink="http://www.w3.org/1999/xlink"><linearGradient id="lg1"><stop offset="0" stop-color="#f9edaf"/><stop offset="1" stop-color="#fffcdd"/></linearGradient><linearGradient id="SVGID_1_" gradientUnits="userSpaceOnUse" x1="251" x2="251" xlink:href="#lg1" y1="486.731" y2="83.808"/><linearGradient id="SVGID_2_" gradientUnits="userSpaceOnUse" x1="251" x2="251" y1="486.4" y2="62.094"><stop offset="0" stop-color="#ad7d63"/><stop offset="1" stop-color="#cb9d82"/></linearGradient><linearGradient id="SVGID_3_" gradientUnits="userSpaceOnUse" x1="251" x2="251" xlink:href="#lg1" y1="113.255" y2="473.046"/><linearGradient id="SVGID_4_" gradientUnits="userSpaceOnUse" x1="33.401" x2="419.636" y1="81.748" y2="81.748"><stop offset="0" stop-color="#4e5660"/><stop offset="1" stop-color="#64768d"/></linearGradient><g><path d="m441.342 492.965h-380.684c-33.501 0-60.658-27.158-60.658-60.658v-269.178c0-33.501 27.157-60.658 60.658-60.658h380.684c33.5 0 60.658 27.157 60.658 60.658v269.178c0 33.5-27.158 60.658-60.658 60.658z" fill="url(#SVGID_1_)"/><path d="m439.753 492.965h-377.506c-34.378 0-62.247-27.869-62.247-62.247v-286.723c0-34.378 27.869-62.247 62.247-62.247h377.507c34.378 0 62.247 27.869 62.247 62.247v286.724c-.001 34.377-27.87 62.246-62.248 62.246z" fill="url(#SVGID_2_)"/><path d="m251 81.748h-188.753c-.43 0-.854.024-1.281.033v31.144c0 42.202 34.334 76.536 76.536 76.536h113.498z" fill="#9e715d"/><path d="m434.609 126.748h-336.278c-8.464 8.857-30.953 4.428-35.987.578-9.935 2.29-17.344 11.183-17.344 21.813v276.435c0 12.366 10.025 22.391 22.391 22.391h367.219c12.366 0 22.391-10.025 22.391-22.391v-276.435c-.001-12.366-10.026-22.391-22.392-22.391z" fill="url(#SVGID_3_)"/><path d="m166.187 242.73 19.24-19.24c4.491-4.491 4.491-11.773 0-16.264-4.492-4.491-11.772-4.491-16.264 0l-19.24 19.24-19.241-19.24c-4.491-4.49-11.772-4.49-16.264 0-4.491 4.491-4.491 11.772 0 16.264l19.241 19.24-19.241 19.24c-4.491 4.491-4.491 11.772 0 16.264s11.773 4.489 16.264 0l19.241-19.24 19.24 19.24c4.491 4.49 11.771 4.491 16.264 0 4.491-4.491 4.491-11.772 0-16.264z" fill="#e05d6f"/><g fill="#f5c98d"><path d="m204.933 337.767h-110.019c-6.351 0-11.5-5.148-11.5-11.5s5.149-11.5 11.5-11.5h110.019c6.351 0 11.5 5.148 11.5 11.5s-5.149 11.5-11.5 11.5z"/><path d="m204.933 397.94h-110.019c-6.351 0-11.5-5.149-11.5-11.5 0-6.352 5.149-11.5 11.5-11.5h110.019c6.351 0 11.5 5.148 11.5 11.5 0 6.351-5.149 11.5-11.5 11.5z"/></g><path d="m338.39 280.102c-2.559 0-5.118-.977-7.071-2.929l-27.372-27.372c-3.905-3.905-3.905-10.237 0-14.143 3.906-3.904 10.236-3.904 14.143 0l20.301 20.302 47.674-47.674c3.907-3.904 10.237-3.903 14.143 0 3.905 3.905 3.905 10.237 0 14.143l-54.745 54.744c-1.955 1.952-4.515 2.929-7.073 2.929z" fill="#12c7aa"/><g fill="#f5c98d"><path d="m407.086 337.767h-110.02c-6.352 0-11.5-5.148-11.5-11.5s5.148-11.5 11.5-11.5h110.02c6.352 0 11.5 5.148 11.5 11.5s-5.148 11.5-11.5 11.5z"/><path d="m407.086 397.94h-110.02c-6.352 0-11.5-5.149-11.5-11.5 0-6.352 5.148-11.5 11.5-11.5h110.02c6.352 0 11.5 5.148 11.5 11.5 0 6.351-5.148 11.5-11.5 11.5z"/></g><path d="m364.498 171.961c0-9.665-7.835-17.5-17.5-17.5h-209.496c-18.092 0-33.474-11.571-39.171-27.713h-30.94c-1.736 0-3.424.204-5.047.578 6.759 35.339 37.88 62.135 75.158 62.135h209.497c9.664 0 17.499-7.835 17.499-17.5z" fill="#f5c98d"/><path d="m364.498 9.035h-226.996c-22.94 0-41.536 18.597-41.536 41.536v62.353c0 22.94 18.596 41.536 41.536 41.536h226.997c22.94 0 41.536-18.596 41.536-41.536v-62.353c0-22.94-18.597-41.536-41.537-41.536z" fill="url(#SVGID_4_)"/><g><ellipse cx="163.114" cy="108.863" fill="#eaadcd" rx="14.936" ry="12.003"/><ellipse cx="338.886" cy="108.863" fill="#eaadcd" rx="14.936" ry="12.003"/><circle cx="188.721" cy="79.245" fill="#fff" r="29.618"/><circle cx="313.279" cy="79.245" fill="#fff" r="29.618"/><g fill="#3b3b44"><g><circle cx="188.721" cy="79.245" r="17.652"/><circle cx="313.279" cy="79.245" r="17.652"/></g><path d="m251 109.806c-5.248 0-10.495-1.984-14.776-5.953-2.025-1.878-2.145-5.041-.267-7.066 1.878-2.024 5.041-2.143 7.066-.268 4.696 4.355 11.256 4.355 15.954 0 2.023-1.875 5.189-1.757 7.066.268s1.758 5.188-.268 7.066c-4.28 3.968-9.528 5.953-14.775 5.953z"/></g></g></g></svg>