<svg id="Capa_1" enable-background="new 0 0 502 502" height="512" viewBox="0 0 502 502" width="512" xmlns="http://www.w3.org/2000/svg" xmlns:xlink="http://www.w3.org/1999/xlink"><linearGradient id="lg1"><stop offset="0" stop-color="#d4dbdb"/><stop offset="1" stop-color="#f3f3f3"/></linearGradient><linearGradient id="SVGID_1_" gradientUnits="userSpaceOnUse" x1="44.013" x2="411.02" xlink:href="#lg1" y1="120.678" y2="120.678"/><linearGradient id="lg2"><stop offset="0" stop-color="#4e5660"/><stop offset="1" stop-color="#64768d"/></linearGradient><linearGradient id="SVGID_2_" gradientUnits="userSpaceOnUse" x1="101.272" x2="101.272" xlink:href="#lg2" y1="97.43" y2="39.63"/><linearGradient id="SVGID_3_" gradientUnits="userSpaceOnUse" x1="254.262" x2="254.262" xlink:href="#lg2" y1="245.94" y2="184.439"/><linearGradient id="SVGID_4_" gradientUnits="userSpaceOnUse" x1="44.013" x2="411.02" xlink:href="#lg1" y1="398.142" y2="398.142"/><linearGradient id="lg3"><stop offset="0" stop-color="#74d2e8"/><stop offset="1" stop-color="#baeaf5"/></linearGradient><linearGradient id="SVGID_5_" gradientUnits="userSpaceOnUse" x1="25.606" x2="403.504" xlink:href="#lg3" y1="276.844" y2="276.844"/><linearGradient id="SVGID_6_" gradientUnits="userSpaceOnUse" x1="65.259" x2="448.762" xlink:href="#lg3" y1="30.907" y2="30.907"/><g><path d="m390.443 16.763h-272.363c-14.226 0-25.758 11.532-25.758 25.758v130.768c0 28.334 22.97 51.304 51.304 51.304h221.271c28.334 0 51.304-22.969 51.304-51.304v-130.768c0-14.226-11.532-25.758-25.758-25.758z" fill="url(#SVGID_1_)"/><path d="m139.149 78.582c0 10.704-6.216 19.382-20.051 19.382-37.153 0-55.702-2.589-55.702-19.382s18.548-19.382 55.702-19.382c13.835 0 20.051 8.678 20.051 19.382z" fill="url(#SVGID_2_)"/><path d="m417.438 254.615c0-47.287-31.612-59.728-163.176-59.728s-163.177 12.441-163.177 59.728z" fill="url(#SVGID_3_)"/><path d="m417.438 294.284h-326.353c0 54.117 32.951 89.539 81.888 106.972 12.176 4.338 19.549 16.783 17.248 29.502-3.195 17.661-8.479 32.917-16.495 46.543-6.429 10.928 1.301 24.699 13.98 24.699h133.112c12.679 0 20.408-13.771 13.979-24.699-8.016-13.626-13.3-28.882-16.495-46.543-2.301-12.719 5.071-25.165 17.248-29.502 48.937-17.433 81.888-52.855 81.888-106.972z" fill="url(#SVGID_4_)"/><path d="m351.45 307.751-161.804-17.024-97.845 17.024c1.394 12.849 4.795 24.511 9.925 35h249.724c9.665 0 17.5-7.835 17.5-17.5 0-9.665-7.835-17.5-17.5-17.5z" fill="#cad1d9"/><path d="m410.932 245.936h-313.341c-15.283 0-27.672 12.389-27.672 27.672v16.167c0 9.928 8.048 17.976 17.976 17.976h332.734c9.928 0 17.976-8.048 17.976-17.976v-16.167c-.001-15.283-12.39-27.672-27.673-27.672z" fill="url(#SVGID_5_)"/><path d="m410.932 0h-313.341c-15.283 0-27.672 12.389-27.672 27.672v16.167c0 9.928 8.048 17.976 17.976 17.976h332.734c9.928 0 17.976-8.048 17.976-17.976v-16.167c-.001-15.283-12.39-27.672-27.673-27.672z" fill="url(#SVGID_6_)"/><g><ellipse cx="166.376" cy="149.096" fill="#eaadcd" rx="14.936" ry="12.003"/><ellipse cx="342.147" cy="149.096" fill="#eaadcd" rx="14.936" ry="12.003"/><circle cx="191.983" cy="119.478" fill="#fff" r="29.618"/><circle cx="316.54" cy="119.478" fill="#fff" r="29.618"/><g fill="#3b3b44"><g><circle cx="191.983" cy="119.478" r="17.652"/><circle cx="316.54" cy="119.478" r="17.652"/></g><path d="m254.262 150.038c-5.247 0-10.495-1.984-14.775-5.953-2.025-1.878-2.145-5.041-.268-7.066 1.878-2.025 5.041-2.144 7.066-.268 4.697 4.355 11.256 4.355 15.953 0 2.024-1.875 5.188-1.757 7.066.268 1.877 2.025 1.758 5.188-.268 7.066-4.279 3.969-9.527 5.953-14.774 5.953z"/></g></g><g fill="#dff7fa"><path d="m408.563 33.798h-42.455c-5.522 0-10-4.478-10-10s4.478-10 10-10h42.455c5.522 0 10 4.477 10 10 0 5.522-4.478 10-10 10z"/><path d="m325.184 33.798h-8.644c-5.522 0-10-4.478-10-10s4.478-10 10-10h8.644c5.522 0 10 4.477 10 10 0 5.522-4.478 10-10 10z"/></g></g></svg>