<svg id="Capa_1" enable-background="new 0 0 502 502" height="512" viewBox="0 0 502 502" width="512" xmlns="http://www.w3.org/2000/svg" xmlns:xlink="http://www.w3.org/1999/xlink"><linearGradient id="SVGID_1_" gradientUnits="userSpaceOnUse" x1="135.345" x2="135.345" y1="107.622" y2="531.11"><stop offset="0" stop-color="#ec6f80"/><stop offset="1" stop-color="#eca0aa"/></linearGradient><linearGradient id="SVGID_2_" gradientUnits="userSpaceOnUse" x1="135.345" x2="135.345" y1="250.465" y2="424.829"><stop offset="0" stop-color="#f4d952"/><stop offset="1" stop-color="#f9edaf"/></linearGradient><linearGradient id="SVGID_3_" gradientUnits="userSpaceOnUse" x1="275.667" x2="478.395" y1="307.693" y2="307.693"><stop offset="0" stop-color="#c5cccc"/><stop offset="1" stop-color="#e6e6e6"/></linearGradient><linearGradient id="SVGID_4_" gradientUnits="userSpaceOnUse" x1="235.839" x2="235.839" y1="343.373" y2="90.225"><stop offset="0" stop-color="#d4dbdb"/><stop offset="1" stop-color="#f3f3f3"/></linearGradient><linearGradient id="SVGID_5_" gradientUnits="userSpaceOnUse" x1="83.252" x2="202.06" y1="86.718" y2="86.718"><stop offset="0" stop-color="#4e5660"/><stop offset="1" stop-color="#64768d"/></linearGradient><g><path d="m60.695 86.102h149.3c33.521 0 60.695 27.174 60.695 60.695v267.195c0 33.521-27.174 60.695-60.695 60.695h-149.3c-33.521 0-60.695-27.174-60.695-60.695v-267.195c0-33.52 27.174-60.695 60.695-60.695z" fill="url(#SVGID_1_)"/><path d="m270.69 146.797c0-33.521-27.174-60.695-60.695-60.695h-149.3c-3.171 0-6.285.245-9.324.714 3.367 11.276 9.489 21.896 18.376 30.785l12.971 12.97c-22.147 57.997-12.575 124.406 32.735 169.716z" fill="#e05d6f"/><path d="m193.706 301.783-18.446-6.698c-3.98-1.445-7.472-3.983-10.076-7.321l-12.071-15.473c-5.67-7.269-14.685-9.966-22.841-8.098-1.696 9.82-9.921 21.759-24.766 23.572-2.604 3.339-6.097 5.876-10.076 7.321l-18.446 6.698c-13.788 5.007-19.193 21.642-10.981 33.797l10.986 16.261c2.37 3.509 3.704 7.614 3.849 11.846l.67 19.613c.501 14.66 14.652 24.941 28.749 20.888l18.86-5.423c4.069-1.17 8.386-1.17 12.455 0l18.86 5.423c14.097 4.054 28.248-6.228 28.749-20.888l.67-19.613c.145-4.232 1.478-8.337 3.849-11.846l10.986-16.261c8.213-12.156 2.808-28.792-10.98-33.798z" fill="url(#SVGID_2_)"/><path d="m483.14 336.135-166.806-166.805-91.066 91.066 47.234 47.234c9.084 9.084 21.405 14.188 34.252 14.188h9.34c10.603 0 19.198 8.595 19.198 19.198v23.184c0 8.197 6.645 14.842 14.842 14.842h23.183c10.603 0 19.199 8.595 19.199 19.198v20.797c0 5.891 2.754 11.494 7.535 14.936 25.163 18.116 60.453 15.864 83.088-6.772 25.148-25.147 25.148-65.919.001-91.066z" fill="url(#SVGID_3_)"/><path d="m159.648 311.996c5.192-7.901 3.155-18.474-4.57-23.925-5.235-3.694-10.214-7.871-14.876-12.534-3.602-3.602-6.906-7.396-9.93-11.346-4.821 1.104-9.343 3.801-12.695 8.098l-12.071 15.473c-.2.257-.416.5-.627.748 3.285 4.057 6.793 7.996 10.574 11.776 6.087 6.087 12.638 11.587 19.581 16.475 8.049 5.667 19.209 3.461 24.614-4.765z" fill="#efc534"/><path d="m323.273 267.335c-52.819 52.819-134.783 56.491-183.071 8.203s-44.616-130.252 8.203-183.071 134.783-56.491 183.071-8.203 44.616 130.252-8.203 183.071z" fill="url(#SVGID_4_)"/><path d="m163.669 146.122c-9.826 0-19.65-3.748-27.147-11.245l-42.026-42.025c-14.992-14.994-14.992-39.302 0-54.294 14.994-14.994 39.3-14.994 54.294 0l42.025 42.025c14.992 14.992 14.992 39.3 0 54.294-7.496 7.497-17.32 11.245-27.146 11.245z" fill="url(#SVGID_5_)"/><g><ellipse cx="195.265" cy="263.616" fill="#eaadcd" rx="14.936" ry="12.003" transform="matrix(.707 -.707 .707 .707 -129.213 215.284)"/><ellipse cx="319.554" cy="139.327" fill="#eaadcd" rx="14.936" ry="12.003" transform="matrix(.707 -.707 .707 .707 -4.924 266.766)"/><circle cx="192.429" cy="224.566" fill="#fff" r="29.618"/><path d="m196.45 220.545c6.894 6.894 6.894 18.07 0 24.964s-18.071 6.894-24.964 0c-6.894-6.894-6.894-18.07 0-24.964 6.893-6.894 18.07-6.894 24.964 0z" fill="#3b3b44"/><circle cx="280.504" cy="136.491" fill="#fff" r="29.618"/><g fill="#3b3b44"><ellipse cx="272.043" cy="144.951" rx="17.652" ry="17.652" transform="matrix(.559 -.829 .829 .559 -.171 289.581)"/><path d="m246.921 180.248-10.734 10.735c-2.126 2.126-2.603 5.398-1.163 8.038 4.538 8.317 15.561 23.681 29.589 9.653s-1.336-25.051-9.653-29.589c-2.641-1.44-5.913-.964-8.039 1.163z"/></g></g><g fill="#fff"><path d="m428.976 334.397c-2.56 0-5.118-.977-7.071-2.929l-5.027-5.027c-3.905-3.905-3.905-10.237 0-14.143 3.906-3.904 10.236-3.904 14.142 0l5.027 5.027c3.905 3.905 3.905 10.237 0 14.143-1.953 1.953-4.512 2.929-7.071 2.929z"/><path d="m471.779 395.365c-.347 0-.696-.018-1.049-.055-5.493-.573-9.482-5.49-8.909-10.983.777-7.448-1.763-14.704-6.967-19.908l-4.281-4.28c-3.905-3.905-3.906-10.237-.002-14.143 3.905-3.906 10.235-3.906 14.143-.002l4.282 4.281c9.487 9.487 14.122 22.654 12.718 36.126-.536 5.141-4.878 8.964-9.935 8.964z"/></g></g></svg>