<svg id="Capa_1" enable-background="new 0 0 502 502" height="512" viewBox="0 0 502 502" width="512" xmlns="http://www.w3.org/2000/svg" xmlns:xlink="http://www.w3.org/1999/xlink"><linearGradient id="SVGID_1_" gradientUnits="userSpaceOnUse" x1="251" x2="251" y1="619.288" y2="-40.631"><stop offset="0" stop-color="#d4dbdb"/><stop offset="1" stop-color="#f3f3f3"/></linearGradient><linearGradient id="SVGID_2_" gradientTransform="matrix(.984 .016 .016 .984 .997 -.997)" gradientUnits="userSpaceOnUse" x1="186.132" x2="186.132" y1="436.126" y2="140.915"><stop offset="0" stop-color="#ec6f80"/><stop offset="1" stop-color="#eca0aa"/></linearGradient><g><path d="m477.982 255.269-222.713 222.713c-32.024 32.024-83.946 32.024-115.97 0l-115.281-115.281c-32.024-32.024-32.024-83.945 0-115.97l222.713-222.713c32.024-32.024 83.946-32.024 115.97 0l115.281 115.281c32.024 32.025 32.024 83.946 0 115.97z" fill="url(#SVGID_1_)"/><path d="m155.712 167.991-111.208 111.208c-13.935 13.935-13.935 36.528 0 50.463l127.834 127.834c13.935 13.935 36.528 13.935 50.463 0l111.209-111.209c13.935-13.935 13.935-36.528 0-50.463l-127.835-127.833c-13.935-13.935-36.528-13.935-50.463 0z" fill="url(#SVGID_2_)"/><path d="m222.801 457.496c-13.935 13.935-36.528 13.935-50.463 0l-48.874-48.875c-7.39-7.39-19.372-7.39-26.762 0-7.39 7.39-7.39 19.372 0 26.762l42.598 42.598c32.024 32.024 83.946 32.024 115.97 0l56.568-56.568c7.311-7.311 7.311-19.166 0-26.477-7.312-7.311-19.166-7.311-26.477 0z" fill="#cad1d9"/><path d="m219.675 216.778c-12.926 0-25.08-5.033-34.22-14.174-18.868-18.869-18.868-49.571 0-68.44 9.141-9.141 21.294-14.175 34.22-14.175s25.08 5.034 34.22 14.175c18.868 18.869 18.868 49.571 0 68.44-9.14 9.141-21.293 14.174-34.22 14.174zm0-76.789c-7.585 0-14.715 2.954-20.078 8.317-11.071 11.07-11.071 29.085 0 40.155 5.363 5.363 12.493 8.316 20.078 8.316s14.715-2.953 20.078-8.316c11.071-11.07 11.071-29.085 0-40.155-5.363-5.363-12.493-8.317-20.078-8.317z" fill="#17c5d9"/><path d="m333.406 239.748c-2.943 0-5.886-1.123-8.132-3.368-4.491-4.491-4.491-11.772 0-16.264l68.061-68.062c4.491-4.49 11.772-4.49 16.264 0 4.491 4.491 4.491 11.772 0 16.264l-68.061 68.061c-2.246 2.246-5.189 3.369-8.132 3.369z" fill="#b9bec4"/><g><ellipse cx="152.445" cy="400.221" fill="#efc5db" rx="14.936" ry="12.003" transform="matrix(.707 -.707 .707 .707 -238.35 225.02)"/><path d="m287.296 265.37c4.688 4.688 3.759 13.216-2.074 19.049s-14.362 6.762-19.049 2.074c-4.688-4.688-3.759-13.216 2.074-19.049 5.832-5.833 14.361-6.761 19.049-2.074z" fill="#efc5db"/><ellipse cx="149.609" cy="361.171" fill="#fff" rx="29.618" ry="29.618" transform="matrix(.707 -.707 .707 .707 -211.567 211.574)"/><ellipse cx="237.684" cy="273.096" fill="#fff" rx="29.618" ry="29.618" transform="matrix(.924 -.383 .383 .924 -86.417 111.746)"/><g fill="#3b3b44"><g><ellipse cx="149.609" cy="361.171" rx="17.652" ry="17.652" transform="matrix(.851 -.526 .526 .851 -167.535 132.595)"/><ellipse cx="237.684" cy="273.096" rx="17.652" ry="17.652" transform="matrix(.811 -.585 .585 .811 -114.817 190.525)"/></g><path d="m200.406 344.984c-2.674 0-4.891-2.116-4.993-4.811-.104-2.76 2.049-5.081 4.808-5.185 6.4-.242 11.039-4.881 11.28-11.281.104-2.76 2.428-4.941 5.186-4.808 2.759.104 4.912 2.426 4.808 5.185-.441 11.668-9.229 20.457-20.896 20.897-.065.002-.129.003-.193.003z"/></g></g><g fill="#fff"><path d="m364.385 78.13c-2.56 0-5.119-.977-7.072-2.93l-3.498-3.499c-3.904-3.906-3.904-10.237.002-14.143 3.906-3.904 10.237-3.904 14.143.002l3.498 3.499c3.904 3.906 3.904 10.237-.002 14.142-1.953 1.952-4.512 2.929-7.071 2.929z"/><path d="m331.68 47.54c-1.771 0-3.564-.47-5.187-1.457-9.938-6.046-22.082-7.68-33.314-4.483-5.312 1.51-10.844-1.569-12.355-6.882-1.512-5.312 1.569-10.843 6.881-12.354 16.573-4.717 34.498-2.298 49.18 6.632 4.719 2.87 6.217 9.022 3.348 13.74-1.883 3.095-5.178 4.804-8.553 4.804z"/></g><path d="m319.655 157.936c-2.943 0-5.886-1.123-8.132-3.368-4.491-4.491-4.491-11.772 0-16.264l34.031-34.031c4.491-4.49 11.772-4.49 16.264 0 4.491 4.491 4.491 11.772 0 16.264l-34.031 34.031c-2.246 2.245-5.189 3.368-8.132 3.368z" fill="#b9bec4"/></g></svg>