<svg id="Capa_1" enable-background="new 0 0 502 502" height="512" viewBox="0 0 502 502" width="512" xmlns="http://www.w3.org/2000/svg" xmlns:xlink="http://www.w3.org/1999/xlink"><linearGradient id="SVGID_1_" gradientUnits="userSpaceOnUse" x1="267.794" x2="267.794" y1="706.821" y2="134.191"><stop offset="0" stop-color="#74d2e8"/><stop offset="1" stop-color="#baeaf5"/></linearGradient><linearGradient id="lg1"><stop offset="0" stop-color="#41c4a6"/><stop offset=".216" stop-color="#46c6a9"/><stop offset=".4884" stop-color="#56cdb2"/><stop offset=".7898" stop-color="#70d7c0"/><stop offset="1" stop-color="#86e0cd"/></linearGradient><linearGradient id="SVGID_2_" gradientUnits="userSpaceOnUse" x1="188.064" x2="27.279" xlink:href="#lg1" y1="305.615" y2="305.615"/><linearGradient id="SVGID_3_" gradientUnits="userSpaceOnUse" x1="292.666" x2="470.685" xlink:href="#lg1" y1="183.926" y2="183.926"/><linearGradient id="SVGID_4_" gradientUnits="userSpaceOnUse" x1="292.666" x2="470.685" xlink:href="#lg1" y1="360.809" y2="360.809"/><linearGradient id="SVGID_5_" gradientUnits="userSpaceOnUse" x1="251" x2="251" y1="265.147" y2="23.546"><stop offset="0" stop-color="#ec6f80"/><stop offset="1" stop-color="#eca0aa"/></linearGradient><linearGradient id="SVGID_6_" gradientUnits="userSpaceOnUse" x1="251" x2="251" y1="68.634" y2="166.48"><stop offset="0" stop-color="#f9edaf"/><stop offset="1" stop-color="#fffcdd"/></linearGradient><g><path d="m464.219 288.781c0-20.004-2.762-39.362-7.913-57.721-25.517-21.47-53.367-55.785-55.787-94.267-38.483-37.862-91.268-61.231-149.519-61.231-53.388 0-102.193 19.623-139.597 52.048-70.406 107.246-43.895 279.795 47.831 353.678 27.795 13.274 58.911 20.712 91.766 20.712 62.218 0 118.206-26.656 157.184-69.163 3.348-44.211 23.103-92.452 56.035-144.056z" fill="url(#SVGID_1_)"/><path d="m315.037 258.444c-6.998-5.802-17.321-5.332-23.653 1.19l-148.777-154.483c-11.089 6.562-21.527 14.104-31.208 22.498-.022 1.166-1.063 2.515-2.614 2.292 7.401 65.709 47.457 131.607 97.216 173.076 25.99 21.66 64.04 21.727 90.298-.216 7.014-5.862 13.747-12.12 20.168-18.709 7.114-7.299 6.417-19.143-1.43-25.648z" fill="#4ccad9"/><path d="m171.318 335.245h-41.639c-18.186 0-32.929-14.743-32.929-32.929v-28.254c0-18.186 14.743-32.929 32.929-32.929h21.428c0-32.18-21.161-79.262-42.322-111.192-43.574 39.04-71.004 95.732-71.004 158.841 0 84.902 49.627 158.207 121.453 192.508 40.386-8.62 70.68-44.489 70.68-87.447 0-32.364-26.235-58.598-58.596-58.598z" fill="url(#SVGID_2_)"/><path d="m306.784 196.314c0 19.189 15.556 34.745 34.745 34.745h114.777c-10.172-36.253-29.69-68.591-55.787-94.267h-34.214c-32.873.001-59.521 26.649-59.521 59.522z" fill="url(#SVGID_3_)"/><path d="m464.219 288.781h-90.016c-25.832 0-46.773 20.941-46.773 46.773v15.129c0 44.911 36.027 81.385 80.755 82.154 34.793-37.944 56.034-88.517 56.034-144.056z" fill="url(#SVGID_4_)"/><path d="m151.107 241.132h18.295c22.026 0 39.881-17.855 39.881-39.881 0-40.671-32.97-73.641-73.641-73.641h-24.239c-.883.766-1.748 1.551-2.618 2.33 4.356 38.673 20.022 77.408 42.322 111.192z" fill="#00b396"/><path d="m273.855 275.944c44.767-37.411 82.785-100.238 85.481-160.672 2.777-62.284-46.151-115.374-108.497-115.272-59.822.098-108.286 48.623-108.286 108.468 0 62.578 39.308 128.87 85.856 167.662 13.165 10.972 32.294 10.804 45.446-.186z" fill="url(#SVGID_5_)"/><circle cx="251" cy="108.468" fill="url(#SVGID_6_)" r="52.459"/><g><ellipse cx="163.114" cy="364.927" fill="#eaadcd" rx="14.936" ry="12.003"/><ellipse cx="338.885" cy="364.927" fill="#eaadcd" rx="14.936" ry="12.003"/><circle cx="188.721" cy="335.309" fill="#fff" r="29.618"/><circle cx="313.279" cy="335.309" fill="#fff" r="29.618"/><g fill="#3b3b44"><g><circle cx="188.721" cy="335.309" r="17.652"/><circle cx="313.279" cy="335.309" r="17.652"/></g><path d="m251 365.869c-5.248 0-10.495-1.984-14.776-5.953-2.025-1.878-2.144-5.041-.267-7.066s5.041-2.143 7.066-.268c4.696 4.355 11.258 4.355 15.954 0 2.025-1.877 5.188-1.758 7.066.268 1.877 2.025 1.758 5.189-.267 7.066-4.281 3.969-9.528 5.953-14.776 5.953z"/></g></g></g></svg>