<svg id="Capa_1" enable-background="new 0 0 502 502" height="512" viewBox="0 0 502 502" width="512" xmlns="http://www.w3.org/2000/svg" xmlns:xlink="http://www.w3.org/1999/xlink"><linearGradient id="lg1"><stop offset="0" stop-color="#4e5660"/><stop offset="1" stop-color="#64768d"/></linearGradient><linearGradient id="SVGID_1_" gradientUnits="userSpaceOnUse" x1="251" x2="251" xlink:href="#lg1" y1="211.33" y2="65.304"/><linearGradient id="SVGID_2_" gradientUnits="userSpaceOnUse" x1="251" x2="251" y1="225.638" y2="111.864"><stop offset="0" stop-color="#f4d952"/><stop offset="1" stop-color="#f9edaf"/></linearGradient><linearGradient id="SVGID_3_" gradientUnits="userSpaceOnUse" x1="82.17" x2="82.17" y1="208.969" y2="150.561"><stop offset="0" stop-color="#ec6f80"/><stop offset="1" stop-color="#eca0aa"/></linearGradient><linearGradient id="SVGID_4_" gradientUnits="userSpaceOnUse" x1="251" x2="251" xlink:href="#lg1" y1="558.064" y2="214.112"/><linearGradient id="SVGID_5_" gradientUnits="userSpaceOnUse" x1="251" x2="251" y1="504.759" y2="285.834"><stop offset="0" stop-color="#d4dbdb"/><stop offset="1" stop-color="#f3f3f3"/></linearGradient><linearGradient id="SVGID_6_" gradientUnits="userSpaceOnUse" x1="251" x2="251" y1="375.457" y2="277.147"><stop offset="0" stop-color="#74d2e8"/><stop offset="1" stop-color="#baeaf5"/></linearGradient><linearGradient id="SVGID_7_" gradientUnits="userSpaceOnUse" x1="337.673" x2="337.673" y1="122.701" y2="11.321"><stop offset="0" stop-color="#f4c22c"/><stop offset="1" stop-color="#f9e198"/></linearGradient><g><path d="m312.28 65.401h-122.56c-39.485 0-71.494 32.009-71.494 71.494v76.538h265.547v-76.538c.001-39.485-32.008-71.494-71.493-71.494z" fill="url(#SVGID_1_)"/><path d="m167.039 213.433v-67.98c0-17.254 13.987-31.241 31.24-31.241h105.441c17.254 0 31.241 13.987 31.241 31.241v67.98z" fill="url(#SVGID_2_)"/><path d="m67.798 157.346h28.745c11.976 0 21.684 9.708 21.684 21.684v46.428h-72.113v-46.428c0-11.976 9.708-21.684 21.684-21.684z" fill="url(#SVGID_3_)"/><path d="m424.435 502h-346.87c-36.974 0-66.947-29.973-66.947-66.948v-164.275c0-36.974 29.973-66.947 66.947-66.947h346.869c36.974 0 66.947 29.973 66.947 66.947v164.276c.001 36.974-29.972 66.947-66.946 66.947z" fill="url(#SVGID_4_)"/><path d="m294.33 433.864c-14.17 6.841-30.203 10.431-47.133 9.802-52.491-1.951-94.792-44.902-95.992-97.415-.391-17.073 3.51-33.198 10.695-47.379 4.057-8.007 1.574-17.767-5.971-22.631l-.214-.138c-8.654-5.58-20.211-2.427-24.892 6.744-9.943 19.485-15.287 41.691-14.583 65.181 2.101 70.144 59.924 128.229 130.059 130.628 22.792.78 44.389-4.134 63.48-13.425 9.639-4.691 12.724-16.952 6.565-25.726-4.948-7.046-14.26-9.384-22.014-5.641z" fill="#424e5e"/><circle cx="251" cy="343.914" fill="url(#SVGID_5_)" r="99.823"/><circle cx="251" cy="343.914" fill="url(#SVGID_6_)" r="56.745"/><path d="m367.195 113.624-8.745 16.372c-8.872 16.61-32.683 16.61-41.555 0l-8.745-16.372c-2.922-5.472-7.403-9.952-12.875-12.875l-16.372-8.745c-16.61-8.872-16.61-32.683 0-41.555l16.372-8.745c5.471-2.923 9.952-7.403 12.875-12.875l8.745-16.372c8.872-16.61 32.683-16.61 41.555 0l8.745 16.372c2.922 5.472 7.403 9.952 12.875 12.875l16.372 8.745c16.61 8.872 16.61 32.683 0 41.555l-16.372 8.745c-5.472 2.922-9.953 7.403-12.875 12.875z" fill="url(#SVGID_7_)"/><g fill="#8196ab"><path d="m456.382 326.475c-5.522 0-10-4.478-10-10v-7.068c0-5.522 4.478-10 10-10s10 4.478 10 10v7.068c0 5.522-4.478 10-10 10z"/><path d="m456.277 278.444c-5.193 0-9.581-4.014-9.963-9.276-.699-9.635-7.781-17.795-17.222-19.843-5.398-1.171-8.823-6.495-7.652-11.893 1.171-5.397 6.492-8.823 11.893-7.652 18.051 3.916 31.592 19.518 32.929 37.94.4 5.508-3.741 10.298-9.25 10.697-.246.019-.491.027-.735.027z"/></g></g></svg>