<svg id="Capa_1" enable-background="new 0 0 502 502" height="512" viewBox="0 0 502 502" width="512" xmlns="http://www.w3.org/2000/svg" xmlns:xlink="http://www.w3.org/1999/xlink"><linearGradient id="SVGID_1_" gradientUnits="userSpaceOnUse" x1="79.159" x2="79.159" y1="229.151" y2="324.368"><stop offset="0" stop-color="#f4c22c"/><stop offset="1" stop-color="#f9e198"/></linearGradient><linearGradient id="SVGID_2_" gradientUnits="userSpaceOnUse" x1="175.581" x2="175.581" y1="299.288" y2="28.998"><stop offset="0" stop-color="#f4d952"/><stop offset="1" stop-color="#f9edaf"/></linearGradient><linearGradient id="SVGID_3_" gradientTransform="matrix(-1 0 0 1 415.083 0)" gradientUnits="userSpaceOnUse" x1="-7.759" x2="-7.759" y1="379.912" y2="481.513"><stop offset="0" stop-color="#41c4a6"/><stop offset=".216" stop-color="#46c6a9"/><stop offset=".4884" stop-color="#56cdb2"/><stop offset=".7898" stop-color="#70d7c0"/><stop offset="1" stop-color="#86e0cd"/></linearGradient><linearGradient id="SVGID_4_" gradientTransform="matrix(-1 0 0 1 415.083 0)" gradientUnits="userSpaceOnUse" x1="88.663" x2="88.663" y1="457.935" y2="187.646"><stop offset="0" stop-color="#5bd9bb"/><stop offset=".2532" stop-color="#60dabd"/><stop offset=".5725" stop-color="#70dec4"/><stop offset=".9261" stop-color="#8ae4cf"/><stop offset="1" stop-color="#90e6d2"/></linearGradient><linearGradient id="SVGID_5_" gradientUnits="userSpaceOnUse" x1="94.649" x2="94.649" y1="442.949" y2="347.776"><stop offset="0" stop-color="#74d2e8"/><stop offset="1" stop-color="#baeaf5"/></linearGradient><linearGradient id="SVGID_6_" gradientUnits="userSpaceOnUse" x1="440.971" x2="440.971" y1="151.741" y2="73.169"><stop offset="0" stop-color="#ec6f80"/><stop offset="1" stop-color="#eca0aa"/></linearGradient><g><path d="m28.456 187.205c0 23.67-4.869 55.022-11.68 81.557-6.068 23.639 15.602 45.287 39.148 38.87 32.386-8.825 64-26.656 86.65-62.418z" fill="url(#SVGID_1_)"/><ellipse cx="175.581" cy="152.435" fill="url(#SVGID_2_)" rx="175.581" ry="117.857"/><path d="m215.971 197.342c-3.333-8.094-12.892-11.699-20.665-7.674-2.84 1.471-5.609 3.003-8.305 4.596-29.977 17.716-50.158 42.542-59.739 73.02 9.963 1.324 20.293 2.189 30.895 2.639 9.338-23.725 27.165-41.261 50.809-53.53 6.917-3.589 9.972-11.845 7.005-19.051z" fill="#efc534"/><path d="m473.543 345.852c0 23.67 4.869 55.022 11.68 81.557 6.068 23.639-15.602 45.287-39.148 38.87-32.386-8.826-64-26.656-86.649-62.418z" fill="url(#SVGID_3_)"/><ellipse cx="326.419" cy="311.082" fill="url(#SVGID_4_)" rx="175.581" ry="117.857"/><path d="m115.474 436.546-6.169 11.549c-6.259 11.717-23.056 11.717-29.314 0l-6.169-11.549c-2.062-3.86-5.223-7.021-9.082-9.082l-11.549-6.169c-11.717-6.259-11.717-23.056 0-29.314l11.549-6.169c3.86-2.062 7.021-5.223 9.082-9.082l6.169-11.549c6.259-11.718 23.056-11.718 29.314 0l6.169 11.549c2.062 3.86 5.223 7.021 9.082 9.082l11.549 6.169c11.717 6.259 11.717 23.056 0 29.314l-11.549 6.169c-3.859 2.061-7.02 5.222-9.082 9.082z" fill="url(#SVGID_5_)"/><path d="m461.797 145.337-6.169 11.549c-6.259 11.718-23.056 11.718-29.314 0l-6.169-11.549c-2.062-3.86-5.223-7.021-9.082-9.082l-11.549-6.169c-11.717-6.259-11.717-23.056 0-29.314l11.549-6.169c3.86-2.062 7.021-5.223 9.082-9.082l6.169-11.549c6.259-11.717 23.056-11.717 29.314 0l6.169 11.549c2.062 3.86 5.223 7.021 9.082 9.082l11.549 6.169c11.717 6.259 11.717 23.056 0 29.314l-11.549 6.169c-3.859 2.062-7.02 5.223-9.082 9.082z" fill="url(#SVGID_6_)"/><g><ellipse cx="87.695" cy="157.784" fill="#eaadcd" rx="14.936" ry="12.003"/><ellipse cx="263.466" cy="157.784" fill="#eaadcd" rx="14.936" ry="12.003"/><circle cx="113.302" cy="128.166" fill="#fff" r="29.618"/><ellipse cx="125.268" cy="128.166" fill="#3b3b44" rx="17.652" ry="17.652" transform="matrix(.23 -.973 .973 .23 -28.25 220.636)"/><circle cx="237.859" cy="128.166" fill="#fff" r="29.618"/><g fill="#3b3b44"><ellipse cx="249.763" cy="128.166" rx="17.652" ry="17.652" transform="matrix(.707 -.707 .707 .707 -17.473 214.148)"/><ellipse cx="175.581" cy="150.618" rx="13.252" ry="17.352"/></g></g><g><ellipse cx="238.534" cy="321.016" fill="#eaadcd" rx="14.936" ry="12.003"/><ellipse cx="414.305" cy="321.016" fill="#eaadcd" rx="14.936" ry="12.003"/><circle cx="264.14" cy="291.398" fill="#fff" r="29.618"/><ellipse cx="252.175" cy="291.398" fill="#3b3b44" rx="17.652" ry="17.652" transform="matrix(.707 -.707 .707 .707 -132.189 263.663)"/><circle cx="388.698" cy="291.398" fill="#fff" r="29.618"/><g fill="#3b3b44"><ellipse cx="376.732" cy="291.398" rx="17.652" ry="17.652" transform="matrix(.23 -.973 .973 .23 6.574 591.103)"/><path d="m334.009 298.592h-15.181c-3.007 0-5.658 1.976-6.506 4.862-2.672 9.09-5.742 27.748 14.097 27.748 19.838 0 16.769-18.659 14.097-27.748-.849-2.885-3.499-4.862-6.507-4.862z"/></g></g><g fill="#b5f2e2"><path d="m425.11 391.579c-3.779 0-7.396-2.152-9.084-5.809-2.316-5.014-.129-10.956 4.885-13.272 1.648-.762 3.274-1.56 4.832-2.375 4.898-2.559 10.938-.665 13.495 4.228 2.56 4.895.666 10.937-4.228 13.495-1.847.966-3.769 1.91-5.713 2.809-1.357.627-2.783.924-4.187.924z"/><path d="m461.348 362.049c-1.831 0-3.685-.503-5.346-1.556-4.664-2.958-6.047-9.137-3.089-13.801 4.628-7.299 7.421-15.629 8.538-25.469.623-5.487 5.581-9.422 11.064-8.809 5.488.623 9.432 5.577 8.809 11.064-1.446 12.736-5.323 24.15-11.522 33.924-1.905 3.004-5.144 4.647-8.454 4.647z"/></g></g></svg>