<svg id="Capa_1" enable-background="new 0 0 502 502" height="512" viewBox="0 0 502 502" width="512" xmlns="http://www.w3.org/2000/svg" xmlns:xlink="http://www.w3.org/1999/xlink"><linearGradient id="lg1"><stop offset="0" stop-color="#4e5660"/><stop offset="1" stop-color="#64768d"/></linearGradient><linearGradient id="SVGID_1_" gradientUnits="userSpaceOnUse" x1="429.265" x2="497.053" xlink:href="#lg1" y1="289.993" y2="289.993"/><linearGradient id="lg2"><stop offset="0" stop-color="#dd5c6e"/><stop offset="1" stop-color="#ec8290"/></linearGradient><linearGradient id="SVGID_2_" gradientUnits="userSpaceOnUse" x1="175.199" x2="175.199" xlink:href="#lg2" y1="141.892" y2="73.638"/><linearGradient id="SVGID_3_" gradientUnits="userSpaceOnUse" x1="363.3" x2="363.3" xlink:href="#lg2" y1="141.892" y2="73.638"/><linearGradient id="SVGID_4_" gradientUnits="userSpaceOnUse" x1="110.36" x2="110.36" y1="208.811" y2="143.223"><stop offset="0" stop-color="#c5cccc"/><stop offset="1" stop-color="#e6e6e6"/></linearGradient><linearGradient id="SVGID_5_" gradientUnits="userSpaceOnUse" x1="77.688" x2="77.688" y1="302.307" y2="153.785"><stop offset="0" stop-color="#d4dbdb"/><stop offset="1" stop-color="#f3f3f3"/></linearGradient><linearGradient id="SVGID_6_" gradientUnits="userSpaceOnUse" x1="269.249" x2="269.249" xlink:href="#lg1" y1="141.896" y2="49.316"/><linearGradient id="SVGID_7_" gradientUnits="userSpaceOnUse" x1="269.249" x2="269.249" y1="484.003" y2="60.608"><stop offset="0" stop-color="#ec6f80"/><stop offset="1" stop-color="#eca0aa"/></linearGradient><linearGradient id="SVGID_8_" gradientUnits="userSpaceOnUse" x1="269.249" x2="269.249" y1="435.519" y2="302.665"><stop offset="0" stop-color="#f4d952"/><stop offset="1" stop-color="#f9edaf"/></linearGradient><g><path d="m492.958 316.05-12.073 12.073c-13.65 13.65-36.341 11.563-47.271-4.35l-21.631-31.492c-6.719-9.781-5.506-22.963 2.885-31.354l10.894-10.893c8.391-8.391 21.573-9.604 31.354-2.885l31.492 21.631c15.912 10.93 18 33.62 4.35 47.27z" fill="url(#SVGID_1_)"/><path d="m229.312 195.735h-108.226v-91.573c0-17.163 13.913-31.076 31.076-31.076h46.074c17.163 0 31.076 13.913 31.076 31.076z" fill="url(#SVGID_2_)"/><path d="m309.187 195.735h108.226v-91.573c0-17.163-13.913-31.076-31.076-31.076h-46.074c-17.163 0-31.076 13.913-31.076 31.076z" fill="url(#SVGID_3_)"/><path d="m188.048 251.462c-24.968-24.968-58.888-63.987-79.394-98.296-4.585-7.672-14.666-9.99-22.033-4.93-7.993 5.49-17.6 12.951-27.954 23.305s-17.815 19.961-23.305 27.954c-5.061 7.367-2.742 17.448 4.93 22.033 34.309 20.506 73.328 54.426 98.296 79.394z" fill="url(#SVGID_4_)"/><path d="m155.377 258.012c-24.968-24.968-58.888-63.987-79.394-98.296-4.585-7.672-14.666-9.99-22.033-4.93-7.993 5.491-17.6 12.951-27.954 23.305s-17.815 19.961-23.305 27.954c-5.061 7.367-2.742 17.448 4.93 22.033 34.309 20.506 73.328 54.426 98.296 79.394z" fill="url(#SVGID_5_)"/><path d="m322.264 160.883c-13.545 0-24.525-10.98-24.525-24.525v-40.503c0-5.135-4.177-9.313-9.312-9.313h-38.356c-5.135 0-9.312 4.178-9.312 9.313v40.503c0 13.545-10.98 24.525-24.525 24.525s-24.525-10.98-24.525-24.525v-40.503c0-32.182 26.181-58.363 58.362-58.363h38.356c32.181 0 58.362 26.181 58.362 58.363v40.503c0 13.545-10.98 24.525-24.525 24.525z" fill="url(#SVGID_6_)"/><path d="m362.496 464.508c18.508 0 36.003-8.409 47.599-22.834 22.312-27.757 36.057-67.829 32.883-132.522-5.345-108.935-34.468-193.674-173.728-193.674s-168.384 84.739-173.729 193.674c-3.214 65.498 10.916 105.758 33.719 133.552 11.442 13.946 28.706 21.805 46.744 21.805h186.512z" fill="url(#SVGID_7_)"/><path d="m76.163 225.965c-3.836 15.67-6.318 31.5-7.964 46.79 10.044 8.56 19.532 17.161 27.968 25.205 1.526-23.073 4.31-44.912 9.184-64.939 1.743-7.161-1.973-14.521-8.766-17.377-8.532-3.587-18.221 1.331-20.422 10.321z" fill="#cad1d9"/><path d="m323.503 311.499h-108.507c-20.663 0-37.414 16.751-37.414 37.414v27.504c0 20.663 16.751 37.414 37.414 37.414h108.507c20.663 0 37.414-16.751 37.414-37.414v-27.504c-.001-20.663-16.751-37.414-37.414-37.414z" fill="url(#SVGID_8_)"/><path d="m269.249 372.935c-27.274 0-42.083-3.127-57.291-6.903-6.164-1.531-9.92-7.769-8.39-13.933 1.531-6.165 7.771-9.924 13.933-8.39 14.203 3.527 27.032 6.226 51.748 6.226 24.715 0 37.545-2.698 51.749-6.226 6.165-1.527 12.401 2.226 13.933 8.39 1.53 6.164-2.226 12.401-8.39 13.933-15.209 3.777-30.019 6.903-57.292 6.903z" fill="#efc534"/><g><ellipse cx="181.364" cy="259.807" fill="#efc5db" rx="14.936" ry="12.003"/><ellipse cx="357.135" cy="259.807" fill="#efc5db" rx="14.936" ry="12.003"/><circle cx="206.971" cy="230.189" fill="#fff" r="29.618"/><ellipse cx="218.936" cy="230.189" fill="#3b3b44" rx="17.652" ry="17.652" transform="matrix(.23 -.973 .973 .23 -55.397 390.382)"/><circle cx="331.528" cy="230.189" fill="#fff" r="29.618"/><g fill="#3b3b44"><ellipse cx="343.431" cy="230.189" rx="17.652" ry="17.652" transform="matrix(.707 -.707 .707 .707 -62.18 310.264)"/><ellipse cx="269.249" cy="252.641" rx="13.252" ry="17.352"/></g></g></g></svg>