<svg id="Capa_1" enable-background="new 0 0 502 502" height="512" viewBox="0 0 502 502" width="512" xmlns="http://www.w3.org/2000/svg" xmlns:xlink="http://www.w3.org/1999/xlink"><linearGradient id="lg1"><stop offset="0" stop-color="#f4c22c"/><stop offset="1" stop-color="#f9e198"/></linearGradient><linearGradient id="SVGID_1_" gradientUnits="userSpaceOnUse" x1="228.648" x2="372.388" xlink:href="#lg1" y1="224.781" y2="224.781"/><linearGradient id="lg2"><stop offset="0" stop-color="#ec6f80"/><stop offset="1" stop-color="#eca0aa"/></linearGradient><linearGradient id="SVGID_2_" gradientUnits="userSpaceOnUse" x1="300.955" x2="300.955" xlink:href="#lg2" y1="179.573" y2="58.864"/><linearGradient id="SVGID_3_" gradientUnits="userSpaceOnUse" x1="337.461" x2="337.461" y1="259.41" y2="132.996"><stop offset="0" stop-color="#c5cccc"/><stop offset="1" stop-color="#e6e6e6"/></linearGradient><linearGradient id="lg3"><stop offset="0" stop-color="#f4d952"/><stop offset="1" stop-color="#f9edaf"/></linearGradient><linearGradient id="SVGID_4_" gradientUnits="userSpaceOnUse" x1="317.033" x2="508.447" xlink:href="#lg3" y1="291.67" y2="291.67"/><linearGradient id="SVGID_5_" gradientUnits="userSpaceOnUse" x1="148.211" x2="148.211" xlink:href="#lg1" y1="308.15" y2="68.765"/><linearGradient id="SVGID_7_" gradientUnits="userSpaceOnUse" x1="148.211" x2="148.211" xlink:href="#lg2" y1="257.797" y2="100.066"/><linearGradient id="SVGID_8_" gradientUnits="userSpaceOnUse" x1="148.211" x2="148.211" y1="295.934" y2="224.485"><stop offset="0" stop-color="#d4dbdb"/><stop offset="1" stop-color="#f3f3f3"/></linearGradient><linearGradient id="SVGID_9_" gradientUnits="userSpaceOnUse" x1="148.211" x2="148.211" xlink:href="#lg3" y1="498.731" y2="282.016"/><g><path d="m489.878 232.859c-33.359-33.359-107.742-130.863-138.274-161.395-43.021-43.021-121.682-34.111-175.695 19.902-54.012 54.012-62.923 132.674-19.901 175.695 30.532 30.532 128.036 104.915 161.395 138.274z" fill="url(#SVGID_1_)"/><path d="m353.203 119.976c-12.498 8.753-22.982 20.754-29.918 35.339-42.409 6.851-76.688 41.19-83.442 83.435-23.767 11.308-42.275 33.02-48.951 59.35 10.066 8.483 21.185 17.664 32.609 27.059-1.683-15.284 3.67-31.618 15.887-43.835 7.538-7.538 16.643-12.455 26.101-14.723 4.891-1.173 8.428-5.515 8.217-10.54-.698-16.594 5.816-34.139 19.288-47.61 13.472-13.472 31.016-19.986 47.61-19.288 5.025.212 9.368-3.326 10.54-8.217 2.268-9.459 7.185-18.564 14.723-26.101 2.307-2.307 4.762-4.368 7.329-6.181 7.434-5.253 9.805-15.195 5.284-23.096-5.126-8.957-16.825-11.512-25.277-5.592z" fill="#fca800"/><path d="m343.289 128.018c-9.167-10.755-17.067-19.66-22.823-25.416-25.346-25.346-77.286-16.233-113.42 19.901s-45.247 88.074-19.901 113.42c21.487 21.487 86.977 72.946 128.718 108.675l113.278-113.278c-36.088-23.067-77.306-59.166-85.852-103.302z" fill="url(#SVGID_2_)"/><path d="m315.863 344.597 113.278-113.277c-26.221-30.634-60.782-73.891-85.851-103.302-8.13 7.589-14.996 16.765-20.005 27.296-42.409 6.851-76.688 41.19-83.442 83.435-10.254 4.879-19.523 11.7-27.292 19.987 29.432 25.088 72.741 59.693 103.312 85.861z" fill="#e05d6f"/><path d="m365.866 154.844c-7.538 7.538-12.455 16.642-14.723 26.101-1.173 4.891-5.515 8.428-10.541 8.217-16.594-.698-34.139 5.816-47.61 19.288-13.472 13.472-19.986 31.016-19.288 47.61.211 5.025-3.326 9.368-8.217 10.541-9.458 2.268-18.563 7.185-26.101 14.723-20.591 20.591-21.688 52.88-2.449 72.118 19.238 19.238 51.527 18.142 72.118-2.449 12.655-12.654 17.933-29.725 15.667-45.471 16.116.224 32.971-6.292 46.01-19.331s19.554-29.894 19.331-46.01c15.746 2.266 32.816-3.013 45.471-15.667 20.591-20.591 21.688-52.88 2.449-72.118s-51.525-18.143-72.117 2.448z" fill="url(#SVGID_3_)"/><path d="m453.457 368.913c55.631-55.631 66.013-132.229 17.737-191.633-8.513-10.475-22.883-14.175-35.442-9.229-31.823 12.534-67.377 36.555-106.989 76.168-39.612 39.612-63.634 75.166-76.168 106.989-4.947 12.559-1.247 26.929 9.229 35.442 59.404 48.277 136.002 37.895 191.633-17.737z" fill="url(#SVGID_4_)"/><g><path d="m350.98 369.603c4.688 4.688 3.759 13.216-2.074 19.049s-14.362 6.762-19.049 2.074c-4.688-4.688-3.759-13.216 2.074-19.049s14.362-6.762 19.049-2.074z" fill="#eaadcd"/><path d="m475.269 245.314c4.688 4.688 3.759 13.216-2.074 19.049s-14.362 6.762-19.049 2.074c-4.688-4.688-3.759-13.216 2.074-19.049s14.362-6.762 19.049-2.074z" fill="#eaadcd"/><circle cx="337.583" cy="341.114" fill="#fff" r="29.618"/><circle cx="425.658" cy="253.039" fill="#fff" r="29.618"/><path d="m332.737 357.601c-3.252 0-6.246-2.13-7.199-5.409-1.899-6.535-.088-13.585 4.724-18.397 4.812-4.813 11.86-6.626 18.397-4.724 3.978 1.155 6.266 5.316 5.11 9.295-1.155 3.978-5.317 6.267-9.294 5.109-1.876-.544-3.146.467-3.605.926-.46.46-1.471 1.731-.926 3.605 1.156 3.979-1.132 8.14-5.11 9.295-.699.203-1.404.3-2.097.3z" fill="#3b3b44"/><path d="m420.813 269.525c-3.251 0-6.246-2.131-7.199-5.409-1.899-6.535-.089-13.585 4.723-18.397 4.811-4.813 11.861-6.625 18.397-4.724 3.977 1.155 6.266 5.316 5.11 9.294-1.156 3.979-5.316 6.267-9.294 5.11-1.874-.543-3.146.466-3.605.926-.46.46-1.47 1.731-.926 3.605 1.156 3.978-1.132 8.14-5.109 9.295-.7.204-1.404.3-2.097.3z" fill="#3b3b44"/><g><path d="m418.019 316.97-16.505 16.505c-4.602 4.602-12.063 4.602-16.665 0-4.602-4.602-4.602-12.063 0-16.665l16.505-16.505c4.602-4.602 12.064-4.602 16.665 0 4.602 4.602 4.602 12.063 0 16.665z" fill="#3b3b44"/></g></g><g><path d="m270.169 387.32c0-47.177 16.349-168.719 16.349-211.898 0-60.841-61.922-110.163-138.308-110.163-76.385 0-138.308 49.322-138.308 110.163 0 43.179 16.349 164.721 16.349 211.898z" fill="url(#SVGID_5_)"/><path d="m270.169 387.32c0-47.177 16.349-168.719 16.349-211.898 0-60.841-61.922-110.163-138.308-110.163-76.385 0-138.308 49.322-138.308 110.163 0 43.179 16.349 164.721 16.349 211.898z" fill="url(#SVGID_5_)"/><path d="m148.211 195.842c-20.837.001-41.67 6.285-59.008 18.843-26.938-9.57-54.719-5.565-76.572 7.466 4.049 47.423 11.369 110.954 13.197 149.669 10.178 3.976 21.3 6.174 32.948 6.174 16.179 0 31.855-4.331 45.384-12.183 13.497 6.478 28.593 9.973 44.05 9.973v-179.942z" fill="#fca800"/><path d="m148.211 109.295c-51.101 0-94.272 30.283-94.272 66.128 0 8.121.709 19.98 1.829 34.042 7.228 8.004 8.708 23.989 3.115 35.003 3.12 32.807 6.973 69.743 9.229 98.816h160.198c4.261-54.904 14.173-137.458 14.173-167.862 0-35.844-43.172-66.127-94.272-66.127z" fill="url(#SVGID_7_)"/><path d="m237.645 244.467c-10.66 0-20.575 2.961-28.866 8.046-4.288 2.629-9.86 2.06-13.264-1.643-11.24-12.228-28.252-20.027-47.304-20.027s-36.064 7.799-47.304 20.027c-3.404 3.703-8.976 4.272-13.264 1.643-8.292-5.085-18.207-8.046-28.866-8.046-29.12 0-52.727 22.056-52.727 49.263s23.607 49.263 52.727 49.263c17.896 0 33.699-8.338 43.231-21.074 11.238 11.554 27.763 18.865 46.203 18.865s34.965-7.311 46.203-18.865c9.532 12.737 25.335 21.074 43.231 21.074 29.12 0 52.727-22.056 52.727-49.263 0-27.208-23.607-49.263-52.727-49.263z" fill="url(#SVGID_8_)"/><g fill="#e05d6f"><path d="m194.414 321.918c-11.238 11.554-27.763 18.865-46.203 18.865s-34.965-7.311-46.203-18.865c-7.85 10.489-19.958 17.982-33.98 20.304.028.352.057.712.084 1.063h160.198c.027-.35.056-.71.084-1.063-14.023-2.322-26.13-9.815-33.98-20.304z"/><path d="m180.602 201.082c-30.333-10.104-64.935-5.565-91.399 13.603-11.161-3.965-22.466-5.591-33.436-5.219.846 10.628 1.928 22.518 3.115 35.003 10.618.02 20.494 2.976 28.758 8.042 4.289 2.63 9.862 2.063 13.267-1.641 11.24-12.228 28.252-20.027 47.304-20.027 7.515 0 14.711 1.217 21.36 3.44 8.159 2.728 17.087-.867 21.063-8.497 4.985-9.566.201-21.295-10.032-24.704z"/></g><path d="m148.211 457.772c78.674 0 140.179-46.822 148.047-122.962 1.388-13.427-6.157-26.204-18.536-31.587-31.365-13.639-73.491-21.794-129.511-21.794s-98.146 8.155-129.511 21.794c-12.379 5.383-19.923 18.16-18.536 31.587 7.868 76.141 69.372 122.962 148.047 122.962z" fill="url(#SVGID_9_)"/></g><g><ellipse cx="60.325" cy="385.798" fill="#eaadcd" rx="14.936" ry="12.003"/><ellipse cx="236.096" cy="385.798" fill="#eaadcd" rx="14.936" ry="12.003"/><circle cx="85.932" cy="356.18" fill="#fff" r="29.618"/><circle cx="210.489" cy="356.18" fill="#fff" r="29.618"/><path d="m95.715 366.61c-2.647.001-5.214-1.404-6.579-3.888-.94-1.71-2.554-1.896-3.204-1.896s-2.264.186-3.204 1.896c-1.995 3.629-6.555 4.954-10.185 2.959s-4.955-6.556-2.96-10.186c3.278-5.964 9.543-9.669 16.349-9.669 6.805 0 13.07 3.705 16.348 9.669 1.996 3.63.67 8.19-2.959 10.186-1.146.63-2.385.929-3.606.929z" fill="#3b3b44"/><path d="m220.273 366.61c-2.648.001-5.214-1.404-6.579-3.888-.941-1.71-2.554-1.896-3.204-1.896s-2.264.186-3.204 1.896c-1.995 3.629-6.555 4.954-10.185 2.959s-4.955-6.556-2.96-10.186c3.278-5.964 9.543-9.669 16.349-9.669s13.07 3.705 16.349 9.669c1.996 3.63.67 8.19-2.96 10.186-1.146.63-2.385.929-3.606.929z" fill="#3b3b44"/><g><path d="m159.881 395.984h-23.341c-6.508 0-11.784-5.276-11.784-11.784 0-6.508 5.276-11.784 11.784-11.784h23.342c6.508 0 11.784 5.276 11.784 11.784 0 6.508-5.276 11.784-11.785 11.784z" fill="#3b3b44"/></g></g></g></svg>