<svg id="Capa_1" enable-background="new 0 0 502 502" height="512" viewBox="0 0 502 502" width="512" xmlns="http://www.w3.org/2000/svg" xmlns:xlink="http://www.w3.org/1999/xlink"><linearGradient id="SVGID_1_" gradientUnits="userSpaceOnUse" x1="138.726" x2="138.726" y1="191.718" y2="61.721"><stop offset="0" stop-color="#74d2e8"/><stop offset="1" stop-color="#baeaf5"/></linearGradient><linearGradient id="lg1"><stop offset="0" stop-color="#ec6f80"/><stop offset="1" stop-color="#eca0aa"/></linearGradient><linearGradient id="SVGID_2_" gradientUnits="userSpaceOnUse" x1="227.351" x2="118.642" xlink:href="#lg1" y1="208.176" y2="208.176"/><linearGradient id="SVGID_3_" gradientTransform="matrix(-1 0 0 1 702 0)" gradientUnits="userSpaceOnUse" x1="305.699" x2="196.99" xlink:href="#lg1" y1="208.176" y2="208.176"/><linearGradient id="SVGID_4_" gradientUnits="userSpaceOnUse" x1="311.826" x2="311.826" y1="327.399" y2="59.506"><stop offset="0" stop-color="#f4d952"/><stop offset="1" stop-color="#f9edaf"/></linearGradient><linearGradient id="SVGID_5_" gradientUnits="userSpaceOnUse" x1="172.623" x2="425.844" y1="448.706" y2="448.706"><stop offset="0" stop-color="#ad7d63"/><stop offset="1" stop-color="#cb9d82"/></linearGradient><g><path d="m167.799 0c-29.426 0-55.829 12.332-73.871 31.872-3.467 3.755-8.199 6.171-13.303 6.443-38.868 2.065-69.441 32.904-69.441 70.219 0 47.179 47.204 79.759 92.712 67.964 6.773-1.755 13.911-1.197 20.233 1.8 13.16 6.238 27.981 9.755 43.67 9.755 54.383 0 98.469-42.097 98.469-94.026.001-51.93-44.086-94.027-98.469-94.027z" fill="url(#SVGID_1_)"/><path d="m243.868 426.802c-6.351 0-11.5-5.148-11.5-11.5v-89.845c0-6.352 5.149-11.5 11.5-11.5s11.5 5.148 11.5 11.5v89.845c0 6.351-5.149 11.5-11.5 11.5z" fill="#b9bec4"/><path d="m379.785 426.802c-6.351 0-11.5-5.148-11.5-11.5v-89.845c0-6.352 5.149-11.5 11.5-11.5s11.5 5.148 11.5 11.5v89.845c0 6.351-5.149 11.5-11.5 11.5z" fill="#b9bec4"/><path d="m192.2 70.28c-3.595-9.78-14.945-14.331-24.217-9.577-41.097 21.072-70.146 60.137-70.146 107.914 0 2.975.097 6.026.275 9.136 1.928-.342 3.857-.756 5.783-1.255 6.86-1.778 14.091-1.089 20.504 1.927 2.968 1.396 6.023 2.647 9.15 3.758-.458-4.708-.712-9.252-.712-13.566 0-32.58 20.469-61.11 51.111-76.874 7.779-4.003 11.27-13.252 8.252-21.463z" fill="#17c5d9"/><path d="m222.127 337.623c-17.966 0-34.657-9.462-43.703-24.984-22.559-38.705-45.586-101.926-45.586-144.023 0-49.643 47.523-89.887 106.147-89.887s106.147 40.244 106.147 89.887c0 53.395-58.667 140.776-86.889 169.007z" fill="url(#SVGID_2_)"/><path d="m401.526 337.623c17.966 0 34.657-9.462 43.704-24.984 22.559-38.705 45.586-101.926 45.586-144.023 0-49.643-47.523-89.887-106.147-89.887s-106.147 40.244-106.147 89.887c0 53.395 58.667 140.776 86.889 169.007z" fill="url(#SVGID_3_)"/><path d="m258.242 337.623c-32.621-30.948-69.107-126.739-69.107-185.273 0-54.421 54.931-98.538 122.692-98.538s122.692 44.117 122.692 98.538c0 58.534-36.487 154.325-69.108 185.273z" fill="url(#SVGID_4_)"/><path d="m311.826 502c32.343 0 57.991-1.798 77.262-4.645 20.019-2.957 35.519-18.957 37.998-39.04 1.534-12.424 2.871-26.624 3.848-42.018.776-12.231-9.742-22.146-21.919-20.754-27.448 3.137-69.307 5.797-97.189 5.797s-69.741-2.66-97.189-5.797c-12.176-1.392-22.695 8.523-21.919 20.754.977 15.394 2.314 29.594 3.848 42.018 2.479 20.083 17.98 36.083 37.998 39.04 19.272 2.847 44.92 4.645 77.262 4.645z" fill="url(#SVGID_5_)"/><path d="m440.321 274.193c-1.309 0-2.639-.259-3.919-.805-5.08-2.167-7.442-8.042-5.275-13.122 4.962-11.634 9.348-23.541 13.034-35.391 1.641-5.274 7.245-8.218 12.52-6.578 5.273 1.641 8.218 7.246 6.578 12.52-3.887 12.494-8.508 25.042-13.735 37.297-1.622 3.8-5.318 6.079-9.203 6.079z" fill="#ffccd3"/><path d="m414.255 318.134c-3.405 0-6.724-1.74-8.596-4.876-2.831-4.742-1.282-10.882 3.46-13.712 1.919-1.146 3.558-2.74 4.741-4.612 2.951-4.67 9.127-6.064 13.795-3.113 4.669 2.949 6.063 9.126 3.113 13.795-2.853 4.516-6.793 8.354-11.397 11.103-1.605.958-3.372 1.415-5.116 1.415z" fill="#ffccd3"/><g><ellipse cx="223.941" cy="176.016" fill="#eaadcd" rx="14.936" ry="12.003"/><ellipse cx="399.712" cy="176.016" fill="#eaadcd" rx="14.936" ry="12.003"/><circle cx="249.548" cy="146.398" fill="#fff" r="29.618"/><circle cx="374.105" cy="146.398" fill="#fff" r="29.618"/><g fill="#3b3b44"><g><circle cx="249.548" cy="146.398" r="17.652"/><circle cx="374.105" cy="146.398" r="17.652"/></g><path d="m311.826 176.957c-5.247 0-10.495-1.983-14.775-5.952-2.025-1.878-2.145-5.041-.267-7.066 1.877-2.024 5.042-2.143 7.066-.268 4.696 4.356 11.257 4.355 15.954 0 2.025-1.876 5.189-1.757 7.066.268 1.878 2.025 1.758 5.188-.267 7.066-4.282 3.969-9.529 5.952-14.777 5.952z"/></g></g></g></svg>