<svg id="Capa_1" enable-background="new 0 0 502 502" height="512" viewBox="0 0 502 502" width="512" xmlns="http://www.w3.org/2000/svg" xmlns:xlink="http://www.w3.org/1999/xlink"><linearGradient id="lg1"><stop offset="0" stop-color="#74d2e8"/><stop offset="1" stop-color="#baeaf5"/></linearGradient><linearGradient id="SVGID_1_" gradientUnits="userSpaceOnUse" x1="346.778" x2="350.707" xlink:href="#lg1" y1="158.97" y2="59.175"/><linearGradient id="SVGID_2_" gradientUnits="userSpaceOnUse" x1="142.206" x2="142.206" xlink:href="#lg1" y1="125.113" y2="20.983"/><linearGradient id="SVGID_3_" gradientUnits="userSpaceOnUse" x1="251" x2="251" xlink:href="#lg1" y1="259.158" y2="114.437"/><linearGradient id="lg2"><stop offset="0" stop-color="#f4c22c"/><stop offset="1" stop-color="#f9e198"/></linearGradient><linearGradient id="SVGID_4_" gradientUnits="userSpaceOnUse" x1="130.037" x2="130.037" xlink:href="#lg2" y1="431.986" y2="506.006"/><linearGradient id="SVGID_5_" gradientTransform="matrix(-1 0 0 1 502 0)" gradientUnits="userSpaceOnUse" x1="130.038" x2="130.038" xlink:href="#lg2" y1="431.986" y2="506.006"/><linearGradient id="SVGID_6_" gradientUnits="userSpaceOnUse" x1="251" x2="251" y1="239.166" y2="443.445"><stop offset="0" stop-color="#d4dbdb"/><stop offset="1" stop-color="#f3f3f3"/></linearGradient><linearGradient id="SVGID_7_" gradientTransform="matrix(-1 0 0 1 502 0)" gradientUnits="userSpaceOnUse" x1="251" x2="251" xlink:href="#lg2" y1="322.633" y2="218.146"/><g><circle cx="348.176" cy="123.437" fill="url(#SVGID_1_)" r="74.424"/><circle cx="142.206" cy="50.854" fill="url(#SVGID_2_)" r="50.854"/><path d="m356.977 279.136c41.394 0 75.023-33.247 75.639-74.495.607-40.612-31.444-74.817-72.016-76.716-12.68-.593-24.707 1.947-35.386 6.903-5.592 2.595-12.19 1.154-16.143-3.577-13.875-16.608-34.737-27.175-58.071-27.175s-44.196 10.568-58.071 27.175c-3.953 4.731-10.551 6.171-16.143 3.577-10.68-4.956-22.707-7.496-35.388-6.902-40.573 1.9-72.622 36.106-72.014 76.718.618 41.246 34.246 74.492 75.639 74.492z" fill="url(#SVGID_3_)"/><path d="m83.005 492.3c-12.933-12.933-12.932-33.901 0-46.833l47.229-47.229c12.932-12.933 33.902-12.933 46.834 0 12.933 12.933 12.932 33.901-.001 46.833l-47.23 47.229c-12.927 12.93-33.896 12.936-46.832 0z" fill="url(#SVGID_4_)"/><path d="m418.994 492.3c12.933-12.933 12.932-33.901-.001-46.833l-47.229-47.229c-12.932-12.933-33.901-12.933-46.834 0s-12.932 33.901.001 46.833l47.23 47.229c12.929 12.93 33.897 12.936 46.833 0z" fill="url(#SVGID_5_)"/><path d="m382.516 445.172c-14.165 6.898-30.02 10.765-46.678 10.805l27.226 27.225c11.358-2.319 22.364-6.072 32.76-11.15 7.691-3.757 10.539-13.293 6.346-20.755-3.894-6.929-12.509-9.605-19.654-6.125z" fill="#fca800"/><path d="m130.235 398.238-47.229 47.229c-2.329 2.328-4.231 4.92-5.721 7.676 17.789 15.158 39.029 25.441 61.652 30.06l38.132-38.131c12.933-12.932 12.934-33.9.001-46.833-12.934-12.934-33.903-12.934-46.835-.001z" fill="#fca800"/><path d="m451.733 294.227h-401.467l9.757 69.284c7.469 53.033 52.849 92.469 106.405 92.469h169.143c53.556 0 98.936-39.437 106.405-92.469z" fill="url(#SVGID_6_)"/><path d="m251 322.633c-87.713 0-153.293-9.24-192.862-16.991-23.932-4.687-39.532-27.888-34.844-51.82 4.688-23.933 27.888-39.531 51.82-34.844 29.254 5.731 91.004 15.343 175.886 15.343 84.883 0 146.634-9.613 175.887-15.343 23.941-4.692 47.132 10.913 51.82 34.844 4.688 23.932-10.913 47.133-34.844 51.82-39.569 7.751-105.149 16.991-192.863 16.991z" fill="url(#SVGID_7_)"/><g><ellipse cx="163.114" cy="406.414" fill="#eaadcd" rx="14.936" ry="12.003"/><ellipse cx="338.886" cy="406.414" fill="#eaadcd" rx="14.936" ry="12.003"/><path d="m188.721 380.762c7.183 0 13.813 1.589 19.159 4.273 4.544 2.281 9.962-.801 10.365-5.87.113-1.423.126-2.875.029-4.348-.991-15.146-13.602-27.24-28.775-27.629-16.713-.428-30.396 12.992-30.396 29.608 0 .843.035 1.678.105 2.503.422 5.01 5.857 7.995 10.349 5.738 5.348-2.685 11.979-4.275 19.164-4.275z" fill="#fff"/><path d="m251 416.6c-6.447 0-12.894-2.155-18.273-6.465-4.989-3.997-5.794-11.282-1.797-16.271 3.997-4.99 11.282-5.793 16.271-1.797 2.237 1.792 5.361 1.792 7.598 0 4.988-3.997 12.273-3.193 16.271 1.797 3.997 4.989 3.193 12.274-1.797 16.271-5.379 4.31-11.826 6.465-18.273 6.465z" fill="#3b3b44"/><path d="m188.721 380.762c5.926 0 11.473 1.082 16.237 2.967.911-2.129 1.415-4.47 1.415-6.933 0-9.749-7.903-17.652-17.652-17.652s-17.652 7.903-17.652 17.652c0 2.463.504 4.803 1.415 6.933 4.764-1.885 10.312-2.967 16.237-2.967z" fill="#3b3b44"/><path d="m313.279 380.762c7.183 0 13.813 1.589 19.158 4.273 4.544 2.281 9.962-.801 10.365-5.87.113-1.423.125-2.875.029-4.348-.991-15.146-13.602-27.24-28.775-27.629-16.713-.428-30.396 12.992-30.396 29.608 0 .843.035 1.678.105 2.503.422 5.01 5.857 7.995 10.349 5.738 5.348-2.685 11.98-4.275 19.165-4.275z" fill="#fff"/><path d="m313.279 380.762c5.926 0 11.473 1.082 16.237 2.967.911-2.129 1.415-4.47 1.415-6.933 0-9.749-7.903-17.652-17.652-17.652s-17.652 7.903-17.652 17.652c0 2.463.504 4.803 1.415 6.933 4.763-1.885 10.311-2.967 16.237-2.967z" fill="#3b3b44"/></g><g fill="#dff7fa"><path d="m396.69 117.84c-4.225 0-8.15-2.698-9.516-6.936-.572-1.774-1.275-3.53-2.09-5.218-2.399-4.975-.313-10.952 4.661-13.353 4.974-2.398 10.952-.313 13.353 4.661 1.212 2.513 2.259 5.128 3.111 7.774 1.694 5.257-1.193 10.892-6.45 12.585-1.02.331-2.054.487-3.069.487z"/><path d="m324.154 88.493c-3.568 0-7.021-1.914-8.823-5.279-2.608-4.868-.776-10.929 4.092-13.537 8.786-4.708 18.729-7.196 28.754-7.196 6.139 0 12.205.913 18.03 2.715 5.276 1.632 8.23 7.232 6.599 12.509-1.633 5.275-7.229 8.229-12.509 6.599-3.909-1.209-7.986-1.822-12.12-1.822-6.74 0-13.417 1.669-19.309 4.825-1.503.804-3.12 1.186-4.714 1.186z"/></g></g></svg>