<svg id="Capa_1" enable-background="new 0 0 502 502" height="512" viewBox="0 0 502 502" width="512" xmlns="http://www.w3.org/2000/svg" xmlns:xlink="http://www.w3.org/1999/xlink"><linearGradient id="lg1"><stop offset="0" stop-color="#4e5660"/><stop offset="1" stop-color="#64768d"/></linearGradient><linearGradient id="SVGID_1_" gradientUnits="userSpaceOnUse" x1="125.325" x2="125.325" xlink:href="#lg1" y1="395.175" y2="459.657"/><linearGradient id="lg2"><stop offset="0" stop-color="#74d2e8"/><stop offset="1" stop-color="#baeaf5"/></linearGradient><linearGradient id="SVGID_2_" gradientUnits="userSpaceOnUse" x1="387.629" x2="510.411" xlink:href="#lg2" y1="120.375" y2="120.375"/><linearGradient id="SVGID_3_" gradientUnits="userSpaceOnUse" x1="387.629" x2="510.411" xlink:href="#lg2" y1="214.379" y2="214.379"/><linearGradient id="SVGID_4_" gradientUnits="userSpaceOnUse" x1="223.926" x2="223.926" xlink:href="#lg1" y1="350.852" y2="282.649"/><linearGradient id="lg3"><stop offset="0" stop-color="#ec6f80"/><stop offset="1" stop-color="#eca0aa"/></linearGradient><linearGradient id="SVGID_5_" gradientUnits="userSpaceOnUse" x1="221.232" x2="403.506" xlink:href="#lg3" y1="164.944" y2="164.944"/><linearGradient id="SVGID_6_" gradientUnits="userSpaceOnUse" x1="125.325" x2="125.325" xlink:href="#lg3" y1="402.554" y2="39.62"/><linearGradient id="SVGID_7_" gradientUnits="userSpaceOnUse" x1="54.015" x2="191.823" y1="164.944" y2="164.944"><stop offset="0" stop-color="#f4d952"/><stop offset="1" stop-color="#f9edaf"/></linearGradient><g><g><path d="m138.851 462.38h-27.052c-15.895 0-29.384-11.66-31.684-27.388l-9.094-62.189h108.608l-9.094 62.189c-2.3 15.728-15.789 27.388-31.684 27.388z" fill="url(#SVGID_1_)"/><path d="m369.797 140.504c-21.015-13.586-48.176-13.589-69.196 0-11.114 7.183-25.955 3.999-33.141-7.118s-3.999-25.954 7.118-33.141c36.829-23.804 84.418-23.803 121.242.001 21.021 13.585 48.181 13.586 69.197-.001 11.115-7.186 25.955-4.001 33.14 7.118 7.187 11.117 4 25.954-7.117 33.141-36.826 23.804-84.414 23.805-121.243 0z" fill="url(#SVGID_2_)"/><path d="m369.797 234.509c-21.015-13.586-48.176-13.589-69.196 0-11.114 7.183-25.955 3.999-33.141-7.118s-3.999-25.954 7.118-33.141c36.829-23.804 84.418-23.804 121.242.001 21.021 13.585 48.181 13.586 69.197-.001 11.115-7.186 25.955-4.001 33.14 7.118 7.187 11.117 4 25.954-7.117 33.141-36.826 23.803-84.414 23.805-121.243 0z" fill="url(#SVGID_3_)"/><path d="m229.904 350.852h-28.411v-68.203h28.411c9.088 0 16.456 7.367 16.456 16.456v35.292c-.001 9.087-7.368 16.455-16.456 16.455z" fill="url(#SVGID_4_)"/><path d="m355.389 267.806c-71.178-36.202-184.821-27.863-230.064-8.069v-189.585c45.243 19.794 158.886 28.133 230.064-8.069 15.553-7.91 33.963 3.615 33.963 21.063v163.596c0 17.449-18.41 28.974-33.963 21.064z" fill="url(#SVGID_5_)"/><path d="m250.649 164.944c0-68.844-55.51-124.723-124.213-125.32-69.336-.602-126.436 55.981-126.436 125.321 0 31.573 11.678 60.416 30.948 82.453 4.885 5.586 7.56 12.761 7.56 20.182v87.092c0 26.445 21.438 47.883 47.883 47.883h77.867c26.445 0 47.883-21.438 47.883-47.883v-87.092c0-7.46 2.73-14.649 7.635-20.268 19.225-22.026 30.873-50.835 30.873-82.368z" fill="url(#SVGID_6_)"/><circle cx="125.325" cy="164.944" fill="url(#SVGID_7_)" r="63.823"/></g><path d="m264.766 135.03c-9.092 1.36-15.418 9.605-14.608 18.762.325 3.674.491 7.393.491 11.152 0 29.445-10.159 56.514-27.159 77.904 13.466-.253 27.333.171 41.163 1.404 13.667-24.004 20.996-51.303 20.996-79.308 0-4.705-.205-9.378-.607-14.011-.882-10.145-10.205-17.409-20.276-15.903z" fill="#e05d6f"/><g fill="#ffccd3"><path d="m76.247 379.424c-1.956 0-3.932-.572-5.665-1.766-7.56-5.209-12.073-13.802-12.073-22.987v-18.993c0-5.522 4.478-10 10-10 5.523 0 10 4.478 10 10v18.993c0 2.605 1.278 5.042 3.42 6.517 4.549 3.134 5.695 9.36 2.563 13.909-1.941 2.814-5.066 4.327-8.245 4.327z"/><path d="m68.509 305.025c-5.522 0-10-4.477-10-10v-4.856c0-5.522 4.478-10 10-10 5.523 0 10 4.478 10 10v4.856c0 5.523-4.478 10-10 10z"/></g></g></svg>