<svg id="Capa_1" enable-background="new 0 0 502 502" height="512" viewBox="0 0 502 502" width="512" xmlns="http://www.w3.org/2000/svg" xmlns:xlink="http://www.w3.org/1999/xlink"><linearGradient id="SVGID_1_" gradientUnits="userSpaceOnUse" x1="346.178" x2="346.178" y1="527.093" y2="179.453"><stop offset="0" stop-color="#4e5660"/><stop offset="1" stop-color="#64768d"/></linearGradient><linearGradient id="SVGID_2_" gradientUnits="userSpaceOnUse" x1="346.177" x2="346.177" y1="409.793" y2="235.905"><stop offset="0" stop-color="#d4dbdb"/><stop offset="1" stop-color="#f3f3f3"/></linearGradient><linearGradient id="lg1"><stop offset="0" stop-color="#5bd9bb"/><stop offset=".2532" stop-color="#60dabd"/><stop offset=".5725" stop-color="#70dec4"/><stop offset=".9261" stop-color="#8ae4cf"/><stop offset="1" stop-color="#90e6d2"/></linearGradient><linearGradient id="SVGID_3_" gradientUnits="userSpaceOnUse" x1="204.235" x2="204.235" xlink:href="#lg1" y1="368.179" y2="278.666"/><linearGradient id="SVGID_4_" gradientUnits="userSpaceOnUse" x1="204.235" x2="204.235" xlink:href="#lg1" y1="157.581" y2="53.124"/><linearGradient id="SVGID_5_" gradientUnits="userSpaceOnUse" x1="204.235" x2="204.235" xlink:href="#lg1" y1="237.913" y2="170.204"/><g><path d="m477.623 337.812-98.305 98.305c-32.503 32.503-85.202 32.503-117.705 0l-46.88-46.88c-32.503-32.503-32.503-85.202 0-117.705l98.305-98.305c32.503-32.503 85.202-32.503 117.705 0l46.88 46.88c32.503 32.503 32.503 85.202 0 117.705z" fill="url(#SVGID_1_)"/><path d="m191.402 317.309c-4.022 25.418 3.742 52.339 23.33 71.928l15.512 15.512c37.688-11.22 65.255-46.166 65.293-87.441h-104.135z" fill="#424e5e"/><path d="m251.914 300.921 90.512-90.512c16.272-16.272 42.655-16.272 58.927 0l39.086 39.087c16.272 16.272 16.272 42.655 0 58.927l-90.512 90.513c-16.272 16.272-42.655 16.272-58.928 0l-39.087-39.087c-16.27-16.273-16.27-42.656.002-58.928z" fill="url(#SVGID_2_)"/><path d="m275.295 293.42c-6.793 2.21-11.165 8.912-10.254 15.997.329 2.556.499 5.162.499 7.808 0 15.61-5.837 29.852-15.446 40.67.585.664 1.186 1.319 1.82 1.953l19.316 19.317c15.073-16.288 24.309-38.05 24.309-61.94 0-3.853-.242-7.65-.71-11.377-1.173-9.359-10.564-15.346-19.534-12.428z" fill="#c5ccd4"/><circle cx="204.235" cy="317.225" fill="url(#SVGID_3_)" r="61.305"/><path d="m354.899 166.561c-83.078-83.076-218.25-83.076-301.328 0-12.254 12.256-32.125 12.256-44.38 0-12.255-12.255-12.255-32.124 0-44.38 52.024-52.025 121.291-80.676 195.044-80.676s143.02 28.651 195.044 80.676c12.255 12.255 12.255 32.124 0 44.38-12.253 12.255-32.125 12.257-44.38 0z" fill="url(#SVGID_4_)"/><path d="m280.932 240.529c-42.292-42.292-111.103-42.292-153.394 0-12.256 12.254-32.124 12.253-44.381-.001-12.254-12.255-12.254-32.125.001-44.381 66.762-66.76 175.392-66.76 242.154 0 12.255 12.255 12.255 32.125.001 44.381-12.253 12.253-32.124 12.257-44.381.001z" fill="url(#SVGID_5_)"/><path d="m389.626 296.393c-2.943 0-5.886-1.123-8.132-3.368l-23.669-23.669c-4.491-4.491-4.491-11.772 0-16.264 4.492-4.49 11.771-4.49 16.264 0l23.669 23.669c4.491 4.491 4.491 11.772 0 16.264-2.246 2.244-5.189 3.368-8.132 3.368z" fill="#12c7aa"/><g fill="#8196ab"><path d="m474.773 311.497c-1.101 0-2.22-.184-3.316-.569-5.21-1.831-7.949-7.54-6.117-12.75.646-1.842 1.207-3.741 1.664-5.645 1.288-5.37 6.688-8.683 12.057-7.391 5.371 1.288 8.68 6.686 7.391 12.057-.615 2.566-1.37 5.127-2.244 7.611-1.447 4.114-5.31 6.687-9.435 6.687z"/><path d="m473.71 263.642c-3.963 0-7.714-2.372-9.282-6.274-2.901-7.222-7.165-13.677-12.674-19.185l-4.084-4.084c-3.905-3.905-3.905-10.237 0-14.143 3.906-3.904 10.236-3.904 14.143 0l4.084 4.084c7.427 7.427 13.177 16.131 17.09 25.87 2.059 5.125-.427 10.948-5.551 13.008-1.223.491-2.485.724-3.726.724z"/></g></g></svg>