<svg id="Capa_1" enable-background="new 0 0 502 502" height="512" viewBox="0 0 502 502" width="512" xmlns="http://www.w3.org/2000/svg" xmlns:xlink="http://www.w3.org/1999/xlink"><linearGradient id="lg1"><stop offset="0" stop-color="#4e5660"/><stop offset="1" stop-color="#64768d"/></linearGradient><linearGradient id="SVGID_1_" gradientUnits="userSpaceOnUse" x1="384.189" x2="125.957" xlink:href="#lg1" y1="222.644" y2="222.644"/><linearGradient id="SVGID_2_" gradientUnits="userSpaceOnUse" x1="124.616" x2="124.616" xlink:href="#lg1" y1="366.077" y2="517.201"/><linearGradient id="SVGID_3_" gradientUnits="userSpaceOnUse" x1="425.792" x2="425.792" xlink:href="#lg1" y1="217.506" y2="87.165"/><linearGradient id="lg2"><stop offset="0" stop-color="#d4dbdb"/><stop offset="1" stop-color="#f3f3f3"/></linearGradient><linearGradient id="SVGID_4_" gradientUnits="userSpaceOnUse" x1="215.076" x2="215.076" xlink:href="#lg2" y1="427.547" y2="250.031"/><linearGradient id="SVGID_5_" gradientUnits="userSpaceOnUse" x1="338.746" x2="338.746" y1="194.161" y2="283.145"><stop offset="0" stop-color="#c5cccc"/><stop offset="1" stop-color="#e6e6e6"/></linearGradient><linearGradient id="SVGID_6_" gradientUnits="userSpaceOnUse" x1="391.051" x2="391.051" xlink:href="#lg2" y1="251.281" y2="116.246"/><linearGradient id="SVGID_7_" gradientUnits="userSpaceOnUse" x1="121.205" x2="121.205" y1="201.082" y2="63.512"><stop offset="0" stop-color="#5bd9bb"/><stop offset=".2532" stop-color="#60dabd"/><stop offset=".5725" stop-color="#70dec4"/><stop offset=".9261" stop-color="#8ae4cf"/><stop offset="1" stop-color="#90e6d2"/></linearGradient><g><path d="m315.451 16.611c22.148-22.148 58.057-22.148 80.204 0l49.632 49.632-379.044 379.044-49.632-49.632c-22.148-22.148-22.148-58.057 0-80.204z" fill="url(#SVGID_1_)"/><path d="m186.549 485.389c-22.148 22.148-58.056 22.148-80.204 0l-89.734-89.734c22.148 22.148 58.056 22.148 80.204 0l46.071-46.071 89.734 89.734z" fill="url(#SVGID_2_)"/><path d="m485.389 186.549c22.148-22.148 22.148-58.057 0-80.204l-89.734-89.734c22.148 22.148 22.148 58.056 0 80.204l-46.071 46.071 89.734 89.734z" fill="url(#SVGID_3_)"/><path d="m210.101 456.819-84.716-84.716c-8.544-8.544-8.544-22.397 0-30.942l26.79-26.79c6.243-6.243 13.017-11.929 20.247-16.996l30.21-21.17c11.366-7.965 26.81-6.616 36.624 3.197l63.545 63.545c9.814 9.814 11.162 25.258 3.197 36.624l-21.17 30.21c-5.066 7.23-10.753 14.005-16.996 20.247l-26.79 26.79c-8.544 8.546-22.397 8.546-30.941.001z" fill="url(#SVGID_4_)"/><path d="m325.804 166.666-56.808 56.808c-9.389 9.389-9.389 24.611 0 34l55.734 55.734c9.389 9.389 24.611 9.389 34 0l56.808-56.809zm23.499 112.763-4.697 4.697c-4.328 4.328-11.345 4.328-15.673 0l-30.855-30.855c-4.328-4.328-4.328-11.345 0-15.673l4.696-4.696c4.328-4.328 11.345-4.328 15.673 0l30.855 30.855c4.329 4.327 4.329 11.344.001 15.672z" fill="url(#SVGID_5_)"/><path d="m410.739 257.662-86.196-86.196c-8.136-8.136-8.136-21.326 0-29.462l17.359-17.359c8.136-8.136 21.326-8.136 29.462 0l86.196 86.196c8.136 8.136 8.136 21.326 0 29.462l-17.359 17.359c-8.136 8.135-21.326 8.135-29.462 0z" fill="url(#SVGID_6_)"/><path d="m410.739 257.662-60.644-60.643c-5.858-5.858-15.355-5.858-21.213 0-5.858 5.858-5.858 15.355 0 21.213l62.412 62.413 21.329-21.329c-.65-.513-1.284-1.055-1.884-1.654z" fill="#b2b7bd"/><g fill="#fff"><path d="m171.81 385.381c-2.559 0-5.118-.977-7.071-2.929l-20.926-20.926c-3.905-3.905-3.906-10.237 0-14.143 3.905-3.904 10.237-3.904 14.142 0l20.926 20.926c3.905 3.905 3.906 10.237.001 14.143-1.954 1.952-4.513 2.929-7.072 2.929z"/><path d="m203.787 417.358c-2.559 0-5.119-.977-7.071-2.929l-2.963-2.963c-3.905-3.905-3.905-10.237 0-14.143 3.905-3.904 10.237-3.904 14.143 0l2.963 2.963c3.905 3.905 3.905 10.237 0 14.143-1.954 1.953-4.513 2.929-7.072 2.929z"/></g><circle cx="121.204" cy="115.672" fill="url(#SVGID_7_)" r="99.061"/><path d="m107.519 153.044c-2.559 0-5.118-.977-7.071-2.929l-27.373-27.372c-3.905-3.905-3.906-10.237-.001-14.143 3.905-3.904 10.237-3.904 14.142 0l20.302 20.302 47.674-47.674c3.905-3.904 10.237-3.903 14.142 0 3.905 3.905 3.905 10.237 0 14.143l-54.745 54.744c-1.952 1.952-4.511 2.929-7.07 2.929z" fill="#fff"/></g></svg>