<svg id="Capa_1" enable-background="new 0 0 502 502" height="512" viewBox="0 0 502 502" width="512" xmlns="http://www.w3.org/2000/svg" xmlns:xlink="http://www.w3.org/1999/xlink"><linearGradient id="SVGID_1_" gradientUnits="userSpaceOnUse" x1="253" x2="253" y1="310.333" y2="11.604"><stop offset="0" stop-color="#3fbda0"/><stop offset=".2123" stop-color="#44c0a3"/><stop offset=".4801" stop-color="#54c7ad"/><stop offset=".7763" stop-color="#6ed4be"/><stop offset="1" stop-color="#86e0cd"/></linearGradient><linearGradient id="SVGID_2_" gradientUnits="userSpaceOnUse" x1="251" x2="251" y1="267.406" y2="343.96"><stop offset="0" stop-color="#ad7d63"/><stop offset="1" stop-color="#cb9d82"/></linearGradient><linearGradient id="lg1"><stop offset="0" stop-color="#5bd9bb"/><stop offset=".2532" stop-color="#60dabd"/><stop offset=".5725" stop-color="#70dec4"/><stop offset=".9261" stop-color="#8ae4cf"/><stop offset="1" stop-color="#90e6d2"/></linearGradient><linearGradient id="SVGID_3_" gradientUnits="userSpaceOnUse" x1="251" x2="251" xlink:href="#lg1" y1="302.152" y2="79.477"/><linearGradient id="SVGID_4_" gradientTransform="matrix(-1 0 0 1 1224.618 0)" gradientUnits="userSpaceOnUse" x1="783.693" x2="783.693" xlink:href="#lg1" y1="352.341" y2="293.358"/><linearGradient id="SVGID_5_" gradientUnits="userSpaceOnUse" x1="61.075" x2="61.075" xlink:href="#lg1" y1="352.341" y2="293.358"/><linearGradient id="SVGID_6_" gradientUnits="userSpaceOnUse" x1="251" x2="251" xlink:href="#lg1" y1="512.66" y2="345.963"/><g><path d="m248.378 328.346c1.383 54.648 46.189 98.915 100.849 99.676 57.188.796 103.797-45.324 103.797-102.329 0-27.162-10.583-51.852-27.85-70.174-2.284-2.423-1.177-6.448 2.021-7.376 27.02-7.841 51.266-26.688 51.266-48.692 0-21.573-23.307-40.109-49.683-48.216-4.031-1.239-6.791-4.919-6.791-9.136-.003-56.118-45.489-102.278-102.337-102.278-48.722 0-89.488 34.049-99.811 79.65-3.098-3.228-6.408-6.249-9.904-9.05-2.912-18.89-13.057-39.178-26.75-52.87-24.822-24.822-71.33-38.038-91.865-17.504-13.152 13.152-12.45 36.956-3.728 58.895 1.319 3.317.257 7.1-2.607 9.231-25.074 18.652-41.32 48.506-41.32 82.158 0 19.23 5.308 37.219 14.534 52.588 2.133 3.554 1.618 8.071-1.288 11.027-18.247 18.554-29.475 44.03-29.371 72.133.205 55.539 45.352 101.174 100.886 101.944 57.186.793 103.792-45.326 103.792-102.329z" fill="url(#SVGID_1_)"/><path d="m110.184 128.139c-3.279 17.044 2.02 34.838 14.139 47.304-6.284 8.274-12.12 16.376-17.314 24.05-20.421 30.168-6.971 71.499 27.31 83.798 9.153 3.284 19.131 6.134 29.853 8.531-3.57 21.652-12.513 39.019-22.123 52.171h32.505c13.495-17.286 21.571-52.195 24.39-76.533-19.748-2.571-38.411-6.661-54.267-12.325-15.915-5.686-22.298-24.829-12.824-38.824 9.105-13.451 20.833-29.034 33.832-44.715 2.481-2.993 1.098-7.525-2.624-8.647-2.856-.861-5.633-1.772-8.319-2.734-11.221-4.019-17.137-15.462-15.103-26.299 1.121-5.974-1.246-12.059-6.279-15.466-8.959-6.063-21.132-.933-23.176 9.689z" fill="#00a88e"/><path d="m328.235 344.993c-17.66-21.378-26.32-72.964-26.32-94.342h-101.83c0 21.378-8.66 72.964-26.32 94.342z" fill="url(#SVGID_2_)"/><path d="m370.148 216.31c-9.105-13.45-20.832-29.032-33.829-44.712-2.478-2.99-1.099-7.528 2.62-8.649 2.857-.861 5.635-1.772 8.322-2.734 14.356-5.142 20.027-22.434 11.48-35.062-20.381-30.109-55.276-72.033-86.218-97.865-12.44-10.386-30.602-10.386-43.042 0-30.942 25.832-65.838 67.755-86.218 97.865-8.548 12.628-2.876 29.921 11.48 35.062 2.687.962 5.465 1.873 8.322 2.734 3.718 1.121 5.098 5.659 2.62 8.649-12.997 15.68-24.724 31.262-33.829 44.712-9.434 13.937-3.244 33.059 12.598 38.743 29.463 10.571 68.672 15.697 106.55 15.697s77.087-5.126 106.55-15.697c15.837-5.683 22.028-24.805 12.594-38.743z" fill="url(#SVGID_3_)"/><path d="m475.68 370.128c0-12.518 1.603-40.488 10.534-67.31 2.879-8.646-5.046-16.941-13.81-14.444-40.237 11.467-73.205 43.099-77.37 73.451z" fill="url(#SVGID_4_)"/><path d="m26.32 370.128c0-12.518-1.603-40.488-10.534-67.31-2.879-8.646 5.046-16.941 13.81-14.444 40.237 11.467 73.205 43.099 77.369 73.451z" fill="url(#SVGID_5_)"/><path d="m33.462 340.5h435.075c18.481 0 33.463 14.982 33.463 33.462v51.259c0 31.634-25.645 57.279-57.279 57.279h-387.442c-31.634.001-57.279-25.643-57.279-57.278v-51.259c0-18.481 14.982-33.463 33.462-33.463z" fill="url(#SVGID_6_)"/><g><ellipse cx="163.114" cy="435.117" fill="#eaadcd" rx="14.936" ry="12.003"/><ellipse cx="338.886" cy="435.117" fill="#eaadcd" rx="14.936" ry="12.003"/><circle cx="188.721" cy="405.499" fill="#fff" r="29.618"/><circle cx="313.279" cy="405.499" fill="#fff" r="29.618"/><g fill="#3b3b44"><g><circle cx="188.721" cy="405.499" r="17.652"/><circle cx="313.279" cy="405.499" r="17.652"/></g><path d="m251 436.06c-5.248 0-10.495-1.984-14.776-5.953-2.025-1.878-2.145-5.041-.267-7.066 1.877-2.025 5.041-2.143 7.066-.267 4.696 4.355 11.258 4.355 15.954 0 2.025-1.876 5.188-1.757 7.066.267 1.877 2.025 1.758 5.189-.267 7.066-4.281 3.968-9.528 5.953-14.776 5.953z"/></g></g></g></svg>