<svg id="Capa_1" enable-background="new 0 0 502 502" height="512" viewBox="0 0 502 502" width="512" xmlns="http://www.w3.org/2000/svg" xmlns:xlink="http://www.w3.org/1999/xlink"><linearGradient id="SVGID_1_" gradientUnits="userSpaceOnUse" x1="-.236" x2="559.938" y1="308.568" y2="308.568"><stop offset="0" stop-color="#d4dbdb"/><stop offset="1" stop-color="#f3f3f3"/></linearGradient><linearGradient id="SVGID_2_" gradientUnits="userSpaceOnUse" x1="99.105" x2="434.742" y1="308.568" y2="308.568"><stop offset="0" stop-color="#5bd9bb"/><stop offset=".2532" stop-color="#60dabd"/><stop offset=".5725" stop-color="#70dec4"/><stop offset=".9261" stop-color="#8ae4cf"/><stop offset="1" stop-color="#90e6d2"/></linearGradient><linearGradient id="lg1"><stop offset="0" stop-color="#4e5660"/><stop offset="1" stop-color="#64768d"/></linearGradient><linearGradient id="SVGID_3_" gradientUnits="userSpaceOnUse" x1="183.455" x2="183.455" xlink:href="#lg1" y1="247.237" y2="319.446"/><linearGradient id="SVGID_4_" gradientUnits="userSpaceOnUse" x1="318.545" x2="318.545" xlink:href="#lg1" y1="247.237" y2="319.446"/><linearGradient id="SVGID_5_" gradientUnits="userSpaceOnUse" x1="251" x2="251" xlink:href="#lg1" y1="332.391" y2="392.724"/><linearGradient id="SVGID_6_" gradientUnits="userSpaceOnUse" x1="141.003" x2="386.26" y1="99.82" y2="99.82"><stop offset="0" stop-color="#f9edaf"/><stop offset="1" stop-color="#fffcdd"/></linearGradient><linearGradient id="SVGID_7_" gradientUnits="userSpaceOnUse" x1="254.978" x2="254.978" y1="144.309" y2="8.511"><stop offset="0" stop-color="#f4c22c"/><stop offset="1" stop-color="#f9e198"/></linearGradient><g><path d="m165.724 502c-78.694 0-142.715-64.022-142.715-142.715v-101.434c0-78.693 64.022-142.715 142.715-142.715h170.552c78.694 0 142.715 64.022 142.715 142.715v101.434c0 78.693-64.021 142.715-142.715 142.715z" fill="url(#SVGID_1_)"/><path d="m251 115.135h-85.276c-16.646 0-32.632 2.875-47.498 8.137 11.132 63.2 66.432 111.368 132.774 111.368z" fill="#cad1d9"/><path d="m336.276 180.514h-144.034s-15.069 15.595-47.042 2.775c-32.746 8.995-56.813 38.96-56.813 74.563v101.434c0 42.712 34.625 77.337 77.338 77.337h170.551c42.712 0 77.338-34.625 77.338-77.337v-101.435c-.001-42.712-34.626-77.337-77.338-77.337z" fill="url(#SVGID_2_)"/><path d="m192.242 180.514h-26.518c-7.109 0-13.986.979-20.525 2.775 24.712 31.257 62.952 51.351 105.8 51.351 16.828 0 32.943-3.104 47.808-8.764 10.469-3.987 14.543-16.656 8.365-26.001-4.526-6.848-13.189-9.587-20.864-6.678z" fill="#12c7aa"/><path d="m190.969 315.323h-15.03c-8.335 0-15.091-6.757-15.091-15.091v-40.507c0-8.334 6.757-15.091 15.091-15.091h15.03c8.335 0 15.091 6.757 15.091 15.091v40.507c.001 8.335-6.756 15.091-15.091 15.091z" fill="url(#SVGID_3_)"/><path d="m311.031 315.323h15.03c8.335 0 15.091-6.757 15.091-15.091v-40.507c0-8.334-6.757-15.091-15.091-15.091h-15.03c-8.335 0-15.091 6.757-15.091 15.091v40.507c-.001 8.335 6.756 15.091 15.091 15.091z" fill="url(#SVGID_4_)"/><path d="m271.43 392.503c7.657 0 13.69-6.508 13.156-14.146-1.706-24.409-9.078-42.445-33.586-42.445-24.507 0-31.88 18.036-33.586 42.445-.534 7.638 5.499 14.146 13.156 14.146z" fill="url(#SVGID_5_)"/><circle cx="251" cy="99.82" fill="url(#SVGID_6_)" r="99.82"/><path d="m296.586 87.765h-15.11l9.998-27.47c2.725-7.488-2.82-15.407-10.788-15.407h-35.877c-9.146 0-17.315 5.72-20.443 14.315l-17.392 47.783c-1.842 5.061 1.906 10.414 7.292 10.414h11.926l-12.161 33.412c-3.009 8.268 6.827 15.214 13.612 9.613l73.308-60.515c4.958-4.094 2.064-12.145-4.365-12.145z" fill="url(#SVGID_7_)"/><g fill="#fff"><path d="m395.854 464.493c-3.326 0-6.578-1.657-8.478-4.682-2.938-4.677-1.528-10.85 3.148-13.787 2.308-1.449 4.581-3.007 6.761-4.631 4.428-3.303 10.692-2.388 13.993 2.042 3.301 4.428 2.387 10.693-2.042 13.993-2.602 1.94-5.319 3.802-8.073 5.531-1.652 1.039-3.492 1.534-5.309 1.534z"/><path d="m431.147 429.36c-1.834 0-3.69-.504-5.354-1.561-4.661-2.963-6.039-9.143-3.076-13.804 6.615-10.41 11.241-21.782 13.748-33.8 1.128-5.406 6.425-8.876 11.831-7.747 5.406 1.128 8.875 6.425 7.747 11.831-3.001 14.385-8.534 27.991-16.446 40.442-1.906 3-5.143 4.639-8.45 4.639z"/></g></g></svg>