<svg id="Capa_1" enable-background="new 0 0 502 502" height="512" viewBox="0 0 502 502" width="512" xmlns="http://www.w3.org/2000/svg" xmlns:xlink="http://www.w3.org/1999/xlink"><linearGradient id="SVGID_1_" gradientUnits="userSpaceOnUse" x1="251" x2="251" y1="234.401" y2="31.443"><stop offset="0" stop-color="#74d2e8"/><stop offset="1" stop-color="#baeaf5"/></linearGradient><linearGradient id="lg1"><stop offset="0" stop-color="#ec6f80"/><stop offset="1" stop-color="#eca0aa"/></linearGradient><linearGradient id="SVGID_2_" gradientUnits="userSpaceOnUse" x1="69.012" x2="69.012" xlink:href="#lg1" y1="491.295" y2="218.684"/><linearGradient id="lg2"><stop offset="0" stop-color="#4e5660"/><stop offset="1" stop-color="#64768d"/></linearGradient><linearGradient id="SVGID_3_" gradientUnits="userSpaceOnUse" x1="144.428" x2="144.428" xlink:href="#lg2" y1="490.087" y2="236.313"/><linearGradient id="SVGID_4_" gradientUnits="userSpaceOnUse" x1="432.988" x2="432.988" xlink:href="#lg1" y1="491.295" y2="218.684"/><linearGradient id="SVGID_5_" gradientUnits="userSpaceOnUse" x1="357.572" x2="357.572" xlink:href="#lg2" y1="490.087" y2="236.313"/><linearGradient id="SVGID_6_" gradientUnits="userSpaceOnUse" x1="251" x2="251" xlink:href="#lg2" y1="133.732" y2="20.99"/><g><path d="m404.311 65.587c-54.223-21.877-95.04-34.7-153.311-34.7s-99.088 12.823-153.311 34.7c-41.882 39.309-64.947 93.101-64.947 151.466v81.012h89.731v-81.012c0-68.878 55.254-120.819 128.527-120.819s128.527 51.941 128.527 120.819v81.012h89.731v-81.012c0-58.365-23.065-112.157-64.947-151.466z" fill="url(#SVGID_1_)"/><path d="m138.024 482.868h-70.971c-37.032 0-67.053-30.02-67.053-67.053v-115.172c0-37.032 30.021-67.053 67.053-67.053h70.971z" fill="url(#SVGID_2_)"/><path d="m109.599 467.562c-15.222-29.751-21.878-71.071-24.781-100.496-3.896-39.484-3.206-78.752 1.944-110.571 4.525-27.955 30.855-46.939 58.808-42.424 27.955 4.524 46.949 30.854 42.424 58.808-7.988 49.352.558 123.857 12.897 147.973 12.899 25.211 2.919 56.103-22.291 69.002-25.305 12.946-56.15 2.826-69.001-22.292z" fill="url(#SVGID_3_)"/><path d="m109.599 467.562c-15.222-29.751-21.878-71.071-24.781-100.497-.966-9.791-1.647-19.566-2.048-29.219-.381-9.152-7.682-16.493-16.836-16.829-10.196-.375-18.547 8.017-18.129 18.211.425 10.35 1.149 20.812 2.182 31.273 4.62 46.826 14.087 84.621 28.135 112.366h43.449c-4.801-4.176-8.904-9.307-11.972-15.305z" fill="#e05d6f"/><path d="m363.976 482.868h70.971c37.032 0 67.053-30.021 67.053-67.053v-115.172c0-37.032-30.021-67.053-67.053-67.053h-70.971z" fill="url(#SVGID_4_)"/><path d="m392.401 467.562c15.222-29.751 21.878-71.071 24.781-100.496 3.896-39.484 3.206-78.752-1.944-110.571-4.525-27.955-30.855-46.939-58.808-42.424-27.954 4.524-46.949 30.854-42.424 58.808 7.988 49.352-.558 123.857-12.897 147.973-12.899 25.211-2.919 56.103 22.291 69.002 25.305 12.946 56.15 2.826 69.001-22.292z" fill="url(#SVGID_5_)"/><path d="m251 6.504c58.271 0 112.718 20.983 153.311 59.084l-64.124 64.124c-9.303 9.303-23.633 11.516-35.201 5.249-15.459-8.376-33.828-13.088-53.986-13.088s-38.528 4.713-53.986 13.088c-11.567 6.267-25.898 4.054-35.201-5.249l-64.124-64.125c40.593-38.1 95.04-59.083 153.311-59.083z" fill="url(#SVGID_6_)"/><g fill="#dff7fa"><path d="m416.692 139.48c-3.504 0-6.903-1.845-8.735-5.119-.685-1.224-1.386-2.438-2.102-3.646-2.817-4.75-1.251-10.885 3.499-13.702 4.752-2.818 10.886-1.251 13.702 3.499.802 1.352 1.587 2.713 2.354 4.083 2.697 4.82.976 10.913-3.844 13.609-1.544.864-3.22 1.276-4.874 1.276z"/><path d="m438.284 208.19c-5.065 0-9.407-3.833-9.936-8.979-1.018-9.908-2.903-19.743-5.604-29.233-1.512-5.313 1.569-10.844 6.881-12.355 5.315-1.508 10.844 1.569 12.355 6.881 3.02 10.609 5.126 21.6 6.262 32.665.564 5.494-3.432 10.405-8.926 10.969-.346.035-.691.052-1.032.052z"/></g></g></svg>