<svg id="Capa_1" enable-background="new 0 0 502 502" height="512" viewBox="0 0 502 502" width="512" xmlns="http://www.w3.org/2000/svg" xmlns:xlink="http://www.w3.org/1999/xlink"><linearGradient id="SVGID_1_" gradientUnits="userSpaceOnUse" x1="325.326" x2="325.326" y1="509.871" y2="228.915"><stop offset="0" stop-color="#4e5660"/><stop offset="1" stop-color="#64768d"/></linearGradient><linearGradient id="lg1"><stop offset="0" stop-color="#5bd9bb"/><stop offset=".2532" stop-color="#60dabd"/><stop offset=".5725" stop-color="#70dec4"/><stop offset=".9261" stop-color="#8ae4cf"/><stop offset="1" stop-color="#90e6d2"/></linearGradient><linearGradient id="SVGID_2_" gradientUnits="userSpaceOnUse" x1="360.088" x2="360.088" xlink:href="#lg1" y1="383.218" y2="230.571"/><linearGradient id="SVGID_3_" gradientTransform="matrix(-1 0 0 1 -868.959 18.366)" gradientUnits="userSpaceOnUse" x1="-1157.716" x2="-1157.716" y1="183.811" y2="291.67"><stop offset="0" stop-color="#f4c22c"/><stop offset="1" stop-color="#f9e198"/></linearGradient><linearGradient id="SVGID_4_" gradientTransform="matrix(-1 0 0 1 -868.959 18.366)" gradientUnits="userSpaceOnUse" x1="-1055.355" x2="-1055.355" y1="266.64" y2="-20.299"><stop offset="0" stop-color="#f4d952"/><stop offset="1" stop-color="#f9edaf"/></linearGradient><linearGradient id="SVGID_5_" gradientUnits="userSpaceOnUse" x1="240.156" x2="240.156" xlink:href="#lg1" y1="435.776" y2="377.115"/><g><path d="m475.068 350.837-120.24 120.241c-35.909 35.909-94.129 35.909-130.038 0l-49.207-49.207c-35.909-35.909-35.909-94.129 0-130.038l120.241-120.241c35.909-35.909 94.129-35.909 130.038 0l49.207 49.207c35.908 35.909 35.908 94.129-.001 130.038z" fill="url(#SVGID_1_)"/><path d="m279.853 187.563-101.587 101.588c2.691.044 5.395.074 8.131.074 14.018 0 27.623-.603 40.637-1.796 21.425 18.569 47.311 32.063 77.189 40.204 18.377 5.01 37.69 2.228 53.653-7.523z" fill="#424e5e"/><path d="m444.524 264.481-62.344-62.344c-14.011-14.01-36.727-14.01-50.737 0l-58.365 58.365c-3.54 3.54-6.182 7.636-7.933 12.006 4.329 16.269 17.082 47.875 17.085 47.882l53.192 53.192c14.01 14.01 36.726 14.01 50.737 0l58.365-58.365c14.01-14.01 14.01-36.726 0-50.736z" fill="url(#SVGID_2_)"/><path d="m265.145 272.508c-5.18 12.928-2.538 28.26 7.933 38.731l9.151 9.152c7.069 2.755 14.4 5.173 21.992 7.242 26.439 7.207 54.824-1.698 72.367-24.31 5.291-6.821 9.177-14.402 11.585-22.383 3.35-11.102-4.727-22.359-16.32-22.645-7.862-.194-14.934 4.863-17.178 12.401z" fill="#12c7aa"/><path d="m342.583 166.019c0 25.128 5.169 58.411 12.4 86.581 6.442 25.095-16.563 48.077-41.559 41.264-34.38-9.369-67.943-28.298-91.987-66.263z" fill="url(#SVGID_3_)"/><ellipse cx="186.396" cy="129.108" fill="url(#SVGID_4_)" rx="186.396" ry="125.117"/><g fill="#fffde3"><path d="m247.482 353.809c-2.943 0-5.886-1.123-8.132-3.368l-13.419-13.419c-4.491-4.491-4.491-11.773 0-16.264 4.492-4.49 11.771-4.49 16.264 0l13.419 13.419c4.491 4.491 4.491 11.772 0 16.264-2.246 2.244-5.188 3.368-8.132 3.368z"/><path d="m317.772 424.098c-2.943 0-5.886-1.123-8.132-3.368l-13.419-13.419c-4.491-4.491-4.491-11.772 0-16.264 4.492-4.49 11.771-4.49 16.264 0l13.419 13.419c4.491 4.491 4.491 11.773 0 16.264-2.247 2.245-5.189 3.368-8.132 3.368z"/></g><circle cx="240.156" cy="406.505" fill="url(#SVGID_5_)" r="27.816"/><g><ellipse cx="98.511" cy="152.724" fill="#eaadcd" rx="14.936" ry="12.003"/><ellipse cx="274.282" cy="152.724" fill="#eaadcd" rx="14.936" ry="12.003"/><circle cx="124.117" cy="123.106" fill="#fff" r="29.618"/><ellipse cx="112.152" cy="123.106" fill="#3b3b44" rx="17.652" ry="17.652" transform="matrix(.707 -.707 .707 .707 -54.201 115.36)"/><circle cx="248.675" cy="123.106" fill="#fff" r="29.618"/><g fill="#3b3b44"><ellipse cx="236.709" cy="123.106" rx="17.652" ry="17.652" transform="matrix(.23 -.973 .973 .23 62.512 325.199)"/><path d="m193.986 130.3h-15.181c-3.007 0-5.658 1.976-6.506 4.862-2.672 9.09-5.742 27.748 14.097 27.748 19.838 0 16.769-18.659 14.097-27.748-.849-2.886-3.499-4.862-6.507-4.862z"/></g></g><g fill="#fffde3"><path d="m100.776 55.05c-4.273 0-8.229-2.761-9.554-7.058-1.626-5.278 1.333-10.875 6.611-12.502 3.215-.99 6.579-1.935 10-2.805 5.354-1.362 10.796 1.874 12.157 7.226 1.361 5.353-1.873 10.795-7.226 12.157-3.101.789-6.143 1.642-9.041 2.535-.979.302-1.972.447-2.947.447z"/><path d="m36.81 103.49c-1.357 0-2.735-.278-4.055-.864-5.047-2.243-7.32-8.152-5.078-13.199 6.164-13.871 15.872-25.298 29.68-34.931 4.526-3.16 10.762-2.052 13.923 2.479 3.16 4.529 2.05 10.763-2.479 13.923-10.731 7.487-18.205 16.205-22.846 26.649-1.657 3.728-5.313 5.943-9.145 5.943z"/></g></g></svg>