<svg id="Capa_1" enable-background="new 0 0 502 502" height="512" viewBox="0 0 502 502" width="512" xmlns="http://www.w3.org/2000/svg" xmlns:xlink="http://www.w3.org/1999/xlink"><linearGradient id="SVGID_1_" gradientUnits="userSpaceOnUse" x1="358.984" x2="358.984" y1="229.782" y2="493.642"><stop offset="0" stop-color="#74d2e8"/><stop offset="1" stop-color="#baeaf5"/></linearGradient><linearGradient id="lg1"><stop offset="0" stop-color="#ec6f80"/><stop offset="1" stop-color="#eca0aa"/></linearGradient><linearGradient id="SVGID_2_" gradientUnits="userSpaceOnUse" x1="358.985" x2="358.985" xlink:href="#lg1" y1="189.565" y2="188.506"/><linearGradient id="lg2"><stop offset="0" stop-color="#4e5660"/><stop offset="1" stop-color="#64768d"/></linearGradient><linearGradient id="SVGID_3_" gradientUnits="userSpaceOnUse" x1="235.575" x2="235.575" xlink:href="#lg2" y1="203.035" y2="203.035"/><linearGradient id="SVGID_4_" gradientUnits="userSpaceOnUse" x1="344.171" x2="477.177" xlink:href="#lg2" y1="179.804" y2="179.804"/><linearGradient id="SVGID_5_" gradientUnits="userSpaceOnUse" x1="195.687" x2="195.687" xlink:href="#lg1" y1="326.831" y2="-3.505"/><linearGradient id="SVGID_6_" gradientUnits="userSpaceOnUse" x1="195.687" x2="195.687" y1="97.221" y2="29.958"><stop offset="0" stop-color="#dd5c6e"/><stop offset="1" stop-color="#ec8290"/></linearGradient><g><path d="m358.986 189.006-123.41 14.028c-15.152 87.756-20.982 178.31-19.34 235.018.41 14.158 11.975 25.433 26.139 25.433h41.09c16.167 0 30.485-10.385 35.557-25.736 8.954-27.1 19.946-65.64 31.099-106.797 2.449-9.039 15.278-9.039 17.728 0 11.151 41.158 22.143 79.698 31.097 106.798 5.072 15.351 19.39 25.736 35.557 25.736h41.09c14.165 0 25.729-11.275 26.139-25.433 1.642-56.708-4.187-147.262-19.339-235.018l-123.411-14.028h.004z" fill="url(#SVGID_1_)"/><g fill="#17c5d9"><path d="m358.982 189.006.002.001.002-.001z"/><path d="m320.719 315.309c11.018 4.453 23.266-3.127 24.021-14.987.097-1.518.146-3.049.146-4.592v-81.093c12.179-1.28 23.466-6.645 32.245-15.424l7.313-7.313-25.461-2.894-49.097 5.581v101.143c0 .773-.024 1.541-.072 2.302-.466 7.505 3.934 14.459 10.905 17.277z"/></g><g><path d="m358.986 189.564-2.12-1.057 4.238-.001z" fill="url(#SVGID_2_)"/></g><g><path d="" fill="url(#SVGID_3_)"/><path d="m320.941 193.08 51.93 9.955h109.522c-1.416-8.201-2.911-16.378-4.491-24.501-2.482-12.758-13.669-21.962-26.666-21.962h-184.503c-12.998 0-24.184 9.203-26.666 21.962-1.58 8.122-3.075 16.299-4.491 24.501z" fill="url(#SVGID_4_)"/></g><path d="m377.131 199.214 33.522-33.521c2.821-2.821 5.248-5.886 7.309-9.12h-151.229c-12.998 0-24.184 9.203-26.666 21.962-1.58 8.122-3.075 16.3-4.491 24.5h137.296c1.473-1.194 2.9-2.461 4.259-3.821z" fill="#424e5e"/><path d="m385.905 114.532-38.764-38.763c-23.853-23.854-56.206-37.254-89.94-37.254h-1.704l-59.809 18.198-59.809-18.198h-1.704c-33.734 0-66.087 13.401-89.94 37.254l-38.765 38.763c-7.293 7.293-7.293 19.118 0 26.411l33.522 33.522c7.293 7.293 19.118 7.293 26.411 0l16.085-16.085v137.35c0 20.167 16.348 36.515 36.515 36.515h155.368c20.167 0 36.515-16.349 36.515-36.515v-137.35l16.085 16.085c7.293 7.293 19.118 7.293 26.411 0l33.522-33.522c7.294-7.293 7.294-19.117.001-26.411z" fill="url(#SVGID_5_)"/><path d="m135.878 38.514c0 33.032 26.777 59.809 59.809 59.809s59.809-26.777 59.809-59.809z" fill="url(#SVGID_6_)"/><g><ellipse cx="107.802" cy="203.42" fill="#eaadcd" rx="14.936" ry="12.003"/><ellipse cx="283.573" cy="203.42" fill="#eaadcd" rx="14.936" ry="12.003"/><circle cx="133.409" cy="173.802" fill="#fff" r="29.618"/><circle cx="257.966" cy="173.802" fill="#fff" r="29.618"/><g fill="#3b3b44"><g><circle cx="133.409" cy="173.802" r="17.652"/><circle cx="257.966" cy="173.802" r="17.652"/></g><path d="m195.688 204.361c-5.248 0-10.495-1.984-14.776-5.954-2.025-1.877-2.145-5.041-.267-7.065 1.878-2.025 5.041-2.145 7.066-.267 4.698 4.355 11.257 4.353 15.954 0 2.023-1.878 5.188-1.759 7.066.267 1.877 2.024 1.758 5.189-.267 7.065-4.282 3.97-9.529 5.954-14.776 5.954z"/></g></g><path d="m466.009 278.317c-.939 0-1.894-.134-2.84-.413-19.785-5.851-35.818-22.778-42.888-45.282-1.655-5.269 1.274-10.882 6.543-12.537 5.269-1.658 10.882 1.275 12.538 6.543 5.07 16.14 16.09 28.138 29.477 32.097 5.296 1.566 8.32 7.129 6.754 12.426-1.285 4.349-5.268 7.166-9.584 7.166z" fill="#17c5d9"/></g></svg>