<svg id="Capa_1" enable-background="new 0 0 502 502" height="512" viewBox="0 0 502 502" width="512" xmlns="http://www.w3.org/2000/svg" xmlns:xlink="http://www.w3.org/1999/xlink"><linearGradient id="SVGID_1_" gradientUnits="userSpaceOnUse" x1="305.426" x2="20.919" y1="303.203" y2="303.203"><stop offset="0" stop-color="#dd5c6e"/><stop offset="1" stop-color="#ec8290"/></linearGradient><linearGradient id="SVGID_2_" gradientUnits="userSpaceOnUse" x1="265.674" x2="265.674" y1="487.707" y2="41.81"><stop offset="0" stop-color="#ec6f80"/><stop offset="1" stop-color="#eca0aa"/></linearGradient><linearGradient id="SVGID_3_" gradientUnits="userSpaceOnUse" x1="221.161" x2="111.753" y1="184.97" y2="184.97"><stop offset="0" stop-color="#c5cccc"/><stop offset="1" stop-color="#e6e6e6"/></linearGradient><linearGradient id="SVGID_4_" gradientUnits="userSpaceOnUse" x1="378.49" x2="161.695" y1="153.473" y2="153.473"><stop offset="0" stop-color="#d4dbdb"/><stop offset="1" stop-color="#f3f3f3"/></linearGradient><linearGradient id="SVGID_5_" gradientUnits="userSpaceOnUse" x1="257.425" x2="257.425" y1="202.561" y2="87.568"><stop offset="0" stop-color="#5bd9bb"/><stop offset=".2532" stop-color="#60dabd"/><stop offset=".5725" stop-color="#70dec4"/><stop offset=".9261" stop-color="#8ae4cf"/><stop offset="1" stop-color="#90e6d2"/></linearGradient><g><path d="m83.931 104.406-26.251 26.251c-31.645 31.645-31.645 82.951 0 114.596l73.494 73.494c16.355 16.354 38.814 22.965 60.109 19.843 6.294-.923 12.642 1.297 17.141 5.795l141.712 141.712c21.204 21.204 55.584 21.204 76.788 0l18.639-18.639-170.862-175.681c-5.614-5.614-7.459-13.972-4.737-21.429 9.112-24.961 3.675-54.079-16.318-74.073z" fill="url(#SVGID_1_)"/><path d="m106.766 81.571-22.835 22.835c-27.514 27.514-27.514 72.122 0 99.636l80.974 80.974c16.27 16.27 38.581 22.896 59.779 19.891 6.415-.909 12.89 1.166 17.471 5.747l156.804 156.804c12.87 12.87 33.736 12.87 46.605 0l12.837-12.837c12.87-12.87 12.87-33.736 0-46.605l-149.969-149.97c-5.614-5.614-7.46-13.972-4.737-21.429 9.112-24.961 3.675-54.079-16.318-74.073l-80.973-80.973c-27.515-27.514-72.124-27.514-99.638 0z" fill="url(#SVGID_2_)"/><g><path d="m277.407 233.613-32.134 32.134c-16.872 16.872-44.228 16.872-61.1 0l-80.973-80.973c-16.872-16.872-16.872-44.228 0-61.1l32.134-32.135z" fill="url(#SVGID_3_)"/><path d="m295.614 215.407-18.206 18.206c-16.872 16.872-44.228 16.872-61.1 0l-80.974-80.973c-16.872-16.872-16.872-44.228 0-61.1l18.206-18.206c16.872-16.872 44.228-16.872 61.1 0l80.973 80.973c16.873 16.872 16.873 44.227.001 61.1z" fill="url(#SVGID_4_)"/></g><path d="m221.608 173.671c-29.669-33.354-45.904-72.1-47.232-111.881-7.635 1.754-14.887 5.595-20.835 11.543l-5.785 5.785c1.611 13.175 4.619 26.26 9.064 39.188 9.154 26.619 23.936 51.446 44.022 73.976 5.314 5.96 14.575 6.168 20.221.521 5.225-5.224 5.456-13.611.545-19.132z" fill="#cad1d9"/><path d="m230.633 183.234c25.327 25.327 66.432 25.259 91.674-.203 25.138-25.356 24.01-67.256-1.338-92.402-37.28-36.982-65.173-50.1-84.621-77.004-17.02-23.545-54.083-15.003-59.375 13.564-10.272 55.453 8.948 111.333 53.66 156.045z" fill="url(#SVGID_5_)"/><g fill="#ffccd3"><path d="m376.831 375.389c-2.559 0-5.119-.977-7.071-2.929l-4.077-4.077c-3.905-3.905-3.905-10.237 0-14.143 3.905-3.904 10.237-3.904 14.143 0l4.077 4.077c3.905 3.905 3.905 10.237 0 14.143-1.953 1.952-4.513 2.929-7.072 2.929z"/><path d="m438.393 436.95c-2.559 0-5.119-.977-7.071-2.929l-32.846-32.846c-3.905-3.905-3.905-10.237 0-14.143 3.905-3.904 10.237-3.904 14.143 0l32.846 32.846c3.905 3.905 3.905 10.237 0 14.143-1.954 1.953-4.513 2.929-7.072 2.929z"/></g></g></svg>