<svg id="Capa_1" enable-background="new 0 0 502 502" height="512" viewBox="0 0 502 502" width="512" xmlns="http://www.w3.org/2000/svg" xmlns:xlink="http://www.w3.org/1999/xlink"><linearGradient id="SVGID_1_" gradientUnits="userSpaceOnUse" x1="112.242" x2="444.386" y1="157.505" y2="157.505"><stop offset="0" stop-color="#f9edaf"/><stop offset="1" stop-color="#fffcdd"/></linearGradient><linearGradient id="SVGID_2_" gradientUnits="userSpaceOnUse" x1="251" x2="251" y1="562.172" y2="243.153"><stop offset="0" stop-color="#5bd9bb"/><stop offset=".2532" stop-color="#60dabd"/><stop offset=".5725" stop-color="#70dec4"/><stop offset=".9261" stop-color="#8ae4cf"/><stop offset="1" stop-color="#90e6d2"/></linearGradient><linearGradient id="SVGID_3_" gradientUnits="userSpaceOnUse" x1="251" x2="251" y1="225.668" y2="47.982"><stop offset="0" stop-color="#ad7d63"/><stop offset="1" stop-color="#cb9d82"/></linearGradient><linearGradient id="SVGID_4_" gradientUnits="userSpaceOnUse" x1="251" x2="251" y1="174.476" y2="86.8"><stop offset="0" stop-color="#f4c22c"/><stop offset="1" stop-color="#f9e198"/></linearGradient><g><path d="m300.654 247.318-49.654-49.653-42.342-17.976c-10.248-10.6-16.565-25.024-16.565-40.932 0-32.636 26.539-59.072 59.212-58.907 31.477.159 57.566 25.515 58.572 56.976.259 8.118-1.124 15.882-3.844 22.986-5.686 14.853-2.339 31.639 8.907 42.885 20.36 20.36 54.996 13.167 65.431-13.669 5.85-15.045 9.152-31.362 9.374-48.422 1.001-76.636-61.105-140.063-137.746-140.602-77.092-.543-139.756 61.788-139.756 138.754v119.329c35.935 64.806 165.469 90.254 188.411-10.769z" fill="url(#SVGID_1_)"/><path d="m300.654 247.319c-15.813 6.007-29.07 17.2-37.7 31.503-2.407 3.989-7.213 5.832-11.665 4.459-16.424-5.064-34.35-4.4-50.587 2.249-4.042 1.655-8.698.427-11.497-2.926-13.782-16.511-34.516-27.017-57.705-27.017-6.658 0-13.11.876-19.257 2.502v185.958c0 32.008 25.947 57.955 57.955 57.955h161.605c32.008 0 57.955-25.947 57.955-57.955v-67.159c0-25.908-10.292-50.755-28.612-69.074z" fill="url(#SVGID_2_)"/><path d="m177.702 107.72c3.017-7.102-.02-15.333-6.834-18.951-7.708-4.093-17.357-.803-20.773 7.228-5.849 13.747-8.968 28.925-8.67 44.849 1.106 59.108 49.595 107.045 108.711 107.503 15.272.119 29.836-2.907 43.088-8.461l-23.721-23.721z" fill="#f5c98d"/><circle cx="251" cy="138.758" fill="url(#SVGID_3_)" r="79.595"/><circle cx="251" cy="138.758" fill="url(#SVGID_4_)" r="45.867"/><path d="m251 160.294c-6.351 0-11.5-5.148-11.5-11.5v-20.073c0-6.352 5.149-11.5 11.5-11.5 6.352 0 11.5 5.148 11.5 11.5v20.073c0 6.352-5.148 11.5-11.5 11.5z" fill="#9e715d"/><g><ellipse cx="163.114" cy="411.607" fill="#eaadcd" rx="14.936" ry="12.003"/><ellipse cx="338.886" cy="411.607" fill="#eaadcd" rx="14.936" ry="12.003"/><circle cx="188.721" cy="381.989" fill="#fff" r="29.618"/><circle cx="313.279" cy="381.989" fill="#fff" r="29.618"/><path d="m198.504 392.419c-2.648.001-5.213-1.404-6.579-3.888-.94-1.71-2.554-1.895-3.204-1.895s-2.265.185-3.205 1.895c-1.997 3.629-6.557 4.952-10.186 2.959-3.629-1.996-4.954-6.557-2.959-10.185 3.279-5.963 9.544-9.668 16.349-9.668h.001c6.806 0 13.07 3.705 16.348 9.668 1.996 3.63.671 8.189-2.959 10.185-1.145.63-2.384.929-3.606.929z" fill="#3b3b44"/><path d="m323.062 392.419c-2.647.001-5.214-1.404-6.579-3.888-.939-1.71-2.554-1.895-3.203-1.895-.65 0-2.265.185-3.205 1.895-1.997 3.629-6.559 4.954-10.185 2.959-3.63-1.996-4.954-6.557-2.959-10.185 3.279-5.963 9.544-9.668 16.349-9.668h.001c6.806.001 13.069 3.705 16.348 9.668 1.995 3.63.671 8.19-2.959 10.185-1.148.63-2.387.929-3.608.929z" fill="#3b3b44"/><g><path d="m262.671 421.793h-23.342c-6.508 0-11.784-5.276-11.784-11.784 0-6.508 5.276-11.784 11.784-11.784h23.342c6.508 0 11.784 5.276 11.784 11.784 0 6.508-5.276 11.784-11.784 11.784z" fill="#3b3b44"/></g></g></g></svg>