<svg id="Capa_1" enable-background="new 0 0 502 502" height="512" viewBox="0 0 502 502" width="512" xmlns="http://www.w3.org/2000/svg" xmlns:xlink="http://www.w3.org/1999/xlink"><linearGradient id="lg1"><stop offset="0" stop-color="#c5cccc"/><stop offset="1" stop-color="#e6e6e6"/></linearGradient><linearGradient id="SVGID_1_" gradientUnits="userSpaceOnUse" x1="251" x2="251" xlink:href="#lg1" y1="429.683" y2="481.395"/><linearGradient id="lg2"><stop offset="0" stop-color="#4e5660"/><stop offset="1" stop-color="#64768d"/></linearGradient><linearGradient id="SVGID_2_" gradientUnits="userSpaceOnUse" x1="251" x2="251" xlink:href="#lg2" y1="373.948" y2="439.385"/><linearGradient id="lg3"><stop offset="0" stop-color="#dd5c6e"/><stop offset="1" stop-color="#ec8290"/></linearGradient><linearGradient id="SVGID_3_" gradientUnits="userSpaceOnUse" x1="77.35" x2="281.038" xlink:href="#lg3" y1="272.394" y2="272.394"/><linearGradient id="lg4"><stop offset="0" stop-color="#ec6f80"/><stop offset="1" stop-color="#eca0aa"/></linearGradient><linearGradient id="SVGID_4_" gradientUnits="userSpaceOnUse" x1="66.255" x2="287.367" xlink:href="#lg4" y1="350.505" y2="350.505"/><linearGradient id="SVGID_5_" gradientUnits="userSpaceOnUse" x1="262.095" x2="465.783" xlink:href="#lg3" y1="272.394" y2="272.394"/><linearGradient id="SVGID_6_" gradientUnits="userSpaceOnUse" x1="251" x2="472.112" xlink:href="#lg4" y1="350.505" y2="350.505"/><linearGradient id="SVGID_7_" gradientUnits="userSpaceOnUse" x1="48.253" x2="48.253" xlink:href="#lg1" y1="492.8" y2="255.48"/><linearGradient id="SVGID_8_" gradientUnits="userSpaceOnUse" x1="453.747" x2="453.747" xlink:href="#lg1" y1="492.8" y2="255.48"/><linearGradient id="SVGID_9_" gradientUnits="userSpaceOnUse" x1="251" x2="251" xlink:href="#lg2" y1="175.544" y2="-11.482"/><g><path d="m368.828 420.382h-235.655v55.691c0 14.319 11.608 25.926 25.926 25.926h183.802c14.319 0 25.926-11.608 25.926-25.926v-55.691z" fill="url(#SVGID_1_)"/><path d="m52.682 432.301 5.856-69.89h384.924l5.856 69.89z" fill="url(#SVGID_2_)"/><path d="m134.613 187.751h48.03c37.753 0 68.358 30.605 68.358 68.358v100.926h-184.746v-100.926c0-37.753 30.605-68.358 68.358-68.358z" fill="url(#SVGID_3_)"/><path d="m224.349 389.061h-131.443c-14.719 0-26.651-11.932-26.651-26.651v-5.375c0-24.901 20.186-45.087 45.087-45.087h94.572c24.901 0 45.087 20.186 45.087 45.087v5.375c-.001 14.719-11.933 26.651-26.652 26.651z" fill="url(#SVGID_4_)"/><path d="m319.358 187.751h48.03c37.753 0 68.358 30.605 68.358 68.358v100.926h-184.746v-100.926c0-37.753 30.605-68.358 68.358-68.358z" fill="url(#SVGID_5_)"/><path d="m409.094 389.061h-131.443c-14.719 0-26.651-11.932-26.651-26.651v-5.375c0-24.901 20.186-45.087 45.087-45.087h94.572c24.901 0 45.087 20.186 45.087 45.087v5.375c-.001 14.719-11.933 26.651-26.652 26.651z" fill="url(#SVGID_6_)"/><g><path d="m52.682 432.301h-8.858c-11.325 0-20.506-9.181-20.506-20.506v-121.239c0-11.325 9.181-20.506 20.506-20.506h8.858c11.325 0 20.506 9.181 20.506 20.506v121.239c0 11.325-9.181 20.506-20.506 20.506z" fill="url(#SVGID_7_)"/><path d="m449.318 432.301h8.858c11.325 0 20.506-9.181 20.506-20.506v-121.239c0-11.325-9.181-20.506-20.506-20.506h-8.858c-11.325 0-20.506 9.181-20.506 20.506v121.239c0 11.325 9.181 20.506 20.506 20.506z" fill="url(#SVGID_8_)"/></g><path d="m415.769 127.866h-329.538c-19.398 0-35.123-15.725-35.123-35.123v-57.62c0-19.398 15.725-35.123 35.123-35.123h329.538c19.398 0 35.123 15.725 35.123 35.123v57.62c0 19.398-15.725 35.123-35.123 35.123z" fill="url(#SVGID_9_)"/><path d="m305.006 55.801-22.131-22.131c-4.492-4.49-11.772-4.49-16.264 0-4.491 4.491-4.491 11.773 0 16.264l2.499 2.499h-63.984c-6.352 0-11.5 5.149-11.5 11.5 0 6.352 5.148 11.5 11.5 11.5h63.984l-2.499 2.499c-4.491 4.491-4.491 11.772 0 16.264 4.493 4.491 11.771 4.49 16.264 0l22.131-22.131c4.491-4.492 4.491-11.773 0-16.264z" fill="#fffde3"/><path d="m315.079 432.301h-181.906v35h181.907c9.665 0 17.5-7.835 17.5-17.5 0-9.665-7.835-17.5-17.501-17.5z" fill="#b9bec4"/></g></svg>