<svg id="Capa_1" enable-background="new 0 0 502 502" height="512" viewBox="0 0 502 502" width="512" xmlns="http://www.w3.org/2000/svg" xmlns:xlink="http://www.w3.org/1999/xlink"><linearGradient id="lg1"><stop offset="0" stop-color="#41c4a6"/><stop offset=".216" stop-color="#46c6a9"/><stop offset=".4884" stop-color="#56cdb2"/><stop offset=".7898" stop-color="#70d7c0"/><stop offset="1" stop-color="#86e0cd"/></linearGradient><linearGradient id="SVGID_1_" gradientUnits="userSpaceOnUse" x1="210.006" x2="210.006" xlink:href="#lg1" y1="88.754" y2="2.882"/><linearGradient id="SVGID_2_" gradientUnits="userSpaceOnUse" x1="297.089" x2="297.089" y1="350.978" y2="188.618"><stop offset="0" stop-color="#74d2e8"/><stop offset="1" stop-color="#baeaf5"/></linearGradient><linearGradient id="SVGID_3_" gradientUnits="userSpaceOnUse" x1="260.683" x2="260.683" y1="515.515" y2="329.775"><stop offset="0" stop-color="#f4d952"/><stop offset="1" stop-color="#f9edaf"/></linearGradient><linearGradient id="SVGID_4_" gradientUnits="userSpaceOnUse" x1="149.769" x2="149.769" y1="353.996" y2="84.673"><stop offset="0" stop-color="#ad7d63"/><stop offset="1" stop-color="#cb9d82"/></linearGradient><linearGradient id="SVGID_5_" gradientUnits="userSpaceOnUse" x1="100.407" x2="100.407" xlink:href="#lg1" y1="180.941" y2="70.709"/><linearGradient id="SVGID_6_" gradientUnits="userSpaceOnUse" x1="256.305" x2="256.305" y1="167.871" y2="66.679"><stop offset="0" stop-color="#5bd9bb"/><stop offset=".2532" stop-color="#60dabd"/><stop offset=".5725" stop-color="#70dec4"/><stop offset=".9261" stop-color="#8ae4cf"/><stop offset="1" stop-color="#90e6d2"/></linearGradient><g><path d="m283.555 13.696c6.955 16.795-28.704 28.354-67.497 79.443-25.669 33.806-50.729 38.185-69.535 19.38-18.806-18.806-12.871-48.087 13.978-74.936 39.778-39.777 112.91-48.385 123.054-23.887z" fill="url(#SVGID_1_)"/><path d="m143.149 332.341c73.45 0 111.199-197.461 291.638-163.795 15.528 2.897 19.862 23.026 6.981 32.168-46.36 32.899-54.497 101.155 9.261 156.715v65.654h-307.366z" fill="url(#SVGID_2_)"/><g fill="#17c5d9"><path d="m322.906 371.57c-6.332-.505-11.055-6.047-10.55-12.378 1.233-15.451 2.921-36.611 18.233-60.322 3.444-5.336 10.564-6.867 15.9-3.421 5.335 3.445 6.867 10.564 3.421 15.899-12.167 18.84-13.474 35.221-14.626 49.672-.501 6.279-5.984 11.051-12.378 10.55z"/><path d="m249.099 350.686c-6.267-1.03-10.512-6.946-9.481-13.214 4.82-29.311 26.019-64.37 50.405-83.363 5.011-3.901 12.237-3.004 16.14 2.007 3.902 5.011 3.004 12.236-2.007 16.14-19.617 15.278-37.997 45.564-41.843 68.949-1.024 6.224-6.901 10.515-13.214 9.481z"/></g><path d="m88.331 305.899c107.96-8.645 252.732 56.659 362.698 51.53 18.84-.879 34.535 14.306 34.535 33.167v66.891c0 24.584-19.929 44.513-44.513 44.513h-360.737c-24.584 0-44.513-19.929-44.513-44.513v-94.135c0-29.861 22.765-55.07 52.53-57.453z" fill="url(#SVGID_3_)"/><path d="m211.774 326.839c-28.193-60.125-34.591-113.984-6.878-215.594h-54.982c-33.736 49.838-67.51 161.698-63.999 217.727.793 12.652 8.363 23.962 19.846 29.332 22.432 10.488 56.979 12.647 93.882-1.445 12.01-4.587 17.589-18.381 12.131-30.02z" fill="url(#SVGID_4_)"/><path d="m186.395 361.267c-31.709 9.009-60.705 6.278-80.424-2.866-11.644-5.399-19.274-16.739-20.063-29.549-.42-6.825-.286-14.478.328-22.741-11.96 1.403-22.699 6.509-31.165 14.092-.011 4.176.11 7.74.294 10.683 1.498 23.92 15.841 45.051 37.431 55.146 25.974 12.145 62.556 15.899 102.002 4.671 8.619-2.453 13.261-11.804 10.064-20.176-2.827-7.405-10.843-11.427-18.467-9.26z" fill="#efc534"/><path d="m17.603 144.257c6.958 16.794 40.346-.247 103.902 8.447 42.055 5.753 62.872-8.87 62.872-35.465s-24.901-43.104-62.872-43.104c-56.252.001-114.051 45.626-103.902 70.122z" fill="url(#SVGID_5_)"/><path d="m339.108 144.257c-6.958 16.794-40.346-.247-103.902 8.447-42.055 5.753-62.872-8.87-62.872-35.465s24.901-43.104 62.872-43.104c56.253.001 114.052 45.626 103.902 70.122z" fill="url(#SVGID_6_)"/><g fill="#dff7fa"><path d="m374.815 288.68c-5.19 0-9.577-4.01-9.963-9.269-.205-2.803-.319-5.648-.34-8.458-.039-5.522 4.405-10.031 9.929-10.071h.073c5.489 0 9.958 4.43 9.998 9.929.017 2.37.113 4.772.287 7.138.403 5.509-3.734 10.301-9.242 10.705-.248.017-.496.026-.742.026z"/><path d="m381.663 240.235c-1.163 0-2.345-.204-3.498-.635-5.174-1.933-7.802-7.693-5.869-12.867 5.069-13.569 12.466-26.106 21.985-37.262 3.585-4.201 9.895-4.7 14.098-1.115 4.201 3.585 4.7 9.896 1.115 14.098-8 9.376-14.212 19.899-18.462 31.277-1.502 4.021-5.316 6.504-9.369 6.504z"/></g><g><ellipse cx="163.115" cy="461.623" fill="#eaadcd" rx="14.936" ry="12.003"/><ellipse cx="338.886" cy="461.623" fill="#eaadcd" rx="14.936" ry="12.003"/><circle cx="188.721" cy="432.005" fill="#fff" r="29.618"/><ellipse cx="200.687" cy="432.005" fill="#3b3b44" rx="17.652" ry="17.652" transform="matrix(.707 -.707 .707 .707 -246.694 268.438)"/><circle cx="313.279" cy="432.005" fill="#fff" r="29.618"/><g fill="#3b3b44"><path d="m342.834 432.005c0 9.749-7.903 17.652-17.652 17.652s-17.652-7.903-17.652-17.652 7.903-17.652 17.652-17.652c9.749-.001 17.652 7.903 17.652 17.652z"/><ellipse cx="251" cy="454.457" rx="13.252" ry="17.352"/></g></g></g></svg>