<svg id="Capa_1" enable-background="new 0 0 512 512" height="512" viewBox="0 0 512 512" width="512" xmlns="http://www.w3.org/2000/svg"><g><g><path d="m256.725 399.58-33.219-21.408-59.024-.019c-22.833-.029-41.475 18.457-41.504 41.29v78.11c0 3.831 3.106 6.937 6.937 6.937h36.922l7.501-10.601 7.499 10.601h41.558l32.752-10.601 32.641 10.601h41.374l7.5-10.601 7.5 10.601h34.802c3.831 0 6.937-3.106 6.937-6.937v-77.769c.029-22.833-18.457-41.582-41.29-41.612h-56.824z" fill="#245e7c"/><path d="m223.395 392.124h65.394v112.376h-65.394z" fill="#f9f6f9"/><g><path d="m347.733 378.172h-21.202c22.833.029 41.319 18.779 41.29 41.612v77.769c0 3.831-3.106 6.937-6.937 6.937h21.202c3.831 0 6.937-3.106 6.937-6.937v-77.769c.029-22.833-18.457-41.583-41.29-41.612z" fill="#1a4c65"/></g><path d="m333.171 274.179h-164.036v-48.22c0-35.129 28.477-63.606 63.606-63.606h93.552c9.375 0 16.715 8.069 15.83 17.402z" fill="#245e7c"/><path d="m328.412 162.354h-21.202c9.375 0 16.715 8.069 15.831 17.402l-8.951 94.423h21.202l8.951-94.423c.885-9.333-6.456-17.402-15.831-17.402z" fill="#1a4c65"/><path d="m191.292 261.036h-4.62c-11.943 0-21.624 9.682-21.624 21.624 0 11.943 9.682 21.624 21.624 21.624h36.834z" fill="#ffbd86"/><path d="m288.789 392.124v-75.207h-65.283v75.207c0 18.027 14.614 32.641 32.642 32.641 18.027 0 32.641-14.614 32.641-32.641z" fill="#f6a96c"/><path d="m324.81 261.036h-4.102l-20 43.249h24.62c12.204 0 22.047-10.11 21.61-22.413-.416-11.718-10.402-20.836-22.128-20.836z" fill="#f6a96c"/><g fill="#ea7bc1"><path d="m272.926 78.668v-66.168c0-2.761-2.238-5-5-5h-23.851c-2.761 0-5 2.239-5 5v66.168c0 1.657-1.343 3-3 3h-14.016c-4.264 0-6.571 4.994-3.807 8.241l33.941 39.87c1.996 2.345 5.618 2.345 7.615 0l33.941-39.87c2.764-3.247.456-8.241-3.807-8.241h-14.016c-1.657 0-3-1.343-3-3z"/><path d="m446.248 89.689 46.788-46.788c1.953-1.953 1.953-5.118 0-7.071l-16.866-16.865c-1.953-1.953-5.118-1.953-7.071 0l-46.788 46.788c-1.172 1.172-3.071 1.172-4.243 0l-9.911-9.911c-3.015-3.015-8.178-1.115-8.52 3.135l-4.192 52.193c-.247 3.07 2.314 5.631 5.384 5.384l52.193-4.192c4.25-.341 6.15-5.505 3.135-8.52l-9.911-9.911c-1.17-1.171-1.17-3.071.002-4.242z"/><path d="m433.332 281.524h66.168c2.762 0 5-2.239 5-5v-23.851c0-2.761-2.238-5-5-5h-66.168c-1.657 0-3-1.343-3-3v-14.016c0-4.264-4.994-6.571-8.241-3.807l-39.87 33.941c-2.345 1.996-2.345 5.618 0 7.615l39.87 33.941c3.247 2.764 8.241.457 8.241-3.807v-14.016c0-1.657 1.343-3 3-3z"/><path d="m89.689 65.753-46.788-46.788c-1.953-1.953-5.118-1.953-7.071 0l-16.866 16.865c-1.953 1.953-1.953 5.118 0 7.071l46.788 46.788c1.172 1.172 1.172 3.071 0 4.243l-9.911 9.911c-3.015 3.015-1.115 8.178 3.135 8.52l52.193 4.192c3.07.247 5.631-2.314 5.384-5.384l-4.192-52.193c-.341-4.25-5.505-6.15-8.52-3.135l-9.911 9.911c-1.17 1.17-3.07 1.17-4.241-.001z"/><path d="m78.668 247.673h-66.168c-2.762 0-5 2.239-5 5v23.851c0 2.762 2.238 5 5 5h66.168c1.657 0 3 1.343 3 3v14.016c0 4.264 4.994 6.571 8.241 3.807l39.87-33.941c2.345-1.996 2.345-5.618 0-7.615l-39.87-33.942c-3.247-2.764-8.241-.457-8.241 3.807v14.016c0 1.658-1.343 3.001-3 3.001z"/></g><path d="m256 370.963c-35.738 0-64.708-29.347-64.708-65.549v-45.38c0-36.202 28.971-65.549 64.708-65.549 35.738 0 62.588 29.347 62.588 65.549v45.38c0 36.202-26.85 65.549-62.588 65.549z" fill="#fed2a4"/><path d="m256 194.486c-3.543 0-7.018.293-10.406.848 30.789 5.043 54.302 32.088 54.302 64.701v45.38c0 32.613-23.513 59.658-54.302 64.701 3.388.555 6.863.848 10.406.848 35.737 0 64.708-29.347 64.708-65.549v-45.38c0-36.202-28.97-65.549-64.708-65.549z" fill="#ffbd86"/></g><g><path d="m246.482 134.647c2.379 2.794 5.848 4.396 9.518 4.396s7.139-1.603 9.519-4.397l33.941-39.871c3.196-3.755 3.897-8.868 1.829-13.345s-6.416-7.258-11.348-7.258h-9.516v-61.667c0-6.893-5.607-12.5-12.5-12.5h-23.852c-6.893 0-12.5 5.607-12.5 12.5v61.668h-9.516c-4.932 0-9.279 2.781-11.348 7.258-2.068 4.477-1.367 9.59 1.829 13.345zm-10.408-45.474c5.79 0 10.5-4.71 10.5-10.5v-63.668h18.852v63.668c0 5.79 4.71 10.5 10.5 10.5h8.604l-28.53 33.514-28.53-33.514z"/><path d="m400.424 124.075c.335 0 .671-.013 1.007-.04l52.193-4.192c4.915-.395 9.027-3.515 10.73-8.143 1.702-4.628.594-9.669-2.893-13.156l-6.729-6.729 43.604-43.605c2.361-2.361 3.662-5.5 3.662-8.84 0-3.339-1.301-6.478-3.661-8.839l-16.865-16.865c-2.36-2.361-5.5-3.662-8.839-3.662s-6.478 1.3-8.839 3.661l-43.604 43.607-6.729-6.729c-3.488-3.487-8.527-4.595-13.157-2.891-4.627 1.703-7.747 5.815-8.141 10.729l-4.192 52.192c-.295 3.658 1.024 7.245 3.62 9.84 2.356 2.357 5.53 3.662 8.833 3.662zm6.258-59.098 6.085 6.085c4.092 4.092 10.753 4.092 14.849-.001l45.02-45.02 13.329 13.33-45.02 45.021c-1.983 1.983-3.075 4.62-3.075 7.424 0 2.805 1.092 5.441 3.075 7.425l6.084 6.085-43.871 3.524z"/><path d="m499.5 240.178h-61.668v-9.516c0-4.932-2.781-9.28-7.259-11.348-4.476-2.068-9.59-1.367-13.344 1.829l-39.87 33.941c-2.795 2.379-4.397 5.849-4.397 9.518 0 3.67 1.603 7.14 4.397 9.519l39.869 33.941c2.326 1.98 5.173 3.003 8.067 3.003 1.778 0 3.574-.386 5.278-1.173 4.477-2.068 7.258-6.416 7.258-11.347v-9.516h61.669c6.893 0 12.5-5.607 12.5-12.5v-23.851c0-6.892-5.607-12.5-12.5-12.5zm-2.5 33.851h-63.668c-5.79 0-10.5 4.71-10.5 10.5v8.604l-33.514-28.53 33.514-28.53v8.605c0 5.79 4.71 10.5 10.5 10.5h63.668z"/><path d="m57.267 91.815-6.728 6.728c-3.487 3.487-4.596 8.528-2.894 13.156 1.703 4.628 5.815 7.748 10.73 8.143l52.193 4.192c.337.027.672.04 1.007.04 3.303 0 6.476-1.305 8.833-3.662 2.596-2.595 3.915-6.182 3.62-9.839l-4.192-52.192c-.394-4.916-3.514-9.027-8.141-10.73-4.626-1.704-9.67-.596-13.158 2.892l-6.729 6.729-43.604-43.605c-2.36-2.361-5.5-3.662-8.839-3.662s-6.479 1.3-8.839 3.661l-16.864 16.864c-2.361 2.362-3.662 5.501-3.662 8.84s1.301 6.479 3.661 8.839zm-17.902-65.774 45.02 45.02c.001 0 .001.001.002.001 4.092 4.092 10.753 4.092 14.849-.001l6.083-6.084 3.524 43.871-43.871-3.524 6.084-6.085c1.983-1.983 3.075-4.62 3.075-7.425s-1.093-5.442-3.075-7.424l-45.02-45.02z"/><path d="m139.038 264.603c0-3.67-1.603-7.139-4.398-9.518l-39.869-33.941c-3.756-3.197-8.869-3.898-13.345-1.83-4.478 2.068-7.259 6.416-7.259 11.348v9.516h-12.85c-4.143 0-7.5 3.358-7.5 7.5s3.357 7.5 7.5 7.5h17.35c5.79 0 10.5-4.71 10.5-10.5v-8.605l33.514 28.53-33.514 28.53v-8.604c0-5.79-4.71-10.5-10.5-10.5h-63.667v-18.851h13.632c4.143 0 7.5-3.358 7.5-7.5s-3.357-7.5-7.5-7.5h-16.132c-6.893 0-12.5 5.607-12.5 12.5v23.851c0 6.893 5.607 12.5 12.5 12.5h61.668v9.516c0 4.931 2.781 9.279 7.258 11.347 1.704.788 3.5 1.173 5.278 1.173 2.894 0 5.741-1.022 8.066-3.002l39.87-33.941c2.796-2.379 4.398-5.848 4.398-9.519z"/><path d="m215.895 496.995h-34.059v-38.628c0-4.142-3.357-7.5-7.5-7.5s-7.5 3.358-7.5 7.5v38.628h-36.359v-26.122c0-4.142-3.357-7.5-7.5-7.5s-7.5 3.358-7.5 7.5v26.685c0 7.961 6.477 14.438 14.437 14.438h252.171c7.96 0 14.437-6.477 14.437-14.438v-77.759c.017-13.05-5.041-25.354-14.242-34.645-9.229-9.319-21.494-14.46-34.548-14.477h-51.443v-4.665c17.633-12.038 29.735-31.742 31.638-54.344 14.846-1.32 26.526-13.82 26.526-29.003 0-8.898-4.016-16.872-10.325-22.219l7.582-79.977c.62-6.546-1.562-13.091-5.986-17.955-4.426-4.865-10.735-7.655-17.311-7.655h-95.673c-28.641 0-54.356 17.046-65.515 43.426-1.614 3.815.171 8.216 3.985 9.83 3.814 1.612 8.216-.171 9.829-3.986 8.806-20.818 29.099-34.27 51.7-34.27h95.672c2.395 0 4.603.976 6.216 2.748 1.611 1.772 2.375 4.062 2.148 6.446l-7.092 74.815c-.583-.088-1.173-.153-1.767-.205-3.207-37.302-34.226-66.671-71.917-66.671-37.69 0-68.71 29.369-71.916 66.671-2.594.23-5.094.795-7.449 1.662v-20.71c0-4.142-3.357-7.5-7.5-7.5s-7.5 3.358-7.5 7.5v33.196c-2.592 4.353-4.087 9.432-4.087 14.855 0 15.183 11.681 27.683 26.526 29.003 1.914 22.726 14.142 42.516 31.932 54.535v4.468l-51.515-.012c-.021 0-.042 0-.063 0-26.962 0-48.916 21.87-48.95 48.79v18.739c0 4.142 3.357 7.5 7.5 7.5s7.5-3.358 7.5-7.5v-18.729c.024-18.648 15.249-33.8 33.958-33.8h.044l51.526.012zm15.111-123.043c7.792 2.918 16.212 4.517 24.994 4.517 8.895 0 17.414-1.645 25.289-4.634v18.294c0 13.863-11.278 25.142-25.142 25.142-13.863 0-25.142-11.278-25.142-25.142v-18.177zm97.203-77.46v-27.655c6.411 1.334 11.244 7.026 11.244 13.827 0 6.802-4.833 12.494-11.244 13.828zm-155.661-13.827c0-6.801 4.833-12.494 11.244-13.828v27.655c-6.411-1.333-11.244-7.026-11.244-13.827zm26.244 22.754v-45.38c0-32.008 25.663-58.049 57.208-58.049s57.209 26.04 57.209 58.049v45.38c0 32.008-25.664 58.049-57.209 58.049s-57.208-26.04-57.208-58.049zm32.103 117.883c6.903 5.602 15.69 8.968 25.252 8.968 9.511 0 18.256-3.332 25.142-8.881v73.606h-50.394zm65.394-37.625h51.434c9.017.012 17.505 3.574 23.899 10.032 6.396 6.459 9.912 15.007 9.9 24.08v77.206h-36.359v-38.628c0-4.142-3.357-7.5-7.5-7.5s-7.5 3.358-7.5 7.5v38.628h-33.874z"/></g></g></svg>