<svg id="Capa_1" enable-background="new 0 0 512.001 512.001" height="512" viewBox="0 0 512.001 512.001" width="512" xmlns="http://www.w3.org/2000/svg"><g><g><path d="m493.099 103.822-31.456-39.785c-2.968-2.922-7.989-.819-7.989 3.346l-1 6.475v5.323c0 2.762-2.239 5-5 5h-189.433v45.975h189.433c2.761 0 5 2.239 5 5v5.323l1 6.475c0 4.165 5.02 6.268 7.989 3.346l31.456-39.786c1.869-1.838 1.869-4.852 0-6.692z" fill="#ea7bc1"/><path d="m503.099 103.822-42.456-41.785c-2.969-2.922-7.989-.819-7.989 3.346v8.475l30.445 29.964c1.869 1.84 1.869 4.853 0 6.693l-30.445 29.964v8.475c0 4.165 5.02 6.268 7.989 3.346l42.456-41.786c1.869-1.838 1.869-4.852 0-6.692z" fill="#ea5bb1"/><path d="m256.003 85.181c-4.533 0-9.025-.823-13.472-.475-88.466 6.917-158.482 81.363-158.35 171.553.067 45.318 17.685 86.516 46.414 117.179 2.99 3.191.726 8.408-3.647 8.408h-62.601c-2.761 0-5-2.239-5-5v-13.798c0-4.165-5.02-6.268-7.989-3.346l-42.456 41.784c-1.869 1.84-1.869 4.853 0 6.693l42.456 41.785c2.969 2.922 7.989.819 7.989-3.346v-13.798c0-2.762 2.239-5 5-5h180.018c93.822 0 172.779-76.742 173.451-170.562.682-95.47-66.503-172.076-161.813-172.077z" fill="#95c7f8"/><g><path d="m256.003 84.181c-4.533 0-9.025.18-13.471.528 88.978 6.932 158.934 81.64 158.284 172.548-.671 93.82-79.628 170.562-173.451 170.562h27c93.822 0 172.779-76.742 173.451-170.562.682-95.469-76.503-173.075-171.813-173.076z" fill="#75b5f8"/></g><circle cx="256.001" cy="256" fill="#f9f6f9" r="122.855"/></g><g><path d="m386 76.681c4.143 0 7.5 3.358 7.5 7.5s-3.357 7.5-7.5 7.5h-57.972c17.351 7.612 33.497 18.021 47.887 30.997.148-.009.295-.022.446-.022h71.293c6.893 0 12.5 5.607 12.5 12.5v7.104l35.653-35.09-35.653-35.09v7.103c0 6.892-5.607 12.5-12.5 12.5h-28.967c-4.142 0-7.5-3.358-7.5-7.5s3.358-7.5 7.5-7.5h26.467v-11.3c0-4.929 2.938-9.344 7.483-11.248 4.549-1.906 9.754-.899 13.267 2.557l42.456 41.785c2.349 2.312 3.642 5.398 3.642 8.693-.001 3.294-1.294 6.38-3.642 8.691l-42.456 41.785c-2.331 2.294-5.41 3.508-8.545 3.508-1.59 0-3.192-.311-4.722-.952-4.546-1.904-7.483-6.319-7.483-11.248v-11.298h-54.438c29.148 33.087 44.917 75.163 44.599 119.655-.338 47.287-19.531 91.952-54.045 125.767-34.383 33.688-79.452 52.242-126.905 52.242h-124.86c-4.143 0-7.5-3.358-7.5-7.5s3.357-7.5 7.5-7.5h124.86c43.504 0 84.845-17.031 116.408-47.956 31.639-30.999 49.232-71.897 49.542-115.16.316-44.129-16.626-85.672-47.704-116.975-31.083-31.306-72.495-48.547-116.608-48.548-35.633 0-69.575 11.304-98.156 32.691-3.317 2.481-8.017 1.805-10.498-1.511-2.482-3.316-1.805-8.017 1.512-10.498 31.192-23.343 68.244-35.682 107.139-35.682h.002z"/><path d="m263.643 285.594h46.383c-.06 8.602-.126 16.906-.189 24.266-.035 4.142 3.293 7.528 7.436 7.564h.065c4.112 0 7.463-3.315 7.499-7.435.025-2.859.104-12.322.19-24.395h6.34c4.143 0 7.5-3.358 7.5-7.5s-3.357-7.5-7.5-7.5h-6.24c.166-26.793.279-57.764-.046-61.664-.558-6.698-4.446-12.119-9.905-13.811-2.566-.793-9.225-1.805-15.571 5.98-6.039 7.409-36.485 62.419-42.528 73.371-1.281 2.324-1.24 5.151.109 7.436 1.347 2.286 3.803 3.688 6.457 3.688zm46.558-73.595c.164 7.304.081 32.593-.077 58.594h-33.75c12.599-22.635 28.726-51.059 33.827-58.594z"/><path d="m179.189 230.628c4.072.799 8.007-1.851 8.805-5.914 1.843-9.382 10.136-16.192 19.719-16.192 10.934 0 19.855 8.777 20.091 19.655-.671 8.639-5.799 16.81-10.639 23.725-17.138 24.487-27.371 37.885-32.868 45.083-6.593 8.632-8.364 10.952-6.995 15.405.771 2.503 2.684 4.43 5.249 5.286.99.33 2.453.819 23.09.819 8.107 0 19.178-.076 34.334-.266 4.142-.052 7.457-3.452 7.404-7.594-.052-4.142-3.45-7.468-7.594-7.405-13.016.164-30.157.285-41.564.234 5.912-7.763 15.812-20.928 31.233-42.962 6.545-9.351 10.793-18.105 12.628-26.02 4.849-20.985-13.672-40.961-34.369-40.961-16.734 0-31.217 11.903-34.438 28.302-.798 4.065 1.849 8.008 5.914 8.805z"/><path d="m96.817 420.32h-32.47c-6.893 0-12.5 5.608-12.5 12.5v7.103l-35.653-35.09 35.653-35.09v7.103c0 6.893 5.607 12.5 12.5 12.5h62.601c4.984 0 9.485-2.955 11.468-7.527 1.98-4.57 1.059-9.873-2.348-13.509-28.561-30.484-44.324-70.282-44.387-112.061-.061-41.274 15.36-80.809 43.421-111.321 2.804-3.049 2.605-7.793-.443-10.597-3.051-2.805-7.795-2.606-10.598.444-30.619 33.294-47.445 76.442-47.38 121.496.065 43.691 15.863 85.395 44.609 118.075h-54.443v-11.298c0-4.929-2.938-9.344-7.483-11.248s-9.753-.902-13.267 2.556l-42.456 41.784c-2.348 2.311-3.641 5.397-3.641 8.691-.001 3.294 1.292 6.381 3.641 8.693l42.456 41.785c2.331 2.295 5.409 3.509 8.546 3.509 1.588 0 3.192-.311 4.721-.952 4.546-1.904 7.483-6.319 7.483-11.248v-11.298h29.971c4.143 0 7.5-3.358 7.5-7.5-.001-4.142-3.358-7.5-7.501-7.5z"/><path d="m256 386.355c71.878 0 130.354-58.477 130.354-130.355s-58.476-130.355-130.354-130.355-130.354 58.478-130.354 130.355 58.476 130.355 130.354 130.355zm0-245.71c63.607 0 115.354 51.748 115.354 115.355s-51.747 115.355-115.354 115.355c-63.606 0-115.354-51.748-115.354-115.355s51.748-115.355 115.354-115.355z"/><path d="m467.565 414.647h-61.575c-4.143 0-7.5 3.358-7.5 7.5s3.357 7.5 7.5 7.5h61.575c4.143 0 7.5-3.358 7.5-7.5s-3.357-7.5-7.5-7.5z"/><path d="m467.565 455.384h-30.115c-4.143 0-7.5 3.358-7.5 7.5s3.357 7.5 7.5 7.5h30.115c4.143 0 7.5-3.358 7.5-7.5s-3.357-7.5-7.5-7.5z"/><path d="m44.435 97.354h61.575c4.143 0 7.5-3.358 7.5-7.5s-3.357-7.5-7.5-7.5h-61.575c-4.143 0-7.5 3.358-7.5 7.5s3.357 7.5 7.5 7.5z"/><path d="m44.435 56.617h30.115c4.143 0 7.5-3.358 7.5-7.5s-3.357-7.5-7.5-7.5h-30.115c-4.143 0-7.5 3.358-7.5 7.5s3.357 7.5 7.5 7.5z"/></g></g></svg>