<svg id="Capa_1" enable-background="new 0 0 512 512" height="512" viewBox="0 0 512 512" width="512" xmlns="http://www.w3.org/2000/svg"><g><g><path d="m390.55 504.5h-279.1c-13.807 0-25-11.193-25-25v-94.847l10-342.153c0-13.807 11.193-25 25-25h269.1c13.807 0 25 11.193 25 25v437c0 13.807-11.193 25-25 25z" fill="#245e7c"/><path d="m400.55 7.5h-30c13.807 0 25 11.193 25 25v447c0 13.807-11.193 25-25 25h30c13.807 0 25-11.193 25-25v-447c0-13.807-11.193-25-25-25z" fill="#1a4c65"/><path d="m390.55 7.5h-279.1c-13.807 0-25 11.193-25 25v352.153h309.1l20-352.153c0-13.807-11.193-25-25-25z" fill="#f9f6f9"/><path d="m400.55 7.5h-30c13.807 0 25 11.193 25 25v352.153h30v-352.153c0-13.807-11.193-25-25-25z" fill="#dedbec"/><path d="m439.5 96.094h-377c-13.807 0-25 11.193-25 25v131.471c0 13.807 11.193 25 25 25h143.162c5.359 0 10.311 2.859 12.99 7.5l33.165 57.443c1.924 3.333 6.736 3.333 8.66 0l33.165-57.443c2.68-4.641 7.631-7.5 12.99-7.5h132.868c13.807 0 25-11.193 25-25v-131.471c0-13.807-11.193-25-25-25z" fill="#ffe187"/><g><path d="m449.5 96.094h-30c13.807 0 25 11.193 25 25v131.471c0 13.807-11.193 25-25 25h30c13.807 0 25-11.193 25-25v-131.471c0-13.807-11.193-25-25-25z" fill="#ffd26f"/></g><path d="m280.719 414.653h-49.439c-16.191 0-29.317 13.126-29.317 29.317 0 16.191 13.126 29.317 29.317 29.317h49.439c16.191 0 29.317-13.126 29.317-29.317.001-16.192-13.125-29.317-29.317-29.317z" fill="#f9f6f9"/></g><g><path d="m201.963 63.95h108.073c4.142 0 7.5-3.358 7.5-7.5s-3.358-7.5-7.5-7.5h-108.073c-4.142 0-7.5 3.358-7.5 7.5s3.358 7.5 7.5 7.5z"/><path d="m449.5 88.594h-16.45v-56.094c0-17.92-14.58-32.5-32.5-32.5h-289.1c-17.92 0-32.5 14.58-32.5 32.5v56.094h-16.45c-17.92 0-32.5 14.58-32.5 32.5v131.471c0 17.92 14.58 32.5 32.5 32.5h16.45v23.081c0 4.142 3.358 7.5 7.5 7.5s7.5-3.358 7.5-7.5v-23.081h111.711c2.671 0 5.16 1.437 6.496 3.75l33.165 57.444c2.26 3.913 6.306 6.249 10.825 6.249s8.565-2.336 10.826-6.25l33.165-57.443c1.335-2.313 3.825-3.75 6.496-3.75h111.416v92.087h-54.754c-4.142 0-7.5 3.358-7.5 7.5s3.358 7.5 7.5 7.5h54.754v87.348c0 9.649-7.851 17.5-17.5 17.5h-289.1c-9.649 0-17.5-7.851-17.5-17.5v-87.347h236.659c4.142 0 7.5-3.358 7.5-7.5s-3.358-7.5-7.5-7.5h-236.659v-35.233c0-4.142-3.358-7.5-7.5-7.5s-7.5 3.358-7.5 7.5v137.58c0 17.92 14.58 32.5 32.5 32.5h289.1c17.92 0 32.5-14.58 32.5-32.5v-194.435h16.45c17.92 0 32.5-14.58 32.5-32.5v-131.471c0-17.92-14.58-32.5-32.5-32.5zm17.5 163.971c0 9.649-7.851 17.5-17.5 17.5h-142.867c-8.013 0-15.48 4.311-19.486 11.25l-31 53.694-30.999-53.694c-4.006-6.939-11.473-11.25-19.486-11.25h-143.162c-9.649 0-17.5-7.851-17.5-17.5v-131.471c0-9.649 7.851-17.5 17.5-17.5h75.57c4.142 0 7.5-3.358 7.5-7.5s-3.358-7.5-7.5-7.5h-44.12v-56.094c0-9.649 7.851-17.5 17.5-17.5h289.1c9.649 0 17.5 7.851 17.5 17.5v56.094h-247.294c-4.142 0-7.5 3.358-7.5 7.5s3.358 7.5 7.5 7.5h278.744c9.649 0 17.5 7.851 17.5 17.5z"/><path d="m231.281 407.153c-20.301 0-36.817 16.516-36.817 36.817s16.516 36.817 36.817 36.817h49.438c20.301 0 36.817-16.516 36.817-36.817s-16.516-36.817-36.817-36.817zm71.256 36.817c0 12.03-9.787 21.817-21.817 21.817h-49.438c-12.03 0-21.817-9.787-21.817-21.817s9.787-21.817 21.817-21.817h49.438c12.03 0 21.817 9.787 21.817 21.817z"/><path d="m378.261 126.236h-244.522c-4.142 0-7.5 3.358-7.5 7.5s3.358 7.5 7.5 7.5h244.521c4.142 0 7.5-3.358 7.5-7.5.001-4.142-3.357-7.5-7.499-7.5z"/><path d="m378.261 179.33h-244.522c-4.142 0-7.5 3.358-7.5 7.5s3.358 7.5 7.5 7.5h244.521c4.142 0 7.5-3.358 7.5-7.5.001-4.142-3.357-7.5-7.499-7.5z"/><path d="m378.261 232.423h-244.522c-4.142 0-7.5 3.358-7.5 7.5s3.358 7.5 7.5 7.5h244.521c4.142 0 7.5-3.358 7.5-7.5s-3.357-7.5-7.499-7.5z"/></g></g></svg>