<svg id="Capa_1" enable-background="new 0 0 512 512" height="512" viewBox="0 0 512 512" width="512" xmlns="http://www.w3.org/2000/svg"><g><g><path d="m469.5 504.5h-437c-13.807 0-25-11.193-25-25v-447c0-13.807 11.193-25 25-25h437c13.807 0 25 11.193 25 25v447c0 13.807-11.193 25-25 25z" fill="#f9f6f9"/><path d="m462.477 164.064h-105.208c-5.154 0-9.333-4.178-9.333-9.333v-105.208c0-5.154 4.178-9.333 9.333-9.333h105.208c5.154 0 9.333 4.178 9.333 9.333l10 46.984-10 58.224c-.001 5.154-4.179 9.333-9.333 9.333z" fill="#245e7c"/><path d="m419.873 256h41.936c5.523 0 10-4.477 10-10l10-23.701-10-18.236c0-5.523-4.477-10-10-10h-103.873c-5.523 0-10 4.477-10 10v103.873c0 5.523 4.477 10 10 10h41.936c5.523 0 10-4.477 10-10v-41.936c.001-5.523 4.478-10 10.001-10z" fill="#ffe187"/><path d="m462.477 471.809h-105.208c-5.154 0-9.333-4.178-9.333-9.333v-105.207c0-5.154 4.178-9.333 9.333-9.333h105.208c5.154 0 9.333 4.178 9.333 9.333l10 52.604-10 52.604c-.001 5.154-4.179 9.332-9.333 9.332z" fill="#245e7c"/><path d="m479.5 7.5h-32.691c13.807 0 25 11.193 25 25v447c0 13.807-11.193 25-25 25h32.691c13.807 0 25-11.193 25-25v-447c0-13.807-11.193-25-25-25z" fill="#dedbec"/><path d="m154.731 164.064h-105.208c-5.154 0-9.333-4.178-9.333-9.333v-105.208c0-5.154 4.178-9.333 9.333-9.333h105.208c5.154 0 9.333 4.178 9.333 9.333v105.208c-.001 5.154-4.179 9.333-9.333 9.333z" fill="#245e7c"/><path d="m154.731 471.809h-105.208c-5.154 0-9.333-4.178-9.333-9.333v-105.207c0-5.154 4.178-9.333 9.333-9.333h105.208c5.154 0 9.333 4.178 9.333 9.333v105.208c-.001 5.154-4.179 9.332-9.333 9.332z" fill="#245e7c"/><g fill="#1a4c65"><path d="m432.387 129.641h-45.029c-2.761 0-5-2.239-5-5v-45.028c0-2.761 2.239-5 5-5h45.029c2.761 0 5 2.239 5 5v45.029c0 2.761-2.238 4.999-5 4.999z"/><path d="m124.641 129.641h-45.028c-2.761 0-5-2.239-5-5v-45.028c0-2.761 2.239-5 5-5h45.029c2.761 0 5 2.239 5 5v45.029c-.001 2.761-2.239 4.999-5.001 4.999z"/><path d="m432.387 437.387h-45.029c-2.761 0-5-2.239-5-5v-45.029c0-2.761 2.239-5 5-5h45.029c2.761 0 5 2.239 5 5v45.029c0 2.762-2.238 5-5 5z"/><path d="m124.641 437.387h-45.028c-2.761 0-5-2.239-5-5v-45.029c0-2.761 2.239-5 5-5h45.029c2.761 0 5 2.239 5 5v45.029c-.001 2.762-2.239 5-5.001 5z"/><path d="m269.602 274.602h-27.204c-2.761 0-5-2.239-5-5v-27.204c0-2.761 2.239-5 5-5h27.204c2.761 0 5 2.239 5 5v27.204c0 2.762-2.238 5-5 5z"/></g><path d="m307.936 40.191h-103.873c-5.523 0-10 4.477-10 10v41.937c0 5.523 4.477 10 10 10h41.937c5.523 0 10 4.477 10 10v41.936c0 5.523 4.477 10 10 10h41.936c5.523 0 10-4.477 10-10v-103.873c0-5.523-4.477-10-10-10z" fill="#ffe187"/><path d="m256 399.873v-41.936c0-5.523-4.477-10-10-10h-41.937c-5.523 0-10 4.477-10 10v103.873c0 5.523 4.477 10 10 10h103.873c5.523 0 10-4.477 10-10v-41.936c0-5.523-4.477-10-10-10h-41.936c-5.523-.001-10-4.478-10-10.001z" fill="#ffe187"/><path d="m154.063 194.064h-41.936c-5.523 0-10 4.477-10 10v41.936c0 5.523-4.477 10-10 10h-41.936c-5.523 0-10 4.477-10 10v41.936c0 5.523 4.477 10 10 10h103.873c5.523 0 10-4.477 10-10v-103.872c-.001-5.523-4.478-10-10.001-10z" fill="#ffe187"/></g><g><g><path d="m479.5 512h-447c-17.92 0-32.5-14.58-32.5-32.5v-447c0-17.92 14.58-32.5 32.5-32.5h447c17.92 0 32.5 14.58 32.5 32.5v447c0 17.92-14.58 32.5-32.5 32.5zm-447-497c-9.649 0-17.5 7.851-17.5 17.5v447c0 9.649 7.851 17.5 17.5 17.5h447c9.649 0 17.5-7.851 17.5-17.5v-447c0-9.649-7.851-17.5-17.5-17.5z"/></g><g><path d="m462.477 171.564h-105.208c-9.282 0-16.833-7.551-16.833-16.833v-105.208c0-9.282 7.551-16.833 16.833-16.833h105.208c9.282 0 16.833 7.551 16.833 16.833v105.208c0 9.282-7.552 16.833-16.833 16.833zm-105.208-123.874c-1.01 0-1.833.822-1.833 1.833v105.208c0 1.01.822 1.833 1.833 1.833h105.208c1.011 0 1.833-.822 1.833-1.833v-105.208c0-1.011-.822-1.833-1.833-1.833z"/></g><g><path d="m432.387 137.142h-45.029c-6.893 0-12.5-5.607-12.5-12.5v-45.029c0-6.893 5.607-12.5 12.5-12.5h45.029c6.893 0 12.5 5.607 12.5 12.5v45.029c0 6.892-5.607 12.5-12.5 12.5zm-42.529-15h40.029v-40.029h-40.029z"/></g><g><path d="m124.642 137.142h-45.029c-6.893 0-12.5-5.607-12.5-12.5v-45.029c0-6.893 5.607-12.5 12.5-12.5h45.029c6.893 0 12.5 5.607 12.5 12.5v45.029c0 6.892-5.608 12.5-12.5 12.5zm-42.529-15h40.029v-40.029h-40.029z"/></g><g><path d="m432.387 444.887h-45.029c-6.893 0-12.5-5.607-12.5-12.5v-45.029c0-6.893 5.607-12.5 12.5-12.5h45.029c6.893 0 12.5 5.607 12.5 12.5v45.029c0 6.893-5.607 12.5-12.5 12.5zm-42.529-15h40.029v-40.029h-40.029z"/></g><g><path d="m124.642 444.887h-45.029c-6.893 0-12.5-5.607-12.5-12.5v-45.029c0-6.893 5.607-12.5 12.5-12.5h45.029c6.893 0 12.5 5.607 12.5 12.5v45.029c0 6.893-5.608 12.5-12.5 12.5zm-42.529-15h40.029v-40.029h-40.029z"/></g><g><path d="m269.602 282.102h-27.204c-6.893 0-12.5-5.608-12.5-12.5v-27.204c0-6.893 5.607-12.5 12.5-12.5h27.204c6.893 0 12.5 5.607 12.5 12.5v27.204c0 6.893-5.607 12.5-12.5 12.5zm-24.704-15h22.204v-22.204h-22.204z"/></g><g><path d="m154.731 479.31h-105.208c-9.282 0-16.833-7.551-16.833-16.833v-105.208c0-9.282 7.551-16.833 16.833-16.833h105.208c9.282 0 16.832 7.551 16.832 16.833v105.208c0 9.281-7.55 16.833-16.832 16.833zm-105.208-123.874c-1.011 0-1.833.822-1.833 1.833v105.208c0 1.011.822 1.833 1.833 1.833h105.208c1.01 0 1.832-.822 1.832-1.833v-105.208c0-1.01-.822-1.833-1.832-1.833z"/></g><g><path d="m462.477 479.31h-105.208c-9.282 0-16.833-7.551-16.833-16.833v-105.208c0-9.282 7.551-16.833 16.833-16.833h105.208c9.282 0 16.833 7.551 16.833 16.833v105.208c0 9.281-7.552 16.833-16.833 16.833zm-105.208-123.874c-1.01 0-1.833.822-1.833 1.833v105.208c0 1.011.822 1.833 1.833 1.833h105.208c1.011 0 1.833-.822 1.833-1.833v-105.208c0-1.01-.822-1.833-1.833-1.833z"/></g><g><path d="m307.936 171.564h-41.936c-9.649 0-17.5-7.851-17.5-17.5v-41.937c0-1.378-1.122-2.5-2.5-2.5h-41.937c-9.649 0-17.5-7.851-17.5-17.5v-41.937c0-9.649 7.851-17.5 17.5-17.5h103.873c9.649 0 17.5 7.851 17.5 17.5v103.873c0 9.65-7.85 17.501-17.5 17.501zm-103.873-123.874c-1.378 0-2.5 1.122-2.5 2.5v41.937c0 1.378 1.122 2.5 2.5 2.5h41.937c9.649 0 17.5 7.851 17.5 17.5v41.937c0 1.378 1.122 2.5 2.5 2.5h41.936c1.378 0 2.5-1.122 2.5-2.5v-103.874c0-1.378-1.122-2.5-2.5-2.5z"/></g><g><path d="m154.063 325.436h-103.873c-9.649 0-17.5-7.851-17.5-17.5v-41.936c0-9.649 7.851-17.5 17.5-17.5h41.937c1.378 0 2.5-1.122 2.5-2.5v-41.936c0-9.649 7.85-17.5 17.5-17.5h41.936c9.649 0 17.5 7.851 17.5 17.5v103.873c0 9.649-7.85 17.499-17.5 17.499zm-103.873-61.936c-1.378 0-2.5 1.122-2.5 2.5v41.936c0 1.378 1.122 2.5 2.5 2.5h103.873c1.378 0 2.5-1.122 2.5-2.5v-103.872c0-1.378-1.122-2.5-2.5-2.5h-41.936c-1.379 0-2.5 1.122-2.5 2.5v41.936c0 9.649-7.851 17.5-17.5 17.5z"/></g><g><path d="m307.936 479.31h-40.593c-4.142 0-7.5-3.358-7.5-7.5s3.358-7.5 7.5-7.5h40.593c1.378 0 2.5-1.122 2.5-2.5v-41.937c0-1.378-1.122-2.5-2.5-2.5h-41.936c-9.649 0-17.5-7.85-17.5-17.5v-41.936c0-1.378-1.122-2.5-2.5-2.5h-41.937c-1.378 0-2.5 1.122-2.5 2.5v103.873c0 1.378 1.122 2.5 2.5 2.5h30.593c4.142 0 7.5 3.358 7.5 7.5s-3.358 7.5-7.5 7.5h-30.593c-9.649 0-17.5-7.851-17.5-17.5v-103.874c0-9.649 7.851-17.5 17.5-17.5h41.937c9.649 0 17.5 7.851 17.5 17.5v41.936c0 1.379 1.122 2.5 2.5 2.5h41.936c9.649 0 17.5 7.851 17.5 17.5v41.937c0 9.65-7.85 17.501-17.5 17.501z"/></g><g><path d="m399.873 325.436h-41.936c-9.649 0-17.5-7.851-17.5-17.5v-35.594c0-4.142 3.358-7.5 7.5-7.5s7.5 3.358 7.5 7.5v35.594c0 1.378 1.122 2.5 2.5 2.5h41.936c1.379 0 2.5-1.122 2.5-2.5v-41.936c0-9.649 7.851-17.5 17.5-17.5h41.937c1.378 0 2.5-1.122 2.5-2.5v-41.936c0-1.378-1.122-2.5-2.5-2.5h-103.874c-1.378 0-2.5 1.122-2.5 2.5v35.593c0 4.142-3.358 7.5-7.5 7.5s-7.5-3.358-7.5-7.5v-35.593c0-9.649 7.851-17.5 17.5-17.5h103.874c9.649 0 17.5 7.851 17.5 17.5v41.936c0 9.649-7.851 17.5-17.5 17.5h-41.937c-1.378 0-2.5 1.122-2.5 2.5v41.936c0 9.65-7.851 17.5-17.5 17.5z"/></g><g><path d="m154.731 171.564h-105.208c-9.282 0-16.833-7.551-16.833-16.833v-36.261c0-4.142 3.358-7.5 7.5-7.5s7.5 3.358 7.5 7.5v36.261c0 1.01.822 1.833 1.833 1.833h105.208c1.01 0 1.832-.822 1.832-1.833v-105.208c0-1.011-.822-1.833-1.832-1.833h-105.208c-1.011 0-1.833.822-1.833 1.833v36.26c0 4.142-3.358 7.5-7.5 7.5s-7.5-3.358-7.5-7.5v-36.26c0-9.282 7.551-16.833 16.833-16.833h105.208c9.282 0 16.832 7.551 16.832 16.833v105.208c0 9.282-7.55 16.833-16.832 16.833z"/></g></g></g></svg>