<svg id="Capa_1" enable-background="new 0 0 512 512" height="512" viewBox="0 0 512 512" width="512" xmlns="http://www.w3.org/2000/svg"><g><g><path d="m78.829 7.5h-46.329c-13.807 0-25 11.193-25 25v447c0 13.807 11.193 25 25 25h42.828l384.172-20c13.807 0 25-11.193 25-25v-382.733c0-13.807-11.193-25-25-25h-318.462c-7.07 0-13.809-2.993-18.549-8.239l-25.11-27.789c-4.741-5.246-11.48-8.239-18.55-8.239z" fill="#ffe187"/><g><path d="m479.5 51.767h-30c13.807 0 25 11.193 25 25v382.733c0 13.807-11.193 25-25 25h20c13.807 0 25-11.193 25-25l10-340.351v-42.382c0-13.807-11.193-25-25-25z" fill="#ffd26f"/></g><path d="m460.5 484.5-345.566 20h-39.606c-13.807 0-25-11.193-25-25v-360.351c0-13.807 11.193-25 25-25h385.172c13.807 0 25 11.193 25 25v340.351c0 13.807-11.193 25-25 25z" fill="#f9f6f9"/><path d="m479.5 94.149h-30c13.807 0 25 11.193 25 25v350.351c0 13.807-11.193 25-25 25h20c13.807 0 25-11.193 25-25l10-314.566v-35.784c0-13.808-11.193-25.001-25-25.001z" fill="#dedbec"/><path d="m460.5 504.5h-345.566c-13.807 0-25-11.193-25-25v-324.566c0-13.807 11.193-25 25-25h345.566c13.807 0 25 11.193 25 25v324.566c0 13.807-11.193 25-25 25z" fill="#ffe187"/><path d="m479.5 129.934h-30c13.807 0 25 11.193 25 25v324.566c0 13.807-11.193 25-25 25h30c13.807 0 25-11.193 25-25v-324.566c0-13.807-11.193-25-25-25z" fill="#ffd26f"/><path d="m229.717 261.889c-15.03 15.03-15.03 39.398 0 54.428l63.964 63.964c1.953 1.953 5.119 1.953 7.071 0l63.964-63.964c15.03-15.03 15.03-39.398 0-54.428-15.03-15.03-39.398-15.03-54.428 0l-9.536 9.536c-1.953 1.953-5.118 1.953-7.071 0l-9.536-9.536c-15.03-15.029-39.398-15.029-54.428 0z" fill="#ea7bc1"/><path d="m368.756 464.5h90.744c2.761 0 5-2.239 5-5v-24.422c0-2.762-2.239-5-5-5h-90.744c-2.761 0-5 2.238-5 5v24.422c0 2.761 2.239 5 5 5z" fill="#f9f6f9"/></g><g><path d="m356.256 435.078v24.422c0 6.893 5.607 12.5 12.5 12.5h90.744c6.893 0 12.5-5.607 12.5-12.5v-24.422c0-6.893-5.607-12.5-12.5-12.5h-90.744c-6.893 0-12.5 5.607-12.5 12.5zm15 2.5h85.744v19.422h-85.744z"/><path d="m337.503 243.117c-12.284 0-23.832 4.784-32.517 13.469l-7.77 7.769-7.769-7.768c-8.686-8.686-20.233-13.469-32.517-13.469-12.283 0-23.832 4.783-32.517 13.469-8.686 8.686-13.469 20.234-13.469 32.517s4.784 23.832 13.469 32.517l63.964 63.964c2.36 2.361 5.5 3.662 8.839 3.662s6.479-1.3 8.839-3.661l63.963-63.964c8.687-8.686 13.47-20.233 13.47-32.517 0-12.283-4.783-23.831-13.469-32.517-8.685-8.688-20.233-13.471-32.516-13.471zm21.909 67.897-62.195 62.196-62.196-62.196c-5.852-5.853-9.076-13.634-9.076-21.91 0-8.277 3.223-16.058 9.076-21.911s13.634-9.076 21.911-9.076 16.058 3.223 21.911 9.076l9.536 9.535c2.36 2.361 5.5 3.662 8.839 3.662s6.479-1.3 8.838-3.661l9.538-9.537c5.852-5.853 13.633-9.076 21.909-9.076 8.277.001 16.058 3.224 21.911 9.076 5.853 5.853 9.075 13.634 9.075 21.91-.001 8.278-3.223 16.059-9.077 21.912z"/><path d="m479.5 512c17.921 0 32.5-14.58 32.5-32.5v-402.732c0-17.92-14.579-32.5-32.5-32.5h-244.712c-4.142 0-7.5 3.358-7.5 7.5s3.358 7.5 7.5 7.5h244.712c9.649 0 17.5 7.851 17.5 17.5v15.017c-5.056-3.245-11.059-5.135-17.5-5.135h-404.172c-17.92 0-32.5 14.58-32.5 32.5v93.545c0 4.142 3.358 7.5 7.5 7.5s7.5-3.358 7.5-7.5v-93.545c0-9.649 7.851-17.5 17.5-17.5h404.172c9.649 0 17.5 7.851 17.5 17.5v8.42c-5.056-3.245-11.059-5.135-17.5-5.135h-364.566c-17.92 0-32.5 14.58-32.5 32.5v228.248c0 4.142 3.358 7.5 7.5 7.5s7.5-3.358 7.5-7.5v-228.249c0-9.649 7.851-17.5 17.5-17.5h364.566c9.649 0 17.5 7.851 17.5 17.5v324.566c0 9.649-7.851 17.5-17.5 17.5h-364.566c-9.649 0-17.5-7.851-17.5-17.5v-63.632c0-4.142-3.358-7.5-7.5-7.5s-7.5 3.358-7.5 7.5v63.632c0 6.441 1.891 12.444 5.136 17.5h-12.242c-9.649 0-17.5-7.851-17.5-17.5v-234.119c0-4.142-3.358-7.5-7.5-7.5s-7.5 3.358-7.5 7.5v234.119c0 6.441 1.891 12.444 5.136 17.5h-15.464c-9.649 0-17.5-7.851-17.5-17.5v-447c0-9.649 7.851-17.5 17.5-17.5h46.329c4.94 0 9.673 2.102 12.984 5.767l25.11 27.789c6.151 6.807 14.94 10.711 24.114 10.711h61.063c4.142 0 7.5-3.358 7.5-7.5s-3.358-7.5-7.5-7.5h-61.063c-4.94 0-9.673-2.102-12.984-5.768l-25.111-27.79c-6.15-6.805-14.939-10.709-24.113-10.709h-46.329c-17.92 0-32.5 14.58-32.5 32.5v447c0 17.92 14.58 32.5 32.5 32.5z"/></g></g></svg>