<svg id="Capa_1" enable-background="new 0 0 512 512" height="512" viewBox="0 0 512 512" width="512" xmlns="http://www.w3.org/2000/svg"><g><g><path d="m430.25 504.5h-358.5c-13.807 0-25-11.193-25-25v-447c0-13.807 11.193-25 25-25h358.5c13.807 0 25 11.193 25 25v447c0 13.807-11.193 25-25 25z" fill="#f9f6f9"/><g fill="#ffe187"><path d="m145.218 455.287-14.3 7.518c-3.668 1.928-7.955-1.186-7.255-5.271l2.731-15.923c.278-1.622-.26-3.277-1.438-4.426l-11.569-11.277c-2.968-2.893-1.33-7.932 2.771-8.528l15.988-2.323c1.629-.237 3.036-1.26 3.765-2.735l7.15-14.487c1.834-3.716 7.133-3.716 8.967 0l7.15 14.487c.728 1.476 2.136 2.499 3.765 2.735l15.988 2.323c4.101.596 5.739 5.636 2.771 8.528l-11.569 11.277c-1.178 1.149-1.716 2.804-1.438 4.426l2.731 15.923c.701 4.085-3.587 7.199-7.255 5.271l-14.3-7.518c-1.456-.766-3.196-.766-4.653 0z"/><path d="m253.281 455.287-14.3 7.518c-3.668 1.928-7.955-1.186-7.255-5.271l2.731-15.923c.278-1.622-.26-3.277-1.438-4.426l-11.569-11.277c-2.968-2.893-1.33-7.932 2.771-8.528l15.988-2.323c1.629-.237 3.036-1.26 3.765-2.735l7.15-14.487c1.834-3.716 7.133-3.716 8.967 0l7.15 14.487c.728 1.476 2.136 2.499 3.765 2.735l15.988 2.323c4.101.596 5.739 5.636 2.771 8.528l-11.569 11.277c-1.178 1.149-1.716 2.804-1.438 4.426l2.731 15.923c.701 4.085-3.587 7.199-7.255 5.271l-14.3-7.518c-1.456-.766-3.197-.766-4.653 0z"/><path d="m361.344 455.287-14.3 7.518c-3.668 1.928-7.955-1.186-7.255-5.271l2.731-15.923c.278-1.622-.26-3.277-1.438-4.426l-11.569-11.277c-2.968-2.893-1.33-7.932 2.771-8.528l15.988-2.323c1.629-.237 3.036-1.26 3.765-2.735l7.15-14.487c1.834-3.716 7.133-3.716 8.967 0l7.15 14.487c.728 1.476 2.136 2.499 3.765 2.735l15.988 2.323c4.101.596 5.739 5.636 2.771 8.528l-11.569 11.277c-1.178 1.149-1.716 2.804-1.438 4.426l2.731 15.923c.701 4.085-3.587 7.199-7.255 5.271l-14.3-7.518c-1.457-.766-3.197-.766-4.653 0z"/></g><ellipse cx="162.191" cy="118.929" fill="#ade4a4" rx="70.319" ry="70.319" transform="matrix(.164 -.986 .986 .164 18.26 259.406)"/><ellipse cx="349.809" cy="118.929" fill="#ea7bc1" rx="70.319" ry="70.319" transform="matrix(.164 -.986 .986 .164 175.091 444.481)"/><path d="m440.25 7.5h-30c13.807 0 25 11.193 25 25v447c0 13.807-11.193 25-25 25h30c13.807 0 25-11.193 25-25v-447c0-13.807-11.193-25-25-25z" fill="#dedbec"/></g><g><g><path d="m162.191 196.748c-42.91 0-77.819-34.91-77.819-77.819s34.909-77.819 77.819-77.819 77.819 34.909 77.819 77.819-34.908 77.819-77.819 77.819zm0-140.638c-34.639 0-62.819 28.18-62.819 62.819s28.181 62.819 62.819 62.819 62.819-28.181 62.819-62.819-28.18-62.819-62.819-62.819z"/></g><g><path d="m381.291 147.912c-1.92 0-3.839-.732-5.304-2.197-6.992-6.993-16.289-10.844-26.179-10.844-9.889 0-19.186 3.851-26.179 10.844-2.931 2.93-7.679 2.929-10.607 0-2.929-2.929-2.929-7.678 0-10.606 9.826-9.826 22.891-15.237 36.786-15.237 13.897 0 26.96 5.412 36.786 15.237 2.929 2.929 2.929 7.678 0 10.606-1.464 1.464-3.384 2.197-5.303 2.197z"/></g><g><path d="m162.579 160.952c-13.896 0-26.96-5.412-36.786-15.237-2.929-2.929-2.929-7.678 0-10.606 2.931-2.93 7.679-2.929 10.607 0 6.992 6.993 16.289 10.844 26.179 10.844 9.889 0 19.186-3.851 26.179-10.844 2.931-2.93 7.679-2.929 10.607 0 2.929 2.929 2.929 7.678 0 10.606-9.826 9.826-22.89 15.237-36.786 15.237z"/></g><g><path d="m420.128 305.729h-328.256c-4.143 0-7.5-3.358-7.5-7.5s3.357-7.5 7.5-7.5h328.256c4.143 0 7.5 3.358 7.5 7.5s-3.357 7.5-7.5 7.5z"/></g><g><path d="m420.128 367.891h-328.256c-4.143 0-7.5-3.358-7.5-7.5s3.357-7.5 7.5-7.5h328.256c4.143 0 7.5 3.358 7.5 7.5s-3.357 7.5-7.5 7.5z"/></g><g><path d="m166.51 470.893c-1.987 0-3.983-.479-5.829-1.449l-13.136-6.907-13.137 6.907c-4.243 2.23-9.286 1.866-13.164-.952-3.877-2.817-5.783-7.501-4.974-12.225l2.51-14.628-10.628-10.36c-3.432-3.345-4.644-8.255-3.163-12.814s5.349-7.819 10.092-8.507l14.686-2.134 6.567-13.309c2.122-4.299 6.418-6.968 11.21-6.968h.001c4.793 0 9.087 2.67 11.208 6.968l6.568 13.309 14.687 2.134c4.743.689 8.609 3.948 10.091 8.506s.27 9.468-3.162 12.814l-10.628 10.36 2.509 14.628c.811 4.722-1.095 9.407-4.972 12.225-2.191 1.592-4.755 2.401-7.336 2.402zm-18.965-23.681c1.998 0 3.995.479 5.816 1.436l9.816 5.161-1.875-10.931c-.695-4.057.648-8.193 3.597-11.065l7.94-7.74-10.975-1.595c-4.075-.592-7.594-3.149-9.413-6.841l-4.907-9.942-4.908 9.945c-1.822 3.69-5.34 6.247-9.411 6.838l-10.976 1.595 7.941 7.741c2.946 2.871 4.291 7.008 3.595 11.065l-1.875 10.93 9.816-5.161h.002c1.822-.958 3.82-1.436 5.817-1.436z"/></g><g><path d="m274.572 470.893c-1.986 0-3.982-.479-5.828-1.449l-13.137-6.907-13.136 6.907c-4.246 2.23-9.289 1.864-13.166-.953-3.877-2.818-5.782-7.502-4.971-12.226l2.508-14.626-10.628-10.359c-3.432-3.345-4.643-8.255-3.163-12.814 1.481-4.559 5.349-7.819 10.092-8.507l14.686-2.134 6.568-13.309c2.121-4.298 6.416-6.968 11.209-6.968s9.088 2.67 11.209 6.968l6.568 13.309 14.686 2.134c4.743.689 8.61 3.949 10.092 8.507 1.48 4.558.269 9.468-3.164 12.814l-10.627 10.359 2.509 14.628c.811 4.723-1.095 9.407-4.972 12.225-2.189 1.591-4.754 2.4-7.335 2.401zm-21.291-15.606h.01zm-22.969-31.213 7.942 7.741c2.946 2.873 4.29 7.01 3.594 11.065l-1.874 10.93 9.816-5.161v.001c3.64-1.915 7.99-1.916 11.632-.001l9.817 5.161-1.875-10.93c-.695-4.054.648-8.19 3.594-11.063l7.943-7.742-10.975-1.595c-4.072-.592-7.59-3.148-9.411-6.837l-4.909-9.946-4.908 9.945c-1.822 3.69-5.34 6.246-9.411 6.838z"/></g><g><path d="m382.635 470.892c-1.986 0-3.982-.479-5.828-1.449l-13.137-6.907-13.136 6.907c-4.244 2.23-9.286 1.866-13.164-.952-3.877-2.817-5.783-7.501-4.974-12.225l2.51-14.628-10.628-10.36c-3.432-3.345-4.645-8.255-3.163-12.814 1.482-4.558 5.348-7.818 10.091-8.507l14.688-2.134 6.567-13.309c2.121-4.298 6.416-6.968 11.21-6.968 4.793 0 9.088 2.67 11.209 6.968l6.567 13.309 14.688 2.134c4.743.689 8.609 3.949 10.091 8.507 1.481 4.559.269 9.469-3.164 12.814l-10.627 10.359 2.509 14.627c.811 4.725-1.096 9.409-4.973 12.226-2.192 1.593-4.755 2.402-7.336 2.402zm-21.291-15.605h.01zm-22.968-31.214 7.941 7.741c2.944 2.869 4.289 7.004 3.596 11.06l-1.876 10.934 9.816-5.161v.001c3.64-1.915 7.99-1.916 11.632-.001l9.818 5.162-1.875-10.93c-.696-4.057.648-8.193 3.597-11.066l7.939-7.74-10.975-1.595c-4.072-.592-7.59-3.148-9.411-6.837l-4.909-9.946-4.907 9.944c-1.822 3.69-5.34 6.246-9.41 6.838z"/></g><g><path d="m138.596 106.115c-4.142 0-7.5-3.358-7.5-7.5 0-4.142 3.358-7.5 7.5-7.5 4.142 0 7.5 3.358 7.5 7.5 0 4.142-3.357 7.5-7.5 7.5z"/></g><g><path d="m186.561 106.115c-4.142 0-7.5-3.358-7.5-7.5 0-4.142 3.358-7.5 7.5-7.5 4.142 0 7.5 3.358 7.5 7.5 0 4.142-3.357 7.5-7.5 7.5z"/></g><g><path d="m325.826 106.115c-4.142 0-7.5-3.358-7.5-7.5 0-4.142 3.358-7.5 7.5-7.5 4.142 0 7.5 3.358 7.5 7.5 0 4.142-3.358 7.5-7.5 7.5z"/></g><g><path d="m373.791 106.115c-4.142 0-7.5-3.358-7.5-7.5 0-4.142 3.358-7.5 7.5-7.5 4.142 0 7.5 3.358 7.5 7.5 0 4.142-3.358 7.5-7.5 7.5z"/></g><g><path d="m440.25 512h-368.5c-17.921 0-32.5-14.58-32.5-32.5v-87c0-4.142 3.357-7.5 7.5-7.5s7.5 3.358 7.5 7.5v87c0 9.649 7.851 17.5 17.5 17.5h368.5c9.649 0 17.5-7.851 17.5-17.5v-447c0-9.649-7.851-17.5-17.5-17.5h-368.5c-9.649 0-17.5 7.851-17.5 17.5v327.314c0 4.142-3.357 7.5-7.5 7.5s-7.5-3.358-7.5-7.5v-327.314c0-17.92 14.579-32.5 32.5-32.5h368.5c17.921 0 32.5 14.58 32.5 32.5v447c0 17.92-14.579 32.5-32.5 32.5z"/></g><g><path d="m420.128 243.567h-202.223c-4.143 0-7.5-3.358-7.5-7.5s3.357-7.5 7.5-7.5h202.223c4.143 0 7.5 3.358 7.5 7.5 0 4.143-3.357 7.5-7.5 7.5z"/></g><g><path d="m185.219 243.567h-93.347c-4.143 0-7.5-3.358-7.5-7.5s3.357-7.5 7.5-7.5h93.347c4.143 0 7.5 3.358 7.5 7.5 0 4.143-3.358 7.5-7.5 7.5z"/></g><g><path d="m349.809 196.748c-36.202 0-67.334-24.565-75.706-59.738-.959-4.03 1.529-8.074 5.56-9.033 4.029-.963 8.073 1.53 9.032 5.559 6.757 28.386 31.889 48.212 61.114 48.212 34.639 0 62.819-28.181 62.819-62.819s-28.181-62.819-62.819-62.819c-29.227 0-54.357 19.825-61.113 48.211-.958 4.028-4.996 6.518-9.032 5.56-4.029-.959-6.519-5.003-5.56-9.033 8.371-35.173 39.502-59.739 75.705-59.739 42.91 0 77.819 34.909 77.819 77.819s-34.909 77.82-77.819 77.82z"/></g></g></g></svg>