<svg id="Capa_1" enable-background="new 0 0 512 512" height="512" viewBox="0 0 512 512" width="512" xmlns="http://www.w3.org/2000/svg"><g><g><path d="m112.309 133.643h361.88c11.218 0 20.311 9.094 20.311 20.311v235.426c0 11.218-9.094 20.311-20.311 20.311h-125.095c-5.523 0-10 4.477-10 10v52.191c0 4.661-5.815 6.787-8.821 3.225l-52.216-61.866c-1.9-2.251-4.696-3.55-7.642-3.55h-158.106c-11.218 0-20.311-9.094-20.311-20.311v-235.426c0-11.218 9.093-20.311 20.311-20.311z" fill="#ea7bc1"/><g><path d="m484.189 133.643h-26.542c11.217 0 20.311 9.094 20.311 20.311v235.426c0 11.218-9.094 20.311-20.311 20.311h26.542c11.218 0 20.311-9.094 20.311-20.311v-235.426c0-11.218-9.094-20.311-20.311-20.311z" fill="#ea5bb1"/></g><g><path d="m389.691 35.108h-361.88c-11.217 0-20.311 9.093-20.311 20.311v235.426c0 11.218 9.094 20.311 20.311 20.311h135.094c5.523 0 10 4.477 10 10v52.191c0 4.661 5.815 6.787 8.821 3.225l52.216-61.866c1.9-2.251 4.696-3.55 7.642-3.55h148.107c11.218 0 20.311-9.094 20.311-20.311v-235.426c0-11.218-9.093-20.311-20.311-20.311z" fill="#ade4a4"/></g><g><path d="m399.691 35.108h-26.542c11.217 0 20.311 9.094 20.311 20.311v235.426c0 11.218-9.094 20.311-20.311 20.311h26.542c11.217 0 20.311-9.094 20.311-20.311v-235.426c0-11.218-9.094-20.311-20.311-20.311z" fill="#8bd5a7"/></g></g><g><path d="m141.475 232.794 8.821-23.16h58.422l8.732 23.138c1.133 3.003 3.987 4.854 7.018 4.854.88 0 1.775-.156 2.648-.485 3.875-1.463 5.831-5.79 4.368-9.665l-42.415-112.392c-.025-.069-.053-.137-.08-.205-1.562-3.796-5.221-6.248-9.325-6.248-.003 0-.007 0-.01 0-4.108.004-7.768 2.463-9.323 6.266-.023.057-.046.113-.067.17l-42.805 112.387c-1.475 3.871.469 8.204 4.34 9.678 3.863 1.473 8.201-.467 9.676-4.338zm38.166-100.207 23.416 62.047h-47.048z"/><path d="m104.466 124.049c4.143 0 7.5-3.358 7.5-7.5s-3.357-7.5-7.5-7.5h-45.863c-4.143 0-7.5 3.358-7.5 7.5v113.158c0 4.142 3.357 7.5 7.5 7.5s7.5-3.358 7.5-7.5v-50.15h34.721c4.143 0 7.5-3.358 7.5-7.5s-3.357-7.5-7.5-7.5h-34.721v-40.508z"/><path d="m311.463 108.632c-35.563 0-64.497 28.933-64.497 64.496 0 35.564 28.934 64.497 64.497 64.497 15.314 0 29.391-5.375 40.465-14.325l11.668 11.667c1.465 1.464 3.385 2.197 5.304 2.197s3.839-.733 5.304-2.197c2.929-2.929 2.929-7.678 0-10.607l-11.776-11.775c8.47-10.916 13.532-24.603 13.532-39.457-.001-35.564-28.934-64.496-64.497-64.496zm0 113.992c-27.293 0-49.497-22.204-49.497-49.497 0-27.292 22.204-49.496 49.497-49.496 27.292 0 49.496 22.204 49.496 49.496 0 10.715-3.433 20.637-9.242 28.747l-13.982-13.981c-2.93-2.929-7.678-2.929-10.608 0-2.929 2.929-2.929 7.678 0 10.606l14.125 14.125c-8.293 6.273-18.613 10-29.789 10z"/><path d="m246.966 365.308c0 4.142 3.357 7.5 7.5 7.5h203.181c4.143 0 7.5-3.358 7.5-7.5s-3.357-7.5-7.5-7.5h-203.181c-4.143 0-7.5 3.357-7.5 7.5z"/><path d="m420.002 210.977c-4.143 0-7.5 3.358-7.5 7.5v72.364c0 7.064-5.747 12.811-12.812 12.811h-71.664c-4.143 0-7.5 3.358-7.5 7.5s3.357 7.5 7.5 7.5h71.664c15.335 0 27.812-12.476 27.812-27.811v-72.364c0-4.142-3.357-7.5-7.5-7.5z"/><path d="m484.189 126.139h-56.686v-70.724c0-15.335-12.477-27.811-27.812-27.811h-371.879c-15.335 0-27.812 12.476-27.812 27.811v36.873c0 4.142 3.357 7.5 7.5 7.5s7.5-3.358 7.5-7.5v-36.873c0-7.064 5.747-12.811 12.812-12.811h371.878c7.065 0 12.812 5.747 12.812 12.811v130.376c0 4.142 3.357 7.5 7.5 7.5 4.142 0 7.5-3.358 7.5-7.5v-44.652h56.686c7.064 0 12.811 5.747 12.811 12.811v235.426c0 7.064-5.747 12.811-12.811 12.811h-135.093c-9.649 0-17.5 7.851-17.5 17.5v45.353l-47.806-56.64c-3.333-3.948-8.207-6.213-13.373-6.213h-158.106c-7.064 0-12.812-5.747-12.812-12.811v-70.724h63.407c1.379 0 2.5 1.122 2.5 2.5v52.191c0 5.309 3.222 9.917 8.208 11.74 1.433.524 2.902.778 4.351.778 3.593 0 7.055-1.564 9.494-4.456l52.216-61.866c.477-.564 1.173-.888 1.91-.888h53.756c4.143 0 7.5-3.358 7.5-7.5s-3.357-7.5-7.5-7.5h-53.756c-5.166 0-10.04 2.265-13.373 6.213l-47.806 56.641v-45.354c0-9.649-7.851-17.5-17.5-17.5h-135.093c-7.064 0-12.812-5.747-12.812-12.811v-165.866c0-4.142-3.357-7.5-7.5-7.5s-7.5 3.358-7.5 7.5v165.867c0 15.335 12.477 27.811 27.812 27.811h56.687v70.724c0 15.335 12.477 27.811 27.812 27.811h158.106c.737 0 1.434.324 1.91.888l52.216 61.865c2.44 2.892 5.901 4.456 9.494 4.456 1.448 0 2.918-.254 4.35-.778 4.987-1.823 8.209-6.431 8.209-11.74v-52.191c0-1.378 1.121-2.5 2.5-2.5h135.094c15.335 0 27.811-12.476 27.811-27.811v-235.426c-.001-15.335-12.478-27.811-27.812-27.811z"/></g></g></svg>