<svg id="Capa_1" enable-background="new 0 0 512 512" height="512" viewBox="0 0 512 512" width="512" xmlns="http://www.w3.org/2000/svg"><g><g><path d="m404.817 126.706h-307.634c-5.523 0-10 4.477-10 10v42.605l327.633 10v-52.605c.001-5.523-4.477-10-9.999-10z" fill="#ffe187"/><path d="m414.817 126.706h-30c5.523 0 10 4.477 10 10v52.605l30-10v-42.605c0-5.523-4.478-10-10-10z" fill="#ffd26f"/><path d="m340 48.051h-180c-5.523 0-10 4.477-10 10v121.26l200 20v-141.26c0-5.523-4.477-10-10-10z" fill="#f9f6f9"/><path d="m352 48.051h-30c5.523 0 10 4.477 10 10v141.26l30-20v-121.26c0-5.523-4.477-10-10-10z" fill="#dedbec"/><path d="m476.5 413.792h-459c-5.523 0-10-4.477-10-10v-174.481c0-27.614 22.386-50 50-50h379c27.614 0 50 22.386 50 50v174.481c0 5.523-4.477 10-10 10z" fill="#95c7f8"/><path d="m414.817 332.689h-52.817l-94.513 10-117.487-10h-52.817c-5.523 0-10 4.477-10 10v71.103h337.633v-71.103c.001-5.523-4.477-10-9.999-10z" fill="#245e7c"/><path d="m454.5 179.311h-30c27.614 0 50 22.386 50 50v174.481c0 5.523-4.477 10-10 10h30c5.523 0 10-4.477 10-10v-174.481c0-27.614-22.386-50-50-50z" fill="#75b5f8"/><path d="m343 332.689h-193v121.26c0 5.523 4.477 10 10 10h173c5.523 0 10-4.477 10-10z" fill="#f9f6f9"/><path d="m332 332.689v121.26c0 5.523-4.477 10-10 10h30c5.523 0 10-4.477 10-10v-121.26z" fill="#dedbec"/></g><g><path d="m311.288 85.633h-110.576c-4.142 0-7.5 3.358-7.5 7.5s3.358 7.5 7.5 7.5h110.575c4.142 0 7.5-3.358 7.5-7.5s-3.357-7.5-7.499-7.5z"/><path d="m311.288 126.729h-110.576c-4.142 0-7.5 3.358-7.5 7.5s3.358 7.5 7.5 7.5h110.575c4.142 0 7.5-3.358 7.5-7.5.001-4.142-3.357-7.5-7.499-7.5z"/><path d="m362 263.5c4.142 0 7.5-3.358 7.5-7.5s-3.358-7.5-7.5-7.5h-212c-4.142 0-7.5 3.358-7.5 7.5s3.358 7.5 7.5 7.5z"/><path d="m49.869 234.263c4.142 0 7.5-3.358 7.5-7.5 0-4.142-3.358-7.5-7.5-7.5s-7.5 3.358-7.5 7.5c0 4.142 3.357 7.5 7.5 7.5z"/><path d="m42.369 256c0 4.142 3.358 7.5 7.5 7.5s7.5-3.358 7.5-7.5c0-4.142-3.358-7.5-7.5-7.5-4.143 0-7.5 3.358-7.5 7.5z"/><path d="m42.369 285.237c0 4.142 3.358 7.5 7.5 7.5s7.5-3.358 7.5-7.5c0-4.142-3.358-7.5-7.5-7.5-4.143 0-7.5 3.358-7.5 7.5z"/><path d="m454.5 171.811h-22.184v-35.105c0-9.649-7.851-17.5-17.5-17.5h-45.316v-61.155c0-9.649-7.851-17.5-17.5-17.5h-120.682c-4.142 0-7.5 3.358-7.5 7.5s3.358 7.5 7.5 7.5h120.682c1.378 0 2.5 1.122 2.5 2.5v113.76h-197v-113.76c0-1.378 1.122-2.5 2.5-2.5h38.631c4.142 0 7.5-3.358 7.5-7.5s-3.358-7.5-7.5-7.5h-38.631c-9.649 0-17.5 7.851-17.5 17.5v61.154h-45.316c-9.649 0-17.5 7.851-17.5 17.5v35.105h-22.184c-31.706 0-57.5 25.794-57.5 57.5v50.897c0 4.142 3.358 7.5 7.5 7.5s7.5-3.358 7.5-7.5v-50.897c0-23.435 19.065-42.5 42.5-42.5h397c23.435 0 42.5 19.065 42.5 42.5v174.48c0 1.378-1.122 2.5-2.5 2.5h-62.184v-63.603c0-9.649-7.851-17.5-17.5-17.5h-317.632c-9.649 0-17.5 7.851-17.5 17.5v63.603h-62.184c-1.378 0-2.5-1.122-2.5-2.5v-90.897c0-4.142-3.358-7.5-7.5-7.5s-7.5 3.358-7.5 7.5v90.897c0 9.649 7.851 17.5 17.5 17.5h125v32.657c0 9.649 7.851 17.5 17.5 17.5h112.379c4.142 0 7.5-3.358 7.5-7.5s-3.358-7.5-7.5-7.5h-112.379c-1.378 0-2.5-1.122-2.5-2.5v-113.76h197v113.76c0 1.378-1.122 2.5-2.5 2.5h-46.934c-4.142 0-7.5 3.358-7.5 7.5s3.358 7.5 7.5 7.5h46.934c9.649 0 17.5-7.851 17.5-17.5v-32.657h125c9.649 0 17.5-7.851 17.5-17.5v-174.48c0-31.705-25.794-57.499-57.5-57.499zm-85-37.605h45.316c1.378 0 2.5 1.122 2.5 2.5v35.105h-47.816zm-274.816 2.5c0-1.378 1.122-2.5 2.5-2.5h45.316v37.605h-47.816zm47.816 269.586h-47.816v-63.603c0-1.379 1.122-2.5 2.5-2.5h45.316zm227-66.103h45.316c1.378 0 2.5 1.121 2.5 2.5v63.603h-47.816z"/></g></g></svg>