<svg id="Capa_1" enable-background="new 0 0 512 512" height="512" viewBox="0 0 512 512" width="512" xmlns="http://www.w3.org/2000/svg"><g><g><path d="m409.361 7.5h-204.236c-5.523 0-10 4.477-10 10v177.455h224.236v-177.455c0-5.523-4.477-10-10-10z" fill="#f9f6f9"/><path d="m419.361 7.5h-30c5.523 0 10 4.477 10 10v177.455h30v-177.455c0-5.523-4.477-10-10-10z" fill="#dedbec"/><path d="m445.601 459.289h-321.734l20-316.152h301.734c13.817 0 25.018 11.201 25.018 25.018v266.116c.001 13.817-11.2 25.018-25.018 25.018z" fill="#95c7f8"/><path d="m56.399 504.5h52.451c13.817 0 25.018-11.201 25.018-25.018v-356.537c0-13.817-11.201-25.018-25.018-25.018h-52.451c-13.817 0-25.018 11.201-25.018 25.018v356.537c-.001 13.817 11.2 25.018 25.018 25.018z" fill="#245e7c"/><path d="m455.601 143.137h-30c13.817 0 25.018 11.201 25.018 25.018v266.116c0 13.817-11.201 25.018-25.018 25.018h30c13.817 0 25.018-11.201 25.018-25.018v-266.116c.001-13.817-11.2-25.018-25.018-25.018z" fill="#75b5f8"/><path d="m118.849 97.927h-30c13.817 0 25.018 11.201 25.018 25.018v356.537c0 13.817-11.201 25.018-25.018 25.018h30c13.817 0 25.018-11.201 25.018-25.018v-356.537c0-13.817-11.201-25.018-25.018-25.018z" fill="#1a4c65"/><path d="m409.361 266.65h-204.236c-5.523 0-10-4.477-10-10v-61.216c0-5.523 4.477-10 10-10h204.236c5.523 0 10 4.477 10 10v61.216c0 5.522-4.477 10-10 10z" fill="#ffe187"/><path d="m419.361 185.433h-30c5.523 0 10 4.477 10 10v61.216c0 5.523-4.477 10-10 10h30c5.523 0 10-4.477 10-10v-61.216c0-5.523-4.477-10-10-10z" fill="#ffd26f"/><path d="m330.087 322.979c0 10.407-7.436 17.843-17.843 17.843-2.1 0-4.119.657-6.005.023-7.462-2.507-12.838-9.559-12.838-17.866s5.376-15.359 12.838-17.866c1.886-.634 3.905.023 6.005.023 10.406 0 17.843 7.436 17.843 17.843z" fill="#f9f6f9"/><path d="m312.243 304.136c-2.1 0-4.113.358-6 .992 7.461 2.508 12.843 9.544 12.843 17.851 0 8.306-5.382 15.343-12.843 17.851 1.887.634 3.9.992 6 .992 10.407 0 18.843-8.436 18.843-18.843s-8.436-18.843-18.843-18.843z" fill="#dedbec"/><path d="m251.812 322.979c0 10.407-7.436 17.843-17.843 17.843-2.1 0-4.119.657-6.005.023-7.462-2.507-12.838-9.559-12.838-17.866s5.376-15.359 12.838-17.866c1.886-.634 3.906.023 6.005.023 10.406 0 17.843 7.436 17.843 17.843z" fill="#f9f6f9"/><path d="m233.968 304.136c-2.1 0-4.113.358-6 .992 7.461 2.508 12.843 9.544 12.843 17.851 0 8.306-5.382 15.343-12.843 17.851 1.887.634 3.9.992 6 .992 10.407 0 18.843-8.436 18.843-18.843s-8.436-18.843-18.843-18.843z" fill="#dedbec"/><path d="m408.361 398.151c0 10.407-7.436 17.843-17.843 17.843-2.1 0-4.119.657-6.005.023-7.462-2.507-12.838-9.559-12.838-17.866s5.376-15.359 12.838-17.866c1.886-.634 3.905.023 6.005.023 10.407-.001 17.843 7.436 17.843 17.843z" fill="#f9f6f9"/><path d="m390.518 379.308c-2.1 0-4.113.358-6 .992 7.461 2.508 12.843 9.544 12.843 17.851 0 8.306-5.382 15.343-12.843 17.851 1.887.634 3.9.992 6 .992 10.407 0 18.843-8.436 18.843-18.843s-8.436-18.843-18.843-18.843z" fill="#dedbec"/><path d="m330.087 398.151c0 10.407-7.436 17.843-17.843 17.843-2.1 0-4.119.657-6.005.023-7.462-2.507-12.838-9.559-12.838-17.866s5.376-15.359 12.838-17.866c1.886-.634 3.905.023 6.005.023 10.406-.001 17.843 7.436 17.843 17.843z" fill="#f9f6f9"/><path d="m312.243 379.308c-2.1 0-4.113.358-6 .992 7.461 2.508 12.843 9.544 12.843 17.851 0 8.306-5.382 15.343-12.843 17.851 1.887.634 3.9.992 6 .992 10.407 0 18.843-8.436 18.843-18.843s-8.436-18.843-18.843-18.843z" fill="#dedbec"/><path d="m251.812 398.151c0 10.407-7.436 17.843-17.843 17.843-2.1 0-4.119.657-6.005.023-7.462-2.507-12.838-9.559-12.838-17.866s5.376-15.359 12.838-17.866c1.886-.634 3.906.023 6.005.023 10.406-.001 17.843 7.436 17.843 17.843z" fill="#f9f6f9"/><path d="m233.968 379.308c-2.1 0-4.113.358-6 .992 7.461 2.508 12.843 9.544 12.843 17.851 0 8.306-5.382 15.343-12.843 17.851 1.887.634 3.9.992 6 .992 10.407 0 18.843-8.436 18.843-18.843s-8.436-18.843-18.843-18.843z" fill="#dedbec"/><path d="m408.361 322.979c0 10.407-7.436 17.843-17.843 17.843-2.1 0-4.119.657-6.005.023-7.462-2.507-12.838-9.559-12.838-17.866s5.376-15.359 12.838-17.866c1.886-.634 3.905.023 6.005.023 10.407 0 17.843 7.436 17.843 17.843z" fill="#f9f6f9"/><path d="m390.518 304.136c-2.1 0-4.113.358-6 .992 7.461 2.508 12.843 9.544 12.843 17.851 0 8.306-5.382 15.343-12.843 17.851 1.887.634 3.9.992 6 .992 10.407 0 18.843-8.436 18.843-18.843s-8.436-18.843-18.843-18.843z" fill="#dedbec"/></g><g><path d="m377.69 43.371h-131.012c-4.142 0-7.5 3.358-7.5 7.5s3.358 7.5 7.5 7.5h131.012c4.143 0 7.5-3.358 7.5-7.5s-3.358-7.5-7.5-7.5z"/><path d="m377.69 92.267h-131.012c-4.142 0-7.5 3.358-7.5 7.5s3.358 7.5 7.5 7.5h131.012c4.143 0 7.5-3.358 7.5-7.5 0-4.143-3.358-7.5-7.5-7.5z"/><path d="m233.969 296.636c-14.526 0-26.343 11.817-26.343 26.343s11.817 26.343 26.343 26.343c14.525 0 26.343-11.817 26.343-26.343s-11.818-26.343-26.343-26.343zm0 37.686c-6.255 0-11.343-5.088-11.343-11.343 0-6.254 5.088-11.343 11.343-11.343 6.254 0 11.343 5.088 11.343 11.343 0 6.254-5.089 11.343-11.343 11.343z"/><path d="m312.243 296.636c-14.525 0-26.343 11.817-26.343 26.343s11.817 26.343 26.343 26.343 26.344-11.817 26.344-26.343-11.817-26.343-26.344-26.343zm0 37.686c-6.255 0-11.343-5.088-11.343-11.343 0-6.254 5.088-11.343 11.343-11.343s11.344 5.088 11.344 11.343c0 6.254-5.089 11.343-11.344 11.343z"/><path d="m233.969 371.808c-14.526 0-26.343 11.817-26.343 26.343s11.817 26.343 26.343 26.343c14.525 0 26.343-11.817 26.343-26.343s-11.818-26.343-26.343-26.343zm0 37.686c-6.255 0-11.343-5.088-11.343-11.343 0-6.254 5.088-11.343 11.343-11.343 6.254 0 11.343 5.088 11.343 11.343 0 6.254-5.089 11.343-11.343 11.343z"/><path d="m312.243 371.808c-14.525 0-26.343 11.817-26.343 26.343s11.817 26.343 26.343 26.343 26.344-11.817 26.344-26.343-11.817-26.343-26.344-26.343zm0 37.686c-6.255 0-11.343-5.088-11.343-11.343 0-6.254 5.088-11.343 11.343-11.343s11.344 5.088 11.344 11.343c0 6.254-5.089 11.343-11.344 11.343z"/><path d="m390.519 371.808c-14.525 0-26.343 11.817-26.343 26.343s11.817 26.343 26.343 26.343c14.525 0 26.343-11.817 26.343-26.343s-11.818-26.343-26.343-26.343zm0 37.686c-6.255 0-11.343-5.088-11.343-11.343 0-6.254 5.088-11.343 11.343-11.343s11.343 5.088 11.343 11.343c0 6.254-5.088 11.343-11.343 11.343z"/><path d="m390.519 296.636c-14.525 0-26.343 11.817-26.343 26.343s11.817 26.343 26.343 26.343c14.525 0 26.343-11.817 26.343-26.343s-11.818-26.343-26.343-26.343zm0 37.686c-6.255 0-11.343-5.088-11.343-11.343 0-6.254 5.088-11.343 11.343-11.343s11.343 5.088 11.343 11.343c0 6.254-5.088 11.343-11.343 11.343z"/><path d="m419.362 177.933h-135.105c-4.143 0-7.5 3.358-7.5 7.5s3.357 7.5 7.5 7.5h135.105c1.379 0 2.5 1.122 2.5 2.5v61.216c0 1.378-1.121 2.5-2.5 2.5h-214.236c-1.378 0-2.5-1.122-2.5-2.5v-61.216c0-1.378 1.122-2.5 2.5-2.5h46.445c4.142 0 7.5-3.358 7.5-7.5s-3.358-7.5-7.5-7.5h-46.445c-9.649 0-17.5 7.851-17.5 17.5v61.216c0 9.649 7.851 17.5 17.5 17.5h214.236c9.649 0 17.5-7.851 17.5-17.5v-61.216c0-9.649-7.851-17.5-17.5-17.5z"/><path d="m455.602 135.637h-18.8v-118.137c0-9.649-7.851-17.5-17.5-17.5h-50.267c-4.143 0-7.5 3.358-7.5 7.5s3.357 7.5 7.5 7.5h50.267c1.379 0 2.5 1.122 2.5 2.5v118.137h-219.236v-118.137c0-1.378 1.121-2.5 2.5-2.5h131.283c4.143 0 7.5-3.358 7.5-7.5s-3.357-7.5-7.5-7.5h-131.283c-9.65 0-17.5 7.851-17.5 17.5v118.137h-36.199v-12.692c0-17.931-14.587-32.518-32.518-32.518h-62.45c-17.931 0-32.518 14.587-32.518 32.518v221.027c0 4.142 3.358 7.5 7.5 7.5s7.5-3.358 7.5-7.5v-221.027c0-9.66 7.858-17.518 17.518-17.518h62.451c9.66 0 17.518 7.858 17.518 17.518v356.537c0 9.66-7.858 17.518-17.518 17.518h-62.451c-9.66 0-17.518-7.858-17.518-17.518v-103.139c0-4.142-3.358-7.5-7.5-7.5s-7.5 3.358-7.5 7.5v103.139c0 17.931 14.587 32.518 32.518 32.518h62.451c17.931 0 32.518-14.587 32.518-32.518v-12.692h304.234c17.931 0 32.518-14.588 32.518-32.518v-266.117c-.001-17.93-14.587-32.518-32.518-32.518zm17.517 298.635c0 9.66-7.858 17.518-17.518 17.518h-304.234v-301.153h304.234c9.659 0 17.518 7.858 17.518 17.518z"/></g></g></svg>