<svg id="Capa_1" enable-background="new 0 0 512 512" height="512" viewBox="0 0 512 512" width="512" xmlns="http://www.w3.org/2000/svg"><g><g><path d="m164.056 471.911c-4.787 0-9.348.036-13.501-1.708-12.564-5.277-21.387-17.698-21.387-32.18v-147.248l59.776-10v157.247c0 19.269-5.62 33.889-24.888 33.889z" fill="#f9f6f9"/><path d="m251.208 146.706-20 52.186 20 61.649 117.815 41.096 65.539-91.553-65.539-104.474z" fill="#f9f6f9"/><path d="m83.01 158.608 2.349 77.011-20.076 12.478c-5.38 0-11.45 11.697-16.384 10.302-23.892-6.755-41.399-28.721-41.399-54.776 0-26.055 17.507-48.021 41.399-54.776 4.933-1.395 9.936 6.13 15.316 6.13z" fill="#245e7c"/><path d="m48.904 148.864v109.519c4.934 1.395 10.133 2.158 15.514 2.158h33.655l-21.169-113.835h-12.486c-5.381 0-10.58.763-15.514 2.158z" fill="#1a4c65"/><path d="m171.944 258.337v179.686c0 14.482-8.824 26.901-21.388 32.178 4.153 1.744 8.713 2.71 13.5 2.71 19.268 0 34.888-15.62 34.888-34.888v-56.18z" fill="#dedbec"/><path d="m189.451 371.941-17.507-91.166-7.888 10v81.068c0 4.798 3.379 8.807 7.887 9.776.681.146 2.082-1.698 2.807-1.698z" fill="#ffe187"/><path d="m174.056 381.843h24.888v-91.068l-27-10v100.84c.681.147 1.387.228 2.112.228z" fill="#ffd26f"/><path d="m208.973 290.775h-101.835c-16.698 0-30.234-13.536-30.234-30.234v-113.835c0-16.698 13.536-30.234 30.234-30.234h101.835c16.698 0 30.234 13.536 30.234 30.234v113.835c.001 16.698-13.536 30.234-30.234 30.234z" fill="#ea7bc1"/><path d="m369.023 105.61c9.075 28.857 13.934 62.575 13.934 98.013s-4.859 69.156-13.934 98.014l45.663 15.928c3.989-12.5 7.289-25.714 9.876-39.448v-148.985c-2.587-13.735-5.887-26.949-9.876-39.45z" fill="#dedbec"/><path d="m435.096 260.541v-113.835h12.486c31.435 0 56.918 25.483 56.918 56.918 0 31.435-25.483 56.918-56.918 56.918h-12.486z" fill="#1a4c65"/><path d="m220.973 116.471h-30c16.698 0 30.234 13.536 30.234 30.234v113.835c0 16.698-13.536 30.234-30.234 30.234h30c16.698 0 30.234-13.536 30.234-30.234v-113.834c.001-16.698-13.536-30.235-30.234-30.235z" fill="#ea5bb1"/><g><path d="m408.06 366.158c-3.635 0-6.997 1.174-10.47-.562-.061-.03-.45-.058-.511-.089-11.815-6.03-16.577-20.471-10.634-32.359 17.096-34.194 26.513-80.193 26.513-129.525 0-49.333-9.416-95.332-26.513-129.525-5.943-11.887-1.181-26.329 10.635-32.359.061-.031.457-.035.518-.065 11.952-5.974 26.844 4.127 32.819 16.074 20.389 40.78 28.916 89.179 28.916 145.875s-11.229 109.379-31.62 150.159c-4.238 8.475-10.781 12.376-19.653 12.376z" fill="#ea7bc1"/></g><path d="m429.713 52.464c-5.975-11.947-20.499-16.791-32.451-10.817-.061.031-.12.065-.18.096 4.444 2.265 8.229 5.918 10.632 10.721 20.389 40.78 31.62 94.463 31.62 151.159s-11.229 110.379-31.62 151.159c-2.402 4.803-6.188 8.455-10.632 10.721.061.031.119.066.181.096 3.473 1.736 7.163 2.559 10.798 2.559 8.872 0 17.415-4.901 21.653-13.376 20.39-40.78 31.62-94.463 31.62-151.159s-11.232-110.379-31.621-151.159z" fill="#ea5bb1"/></g><g><path d="m203.6 164.123h-79.088c-4.143 0-7.5 3.358-7.5 7.5s3.357 7.5 7.5 7.5h79.088c4.143 0 7.5-3.358 7.5-7.5s-3.358-7.5-7.5-7.5z"/><path d="m203.6 228.114h-79.088c-4.143 0-7.5 3.358-7.5 7.5s3.357 7.5 7.5 7.5h79.088c4.143 0 7.5-3.358 7.5-7.5s-3.358-7.5-7.5-7.5z"/><path d="m512 203.619c0-29.455-19.78-54.805-47.758-62.238-5.176-34.272-14.624-65.881-27.822-92.276-7.814-15.625-26.886-21.981-42.514-14.171-15.626 7.814-21.983 26.885-14.171 42.513 2.269 4.538 4.393 9.301 6.379 14.253l-128.784 44.922c-4.421-15.927-19.041-27.655-36.357-27.655h-54.074c-4.143 0-7.5 3.358-7.5 7.5s3.357 7.5 7.5 7.5h54.074c12.536 0 22.734 10.198 22.734 22.734v113.835c0 12.536-10.198 22.734-22.734 22.734h-113.835c-12.536 0-22.734-10.199-22.734-22.734v-113.835c0-12.536 10.198-22.734 22.734-22.734h27.075c4.143 0 7.5-3.358 7.5-7.5s-3.357-7.5-7.5-7.5h-27.075c-18.239 0-33.495 13.008-36.983 30.234h-5.736c-35.522 0-64.419 28.898-64.419 64.418s28.897 64.417 64.418 64.417h5.736c3.488 17.226 18.744 30.234 36.983 30.234h14.53v67.349c0 4.142 3.357 7.5 7.5 7.5s7.5-3.358 7.5-7.5v-67.349h19.888v73.568c0 9.649 7.851 17.5 17.5 17.5h17.389v48.68c0 15.102-12.286 27.388-27.389 27.388-15.102 0-27.388-12.286-27.388-27.388v-39.837c0-4.142-3.357-7.5-7.5-7.5s-7.5 3.358-7.5 7.5v39.837c0 23.373 19.015 42.388 42.388 42.388s42.389-19.015 42.389-42.388v-139.748h14.529c17.316 0 31.935-11.729 36.357-27.656l58.645 20.456c.817.285 1.65.42 2.47.42 3.102 0 6.003-1.938 7.082-5.032 1.363-3.911-.701-8.188-4.612-9.552l-62.207-21.699v-103.18l132.505-46.22c9.268 28.557 14.245 62.261 14.245 97.811s-4.977 69.253-14.245 97.81l-39.444-13.758c-3.911-1.363-8.188.701-9.552 4.611-1.363 3.911.701 8.188 4.612 9.552l39.284 13.703c-1.986 4.952-4.11 9.715-6.379 14.254-7.812 15.628-1.454 34.699 14.174 42.514 4.447 2.223 9.209 3.35 14.15 3.35 12.091 0 22.958-6.714 28.361-17.522 13.197-26.394 22.646-58.002 27.822-92.274 27.979-7.434 47.759-32.784 47.759-62.239zm-497 0c0-27.249 22.169-49.418 49.418-49.418h4.985v98.836h-4.985c-27.249-.001-49.418-22.169-49.418-49.418zm176.444 170.719h-17.389c-1.379 0-2.5-1.122-2.5-2.5v-73.568h19.889zm231.561-22.915c-2.847 5.693-8.573 9.23-14.945 9.23-2.594 0-5.099-.595-7.443-1.767-8.23-4.115-11.577-14.159-7.464-22.389 17.608-35.217 27.306-82.408 27.306-132.879 0-50.472-9.697-97.663-27.306-132.879-4.114-8.231-.766-18.274 7.462-22.389 2.39-1.194 4.93-1.759 7.436-1.759 6.126 0 12.034 3.382 14.955 9.222 19.88 39.761 30.828 92.252 30.828 147.805-.001 55.555-10.949 108.046-30.829 147.805zm43.374-102.077c1.617-14.9 2.454-30.205 2.454-45.727s-.837-30.827-2.454-45.727c18.226 7.453 30.621 25.301 30.621 45.727 0 20.425-12.395 38.273-30.621 45.727z"/></g></g></svg>