<svg id="Capa_1" enable-background="new 0 0 512 512" height="512" viewBox="0 0 512 512" width="512" xmlns="http://www.w3.org/2000/svg"><g><g><g><path d="m256.707 255.293c-3.59-3.59-7.619-6.64-10.674-10.54-37.949-48.45-34.627-118.927 9.967-163.521l37.594-37.594c44.594-44.594 115.071-47.916 163.521-9.967 3.9 3.055 6.951 7.084 10.54 10.674 48.184 48.183 41.82 118.807-6.364 166.99l-37.594 37.594c-48.184 48.184-118.806 54.547-166.99 6.364zm178.163-178.163c-29.716-29.716-78.067-29.716-107.783 0l-37.594 37.594c-29.716 29.716-29.716 78.067 0 107.783s78.068 29.716 107.783 0l37.594-37.594c29.716-29.715 29.716-78.067 0-107.783z" fill="#f9f6f9"/></g><g><path d="m468.362 43.638c-3.59-3.59-7.351-6.906-11.252-9.961 37.948 48.45 34.632 118.923-9.961 163.517l-37.594 37.594c-44.594 44.594-115.066 47.91-163.517 9.961 3.055 3.9 6.371 7.662 9.962 11.252 48.184 48.184 126.585 48.184 174.768 0l37.594-37.594c48.184-48.185 48.184-126.586 0-174.769z" fill="#dedbec"/></g><g><path d="m44.345 467.655c-3.59-3.59-7.619-6.64-10.674-10.54-37.949-48.45-34.627-118.927 9.967-163.521l37.593-37.594c44.594-44.594 115.071-47.916 163.521-9.967 3.9 3.055 6.951 7.084 10.54 10.674 48.184 48.184 41.82 118.806-6.364 166.99l-37.594 37.594c-48.183 48.184-118.806 54.548-166.989 6.364zm178.162-178.163c-29.716-29.716-78.068-29.716-107.783 0l-37.594 37.594c-29.716 29.716-29.716 78.067 0 107.783s78.067 29.716 107.783 0l37.594-37.594c29.716-29.715 29.716-78.066 0-107.783z" fill="#f9f6f9"/></g><g><path d="m256 256c-3.59-3.59-7.351-6.906-11.252-9.962 37.948 48.451 34.632 118.923-9.961 163.517l-37.594 37.594c-44.594 44.594-115.066 47.91-163.517 9.961 3.055 3.9 6.371 7.662 9.961 11.252 48.184 48.184 126.585 48.184 174.769 0l37.594-37.594c48.184-48.183 48.184-126.584 0-174.768z" fill="#dedbec"/></g><path d="m155.006 356.994c-2.527-2.527-5.071-4.777-6.217-7.928-3.048-8.38-1.211-18.136 5.51-24.857l169.909-169.909c6.721-6.721 16.478-8.558 24.857-5.51 3.151 1.146 5.401 3.69 7.928 6.217 9.248 9.248 9.249 22.83 0 32.078l-169.91 169.909c-9.247 9.249-22.828 9.248-32.077 0z" fill="#dedbec"/><path d="m357.701 154.299c-2.527-2.528-5.486-4.359-8.637-5.505 3.048 8.38 1.216 18.134-5.505 24.856l-169.91 169.909c-6.721 6.721-16.476 8.553-24.856 5.505 1.146 3.151 2.978 6.109 5.505 8.637 9.248 9.248 24.244 9.249 33.493 0l169.909-169.909c9.25-9.249 9.249-24.245.001-33.493z" fill="#d1cfe7"/></g><path d="m473.666 38.334c-24.721-24.72-57.638-38.334-92.688-38.334-35.051 0-67.968 13.614-92.688 38.334l-4.496 4.496c-2.929 2.929-2.929 7.678 0 10.606 2.93 2.929 7.678 2.929 10.607 0l4.496-4.496c45.258-45.26 118.903-45.259 164.161 0 45.26 45.259 45.26 118.902 0 164.162l-37.594 37.594c-36.936 36.937-94.173 44.348-139.087 19.025l24.124-24.124c10.582 4.515 21.752 6.722 32.849 6.722 21.737 0 43.173-8.453 59.23-24.509l37.594-37.594c32.64-32.64 32.64-85.749 0-118.39-32.641-32.641-85.751-32.641-118.392 0l-37.594 37.594c-24.354 24.355-31.178 60.732-17.782 92.072l-24.128 24.128c-25.32-44.911-17.905-102.157 19.024-139.087l9.985-9.985c2.93-2.929 2.93-7.677.001-10.606s-7.678-2.93-10.607 0l-9.986 9.985c-39.559 39.559-49.142 99.771-25.614 149.149-49.389-23.568-109.509-14.026-149.155 25.62l-37.592 37.594c-51.107 51.108-51.107 134.267 0 185.375 24.721 24.721 57.638 38.335 92.687 38.335 35.051 0 67.968-13.614 92.689-38.335l37.594-37.594c39.611-39.612 49.168-99.78 25.609-149.167 17.852 8.51 37.112 12.706 56.31 12.705 33.9-.003 67.587-13.044 92.85-38.306l37.594-37.594c51.106-51.108 51.106-134.267-.001-185.375zm-178.87 81.693 37.594-37.594c26.793-26.792 70.388-26.791 97.177 0 26.792 26.792 26.792 70.385 0 97.177l-37.594 37.594c-18.437 18.437-45.506 24.642-69.826 16.748l40.858-40.858c12.157-12.158 12.157-31.941-.001-44.1-12.158-12.157-31.941-12.157-44.1.001l-40.869 40.869c-7.932-24.328-1.758-51.318 16.761-69.837zm34.715 39.575c6.311-6.31 16.578-6.309 22.887 0 6.31 6.31 6.31 16.577 0 22.886l-169.908 169.91c-6.311 6.31-16.578 6.309-22.887 0s-6.309-16.577 0-22.886l6.476-6.476c2.929-2.929 2.929-7.678 0-10.606-2.93-2.929-7.678-2.929-10.607 0l-6.476 6.476c-12.157 12.158-12.157 31.941.001 44.1 6.079 6.079 14.064 9.118 22.05 9.118s15.971-3.04 22.05-9.118l40.862-40.862c7.913 24.325 1.724 51.353-16.752 69.83l-17.986 17.985c-2.93 2.929-2.93 7.678-.001 10.607 1.465 1.464 3.384 2.197 5.304 2.197 1.919 0 3.839-.732 5.303-2.197l17.987-17.985c24.301-24.302 31.155-60.742 17.78-92.07l24.134-24.134c25.338 44.924 17.946 102.116-19.029 139.09l-37.594 37.594c-21.889 21.885-51.04 33.939-82.084 33.939-31.043 0-60.193-12.054-82.08-33.941-45.26-45.259-45.26-118.902 0-164.162l37.594-37.594c37.01-37.01 94.161-44.385 139.092-19.031l-24.136 24.136c-31.333-13.384-67.742-6.547-92.072 17.782l-37.594 37.594c-32.64 32.64-32.64 85.75 0 118.39 16.278 16.277 37.735 24.493 59.232 24.493 19.803 0 39.64-6.972 55.49-21.038 3.099-2.749 3.382-7.49.632-10.588-2.747-3.097-7.488-3.381-10.587-.632-27.132 24.074-68.491 22.827-94.16-2.842-26.792-26.792-26.792-70.385 0-97.177l37.594-37.594c18.497-18.498 45.507-24.679 69.833-16.757l-11.278 11.278c-2.929 2.929-2.929 7.678 0 10.606 2.93 2.929 7.678 2.929 10.607 0z"/></g></svg>