<svg id="Capa_1" enable-background="new 0 0 512 512" height="512" viewBox="0 0 512 512" width="512" xmlns="http://www.w3.org/2000/svg"><g><g><path d="m263.648 504.5h-25.295c-2.761 0-5-2.239-5-5v-172.55h35.295v172.55c0 2.761-2.239 5-5 5z" fill="#f9f6f9"/><path d="m260.648 326.95v172.55c0 2.762-2.239 5-5 5h18c2.761 0 5-2.238 5-5v-172.55z" fill="#dedbec"/><path d="m366.263 348.622h-239.526c-5.523 0-10-4.477-10-10v-33.346l259.527-10v43.346c-.001 5.523-4.478 10-10.001 10z" fill="#245e7c"/><path d="m365.263 295.277v43.345c0 5.523-4.477 10-10 10h30c5.523 0 10-4.477 10-10v-33.345z" fill="#1a4c65"/><path d="m59.621 295.277h235.177l83.79-207.581h-245.177c-51.799 0-93.79 41.991-93.79 93.79v74.211l10 29.579c0 5.524 4.477 10.001 10 10.001z" fill="#ea7bc1"/><path d="m39.621 255.697v39.579c0 5.523 4.477 10 10 10h245.177l19.093-49.579z" fill="#f9f6f9"/><path d="m452.379 305.277h-157.581c-5.523 0-10-4.477-10-10v-113.79c0-46.693 34.121-85.417 78.789-92.597 4.884-.785 9.895-.193 15.001-.193 51.799 0 83.79 40.991 83.79 92.79v113.79c.001 5.523-4.476 10-9.999 10z" fill="#95c7f8"/><path d="m378.589 87.696c-5.106 0-10.115.414-15 1.199 44.668 7.181 78.79 45.898 78.79 92.591v113.79c0 5.523-4.477 10-10 10h30c5.523 0 10-4.477 10-10v-113.79c0-51.799-41.991-93.79-93.79-93.79z" fill="#75b5f8"/><path d="m108.283 50.162h54.78c11.781 0 21.331-9.55 21.331-21.331 0-11.781-9.55-21.331-21.331-21.331h-54.78c-5.523 0-10 4.477-10 10v22.662c0 5.523 4.477 10 10 10z" fill="#ea7bc1"/><path d="m173.063 7.5h-23c11.781 0 21.331 9.55 21.331 21.331 0 11.781-9.55 21.331-21.331 21.331h23c11.781 0 21.331-9.55 21.331-21.331 0-11.781-9.55-21.331-21.331-21.331z" fill="#ea5bb1"/><path d="m190.982 196.486c0 9.714-6.874 16.588-16.588 16.588-1.557 0-3.068.798-4.505.418-7.531-1.99-13.082-8.849-13.082-17.006 0-8.156 5.552-15.016 13.082-17.006 1.438-.38 2.948.418 4.505.418 9.713.001 16.588 6.875 16.588 16.588z" fill="#ffe187"/><path d="m174.394 178.899c-1.558 0-3.061.222-4.5.603 7.529 1.991 13.088 8.83 13.088 16.985s-5.559 14.994-13.088 16.985c1.439.38 2.942.603 4.5.603 9.714 0 17.588-7.874 17.588-17.588s-7.875-17.588-17.588-17.588z" fill="#ffd26f"/></g><g><path d="m387.763 312.777v25.845c0 1.379-1.122 2.5-2.5 2.5h-52.945c-4.142 0-7.5 3.357-7.5 7.5 0 4.142 3.358 7.5 7.5 7.5h52.945c9.649 0 17.5-7.851 17.5-17.5v-25.845h59.616c9.649 0 17.5-7.851 17.5-17.5v-113.791c0-55.851-45.439-101.29-101.29-101.29h-88.166c-4.142 0-7.5 3.357-7.5 7.5s3.358 7.5 7.5 7.5h35.179c-28.957 17.847-48.303 49.85-48.303 86.29v66.711h-230.178v-18.26c0-4.143-3.358-7.5-7.5-7.5s-7.5 3.357-7.5 7.5v65.34c0 9.649 7.851 17.5 17.5 17.5h59.616v25.845c0 9.649 7.851 17.5 17.5 17.5h99.116v143.378c0 6.893 5.607 12.5 12.5 12.5h35.295c6.893 0 12.5-5.607 12.5-12.5v-143.378h13.484c4.142 0 7.5-3.358 7.5-7.5 0-4.143-3.358-7.5-7.5-7.5h-172.895c-1.378 0-2.5-1.121-2.5-2.5v-25.845zm-116.616 184.223h-30.295v-140.878h30.295zm-224.026-201.723v-32.08h230.177v32.08c0 .851.082 1.681.2 2.5h-227.877c-1.378 0-2.5-1.121-2.5-2.5zm417.758 0c0 1.379-1.122 2.5-2.5 2.5h-167.581c-1.378 0-2.5-1.121-2.5-2.5v-113.791c0-47.58 38.71-86.29 86.29-86.29 47.581 0 86.29 38.71 86.29 86.29v113.791z"/><path d="m422.535 163.05h-87.893c-4.142 0-7.5 3.357-7.5 7.5s3.358 7.5 7.5 7.5h87.893c4.142 0 7.5-3.357 7.5-7.5s-3.358-7.5-7.5-7.5z"/><path d="m39.621 204.751c4.142 0 7.5-3.357 7.5-7.5v-15.765c0-47.58 38.71-86.29 86.291-86.29h33.482v77.348c-10.182 3.196-17.588 12.72-17.588 23.942 0 13.834 11.254 25.088 25.088 25.088s25.088-11.254 25.088-25.088c0-11.222-7.407-20.746-17.588-23.942v-77.348h75.842c4.142 0 7.5-3.357 7.5-7.5s-3.358-7.5-7.5-7.5h-75.842v-23.923c11.59-3.739 20-14.625 20-27.442 0-15.897-12.934-28.831-28.831-28.831h-64.78c-9.649 0-17.5 7.851-17.5 17.5v22.662c0 9.649 7.851 17.5 17.5 17.5h58.611v22.534h-33.482c-55.852 0-101.291 45.439-101.291 101.29v15.765c0 4.143 3.358 7.5 7.5 7.5zm134.773 1.823c-5.563 0-10.088-4.525-10.088-10.088s4.525-10.088 10.088-10.088c5.562 0 10.088 4.525 10.088 10.088s-4.526 10.088-10.088 10.088zm-68.611-166.412v-22.662c0-1.379 1.122-2.5 2.5-2.5h64.78c7.626 0 13.831 6.204 13.831 13.831s-6.204 13.831-13.831 13.831h-64.78c-1.378 0-2.5-1.121-2.5-2.5z"/></g></g></svg>