<svg id="Capa_1" enable-background="new 0 0 512 512" height="512" viewBox="0 0 512 512" width="512" xmlns="http://www.w3.org/2000/svg"><g><g><path d="m78.829 7.5h-46.329c-13.807 0-25 11.193-25 25v447c0 13.807 11.193 25 25 25h42.828l384.172-20c13.807 0 25-11.193 25-25v-382.733c0-13.807-11.193-25-25-25h-124.764l-6.966-2-8.034 2h-178.698c-7.07 0-13.809-2.993-18.549-8.239l-25.11-27.789c-4.741-5.246-11.48-8.239-18.55-8.239z" fill="#ffe187"/><g><path d="m479.5 51.767h-30c13.807 0 25 11.193 25 25v382.733c0 13.807-11.193 25-25 25h20c13.807 0 25-11.193 25-25l10-340.351v-42.382c0-13.807-11.193-25-25-25z" fill="#ffd26f"/></g><path d="m460.5 484.5-345.566 20h-39.606c-13.807 0-25-11.193-25-25v-360.351c0-13.807 11.193-25 25-25h385.172c13.807 0 25 11.193 25 25v340.351c0 13.807-11.193 25-25 25z" fill="#f9f6f9"/><path d="m479.5 94.149h-30c13.807 0 25 11.193 25 25v350.351c0 13.807-11.193 25-25 25h20c13.807 0 25-11.193 25-25l10-314.566v-35.784c0-13.808-11.193-25.001-25-25.001z" fill="#dedbec"/><path d="m460.5 504.5h-345.566c-13.807 0-25-11.193-25-25v-324.566c0-13.807 11.193-25 25-25h345.566c13.807 0 25 11.193 25 25v324.566c0 13.807-11.193 25-25 25z" fill="#ffe187"/><path d="m479.5 129.934h-30c13.807 0 25 11.193 25 25v324.566c0 13.807-11.193 25-25 25h30c13.807 0 25-11.193 25-25v-324.566c0-13.808-11.193-25-25-25z" fill="#ffd26f"/><path d="m368.756 464.5h90.744c2.761 0 5-2.239 5-5v-24.422c0-2.762-2.239-5-5-5h-90.744c-2.761 0-5 2.238-5 5v24.422c0 2.761 2.239 5 5 5z" fill="#f9f6f9"/></g><g><path d="m459.5 472c6.893 0 12.5-5.607 12.5-12.5v-24.422c0-6.893-5.607-12.5-12.5-12.5h-90.744c-6.893 0-12.5 5.607-12.5 12.5v24.422c0 6.893 5.607 12.5 12.5 12.5zm-88.244-34.422h85.744v19.422h-85.744z"/><path d="m479.5 512c17.92 0 32.5-14.579 32.5-32.5v-402.732c0-17.921-14.58-32.5-32.5-32.5h-71.724v-.248c0-24.272-19.748-44.02-44.02-44.02s-44.02 19.747-44.02 44.02v.248h-84.948c-4.142 0-7.5 3.357-7.5 7.5s3.358 7.5 7.5 7.5h157.988v27.382h-317.448c-17.92 0-32.5 14.579-32.5 32.5v93.545c0 4.143 3.358 7.5 7.5 7.5s7.5-3.357 7.5-7.5v-93.545c0-9.649 7.851-17.5 17.5-17.5h317.448v20.784h-277.842c-17.92 0-32.5 14.579-32.5 32.5v228.248c0 4.143 3.358 7.5 7.5 7.5s7.5-3.357 7.5-7.5v-228.248c0-9.649 7.851-17.5 17.5-17.5h277.842v65.533c0 16.001-13.019 29.02-29.02 29.02s-29.02-13.018-29.02-29.02v-29.039c0-4.143-3.358-7.5-7.5-7.5s-7.5 3.357-7.5 7.5v29.039c0 24.273 19.747 44.02 44.02 44.02 24.272 0 44.02-19.747 44.02-44.02v-65.533h71.724c9.649 0 17.5 7.851 17.5 17.5v324.566c0 9.649-7.851 17.5-17.5 17.5h-364.566c-9.649 0-17.5-7.851-17.5-17.5v-63.632c0-4.143-3.358-7.5-7.5-7.5s-7.5 3.357-7.5 7.5v63.632c0 6.441 1.891 12.444 5.135 17.5h-12.241c-9.649 0-17.5-7.851-17.5-17.5v-234.119c0-4.143-3.358-7.5-7.5-7.5s-7.5 3.357-7.5 7.5v234.119c0 6.441 1.891 12.444 5.136 17.5h-15.464c-9.649 0-17.5-7.851-17.5-17.5v-447c0-9.649 7.851-17.5 17.5-17.5h46.329c4.94 0 9.673 2.103 12.984 5.768l25.11 27.789c6.15 6.807 14.94 10.711 24.114 10.711h61.064c4.142 0 7.5-3.357 7.5-7.5s-3.358-7.5-7.5-7.5h-61.064c-4.94 0-9.673-2.103-12.985-5.768l-25.11-27.789c-6.149-6.807-14.938-10.711-24.113-10.711h-46.329c-17.92 0-32.5 14.579-32.5 32.5v447c0 17.921 14.58 32.5 32.5 32.5zm-144.764-467.732v-.248c0-16.001 13.018-29.02 29.02-29.02 16.001 0 29.02 13.019 29.02 29.02v.248zm73.04 15h71.724c9.649 0 17.5 7.851 17.5 17.5v15.017c-5.056-3.245-11.059-5.135-17.5-5.135h-71.724zm71.724 63.166h-71.724v-20.784h71.724c9.649 0 17.5 7.851 17.5 17.5v8.42c-5.056-3.245-11.059-5.136-17.5-5.136z"/></g></g></svg>