<svg id="Capa_1" enable-background="new 0 0 512 512" height="512" viewBox="0 0 512 512" width="512" xmlns="http://www.w3.org/2000/svg"><g><g><path d="m256 8.5c-2.994 0-5.86-.45-8.502.554-9.025 3.429-15.439 12.159-15.439 22.387v87.326h47.881l-10-87.326c.001-13.222-.718-22.941-13.94-22.941z" fill="#f9f6f9"/><path d="m256 7.5c-2.994 0-5.858.554-8.5 1.559 9.025 3.429 15.441 12.154 15.441 22.382v87.326h17v-87.326c0-13.222-10.719-23.941-23.941-23.941z" fill="#dedbec"/><path d="m393.604 406.076-285.208-83.16v-89.363c0-76.424 58.082-139.283 132.512-146.842 4.962-.504 9.997.238 15.092.238 81.52 0 137.604 65.085 137.604 146.604z" fill="#ffe187"/><path d="m108.396 322.917v73.159l265.208 20 10-60.146-10-33.013z" fill="#f9f6f9"/><path d="m256 85.95c-5.064 0-10.068.256-15 .754 74.474 7.517 132.604 70.394 132.604 146.85v182.522l30-20v-162.522c0-81.519-66.084-147.604-147.604-147.604z" fill="#ffd26f"/><path d="m373.604 322.917v93.159l30-20v-73.159z" fill="#dedbec"/><path d="m300.212 450.288c0-29.94-14.272-54.212-44.212-54.212s-54.212 24.271-54.212 54.212c0 25.28 17.303 46.518 40.712 52.518 4.316 1.106 8.839.694 13.5.694 29.94 0 44.212-23.272 44.212-53.212z" fill="#245e7c"/><path d="m256 396.076c-4.661 0-9.184.589-13.5 1.696 23.409 6 40.712 27.237 40.712 52.516 0 25.28-17.303 46.517-40.712 52.516 4.316 1.106 8.839 1.696 13.5 1.696 29.94 0 54.212-24.272 54.212-54.212s-24.272-54.212-54.212-54.212z" fill="#1a4c65"/><path d="m464.099 160.401c0-33.963-26.532-60.495-60.495-60.495-3.756 0-7.433-.663-11.003-.018-28.712 5.187-50.491 30.306-50.491 60.513 0 30.206 21.779 55.326 50.491 60.513 3.57.645 7.247-.018 11.003-.018 33.963 0 60.495-26.533 60.495-60.495z" fill="#ea7bc1"/><path d="m403.604 98.906c-3.757 0-7.429.355-11 1.001 28.711 5.188 50.495 30.289 50.495 60.494s-21.784 55.306-50.495 60.494c3.571.645 7.243 1.001 11 1.001 33.963 0 61.495-27.532 61.495-61.495s-27.532-61.495-61.495-61.495z" fill="#ea5bb1"/><path d="m428.227 449.819h-354.454c-14.841 0-26.872-12.031-26.872-26.872 0-14.841 12.031-26.872 26.872-26.872h354.454c14.841 0 26.872 12.031 26.872 26.872 0 14.842-12.031 26.872-26.872 26.872z" fill="#ffe187"/><path d="m438.227 396.076h-30c14.841 0 26.872 12.031 26.872 26.872 0 14.841-12.031 26.872-26.872 26.872h30c14.841 0 26.872-12.031 26.872-26.872 0-14.841-12.031-26.872-26.872-26.872z" fill="#ffd26f"/></g><g><path d="m403.605 173.592c4.143 0 7.5-3.357 7.5-7.5v-36.199c0-4.143-3.357-7.5-7.5-7.5s-7.5 3.357-7.5 7.5v36.199c0 4.142 3.357 7.5 7.5 7.5z"/><path d="m403.604 198.41c4.142 0 7.5-3.358 7.5-7.5 0-4.142-3.358-7.5-7.5-7.5s-7.5 3.358-7.5 7.5c0 4.142 3.358 7.5 7.5 7.5z"/><path d="m438.228 388.576h-27.123v-155.022c0-1.517-.03-3.04-.074-4.564 34.563-3.717 61.568-33.054 61.568-68.589 0-31.107-20.949-58.497-50.944-66.608-4.002-1.077-8.117 1.284-9.198 5.282-1.081 3.999 1.284 8.117 5.282 9.198 23.47 6.346 39.86 27.781 39.86 52.128 0 29.772-24.222 53.994-53.994 53.994-29.773 0-53.995-24.222-53.995-53.994 0-24.178 16.249-45.575 39.515-52.034 3.991-1.107 6.329-5.241 5.221-9.232s-5.243-6.331-9.232-5.221c-12.352 3.429-23.148 10.159-31.559 19.061-19.314-15.637-42.002-26.322-66.113-31.308v-50.227c-.002-17.336-14.106-31.44-31.442-31.44s-31.44 14.104-31.44 31.44v50.215c-70.502 14.573-123.664 77.143-123.664 151.898v16.753c0 4.143 3.358 7.5 7.5 7.5s7.5-3.357 7.5-7.5v-16.753c0-77.253 62.851-140.103 140.104-140.103 32.315 0 63.543 11.15 88.481 31.482-6.295 10.478-9.872 22.666-9.872 35.47 0 35.478 26.921 64.776 61.406 68.568.049 1.53.089 3.061.089 4.585v81.863h-280.208v-32.425c0-4.143-3.358-7.5-7.5-7.5s-7.5 3.357-7.5 7.5v105.584h-27.123c-18.953 0-34.371 15.419-34.371 34.372 0 18.952 15.419 34.371 34.371 34.371h120.927c3.503 30.727 29.651 54.68 61.3 54.68 31.65 0 57.797-23.953 61.3-54.681h120.928c18.952 0 34.371-15.419 34.371-34.371 0-18.953-15.419-34.372-34.371-34.372zm-198.668-309.254v-47.882c0-9.065 7.375-16.44 16.44-16.44s16.44 7.375 16.44 16.44v47.89c-5.438-.579-10.924-.88-16.44-.88-5.553 0-11.037.3-16.44.872zm-123.664 251.095h280.208v58.159h-280.208zm140.104 166.583c-23.367 0-42.781-17.248-46.182-39.681h92.364c-3.401 22.433-22.815 39.681-46.182 39.681zm182.228-54.681h-364.455c-10.682 0-19.371-8.689-19.371-19.371s8.69-19.372 19.371-19.372h364.455c10.682 0 19.371 8.69 19.371 19.372s-8.69 19.371-19.371 19.371z"/></g></g></svg>