<svg id="Capa_1" enable-background="new 0 0 512 512" height="512" viewBox="0 0 512 512" width="512" xmlns="http://www.w3.org/2000/svg"><g><g><path d="m463.182 423.289c0-14.688 10.111-27.015 23.753-30.398 4.449-1.104 7.565-5.107 7.565-9.691v-31.347c0-4.584-3.116-8.588-7.565-9.691-13.642-3.384-23.753-15.71-23.753-30.398s10.111-27.015 23.753-30.398c4.449-1.103 7.565-5.107 7.565-9.691v-31.347c0-4.584-3.116-8.588-7.565-9.691-13.642-3.384-23.753-15.71-23.753-30.398s10.111-27.015 23.753-30.398c4.449-1.104 7.565-5.107 7.565-9.691v-31.35c0-4.584-3.116-8.588-7.565-9.691-13.642-3.384-23.753-15.71-23.753-30.398s10.111-27.015 23.753-30.398c4.449-1.104 7.565-5.107 7.565-9.691v-31.122c0-5.523-4.477-10-10-10h-21.121c-4.584 0-8.588 3.116-9.691 7.565-3.384 13.642-15.71 23.753-30.398 23.753s-27.015-10.111-30.398-23.753c-1.104-4.449-5.107-7.565-9.691-7.565h-31.347c-4.584 0-8.588 3.116-9.691 7.565-3.384 13.642-15.71 23.753-30.398 23.753s-27.015-10.111-30.399-23.753c-1.103-4.449-5.107-7.565-9.691-7.565h-31.347c-4.584 0-8.588 3.116-9.691 7.565-3.384 13.642-15.71 23.753-30.399 23.753-14.688 0-27.014-10.111-30.398-23.753-1.104-4.449-5.107-7.565-9.691-7.565h-31.349c-4.584 0-8.588 3.116-9.691 7.565-3.384 13.642-15.71 23.753-30.398 23.753s-27.015-10.111-30.399-23.753c-1.103-4.449-5.107-7.565-9.691-7.565h-31.121c-5.523 0-10 4.477-10 10v31.121c0 4.584 3.116 8.588 7.565 9.691 13.642 3.384 23.753 15.71 23.753 30.398s-10.112 27.015-23.753 30.398c-4.449 1.104-7.565 5.107-7.565 9.691v31.347c0 4.584 3.116 8.588 7.565 9.691 13.642 3.384 23.753 15.71 23.753 30.398s-10.112 27.015-23.753 30.398c-4.449 1.104-7.565 5.107-7.565 9.691v31.347c0 4.584 3.116 8.588 7.565 9.691 13.642 3.384 23.753 15.71 23.753 30.398s-10.112 27.015-23.753 30.398c-4.449 1.104-7.565 5.107-7.565 9.691v31.351c0 4.584 3.116 8.588 7.565 9.691 13.642 3.384 23.753 15.71 23.753 30.398s-10.112 27.015-23.753 30.398c-4.449 1.104-7.565 5.107-7.565 9.691v31.122c0 5.523 4.477 10 10 10h31.121c4.584 0 8.588-3.116 9.691-7.565 3.384-13.642 15.71-23.753 30.399-23.753s27.015 10.111 30.398 23.753c1.104 4.449 5.107 7.565 9.691 7.565h31.347c4.584 0 8.588-3.116 9.691-7.565 3.384-13.642 15.71-23.753 30.398-23.753s27.015 10.111 30.399 23.753c1.104 4.449 5.107 7.565 9.691 7.565h31.347c4.584 0 8.588-3.116 9.691-7.565 3.384-13.642 15.71-23.753 30.399-23.753 14.688 0 27.014 10.111 30.398 23.753 1.104 4.449 5.107 7.565 9.691 7.565h31.348c4.584 0 8.588-3.116 9.691-7.565 3.384-13.642 15.71-23.753 30.398-23.753s27.015 10.111 30.399 23.753c1.104 4.449 5.107 7.565 9.691 7.565h21.121c5.523 0 10-4.477 10-10v-31.121c0-4.584-3.116-8.588-7.565-9.691-13.642-3.384-23.753-15.71-23.753-30.399z" fill="#ffe187"/><g><path d="m496.935 58.312c4.449-1.104 7.565-5.107 7.565-9.691v-31.121c0-5.523-4.477-10-10-10h-30c5.523 0 10 4.477 10 10v31.121c0 4.584-3.116 8.588-7.565 9.691-13.642 3.384-23.753 15.71-23.753 30.398s10.111 27.015 23.753 30.398c4.449 1.104 7.565 5.107 7.565 9.691v31.347c0 4.584-3.116 8.588-7.565 9.691-13.642 3.384-23.753 15.71-23.753 30.398s10.111 27.015 23.753 30.398c4.449 1.104 7.565 5.107 7.565 9.691v31.347c0 4.584-3.116 8.588-7.565 9.691-13.642 3.384-23.753 15.71-23.753 30.398s10.111 27.015 23.753 30.398c4.449 1.104 7.565 5.107 7.565 9.691v31.351c0 4.584-3.116 8.588-7.565 9.691-13.642 3.384-23.753 15.71-23.753 30.398s10.111 27.015 23.753 30.398c4.449 1.104 7.565 5.107 7.565 9.691v31.122c0 5.523-4.477 10-10 10h30c5.523 0 10-4.477 10-10v-31.121c0-4.584-3.116-8.588-7.565-9.691-13.642-3.384-23.753-15.71-23.753-30.398s10.111-27.015 23.753-30.398c4.449-1.104 7.565-5.107 7.565-9.691v-31.347c0-4.584-3.116-8.588-7.565-9.691-13.642-3.384-23.753-15.71-23.753-30.398s10.111-27.015 23.753-30.398c4.449-1.104 7.565-5.107 7.565-9.691v-31.347c0-4.584-3.116-8.588-7.565-9.691-13.642-3.384-23.753-15.71-23.753-30.398s10.111-27.015 23.753-30.398c4.449-1.104 7.565-5.107 7.565-9.691v-31.351c0-4.584-3.116-8.588-7.565-9.691-13.642-3.384-23.753-15.71-23.753-30.398 0-14.689 10.111-27.015 23.753-30.399z" fill="#ffd26f"/></g><path d="m407.686 427.686h-313.372c-5.523 0-10-4.477-10-10v-323.372c0-5.523 4.477-10 10-10h313.372c5.523 0 10 4.477 10 10v323.372c0 5.523-4.477 10-10 10z" fill="#95c7f8"/><path d="m417.686 84.314h-30c5.523 0 10 4.477 10 10v323.372c0 5.523-4.477 10-10 10h30c5.523 0 10-4.477 10-10v-323.372c0-5.523-4.477-10-10-10z" fill="#75b5f8"/><ellipse cx="202.995" cy="170.75" fill="#ffe187" rx="41.939" ry="41.939" transform="matrix(.707 -.707 .707 .707 -61.283 193.551)"/></g><g><g><path d="m204.006 285.155c-14.48 0-29.025-3.061-42.355-9.293l-37.189-17.384c-3.753-1.754-5.373-6.218-3.618-9.97 1.753-3.753 6.216-5.375 9.97-3.618l37.189 17.384c27.007 12.623 59.857 9.979 83.689-6.731 28.149-19.737 66.872-22.892 98.652-8.039l37.193 17.386c3.753 1.754 5.373 6.218 3.619 9.97-1.755 3.753-6.217 5.373-9.971 3.618l-37.193-17.385c-27.005-12.622-59.855-9.98-83.689 6.731-16.342 11.46-36.254 17.331-56.297 17.331z"/></g><g><path d="m204.006 390.692c-14.48 0-29.026-3.062-42.355-9.293l-37.189-17.382c-3.753-1.755-5.373-6.219-3.619-9.971 1.754-3.753 6.217-5.372 9.971-3.619l37.189 17.384c27.004 12.622 59.854 9.98 83.689-6.73 28.149-19.736 66.872-22.893 98.652-8.038l37.193 17.386c3.753 1.754 5.373 6.218 3.618 9.97-1.754 3.752-6.216 5.373-9.97 3.618l-37.193-17.386c-27.007-12.623-59.855-9.979-83.689 6.731-16.343 11.46-36.255 17.33-56.297 17.33z"/></g><g><path d="m202.995 220.189c-27.261 0-49.439-22.179-49.439-49.439s22.179-49.438 49.439-49.438c27.261 0 49.438 22.178 49.438 49.438s-22.177 49.439-49.438 49.439zm0-83.878c-18.99 0-34.439 15.449-34.439 34.439s15.449 34.439 34.439 34.439c18.989 0 34.438-15.449 34.438-34.439.001-18.989-15.449-34.439-34.438-34.439z"/></g><g><path d="m384.357 331.955c-1.063 0-2.143-.228-3.171-.708l-37.193-17.385c-7.684-3.591-15.949-5.988-24.566-7.126-4.106-.542-6.996-4.31-6.454-8.417.542-4.106 4.312-6.997 8.417-6.454 10.139 1.339 19.881 4.167 28.955 8.408l37.193 17.386c3.753 1.754 5.373 6.218 3.619 9.97-1.274 2.725-3.977 4.326-6.8 4.326z"/></g><g><path d="m204.006 337.924c-14.48 0-29.025-3.061-42.355-9.293l-37.189-17.384c-3.753-1.754-5.373-6.218-3.618-9.97 1.753-3.754 6.216-5.374 9.97-3.618l37.189 17.384c27.007 12.623 59.857 9.979 83.689-6.73 9.883-6.929 21.077-11.875 33.272-14.703 4.035-.934 8.064 1.578 9 5.612.935 4.035-1.578 8.065-5.612 9.001-10.312 2.391-19.749 6.553-28.049 12.372-16.342 11.458-36.254 17.329-56.297 17.329z"/></g><g><path d="m417.685 435.185h-323.371c-9.649 0-17.5-7.85-17.5-17.5v-188.653c0-4.143 3.357-7.5 7.5-7.5s7.5 3.357 7.5 7.5v188.653c0 1.379 1.121 2.5 2.5 2.5h323.371c1.379 0 2.5-1.121 2.5-2.5v-323.371c0-1.379-1.121-2.5-2.5-2.5h-323.371c-1.379 0-2.5 1.121-2.5 2.5v102.031c0 4.143-3.357 7.5-7.5 7.5s-7.5-3.357-7.5-7.5v-102.031c0-9.649 7.851-17.5 17.5-17.5h323.371c9.65 0 17.5 7.851 17.5 17.5v323.371c0 9.65-7.85 17.5-17.5 17.5z"/></g><g><path d="m494.5 512h-31.121c-8.056 0-15.034-5.453-16.971-13.26-2.638-10.633-12.145-18.059-23.119-18.059-10.975 0-20.482 7.426-23.119 18.059-1.936 7.807-8.915 13.26-16.971 13.26h-31.347c-8.056 0-15.034-5.453-16.971-13.26-2.638-10.633-12.143-18.059-23.118-18.059-10.976 0-20.482 7.426-23.12 18.059-1.937 7.807-8.915 13.26-16.971 13.26h-31.346c-8.056 0-15.034-5.453-16.971-13.26-2.638-10.633-12.145-18.059-23.12-18.059s-20.48 7.426-23.118 18.059c-1.937 7.807-8.915 13.26-16.971 13.26h-31.347c-8.056 0-15.034-5.453-16.971-13.26-2.638-10.633-12.145-18.059-23.119-18.059s-20.481 7.426-23.119 18.059c-1.935 7.807-8.913 13.26-16.969 13.26h-31.121c-9.649 0-17.5-7.851-17.5-17.5v-31.121c0-8.056 5.453-15.034 13.26-16.971 10.633-2.638 18.059-12.145 18.059-23.119 0-10.975-7.426-20.482-18.059-23.119-7.807-1.937-13.26-8.915-13.26-16.971v-31.347c0-8.056 5.453-15.034 13.26-16.971 10.633-2.638 18.059-12.145 18.059-23.119s-7.426-20.481-18.059-23.119c-7.807-1.936-13.26-8.915-13.26-16.97v-31.347c0-8.055 5.453-15.033 13.26-16.97 10.633-2.638 18.059-12.145 18.059-23.119 0-10.975-7.426-20.481-18.059-23.119-7.808-1.938-13.26-8.917-13.26-16.97v-31.347c0-8.056 5.453-15.034 13.26-16.971 10.633-2.638 18.059-12.145 18.059-23.119s-7.426-20.482-18.059-23.119c-7.807-1.937-13.26-8.915-13.26-16.971v-31.121c0-9.649 7.851-17.5 17.5-17.5h31.121c8.056 0 15.034 5.453 16.971 13.26 2.638 10.633 12.145 18.059 23.119 18.059s20.481-7.426 23.119-18.059c1.937-7.807 8.915-13.26 16.971-13.26h31.347c8.056 0 15.034 5.453 16.971 13.26 1.405 5.666 4.854 10.612 9.709 13.929 3.421 2.336 4.3 7.002 1.964 10.423s-7.003 4.301-10.423 1.964c-7.902-5.396-13.517-13.459-15.809-22.705-.273-1.101-1.266-1.87-2.412-1.87h-31.347c-1.146 0-2.139.769-2.412 1.871-4.301 17.338-19.794 29.447-37.678 29.447s-33.377-12.11-37.678-29.448c-.273-1.102-1.265-1.871-2.412-1.871h-31.121c-1.379 0-2.5 1.121-2.5 2.5v31.121c0 1.146.769 2.139 1.871 2.412 17.338 4.301 29.447 19.794 29.447 37.678s-12.109 33.377-29.447 37.678c-1.102.273-1.871 1.266-1.871 2.412v31.347c0 1.146.769 2.139 1.872 2.412 17.337 4.301 29.446 19.794 29.446 37.678s-12.109 33.377-29.447 37.678c-1.102.273-1.871 1.264-1.871 2.41v31.347c0 1.146.769 2.139 1.871 2.412 17.338 4.301 29.447 19.794 29.447 37.678s-12.109 33.377-29.447 37.678c-1.102.273-1.871 1.266-1.871 2.412v31.347c0 1.147.769 2.139 1.871 2.412 17.338 4.301 29.447 19.794 29.447 37.678s-12.109 33.377-29.447 37.678c-1.102.272-1.871 1.264-1.871 2.411v31.121c0 1.379 1.121 2.5 2.5 2.5h31.121c1.146 0 2.139-.77 2.412-1.871 4.301-17.338 19.794-29.447 37.678-29.447s33.377 12.109 37.678 29.447c.273 1.102 1.266 1.871 2.412 1.871h31.347c1.146 0 2.139-.77 2.412-1.871 4.301-17.338 19.794-29.447 37.677-29.447 17.884 0 33.378 12.109 37.679 29.447.274 1.102 1.266 1.871 2.412 1.871h31.346c1.146 0 2.139-.77 2.412-1.871 4.301-17.338 19.795-29.447 37.679-29.447 17.883 0 33.376 12.109 37.677 29.447.273 1.102 1.266 1.871 2.412 1.871h31.347c1.147 0 2.139-.77 2.412-1.871 4.301-17.338 19.794-29.447 37.678-29.447s33.377 12.109 37.678 29.447c.273 1.102 1.266 1.871 2.412 1.871h31.119c1.379 0 2.5-1.121 2.5-2.5v-31.121c0-1.147-.77-2.139-1.871-2.412-17.338-4.301-29.447-19.794-29.447-37.678s12.109-33.377 29.447-37.678c1.102-.273 1.871-1.266 1.871-2.412v-31.347c0-1.146-.77-2.139-1.871-2.412-17.338-4.301-29.447-19.794-29.447-37.678s12.109-33.377 29.447-37.678c1.102-.273 1.871-1.266 1.871-2.412v-31.347c0-1.146-.77-2.138-1.871-2.411-17.338-4.301-29.447-19.794-29.447-37.678s12.109-33.377 29.447-37.678c1.102-.273 1.871-1.266 1.871-2.412v-31.347c0-1.146-.77-2.139-1.871-2.412-17.338-4.301-29.447-19.794-29.447-37.678s12.109-33.377 29.447-37.678c1.101-.271 1.871-1.263 1.871-2.41v-31.121c0-1.379-1.121-2.5-2.5-2.5h-31.121c-1.147 0-2.139.769-2.412 1.871-4.301 17.338-19.794 29.447-37.678 29.447s-33.377-12.109-37.678-29.447c-.273-1.102-1.266-1.871-2.412-1.871h-31.347c-1.146 0-2.139.769-2.412 1.871-4.301 17.338-19.794 29.447-37.677 29.447-17.884 0-33.378-12.109-37.679-29.447-.273-1.102-1.266-1.871-2.412-1.871h-31.346c-1.146 0-2.139.769-2.412 1.871-2.581 10.404-9.454 19.364-18.856 24.585-3.622 2.013-8.188.706-10.197-2.916-2.011-3.621-.705-8.187 2.916-10.197 5.776-3.208 9.997-8.705 11.579-15.083 1.937-7.807 8.915-13.26 16.971-13.26h31.346c8.056 0 15.034 5.453 16.971 13.26 2.638 10.633 12.145 18.059 23.12 18.059s20.48-7.426 23.118-18.059c1.936-7.807 8.915-13.26 16.971-13.26h31.347c8.056 0 15.034 5.453 16.971 13.26 2.638 10.633 12.145 18.059 23.119 18.059 10.975 0 20.481-7.426 23.119-18.059 1.936-7.807 8.914-13.26 16.97-13.26h31.121c9.649 0 17.5 7.851 17.5 17.5v31.121c0 8.056-5.453 15.034-13.26 16.971-10.633 2.638-18.059 12.145-18.059 23.119s7.426 20.481 18.059 23.119c7.807 1.937 13.26 8.915 13.26 16.971v31.347c0 8.054-5.452 15.032-13.259 16.971-10.634 2.638-18.06 12.145-18.06 23.119 0 10.975 7.426 20.481 18.059 23.119 7.807 1.937 13.26 8.915 13.26 16.97v31.347c0 8.056-5.453 15.034-13.26 16.971-10.633 2.638-18.059 12.145-18.059 23.119s7.426 20.481 18.059 23.119c7.807 1.937 13.26 8.915 13.26 16.971v31.347c0 8.056-5.453 15.034-13.26 16.971-10.633 2.638-18.059 12.145-18.059 23.119 0 10.975 7.426 20.481 18.059 23.119 7.807 1.936 13.26 8.915 13.26 16.971v31.119c0 9.649-7.851 17.5-17.5 17.5z"/></g></g></g></svg>