<svg id="Capa_1" enable-background="new 0 0 512 512" height="512" viewBox="0 0 512 512" width="512" xmlns="http://www.w3.org/2000/svg"><g><g><path d="m265.247 463.294h-37.494v-227.642h37.494l10 113.821z" fill="#f9f6f9"/><path d="m265.247 235.652h19v227.642h-19z" fill="#dedbec"/><path d="m160.549 443.294h180.902c15.023 0 27.202 12.179 27.202 27.202v24.004c0 5.523-4.477 10-10 10h-215.306c-5.523 0-10-4.477-10-10v-24.004c0-15.023 12.179-27.202 27.202-27.202z" fill="#245e7c"/><path d="m343.653 262.309h-185.306c-13.807 0-25-11.193-25-25v-36.206l235.306-20v56.206c0 13.807-11.193 25-25 25z" fill="#245e7c"/><path d="m348.653 181.104v56.206c0 13.807-11.193 25-25 25h30c13.807 0 25-11.193 25-25v-36.206z" fill="#1a4c65"/><path d="m351.451 443.294h-30c15.023 0 27.202 12.178 27.202 27.202v24.004c0 5.523-4.477 10-10 10h30c5.523 0 10-4.477 10-10v-24.004c0-15.023-12.179-27.202-27.202-27.202z" fill="#1a4c65"/><path d="m436.866 201.104h-371.732c-5.523 0-10-4.477-10-10v-173.604c0-5.523 4.477-10 10-10h371.731c5.523 0 10 4.477 10 10v173.604c.001 5.522-4.477 10-9.999 10z" fill="#dedbec"/><path d="m446.866 7.5h-30c5.523 0 10 4.477 10 10v173.604c0 5.523-4.477 10-10 10h30c5.523 0 10-4.477 10-10v-173.604c0-5.523-4.478-10-10-10z" fill="#d1cfe7"/><circle cx="256" cy="104.302" fill="#245e7c" r="65.664"/><ellipse cx="256" cy="104.302" fill="#f9f6f9" rx="24.857" ry="24.857" transform="matrix(.924 -.383 .383 .924 -20.428 105.906)"/></g><g><path d="m288.356 104.302c0-17.842-14.515-32.357-32.356-32.357s-32.356 14.515-32.356 32.357 14.515 32.356 32.356 32.356 32.356-14.514 32.356-32.356zm-49.712 0c0-9.57 7.786-17.357 17.356-17.357s17.356 7.786 17.356 17.357c0 9.57-7.786 17.356-17.356 17.356s-17.356-7.786-17.356-17.356z"/><path d="m199.651 118.783c-1.027-4.012-5.112-6.43-9.127-5.404-4.013 1.028-6.432 5.114-5.404 9.127 8.289 32.359 37.436 54.96 70.88 54.96 40.343 0 73.164-32.821 73.164-73.164s-32.821-73.164-73.164-73.164c-33.444 0-62.591 22.601-70.88 54.959-1.027 4.013 1.392 8.099 5.404 9.127 4.023 1.031 8.1-1.394 9.127-5.404 6.588-25.72 29.759-43.682 56.349-43.682 32.072 0 58.164 26.092 58.164 58.164s-26.092 58.164-58.164 58.164c-26.59 0-49.761-17.963-56.349-43.683z"/><path d="m446.865 0h-63.132c-4.143 0-7.5 3.357-7.5 7.5s3.357 7.5 7.5 7.5h63.132c1.379 0 2.5 1.121 2.5 2.5v173.604c0 1.379-1.121 2.5-2.5 2.5h-381.73c-1.379 0-2.5-1.121-2.5-2.5v-173.604c0-1.379 1.121-2.5 2.5-2.5h286.018c4.143 0 7.5-3.357 7.5-7.5s-3.357-7.5-7.5-7.5h-286.018c-9.649 0-17.5 7.851-17.5 17.5v173.604c0 9.649 7.851 17.5 17.5 17.5h60.713v28.706c0 17.921 14.579 32.5 32.5 32.5h61.906v51.771c0 4.143 3.357 7.5 7.5 7.5s7.5-3.357 7.5-7.5v-51.771h41.492v165.984h-41.492v-81.527c0-4.143-3.357-7.5-7.5-7.5s-7.5 3.357-7.5 7.5v81.527h-59.705c-19.135 0-34.701 15.567-34.701 34.702v24.004c0 9.649 7.85 17.5 17.5 17.5h225.305c9.649 0 17.5-7.851 17.5-17.5v-24.004c0-19.135-15.566-34.702-34.701-34.702h-59.705v-165.984h61.906c17.921 0 32.5-14.579 32.5-32.5v-28.706h60.713c9.649 0 17.5-7.851 17.5-17.5v-173.604c-.001-9.649-7.851-17.5-17.501-17.5zm-75.713 470.496v24.004c0 1.379-1.121 2.5-2.5 2.5h-225.304c-1.379 0-2.5-1.121-2.5-2.5v-24.004c0-10.864 8.838-19.702 19.701-19.702h190.902c10.864 0 19.701 8.838 19.701 19.702zm0-233.186c0 9.649-7.851 17.5-17.5 17.5h-195.304c-9.65 0-17.5-7.851-17.5-17.5v-28.706h230.305v28.706z"/></g></g></svg>