<svg id="Capa_1" enable-background="new 0 0 511.924 511.924" height="512" viewBox="0 0 511.924 511.924" width="512" xmlns="http://www.w3.org/2000/svg"><g><g><path d="m165.463 353.502-18.041-18.041 111.606-111.606 18.041 18.041-54.221 64.221z" fill="#f9f6f9"/><path d="m147.848 295.421h157.835v15.556h-157.835z" fill="#dedbec" transform="matrix(.707 -.707 .707 .707 -147.976 249.153)"/><path d="m44.933 498.058-33.068-33.068c-5.872-5.871-5.872-15.391 0-21.263l130.66-130.66c12.407-12.407 30.962-14.918 45.858-7.533 3.78 1.874 7.324 5.385 10.472 8.533 15.555 15.555 5.555 39.775-10 55.33l-120.66 120.66c-5.871 5.873-17.39 13.873-23.262 8.001z" fill="#ffe187"/><path d="m198.856 313.068c-3.149-3.148-6.697-5.648-10.478-7.522 7.384 14.896 4.884 33.446-7.522 45.853l-130.66 130.66c-5.872 5.872-15.391 5.872-21.263 0l18 18c5.871 5.872 15.391 5.872 21.263 0l130.66-130.66c15.555-15.556 15.555-40.776 0-56.331z" fill="#ffd26f"/><path d="m458.244 270.01c-33.913 33.913-78.679 49.75-122.963 45.511-34.443-3.297-67.99-18.134-94.367-44.511-60.29-60.29-60.29-158.04 0-218.33 26.325-26.325 59.793-41.156 94.165-44.492 44.347-4.304 89.2 11.527 123.165 45.492 60.29 60.29 60.29 156.039 0 216.33z" fill="#245e7c"/><path d="m459.244 52.68c-33.964-33.965-79.818-48.793-124.165-44.49 34.372 3.336 67.84 18.164 94.165 44.489 60.29 60.29 60.29 158.04 0 218.33-26.325 26.325-59.793 41.154-94.165 44.489 44.347 4.304 90.2-10.524 124.165-44.489 60.29-60.29 60.29-158.039 0-218.329z" fill="#1a4c65"/><circle cx="350.079" cy="161.845" fill="#f9f6f9" r="108.992"/></g><g><path d="m350.117 214.091c-4.188 0-7.583 3.395-7.583 7.583s3.395 7.583 7.583 7.583 7.583-3.395 7.583-7.583c.001-4.188-3.394-7.583-7.583-7.583z"/><path d="m378.678 153.363c7.512-7.912 11.336-18.28 10.77-29.196-1.064-20.498-17.984-36.878-38.521-37.291-19.94-.431-37.062 14.167-39.814 33.891-.252 1.803-.38 3.648-.38 5.485 0 4.143 3.358 7.5 7.5 7.5s7.5-3.357 7.5-7.5c0-1.144.079-2.292.236-3.411 1.703-12.203 12.272-21.218 24.656-20.969 12.712.257 23.186 10.391 23.844 23.072.351 6.768-2.017 13.191-6.668 18.091-4.654 4.902-10.934 7.602-17.683 7.602-4.142 0-7.5 3.358-7.5 7.5v33.341c0 4.143 3.358 7.5 7.5 7.5s7.5-3.357 7.5-7.5v-26.546c8.002-1.529 15.302-5.505 21.06-11.569z"/><path d="m464.585 47.344c-63.117-63.117-165.818-63.118-228.936 0-56.359 56.358-62.389 144.273-18.102 207.391l-39.698 39.698c-14.368-2.169-29.549 2.26-40.589 13.299l-29.339 29.34c-2.929 2.93-2.929 7.678 0 10.607 2.929 2.928 7.678 2.928 10.606 0l29.339-29.34c12.606-12.605 33.118-12.605 45.724-.001 12.606 12.606 12.606 33.119 0 45.725l-130.66 130.66c-2.938 2.939-7.719 2.938-10.656 0l-35.067-35.068c-1.423-1.424-2.207-3.315-2.207-5.328s.784-3.905 2.207-5.328l78.208-78.208c2.929-2.93 2.929-7.678 0-10.607-2.929-2.928-7.678-2.928-10.606 0l-78.209 78.208c-4.256 4.256-6.6 9.915-6.6 15.935s2.344 11.679 6.6 15.934l35.067 35.069c4.393 4.393 10.164 6.589 15.935 6.589s11.542-2.196 15.935-6.589l130.66-130.661c11.04-11.039 15.469-26.22 13.3-40.589l39.72-39.721c22.205 15.541 48.151 25.419 75.243 28.376 4.119.456 7.82-2.525 8.27-6.643.45-4.117-2.525-7.819-6.642-8.27-33.547-3.661-63.919-18.236-87.833-42.149-57.27-57.27-57.27-150.453 0-207.723 57.27-57.271 150.454-57.271 207.724 0 57.269 57.27 57.269 150.453 0 207.723-23.816 23.816-55.347 38.82-88.783 42.25-4.121.423-7.118 4.105-6.696 8.227.396 3.86 3.654 6.735 7.452 6.735.256 0 .515-.014.774-.04 36.858-3.78 71.612-20.317 97.859-46.564 63.119-63.118 63.119-165.819 0-228.937zm-219.34 237.774-33.131 33.132c-2.089-3.771-4.719-7.322-7.916-10.519s-6.747-5.826-10.518-7.915l33.124-33.124c2.798 3.285 5.742 6.486 8.845 9.589 3.082 3.083 6.287 6.027 9.596 8.837z"/><path d="m249.767 177.037c-.618-4.097-4.442-6.919-8.535-6.297-4.096.618-6.915 4.438-6.297 8.535 3.73 24.729 15.076 47.175 32.811 64.909 22.002 22.002 51.256 34.12 82.372 34.12 31.117 0 60.37-12.118 82.372-34.12 22.003-22.003 34.12-51.256 34.12-82.372s-12.117-60.37-34.12-82.373c-45.42-45.42-119.325-45.419-164.745.001-17.735 17.734-29.081 40.18-32.811 64.91-.618 4.096 2.202 7.916 6.297 8.534 4.098.623 7.917-2.202 8.535-6.298 3.249-21.537 13.133-41.088 28.585-56.54 39.572-39.57 103.96-39.571 143.532 0 19.169 19.169 29.726 44.656 29.726 71.766s-10.557 52.596-29.726 71.765c-19.169 19.17-44.656 29.728-71.766 29.728-27.109 0-52.596-10.558-71.766-29.728-15.451-15.451-25.335-35.002-28.584-56.54z"/></g></g></svg>