<svg id="Capa_1" enable-background="new 0 0 512 512" height="512" viewBox="0 0 512 512" width="512" xmlns="http://www.w3.org/2000/svg"><g><g><path d="m427.469 504.5h-352.938l25.05-87.512 20-160.988v-238.499c0-5.523 4.477-10.001 10.001-10.001h332.938c5.523 0 10.001 4.477 10.001 10.001v441.949c-.001 24.88-20.171 45.05-45.052 45.05z" fill="#f9f6f9"/><path d="m472.519 7.5h-30c5.523 0 10.001 4.477 10.001 10.001v441.949c0 24.88-20.17 45.05-45.05 45.05h30c24.88 0 45.05-20.17 45.05-45.05v-441.949c0-5.524-4.478-10.001-10.001-10.001z" fill="#dedbec"/><path d="m334.411 256h-17.453c-.458 0-.915-.031-1.369-.094l-62.225-8.597c-.908-.126-1.829-.126-2.737 0l-62.225 8.597c-.454.063-.911.094-1.369.094h-17.453c-5.523 0-10-4.477-10-10v-188.466c0-5.523 4.477-10 10-10h164.83c5.523 0 10 4.477 10 10v188.466c.001 5.523-4.476 10-9.999 10z" fill="#95c7f8"/><path d="m316.27 256h-128.549v-47.818c0-12.261 9.94-22.201 22.201-22.201h84.147c12.261 0 22.201 9.94 22.201 22.201z" fill="#245e7c"/><path d="m251.996 212.622c-10.163 0-18.403-8.239-18.403-18.402v-50.79h36.805v50.79c0 10.163-8.239 18.402-18.402 18.402z" fill="#ffbd86"/><path d="m251.996 177.988c-20.646 0-37.383-16.737-37.383-37.383v-14.839c0-20.646 16.737-37.383 37.383-37.383 20.646 0 37.383 16.737 37.383 37.383v14.839c0 20.647-16.737 37.383-37.383 37.383z" fill="#fed2a4"/><path d="m74.531 503.5c-5.261 0-10.31.098-15.003-1.559-17.505-6.18-30.048-22.871-30.048-42.491v-193.449c0-5.523 4.477-10.001 10.001-10.001h50.1l20 203.45c0 24.88-10.17 44.05-35.05 44.05z" fill="#245e7c"/><path d="m89.581 256v203.45c0 19.62-12.546 36.301-30.05 42.482 4.693 1.657 9.739 2.568 15 2.568 24.881 0 45.05-20.17 45.05-45.05v-203.45z" fill="#1a4c65"/></g><g><path d="m384.411 73.217h58.108c4.143 0 7.5-3.357 7.5-7.5s-3.357-7.5-7.5-7.5h-58.108c-4.142 0-7.5 3.357-7.5 7.5s3.358 7.5 7.5 7.5z"/><path d="m384.411 119.729h58.108c4.143 0 7.5-3.357 7.5-7.5s-3.357-7.5-7.5-7.5h-58.108c-4.142 0-7.5 3.357-7.5 7.5s3.358 7.5 7.5 7.5z"/><path d="m384.411 166.24h58.108c4.143 0 7.5-3.357 7.5-7.5s-3.357-7.5-7.5-7.5h-58.108c-4.142 0-7.5 3.357-7.5 7.5s3.358 7.5 7.5 7.5z"/><path d="m159.581 308.714h282.939c4.143 0 7.5-3.357 7.5-7.5s-3.357-7.5-7.5-7.5h-282.939c-4.142 0-7.5 3.357-7.5 7.5 0 4.142 3.357 7.5 7.5 7.5z"/><path d="m159.581 360.709h282.939c4.143 0 7.5-3.357 7.5-7.5s-3.357-7.5-7.5-7.5h-282.939c-4.142 0-7.5 3.357-7.5 7.5s3.357 7.5 7.5 7.5z"/><path d="m159.581 412.704h282.939c4.143 0 7.5-3.357 7.5-7.5s-3.357-7.5-7.5-7.5h-282.939c-4.142 0-7.5 3.357-7.5 7.5s3.357 7.5 7.5 7.5z"/><path d="m344.411 112.163c4.143 0 7.5-3.357 7.5-7.5v-47.13c0-9.649-7.851-17.5-17.5-17.5h-164.83c-9.649 0-17.5 7.851-17.5 17.5v188.467c0 9.649 7.851 17.5 17.5 17.5h164.831c9.649 0 17.5-7.851 17.5-17.5v-108.651c0-4.143-3.357-7.5-7.5-7.5-4.142 0-7.5 3.357-7.5 7.5v108.651c0 1.379-1.121 2.5-2.5 2.5h-10.641v-40.318c0-16.377-13.324-29.701-29.701-29.701h-16.171v-1.256c11.472-8.139 18.981-21.515 18.981-36.619v-14.839c0-24.748-20.135-44.883-44.883-44.883s-44.883 20.135-44.883 44.883v14.839c0 15.105 7.508 28.481 18.98 36.62v1.255h-16.171c-16.377 0-29.701 13.324-29.701 29.701v40.318h-10.641c-1.378 0-2.5-1.121-2.5-2.5v-188.467c0-1.379 1.122-2.5 2.5-2.5h164.831c1.379 0 2.5 1.121 2.5 2.5v47.13c-.001 4.143 3.357 7.5 7.499 7.5zm-103.317 71.98c3.492.875 7.143 1.346 10.902 1.346 3.76 0 7.41-.471 10.902-1.346v10.077c0 6.012-4.891 10.902-10.902 10.902-6.012 0-10.902-4.891-10.902-10.902zm-18.981-58.376c0-16.478 13.405-29.883 29.883-29.883s29.883 13.405 29.883 29.883v14.839c0 16.477-13.405 29.883-29.883 29.883s-29.883-13.405-29.883-29.883zm-26.891 82.415c0-8.106 6.595-14.701 14.701-14.701h16.171v.739c0 14.282 11.62 25.902 25.902 25.902s25.902-11.62 25.902-25.902v-.739h16.171c8.107 0 14.701 6.595 14.701 14.701v40.318h-113.548z"/><path d="m127.081 459.45c0 14.7-6.075 28.003-15.838 37.55h326.227c20.705 0 37.55-16.845 37.55-37.55v-441.949c0-1.379-1.122-2.501-2.501-2.501h-342.938c-1.379 0-2.501 1.122-2.501 2.501v130.897c0 4.143-3.358 7.5-7.5 7.5s-7.5-3.357-7.5-7.5v-130.897c0-9.65 7.851-17.501 17.501-17.501h342.937c9.65 0 17.501 7.851 17.501 17.501v441.949c0 28.976-23.573 52.55-52.55 52.55h-362.938c-28.977 0-52.55-23.574-52.55-52.55v-98.093c0-4.143 3.358-7.5 7.5-7.5s7.5 3.357 7.5 7.5v98.093c0 20.705 16.845 37.55 37.55 37.55s37.55-16.845 37.55-37.55v-195.95h-72.6c-1.379 0-2.501 1.122-2.501 2.501v62.67c0 4.143-3.358 7.5-7.5 7.5s-7.5-3.357-7.5-7.5v-62.67c0-9.65 7.851-17.501 17.501-17.501h72.6v-67.416c0-4.143 3.358-7.5 7.5-7.5s7.5 3.357 7.5 7.5z"/></g></g></svg>