<svg id="Capa_1" enable-background="new 0 0 512 512" height="512" viewBox="0 0 512 512" width="512" xmlns="http://www.w3.org/2000/svg"><g><g><path d="m300.126 298.626h-118.252v145.058h118.252l10-64.523z" fill="#dedbec"/><path d="m300.126 298.626h30v145.058h-30z" fill="#d1cfe7"/><path d="m388.27 470.958h-274.54c-5.523 0-10-4.477-10-10v-12.274c0-13.807 11.193-25 25-25h244.54c13.807 0 25 11.193 25 25v12.274c0 5.523-4.477 10-10 10z" fill="#f9f6f9"/><path d="m383.27 423.684h-30c13.807 0 25 11.193 25 25v12.275c0 5.523-4.477 10-10 10h30c5.523 0 10-4.477 10-10v-12.275c0-13.807-11.193-25-25-25z" fill="#dedbec"/><path d="m476 360.678c8.284 0 15-6.716 15-15v-289.636c0-8.284-6.716-15-15-15h-453.5c-8.284 0-15 6.716-15 15v289.636c0 8.284 6.716 15 15 15z" fill="#95c7f8"/><path d="m489.5 41.042h-30c8.284 0 15 6.716 15 15v289.636c0 8.284-6.716 15-15 15h30c8.284 0 15-6.716 15-15v-289.636c0-8.285-6.716-15-15-15z" fill="#75b5f8"/><path d="m338.415 287.317h-17.453c-.458 0-.915-.031-1.369-.094l-62.225-8.597c-.908-.126-1.829-.126-2.737 0l-62.225 8.597c-.454.063-.911.094-1.369.094h-17.453c-5.523 0-10-4.477-10-10v-188.466c0-5.523 4.477-10 10-10h164.83c5.523 0 10 4.477 10 10v188.466c.001 5.523-4.476 10-9.999 10z" fill="#f9f6f9"/><path d="m320.275 287.317h-128.55v-47.818c0-12.261 9.94-22.201 22.201-22.201h84.147c12.261 0 22.201 9.94 22.201 22.201v47.818z" fill="#245e7c"/><path d="m256 243.939c-10.163 0-18.403-8.239-18.403-18.402v-50.79h36.805v50.79c0 10.163-8.239 18.402-18.402 18.402z" fill="#ffbd86"/><path d="m256 209.305c-20.646 0-37.383-16.737-37.383-37.383v-14.839c0-20.646 16.737-37.383 37.383-37.383 20.646 0 37.383 16.737 37.383 37.383v14.839c0 20.646-16.737 37.383-37.383 37.383z" fill="#fed2a4"/></g><g><path d="m489.5 33.542h-75.786c-4.143 0-7.5 3.357-7.5 7.5s3.357 7.5 7.5 7.5h75.786c4.136 0 7.5 3.364 7.5 7.5v289.636c0 4.136-3.364 7.5-7.5 7.5h-467c-4.136 0-7.5-3.364-7.5-7.5v-289.636c0-4.136 3.364-7.5 7.5-7.5h358.271c4.143 0 7.5-3.357 7.5-7.5s-3.357-7.5-7.5-7.5h-358.271c-12.406 0-22.5 10.094-22.5 22.5v289.636c0 12.406 10.094 22.5 22.5 22.5h151.873v48.006h-45.643c-17.921 0-32.5 14.579-32.5 32.5v12.274c0 9.649 7.851 17.5 17.5 17.5h213.26c4.143 0 7.5-3.357 7.5-7.5s-3.357-7.5-7.5-7.5h-213.261c-1.379 0-2.5-1.121-2.5-2.5v-12.274c0-9.649 7.851-17.5 17.5-17.5h254.541c9.649 0 17.5 7.851 17.5 17.5v12.274c0 1.379-1.121 2.5-2.5 2.5h-38.594c-4.143 0-7.5 3.357-7.5 7.5s3.357 7.5 7.5 7.5h38.594c9.649 0 17.5-7.851 17.5-17.5v-12.274c0-17.921-14.579-32.5-32.5-32.5h-45.643v-48.006h151.873c12.406 0 22.5-10.094 22.5-22.5v-289.636c0-12.406-10.094-22.5-22.5-22.5zm-166.873 382.642h-133.254v-48.006h133.254z"/><path d="m170.574 316.643c-4.143 0-7.5 3.357-7.5 7.5s3.357 7.5 7.5 7.5h60.033c4.143 0 7.5-3.357 7.5-7.5s-3.357-7.5-7.5-7.5z"/><path d="m281.393 316.643c-4.143 0-7.5 3.357-7.5 7.5s3.357 7.5 7.5 7.5h60.033c4.143 0 7.5-3.357 7.5-7.5s-3.357-7.5-7.5-7.5z"/><path d="m355.915 277.317v-188.466c0-9.649-7.85-17.5-17.5-17.5h-164.83c-9.65 0-17.5 7.851-17.5 17.5v59.309c0 4.143 3.357 7.5 7.5 7.5 4.142 0 7.5-3.357 7.5-7.5v-59.309c0-1.379 1.121-2.5 2.5-2.5h164.83c1.379 0 2.5 1.121 2.5 2.5v188.467c0 1.379-1.121 2.5-2.5 2.5h-10.641v-40.318c0-16.377-13.324-29.701-29.701-29.701h-16.171v-1.256c11.472-8.139 18.98-21.515 18.98-36.619v-14.84c0-24.748-20.135-44.883-44.883-44.883s-44.883 20.135-44.883 44.883v14.84c0 15.105 7.508 28.481 18.98 36.619v1.256h-16.171c-16.377 0-29.701 13.324-29.701 29.701v40.318h-10.641c-1.379 0-2.5-1.121-2.5-2.5v-96.472c0-4.143-3.358-7.5-7.5-7.5-4.143 0-7.5 3.357-7.5 7.5v96.472c0 9.649 7.85 17.5 17.5 17.5h164.83c9.652-.001 17.502-7.851 17.502-17.501zm-110.817-61.857c3.492.875 7.143 1.346 10.902 1.346s7.41-.471 10.902-1.346v10.076c0 6.012-4.891 10.902-10.902 10.902-6.012 0-10.902-4.891-10.902-10.902zm-18.981-58.377c0-16.477 13.405-29.883 29.883-29.883s29.883 13.405 29.883 29.883v14.84c0 16.478-13.405 29.883-29.883 29.883s-29.883-13.405-29.883-29.883zm-26.891 82.416c0-8.106 6.595-14.701 14.701-14.701h16.171v.738c0 14.282 11.62 25.902 25.902 25.902s25.902-11.62 25.902-25.902v-.738h16.171c8.106 0 14.701 6.595 14.701 14.701v40.318h-113.548z"/></g></g></svg>