<svg id="Capa_1" enable-background="new 0 0 512 512" height="512" viewBox="0 0 512 512" width="512" xmlns="http://www.w3.org/2000/svg"><g><g><path d="m37.617 97.494v269.404l417.766 20v-289.404c0-8.284-6.716-15-15-15h-387.766c-8.284 0-15 6.716-15 15z" fill="#95c7f8"/><path d="m459.383 82.494h-30c8.284 0 15 6.716 15 15v289.405l30-20v-269.405c0-8.284-6.716-15-15-15z" fill="#75b5f8"/><path d="m469.5 429.506h-437c-13.807 0-25-11.193-25-25v-27.607c0-5.523 4.477-10 10-10h179.641l62.409 10 55.31-10h169.64c5.523 0 10 4.477 10 10v27.607c0 13.807-11.193 25-25 25z" fill="#f9f6f9"/><path d="m494.5 366.899h-30c5.523 0 10 4.477 10 10v27.607c0 13.807-11.193 25-25 25h30c13.807 0 25-11.193 25-25v-27.607c0-5.523-4.477-10-10-10z" fill="#dedbec"/><path d="m304.859 398.202h-97.718c-5.523 0-10-4.477-10-10v-21.304h117.718v21.304c0 5.523-4.477 10-10 10z" fill="#dedbec"/><g fill="#245e7c"><path d="m198.287 318.283h-16.582c-22.076 0-39.972-17.896-39.972-39.972 0-22.076 17.896-39.972 39.972-39.972h16.582c2.988 0 5.411 2.423 5.411 5.411v69.122c0 2.989-2.422 5.411-5.411 5.411z"/><path d="m313.713 238.339h16.582c22.076 0 39.972 17.896 39.972 39.972 0 22.076-17.896 39.972-39.972 39.972h-16.582c-2.988 0-5.411-2.423-5.411-5.411v-69.122c0-2.988 2.422-5.411 5.411-5.411z"/></g></g><g><path d="m494.5 359.398h-12.617v-261.904c0-12.406-10.094-22.5-22.5-22.5h-92.987c-4.143 0-7.5 3.357-7.5 7.5s3.357 7.5 7.5 7.5h92.987c4.136 0 7.5 3.364 7.5 7.5v261.904h-356.833c-4.143 0-7.5 3.357-7.5 7.5s3.357 7.5 7.5 7.5h79.591v13.804c0 9.65 7.851 17.5 17.5 17.5h97.719c9.649 0 17.5-7.85 17.5-17.5v-13.804h172.14c1.379 0 2.5 1.121 2.5 2.5v27.607c0 9.649-7.851 17.5-17.5 17.5h-74.328c-4.143 0-7.5 3.357-7.5 7.5s3.357 7.5 7.5 7.5h74.328c17.921 0 32.5-14.579 32.5-32.5v-27.607c0-9.649-7.851-17.5-17.5-17.5zm-187.141 28.804c0 1.379-1.121 2.5-2.5 2.5h-97.719c-1.379 0-2.5-1.121-2.5-2.5v-13.804h102.719z"/><path d="m372.485 422.006h-339.985c-9.649 0-17.5-7.851-17.5-17.5v-27.607c0-1.379 1.121-2.5 2.5-2.5h59.863c4.143 0 7.5-3.357 7.5-7.5s-3.357-7.5-7.5-7.5h-32.246v-261.905c0-4.136 3.364-7.5 7.5-7.5h281.092c4.143 0 7.5-3.357 7.5-7.5s-3.357-7.5-7.5-7.5h-281.092c-12.406 0-22.5 10.094-22.5 22.5v261.904h-12.617c-9.649 0-17.5 7.851-17.5 17.5v27.607c0 17.921 14.579 32.5 32.5 32.5h339.985c4.142 0 7.5-3.357 7.5-7.5 0-4.142-3.357-7.499-7.5-7.499z"/><path d="m223.956 278.311c0 4.142 3.358 7.5 7.5 7.5s7.5-3.358 7.5-7.5c0-4.142-3.358-7.5-7.5-7.5s-7.5 3.358-7.5 7.5z"/><path d="m248.5 278.311c0 4.142 3.358 7.5 7.5 7.5s7.5-3.358 7.5-7.5c0-4.142-3.358-7.5-7.5-7.5s-7.5 3.358-7.5 7.5z"/><path d="m273.043 278.311c0 4.142 3.358 7.5 7.5 7.5s7.5-3.358 7.5-7.5c0-4.142-3.358-7.5-7.5-7.5s-7.5 3.358-7.5 7.5z"/><path d="m256 123.609c-50.059 0-90.784 40.726-90.784 90.784v19.404c-18.071 6.716-30.982 24.134-30.982 44.514 0 26.176 21.296 47.472 47.472 47.472h16.582c7.119 0 12.911-5.792 12.911-12.911v-69.122c0-7.119-5.792-12.91-12.911-12.91h-16.582c-.499 0-.993.023-1.489.038v-16.484c0-41.787 33.997-75.784 75.784-75.784s75.784 33.997 75.784 75.784v16.484c-.496-.015-.99-.038-1.489-.038h-16.582c-7.119 0-12.911 5.791-12.911 12.91v69.122c0 7.119 5.792 12.911 12.911 12.911h16.582c26.176 0 47.472-21.296 47.472-47.472 0-20.38-12.911-37.798-30.982-44.514v-19.404c-.002-50.058-40.727-90.784-90.786-90.784zm-59.802 122.231v64.943h-14.493c-17.905 0-32.472-14.566-32.472-32.472 0-17.905 14.566-32.472 32.472-32.472h14.493zm166.569 32.471c0 17.905-14.566 32.472-32.472 32.472h-14.493v-64.943h14.493c17.905 0 32.472 14.566 32.472 32.471z"/></g></g></svg>