<svg id="Capa_1" enable-background="new 0 0 512.017 512.017" height="512" viewBox="0 0 512.017 512.017" width="512" xmlns="http://www.w3.org/2000/svg"><g><g><path d="m494.509 129.209c0 67.169-44.451 120.62-111.62 120.62-5.079 0-10.085.689-15.001.084-24.976-3.072-47.608-13.716-65.531-29.565-1.875-1.658-1.692-6.264-3.461-8.033s-5.489-.701-7.147-2.575c-17.421-19.701-28.553-45.092-30.253-73.031-.151-2.481 2.509-4.982 2.509-7.501s-2.66-5.02-2.509-7.501c1.7-27.939 12.832-53.331 30.254-73.032 1.657-1.874 5.771-1.892 7.539-3.66 1.769-1.769 1.193-5.289 3.067-6.946 17.923-15.849 40.556-26.493 65.532-29.565 4.915-.605 9.922.084 15.001.084 67.169 0 111.62 53.452 111.62 120.621z" fill="#ade4a4"/><path d="m382.889 8.588c-2.519 0-5.02-.922-7.5-.77-2.521.155-5.022.386-7.5.691 60.091 7.392 106.62 58.609 106.62 120.699s-46.529 113.307-106.62 120.699c2.458.302 4.938.533 7.439.687 2.501.155 5.022-.766 7.561-.766 2.519 0 5.02.923 7.501.772 27.939-1.7 53.33-12.832 73.031-30.253 1.875-1.658.214-6.191 1.983-7.96s6.967-.773 8.625-2.647c17.421-19.701 28.553-45.092 30.253-73.031.151-2.481-.772-4.982-.772-7.501s.923-5.019.772-7.5c-1.7-27.939-12.832-53.331-30.253-73.032-1.658-1.874-4.804-1.478-6.573-3.247s-2.16-5.702-4.034-7.36c-19.702-17.421-45.094-28.553-73.033-30.253-2.481-.151-4.982.772-7.5.772z" fill="#8bd5a7"/><path d="m241.408 377.105c7.994 7.446 19.895 8.842 29.394 3.446l35.049-19.909c5.16-2.931 11.489-2.898 16.618.087l98.255 48.339c7.625 4.437 10.473 14.047 6.496 21.922l-5.025 13.912-18.495 36.63c-9.614 19.04-32.042 27.728-51.994 20.188-104.896-39.635-201.86-139.632-201.86-139.632s-99.996-96.964-139.631-201.86c-7.539-19.953 1.148-42.381 20.188-51.994l36.63-18.495 12.912-4.025c7.875-3.976 17.485-1.128 21.922 6.496l49.339 97.255c2.985 5.129 3.018 11.458.087 16.618l-19.909 35.049c-5.396 9.499-4 21.401 3.446 29.394z" fill="#ffe187"/><path d="m422.724 409.067-100.255-58.339c-5.129-2.985-11.458-3.018-16.618-.087l-35.049 19.909c-9.499 5.396-21.401 4-29.394-3.446l-96.579-96.579c-7.446-7.994-8.842-19.895-3.446-29.394l19.909-35.049c2.931-5.16 2.898-11.489-.087-16.618l-58.338-100.254c-4.437-7.625-14.047-10.473-21.922-6.497l-13.912 7.025c2.869 1.504 5.362 3.801 7.103 6.794l62.243 106.965c3.185 5.472 3.22 12.225.093 17.73l-21.242 37.395c-5.757 10.135-4.268 22.833 3.676 31.362l103.044 103.043c8.529 7.945 21.227 9.434 31.362 3.676l37.395-21.241c5.505-3.127 12.258-3.092 17.73.092l106.965 62.243c2.993 1.742 5.289 4.234 6.794 7.103l7.025-13.912c3.976-7.874 1.128-17.484-6.497-21.921z" fill="#ffd26f"/></g><g><path d="m426.505 402.579-35.683-20.764c-3.579-2.083-8.171-.869-10.254 2.71-2.083 3.58-.87 8.172 2.711 10.255l35.682 20.764c4.188 2.437 5.758 7.734 3.574 12.059l-25.52 50.543c-7.898 15.64-26.232 22.757-42.649 16.554-102.068-38.569-198.168-136.852-199.126-137.84-.053-.055-.108-.109-.162-.162-.34-.329-34.377-33.503-69.974-81.098-2.48-3.316-7.181-3.994-10.498-1.514s-3.995 7.181-1.514 10.498c35.45 47.399 69.471 80.857 71.454 82.795 1.782 1.832 25.581 26.132 62.211 55.506 34.503 27.669 87.201 65.022 142.307 85.845 5.748 2.172 11.656 3.208 17.475 3.208 18.081-.002 35.27-10.008 43.865-27.031l25.52-50.544c5.757-11.399 1.619-25.361-9.419-31.784z"/><path d="m17.239 157.571c-6.203-16.417.913-34.751 16.553-42.647l50.542-25.521c4.326-2.184 9.623-.614 12.06 3.574l58.339 100.255c1.635 2.811 1.654 6.312.047 9.141l-19.909 35.05c-7.05 12.41-5.25 27.766 4.48 38.211.06.064.121.128.184.191l96.579 96.578c.062.062.127.124.191.185 6.195 5.771 14.116 8.752 22.127 8.751 5.496 0 11.034-1.403 16.084-4.272l35.049-19.909c2.828-1.606 6.33-1.588 9.141.048l36.147 21.033c3.579 2.082 8.171.869 10.254-2.71 2.083-3.581.87-8.172-2.711-10.255l-36.146-21.032c-7.409-4.314-16.642-4.362-24.095-.127l-35.048 19.909c-6.648 3.775-14.867 2.836-20.489-2.33l-96.374-96.373c-5.167-5.623-6.107-13.842-2.331-20.49l19.908-35.049c4.234-7.453 4.187-16.686-.125-24.095l-58.338-100.255c-6.423-11.037-20.385-15.176-31.785-9.42l-50.542 25.521c-22.502 11.361-32.744 37.732-23.824 61.34 11.249 29.772 28.325 61.685 50.751 94.849 2.32 3.431 6.982 4.331 10.414 2.012 3.431-2.32 4.332-6.982 2.012-10.414-21.773-32.198-38.307-63.067-49.145-91.749z"/><path d="m442.075 320.748h-14.182v-14.182c0-4.143-3.358-7.5-7.5-7.5s-7.5 3.357-7.5 7.5v14.182h-14.182c-4.142 0-7.5 3.357-7.5 7.5s3.358 7.5 7.5 7.5h14.182v14.182c0 4.143 3.358 7.5 7.5 7.5s7.5-3.357 7.5-7.5v-14.182h14.182c4.142 0 7.5-3.357 7.5-7.5 0-4.142-3.358-7.5-7.5-7.5z"/><path d="m162.043 99.181h14.182v14.183c0 4.143 3.358 7.5 7.5 7.5s7.5-3.357 7.5-7.5v-14.183h14.182c4.142 0 7.5-3.357 7.5-7.5s-3.358-7.5-7.5-7.5h-14.182v-14.182c0-4.143-3.358-7.5-7.5-7.5s-7.5 3.357-7.5 7.5v14.182h-14.182c-4.142 0-7.5 3.357-7.5 7.5s3.358 7.5 7.5 7.5z"/><path d="m382.897 62.499c-4.142 0-7.5 3.357-7.5 7.5v59.2c0 4.143 3.358 7.5 7.5 7.5h37.495c4.142 0 7.5-3.357 7.5-7.5s-3.358-7.5-7.5-7.5h-29.995v-51.7c0-4.142-3.358-7.5-7.5-7.5z"/><path d="m382.897.08c-71.197 0-129.12 57.923-129.12 129.12 0 12.073 1.667 24.029 4.954 35.536 1.137 3.982 5.288 6.287 9.272 5.152 3.983-1.138 6.289-5.289 5.151-9.271-2.222-7.78-3.599-15.797-4.126-23.917h14.47c4.142 0 7.5-3.357 7.5-7.5s-3.358-7.5-7.5-7.5h-14.468c1.684-25.831 11.998-49.344 28.085-67.677l10.193 10.194c1.464 1.465 3.384 2.197 5.303 2.197s3.839-.732 5.303-2.196c2.929-2.93 2.929-7.678 0-10.606l-10.194-10.196c18.333-16.086 41.846-26.4 67.677-28.084v14.467c0 4.143 3.358 7.5 7.5 7.5s7.5-3.357 7.5-7.5v-14.467c25.831 1.684 49.344 11.998 67.677 28.084l-10.194 10.195c-2.929 2.929-2.929 7.677 0 10.606 1.464 1.464 3.384 2.196 5.303 2.196s3.839-.732 5.303-2.197l10.193-10.194c16.087 18.333 26.4 41.846 28.085 67.677h-14.468c-4.142 0-7.5 3.357-7.5 7.5s3.358 7.5 7.5 7.5h14.468c-1.684 25.831-11.997 49.343-28.084 67.676l-10.194-10.194c-2.929-2.928-7.678-2.929-10.607.001-2.929 2.929-2.929 7.677 0 10.606l10.194 10.193c-18.333 16.086-41.846 26.4-67.677 28.084v-14.468c0-4.142-3.358-7.5-7.5-7.5s-7.5 3.358-7.5 7.5v14.48c-25.449-1.635-49.087-11.571-67.76-28.013l10.277-10.277c2.929-2.93 2.929-7.678 0-10.606-2.929-2.93-7.678-2.929-10.606-.001l-10.254 10.254c-4.191-4.804-8.03-9.995-11.451-15.56-2.169-3.528-6.789-4.632-10.317-2.462-3.529 2.17-4.631 6.789-2.461 10.317 23.708 38.565 64.857 61.589 110.073 61.589 71.197 0 129.12-57.923 129.12-129.12 0-71.196-57.922-129.118-129.12-129.118z"/></g></g></svg>