<svg id="Capa_1" enable-background="new 0 0 512 512" height="512" viewBox="0 0 512 512" width="512" xmlns="http://www.w3.org/2000/svg"><g><g><path d="m390.55 504.5h-279.1c-13.807 0-25-11.193-25-25v-94.847l10-342.153c0-13.807 11.193-25 25-25h269.1c13.807 0 25 11.193 25 25v437c0 13.807-11.193 25-25 25z" fill="#245e7c"/><path d="m400.55 7.5h-30c13.807 0 25 11.193 25 25v447c0 13.807-11.193 25-25 25h30c13.807 0 25-11.193 25-25v-447c0-13.807-11.193-25-25-25z" fill="#1a4c65"/><path d="m390.55 7.5h-279.1c-13.807 0-25 11.193-25 25v352.153h309.1l20-352.153c0-13.807-11.193-25-25-25z" fill="#f9f6f9"/><path d="m400.55 7.5h-30c13.807 0 25 11.193 25 25v352.153h30v-352.153c0-13.807-11.193-25-25-25z" fill="#dedbec"/><path d="m280.719 414.653h-49.439c-16.191 0-29.317 13.126-29.317 29.317 0 16.191 13.126 29.317 29.317 29.317h49.439c16.191 0 29.317-13.126 29.317-29.317.001-16.192-13.125-29.317-29.317-29.317z" fill="#f9f6f9"/><path d="m358.013 143.608-72.053-52.424c-3.305-2.404-7.942-.044-7.942 4.043v23.745c0 2.761-2.239 5-5 5h-116.089c-2.761 0-5 2.239-5 5v37.356c0 2.761 2.239 5 5 5h116.088c2.761 0 5 2.239 5 5v23.745c0 4.087 4.637 6.448 7.942 4.043l72.053-52.424c2.745-1.995 2.745-6.087.001-8.084z" fill="#ea7bc1"/><path d="m153.987 297.495 72.053 52.424c3.305 2.404 7.942.044 7.942-4.043v-23.746c0-2.761 2.239-5 5-5h116.088c2.761 0 5-2.239 5-5v-37.357c0-2.761-2.239-5-5-5h-116.088c-2.761 0-5-2.239-5-5v-23.745c0-4.087-4.637-6.448-7.942-4.043l-72.053 52.424c-2.744 1.996-2.744 6.089 0 8.086z" fill="#ade4a4"/></g><g><path d="m310.036 63.95c4.143 0 7.5-3.357 7.5-7.5s-3.357-7.5-7.5-7.5h-108.073c-4.142 0-7.5 3.357-7.5 7.5s3.358 7.5 7.5 7.5z"/><path d="m231.281 407.152c-20.301 0-36.817 16.517-36.817 36.817 0 20.301 16.516 36.817 36.817 36.817h49.439c20.301 0 36.816-16.517 36.816-36.817 0-20.301-16.516-36.817-36.816-36.817zm71.255 36.818c0 12.03-9.787 21.817-21.816 21.817h-49.439c-12.03 0-21.817-9.787-21.817-21.817s9.787-21.817 21.817-21.817h49.439c12.029-.001 21.816 9.787 21.816 21.817z"/><path d="m400.55 0h-289.1c-17.92 0-32.5 14.579-32.5 32.5v67.166c0 4.143 3.358 7.5 7.5 7.5s7.5-3.357 7.5-7.5v-67.166c0-9.649 7.851-17.5 17.5-17.5h289.1c9.649 0 17.5 7.851 17.5 17.5v344.652h-53.777c-4.143 0-7.5 3.357-7.5 7.5s3.357 7.5 7.5 7.5h53.777v87.348c0 9.649-7.851 17.5-17.5 17.5h-289.1c-9.649 0-17.5-7.851-17.5-17.5v-87.348h237.636c4.143 0 7.5-3.357 7.5-7.5s-3.357-7.5-7.5-7.5h-237.636v-244.8c0-4.143-3.358-7.5-7.5-7.5s-7.5 3.357-7.5 7.5v347.148c0 17.921 14.58 32.5 32.5 32.5h289.1c17.921 0 32.5-14.579 32.5-32.5v-447c0-17.921-14.579-32.5-32.5-32.5z"/><path d="m144.429 128.973v37.356c0 6.893 5.607 12.5 12.5 12.5h113.588v21.245c0 4.727 2.617 8.995 6.829 11.14 1.802.918 3.746 1.37 5.68 1.37 2.588 0 5.158-.81 7.345-2.401l72.055-52.424c3.222-2.345 5.146-6.123 5.146-10.107 0-3.985-1.924-7.764-5.146-10.108 0 0 0 0-.001 0l-72.053-52.422c-3.822-2.783-8.813-3.177-13.024-1.034-4.213 2.145-6.83 6.413-6.83 11.141v21.245h-113.589c-6.892-.001-12.5 5.606-12.5 12.499zm209.172 20.699h-.001c-.001-.001-.001-.001-.002-.001zm-194.172-18.199h113.588c6.893 0 12.5-5.608 12.5-12.5v-18.834l65.305 47.512-65.305 47.514v-18.835c0-6.893-5.607-12.5-12.5-12.5h-113.588z"/><path d="m149.575 303.56 72.054 52.424c2.187 1.592 4.757 2.401 7.344 2.401 1.935 0 3.879-.452 5.68-1.37 4.212-2.145 6.829-6.412 6.829-11.139v-21.246h113.589c6.893 0 12.5-5.607 12.5-12.5v-37.357c0-6.893-5.607-12.5-12.5-12.5h-39.431c-4.143 0-7.5 3.357-7.5 7.5s3.357 7.5 7.5 7.5h36.931v32.357h-113.589c-6.893 0-12.5 5.607-12.5 12.5v18.835l-65.304-47.513 65.304-47.513v18.834c0 6.893 5.607 12.5 12.5 12.5h43.972c4.143 0 7.5-3.357 7.5-7.5s-3.357-7.5-7.5-7.5h-41.472v-21.245c0-4.727-2.617-8.995-6.829-11.14-4.212-2.144-9.203-1.749-13.025 1.032l-72.053 52.423c-3.222 2.344-5.146 6.122-5.146 10.106 0 3.986 1.923 7.766 5.146 10.111z"/></g></g></svg>