<svg id="Capa_1" enable-background="new 0 0 512 512" height="512" viewBox="0 0 512 512" width="512" xmlns="http://www.w3.org/2000/svg"><g><g><path d="m256 503.5c-5.069 0-10.074.727-15.001.195-69.248-7.477-123.16-66.12-123.16-137.356v-88.435-10.75c0-71.235 53.912-129.879 123.16-137.356 4.927-.532 9.932.195 15.001.195 76.304 0 128.161 60.857 128.161 137.161v99.185c0 76.304-51.857 137.161-128.161 137.161z" fill="#f9f6f9"/><path d="m256 129.994c-5.069 0-10.072.281-15 .813 69.248 7.478 123.161 65.113 123.161 136.348v99.185c0 71.235-53.913 129.87-123.161 137.347 4.928.532 9.931.813 15 .813 76.304 0 138.161-61.857 138.161-138.161v-88.435l-10-10.75c0-76.303-51.857-137.16-128.161-137.16z" fill="#dedbec"/><path d="m117.839 277.905h130.661l9.3-6.58 5.7 6.58h100.661l20-10.75c0-76.304-51.857-137.161-128.161-137.161-5.069 0-10.073-.727-15.001-.195-69.248 7.477-123.16 66.12-123.16 137.356z" fill="#dedbec"/><path d="m256 129.994c-2.517 0-5.017-.931-7.5-.796-2.518.137-5.019.341-7.5.609 69.248 7.477 123.161 66.113 123.161 137.348v10.75h30v-10.75c0-73.788-57.844-134.065-130.661-137.961-2.483-.133-4.984.8-7.5.8z" fill="#d1cfe7"/><path d="m256 232.739c-10.36 0-18.759-8.399-18.759-18.759v-21.061c0-10.36 8.399-18.759 18.759-18.759 10.36 0 18.759 8.399 18.759 18.759v21.061c0 10.36-8.399 18.759-18.759 18.759z" fill="#f9f6f9"/></g><path d="m355.603 171.115c-3.132 2.71-3.474 7.447-.763 10.579 20.521 23.711 31.821 54.062 31.821 85.46v3.25h-123.161v-31.262c10.835-3.236 18.759-13.289 18.759-25.163v-21.061c0-11.874-7.923-21.926-18.759-25.162v-31.028c24.973 1.405 48.71 9.795 69.05 24.524 3.353 2.431 8.044 1.682 10.473-1.676 2.43-3.354 1.68-8.044-1.676-10.473-22.916-16.594-49.691-25.979-77.847-27.398v-22.208c0-12.773 10.392-23.166 23.165-23.166h76.83c21.045 0 38.166-17.121 38.166-38.166 0-21.044-17.121-38.165-38.166-38.165h-187.875c-4.143 0-7.5 3.357-7.5 7.5s3.357 7.5 7.5 7.5h187.875c12.773 0 23.166 10.393 23.166 23.166s-10.393 23.165-23.166 23.165h-76.83c-21.044 0-38.165 17.121-38.165 38.166v22.188c-76.846 3.917-138.161 67.667-138.161 145.469v45.16c0 4.142 3.357 7.5 7.5 7.5s7.5-3.358 7.5-7.5v-26.91h261.322v80.935c0 72.047-58.614 130.661-130.661 130.661s-130.661-58.614-130.661-130.661v-21.338c0-4.143-3.357-7.5-7.5-7.5s-7.5 3.357-7.5 7.5v21.338c0 80.317 65.344 145.661 145.661 145.661s145.661-65.344 145.661-145.661v-99.185c0-35.003-12.601-68.84-35.479-95.276-2.711-3.133-7.449-3.474-10.579-.763zm-88.344 21.804v21.061c0 6.209-5.051 11.26-11.259 11.26s-11.259-5.051-11.259-11.26v-21.061c0-6.208 5.051-11.259 11.259-11.259s11.259 5.051 11.259 11.259zm-141.92 74.235c0-69.528 54.591-126.54 123.161-130.44v31.043c-10.835 3.236-18.759 13.288-18.759 25.162v21.061c0 11.874 7.923 21.927 18.759 25.163v31.262h-123.161z"/></g></svg>