<svg id="Capa_1" enable-background="new 0 0 512.005 512.005" height="512" viewBox="0 0 512.005 512.005" width="512" xmlns="http://www.w3.org/2000/svg"><g><g><path d="m181.365 412.534c0 50.771-31.163 90.929-81.934 90.929-4.758 0-9.431.638-13.993-.059-44.13-6.74-77.935-44.857-77.935-90.871 0-46.011 33.803-84.127 77.929-90.87 4.565-.697 9.24-.06 14-.06 50.77.001 81.933 40.16 81.933 90.931z" fill="#ade4a4"/><path d="m99.431 320.605c-4.757 0-9.431.361-13.993 1.058 44.129 6.74 77.935 44.857 77.935 90.871 0 46.013-33.806 84.131-77.935 90.87 4.563.697 9.236 1.058 13.993 1.058 50.771 0 91.929-41.158 91.929-91.929s-41.158-91.928-91.929-91.928z" fill="#8bd5a7"/><path d="m243.854 141.3-41.613 155.303c-2.148 8.014 5.186 15.348 13.2 13.2l155.303-41.613z" fill="#d1cfe7"/><path d="m390.71 430.842 107.97-405.357c2.147-8.014-5.186-15.348-13.2-13.2l-12.542.455-401.275 107.521c-9.49 2.543-10.907 15.419-2.198 19.966l191.158 99.775c.177.092.353.187.528.283 2.433 1.34 6.387.558 8.283 2.551 1.586 1.667 1.204 6.021 2.325 8.057.096.175.191.351.283.528l92.765 177.727 5.937 3.892c4.547 8.71 17.423 7.293 19.966-2.198z" fill="#f9f6f9"/><path d="m490.923 7.921-17.985 4.819c1.451 2.371 2.019 5.324 1.199 8.381l-109.33 408.027 7.01 13.431c4.546 8.71 17.423 7.293 19.966-2.198l112.341-419.26c.268-1.002.389-1.993.378-2.956-.032-2.887-8.684 1.121-10.606-.804-1.921-1.925 2.888-9.781.002-9.818-.969-.012-1.966.108-2.975.378z" fill="#dedbec"/><path d="m501.334 10.711-234.125 234.125" fill="#efedef"/></g><g><path d="m53.244 403.568c-2.928 2.929-2.928 7.678.002 10.606l32.439 32.428c1.409 1.409 3.317 2.196 5.302 2.196.096 0 .192-.002.288-.005 2.087-.08 4.046-1.027 5.406-2.613l49.322-57.523c2.696-3.145 2.332-7.879-.812-10.576-3.144-2.694-7.879-2.332-10.576.812l-44.051 51.377-26.714-26.704c-2.928-2.928-7.677-2.927-10.606.002z"/><path d="m72.933 133.581c-1.729-.902-1.833-2.433-1.742-3.265.092-.832.526-2.303 2.41-2.808l197.427-52.9c4.001-1.072 6.375-5.185 5.303-9.186-1.071-4.001-5.183-6.374-9.185-5.304l-197.427 52.9c-7.332 1.965-12.607 8.11-13.437 15.656-.831 7.545 2.981 14.691 9.711 18.203l147.914 77.203-18.913 70.583c-1.71 6.383.058 12.983 4.73 17.655 3.5 3.5 8.081 5.371 12.842 5.37 1.595 0 3.212-.21 4.813-.639l70.583-18.913 25.256 48.387c1.338 2.564 3.95 4.031 6.654 4.031 1.17 0 2.356-.274 3.465-.853 3.672-1.917 5.095-6.447 3.178-10.119l-47.826-91.63c-.453-.868-.947-1.706-1.466-2.526l217.241-217.24-109.927 410.257c-.505 1.884-1.977 2.318-2.808 2.41-.836.091-2.363-.013-3.266-1.742l-36.851-70.601c-1.917-3.674-6.449-5.094-10.119-3.179-3.672 1.917-5.095 6.447-3.178 10.119l36.851 70.601c3.192 6.118 9.387 9.824 16.156 9.824.677 0 1.36-.037 2.047-.112 7.546-.831 13.69-6.105 15.655-13.438l112.34-419.26c1.707-6.37-.051-12.956-4.703-17.626-.009-.01-.017-.02-.026-.029s-.018-.016-.027-.024c-4.671-4.654-11.258-6.414-17.629-4.707l-190.275 50.985c-4.001 1.072-6.375 5.185-5.303 9.186 1.071 4.001 5.183 6.373 9.186 5.304l181.27-48.571-217.241 217.24c-.819-.519-1.657-1.013-2.524-1.466zm207.919 150.933-67.354 18.048c-1.591.425-2.668-.348-3.167-.848-.5-.5-1.274-1.576-.848-3.167l18.047-67.354 29.621 15.461c1.753.915 3.336 2.077 4.712 3.446.014.014.025.029.039.043s.029.025.043.039c1.368 1.377 2.531 2.96 3.446 4.713z"/><path d="m117.089 314.672c-4.078-.726-7.975 1.981-8.707 6.058-.731 4.077 1.981 7.975 6.058 8.707 40.223 7.214 69.417 42.162 69.417 83.1 0 46.554-37.875 84.429-84.429 84.429s-84.428-37.875-84.428-84.429c0-40.938 29.194-75.886 69.417-83.1 4.077-.731 6.789-4.629 6.058-8.707-.731-4.077-4.633-6.786-8.706-6.058-47.38 8.498-81.769 49.656-81.769 97.865 0 54.825 44.604 99.429 99.429 99.429 54.826 0 99.429-44.604 99.429-99.429 0-48.209-34.389-89.367-81.769-97.865z"/></g></g></svg>