<svg id="Capa_1" enable-background="new 0 0 511.39 511.39" height="512" viewBox="0 0 511.39 511.39" width="512" xmlns="http://www.w3.org/2000/svg"><g><g><path d="m267.956 303.092h-34.523v195.493c0 2.762 2.239 5 5 5h24.523c2.761 0 5-2.238 5-5z" fill="#f9f6f9"/><path d="m259.956 303.092v195.493c0 2.761-2.238 5-5 5h18c2.762 0 5-2.239 5-5v-195.493z" fill="#dedbec"/><path d="m412.266 173.766c0 91.995-64.577 165.571-156.572 165.571-5.056 0-10.06.775-15.001.334-84.966-7.584-151.57-78.966-151.57-165.905s66.604-158.321 151.571-165.905c4.941-.441 9.945.334 15.001.334 91.995 0 156.571 73.576 156.571 165.571z" fill="#ade4a4"/><path d="m255.695 7.195c-5.057 0-10.058.238-15 .68 84.965 7.585 151.572 78.954 151.572 165.892s-66.607 158.307-151.572 165.892c4.942.441 9.943.68 15 .68 91.995 0 166.572-74.577 166.572-166.572-.001-91.996-74.577-166.572-166.572-166.572z" fill="#8bd5a7"/><circle cx="255.695" cy="173.766" fill="#f9f6f9" r="123.716"/><ellipse cx="255.695" cy="173.766" fill="#ade4a4" rx="80.861" ry="80.861" transform="matrix(.707 -.707 .707 .707 -47.98 231.699)"/><circle cx="255.695" cy="173.766" fill="#ea7bc1" r="22.265"/></g><g><path d="m406.476 296.221-16.396 1.628-6.171-6.171c28.458-31 45.857-72.308 45.857-117.607 0-95.983-78.088-174.071-174.071-174.071s-174.072 78.088-174.072 174.071c0 85.838 62.456 157.355 144.31 171.517v153.302c0 6.893 5.607 12.5 12.5 12.5h34.523c6.893 0 12.5-5.607 12.5-12.5v-72.926c0-4.143-3.357-7.5-7.5-7.5s-7.5 3.357-7.5 7.5v70.426h-29.523v-148.879c4.868.411 9.789.632 14.762.632s9.894-.221 14.762-.632v45.766c0 4.143 3.357 7.5 7.5 7.5s7.5-3.357 7.5-7.5v-47.689c33.522-5.8 63.788-21.217 87.845-43.302l6.171 6.171-1.628 16.397c-.41 4.122 2.6 7.795 6.722 8.204.252.025.502.038.75.038 3.809 0 7.07-2.89 7.454-6.76l1.373-13.816 13.815-1.373c4.122-.409 7.132-4.082 6.722-8.204-.41-4.123-4.081-7.128-8.205-6.722zm-150.781 36.922c-87.712 0-159.071-71.359-159.071-159.072-.001-87.712 71.359-159.071 159.071-159.071s159.071 71.359 159.071 159.071c0 41.163-15.717 78.725-41.465 106.999l-19.719-19.719c20.716-23.208 33.329-53.797 33.329-87.281 0-29.254-9.419-56.936-27.24-80.051-2.528-3.28-7.236-3.893-10.519-1.36-3.28 2.528-3.89 7.238-1.36 10.519 15.778 20.468 24.119 44.981 24.119 70.893 0 29.348-10.94 56.185-28.949 76.661l-19.741-19.741c12.99-15.387 20.834-35.253 20.834-56.92 0-48.723-39.639-88.361-88.361-88.361s-88.361 39.639-88.361 88.361c0 48.723 39.639 88.361 88.361 88.361 21.667 0 41.533-7.843 56.92-20.834l19.741 19.741c-20.476 18.009-47.313 28.949-76.661 28.949-58.093 0-107.623-43.358-115.211-100.854-.543-4.106-4.316-6.999-8.417-6.454-4.106.542-6.996 4.31-6.454 8.417 8.569 64.929 64.492 113.892 130.082 113.892 33.484 0 64.072-12.613 87.281-33.329l19.719 19.719c-28.275 25.747-65.836 41.464-106.999 41.464zm25.661-144.017c2.603-4.42 4.103-9.564 4.103-15.054 0-16.412-13.353-29.765-29.765-29.765s-29.765 13.353-29.765 29.765c0 16.413 13.352 29.766 29.765 29.766 5.49 0 10.634-1.5 15.055-4.104l31.215 31.215c-12.633 10.296-28.74 16.484-46.27 16.484-40.451 0-73.361-32.91-73.361-73.361s32.91-73.361 73.361-73.361 73.361 32.91 73.361 73.361c0 17.53-6.188 33.637-16.484 46.27zm-25.661-.289c-8.142 0-14.765-6.624-14.765-14.766s6.623-14.765 14.765-14.765 14.765 6.623 14.765 14.765-6.624 14.766-14.765 14.766z"/><path d="m132.067 165.163c.333.044.664.065.991.065 3.705 0 6.928-2.746 7.426-6.52 7.588-57.496 57.118-100.854 115.211-100.854 25.569 0 49.822 8.141 70.138 23.542 3.304 2.504 8.007 1.854 10.508-1.445 2.503-3.301 1.855-8.006-1.445-10.508-22.945-17.394-50.332-26.589-79.2-26.589-65.59 0-121.513 48.962-130.082 113.891-.543 4.107 2.346 7.876 6.453 8.418z"/></g></g></svg>