<svg id="Capa_1" enable-background="new 0 0 512 512" height="512" viewBox="0 0 512 512" width="512" xmlns="http://www.w3.org/2000/svg"><g><g><path d="m256 7.5c-72.524 0-131.317 58.793-131.317 131.317v334.366h262.634v-334.366c0-72.524-58.793-131.317-131.317-131.317z" fill="#ea7bc1"/><path d="m256 7.5c-5.073 0-10.077.298-15 .858 65.459 7.445 116.317 63.008 116.317 130.459v334.366h30v-334.366c0-72.524-58.793-131.317-131.317-131.317z" fill="#ea5bb1"/><path d="m321.707 263.787h-131.414c-5.523 0-10-4.477-10-10v-39.087c0-5.523 4.477-10 10-10h131.415c5.523 0 10 4.477 10 10v39.087c-.001 5.523-4.478 10-10.001 10z" fill="#245e7c"/><path d="m388.905 369.696h-275.81c-11.888 0-21.526-9.637-21.526-21.526 0-11.888 9.637-21.526 21.526-21.526h275.81c11.888 0 21.526 9.637 21.526 21.526 0 11.889-9.638 21.526-21.526 21.526z" fill="#f9f6f9"/><path d="m398.905 326.645h-30c11.888 0 21.526 9.637 21.526 21.526 0 11.888-9.637 21.526-21.526 21.526h30c11.888 0 21.526-9.637 21.526-21.526 0-11.889-9.638-21.526-21.526-21.526z" fill="#dedbec"/><path d="m388.905 171.843h-275.81c-11.888 0-21.526-9.637-21.526-21.526 0-11.888 9.637-21.526 21.526-21.526h275.81c11.888 0 21.526 9.637 21.526 21.526 0 11.888-9.638 21.526-21.526 21.526z" fill="#f9f6f9"/><path d="m398.905 128.791h-30c11.888 0 21.526 9.637 21.526 21.526 0 11.888-9.637 21.526-21.526 21.526h30c11.888 0 21.526-9.637 21.526-21.526 0-11.888-9.638-21.526-21.526-21.526z" fill="#dedbec"/><path d="m97.594 441.866h296.812c8.284 0 15 6.716 15 15v42.634c0 2.761-2.239 5-5 5h-316.812c-2.761 0-5-2.239-5-5v-42.634c0-8.285 6.716-15 15-15z" fill="#245e7c"/><path d="m414.406 441.866h-30c8.284 0 15 6.716 15 15v42.634c0 2.762-2.239 5-5 5h30c2.761 0 5-2.238 5-5v-42.634c0-8.284-6.716-15-15-15z" fill="#1a4c65"/></g><g><path d="m321.707 271.287c9.649 0 17.5-7.851 17.5-17.5v-39.087c0-9.649-7.851-17.5-17.5-17.5h-131.415c-9.649 0-17.5 7.851-17.5 17.5v39.087c0 9.649 7.851 17.5 17.5 17.5zm-133.915-17.5v-39.087c0-1.379 1.122-2.5 2.5-2.5h131.415c1.378 0 2.5 1.121 2.5 2.5v39.087c0 1.379-1.122 2.5-2.5 2.5h-131.415c-1.378 0-2.5-1.121-2.5-2.5z"/><path d="m215.656 241.743h80.687c4.142 0 7.5-3.357 7.5-7.5s-3.358-7.5-7.5-7.5h-80.687c-4.142 0-7.5 3.357-7.5 7.5s3.358 7.5 7.5 7.5z"/><path d="m414.406 434.365h-19.589v-57.169h4.088c16.005 0 29.026-13.02 29.026-29.025s-13.021-29.026-29.026-29.026h-4.088v-139.802h4.088c16.005 0 29.026-13.021 29.026-29.025s-13.021-29.026-29.026-29.026h-5.192c-4.082-32.372-19.422-62.205-43.589-84.509-25.701-23.721-59.128-36.783-94.124-36.783-34.604 0-67.752 12.808-93.339 36.063-24.576 22.336-40.251 52.494-44.379 85.228h-5.187c-16.005 0-29.026 13.021-29.026 29.026s13.021 29.025 29.026 29.025h4.088v30.886c0 4.143 3.358 7.5 7.5 7.5s7.5-3.357 7.5-7.5v-30.886h247.634v139.802h-247.634v-76.23c0-4.142-3.358-7.5-7.5-7.5s-7.5 3.358-7.5 7.5v76.23h-4.088c-16.005 0-29.026 13.021-29.026 29.026s13.021 29.025 29.026 29.025h4.088v57.169h-19.589c-12.407 0-22.5 10.094-22.5 22.5v42.636c0 6.893 5.607 12.5 12.5 12.5h336.812c6.893 0 12.5-5.607 12.5-12.5v-42.635c0-12.406-10.094-22.5-22.5-22.5zm-315.337-284.048c0-7.734 6.292-14.026 14.026-14.026h180.325c4.142 0 7.5-3.357 7.5-7.5s-3.358-7.5-7.5-7.5h-160c4.035-28.46 17.878-54.63 39.33-74.127 22.82-20.741 52.386-32.164 83.25-32.164 31.214 0 61.028 11.65 83.951 32.806 21.089 19.463 34.641 45.348 38.628 73.485h-52.408c-4.142 0-7.5 3.357-7.5 7.5s3.358 7.5 7.5 7.5h72.734c7.734 0 14.026 6.292 14.026 14.026 0 7.733-6.292 14.025-14.026 14.025h-285.81c-7.734.001-14.026-6.291-14.026-14.025zm0 197.854c0-7.734 6.292-14.026 14.026-14.026h285.81c7.734 0 14.026 6.292 14.026 14.026 0 7.733-6.292 14.025-14.026 14.025h-285.81c-7.734 0-14.026-6.292-14.026-14.025zm322.837 148.829h-331.812v-40.135c0-4.136 3.365-7.5 7.5-7.5h196.099c4.142 0 7.5-3.357 7.5-7.5s-3.358-7.5-7.5-7.5h-161.51v-57.169h247.634v57.169h-53.437c-4.142 0-7.5 3.357-7.5 7.5s3.358 7.5 7.5 7.5h88.026c4.135 0 7.5 3.364 7.5 7.5z"/></g></g></svg>