<svg id="Capa_1" enable-background="new 0 0 512 512" height="512" viewBox="0 0 512 512" width="512" xmlns="http://www.w3.org/2000/svg"><g><g><path d="m37.617 119.774v269.404l417.766 20v-289.404c0-8.284-6.716-15-15-15h-387.766c-8.284 0-15 6.715-15 15z" fill="#95c7f8"/><path d="m459.383 104.773h-30c8.284 0 15 6.716 15 15v289.405l30-20v-269.405c0-8.284-6.716-15-15-15z" fill="#75b5f8"/><path d="m469.5 451.785h-437c-13.807 0-25-11.193-25-25v-27.607c0-5.523 4.477-10 10-10h179.641l62.409 10 55.31-10h169.64c5.523 0 10 4.477 10 10v27.607c0 13.807-11.193 25-25 25z" fill="#f9f6f9"/><path d="m494.5 389.178h-30c5.523 0 10 4.477 10 10v27.607c0 13.807-11.193 25-25 25h30c13.807 0 25-11.193 25-25v-27.607c0-5.523-4.477-10-10-10z" fill="#dedbec"/><path d="m304.859 420.482h-97.718c-5.523 0-10-4.477-10-10v-21.304h117.718v21.304c0 5.522-4.477 10-10 10z" fill="#dedbec"/><path d="m415.62 311.685-137.969-238.97c-9.622-16.667-33.679-16.667-43.301 0l-137.97 238.97c-9.623 16.667 2.406 37.5 21.651 37.5h275.939c19.244 0 31.273-20.833 21.65-37.5z" fill="#ea7bc1"/><ellipse cx="256" cy="294.007" fill="#f9f6f9" rx="15.139" ry="15.138" transform="matrix(.098 -.995 .995 .098 -61.735 519.883)"/><g><g><g><path d="m256.153 253.143c-8.276 0-14.985-6.709-14.985-14.985v-88.62c0-8.276 6.709-14.985 14.985-14.985s14.985 6.709 14.985 14.985v88.62c0 8.276-6.709 14.985-14.985 14.985z" fill="#f9f6f9"/></g></g></g></g><g><path d="m494.5 381.678h-12.617v-261.905c0-12.406-10.093-22.5-22.5-22.5h-72.987c-4.142 0-7.5 3.357-7.5 7.5s3.358 7.5 7.5 7.5h72.987c4.136 0 7.5 3.364 7.5 7.5v261.904h-356.834c-4.142 0-7.5 3.357-7.5 7.5s3.358 7.5 7.5 7.5h79.591v13.804c0 9.649 7.851 17.5 17.5 17.5h97.719c9.649 0 17.5-7.851 17.5-17.5v-13.804h172.141c1.378 0 2.5 1.121 2.5 2.5v27.607c0 9.649-7.851 17.5-17.5 17.5h-74.328c-4.142 0-7.5 3.357-7.5 7.5s3.358 7.5 7.5 7.5h74.328c17.92 0 32.5-14.579 32.5-32.5v-27.607c0-9.649-7.851-17.499-17.5-17.499zm-187.141 28.803c0 1.379-1.122 2.5-2.5 2.5h-97.719c-1.378 0-2.5-1.121-2.5-2.5v-13.804h102.719z"/><path d="m372.486 444.285h-339.986c-9.649 0-17.5-7.851-17.5-17.5v-27.607c0-1.379 1.122-2.5 2.5-2.5h59.863c4.142 0 7.5-3.357 7.5-7.5s-3.358-7.5-7.5-7.5h-32.246v-261.905c0-4.136 3.364-7.5 7.5-7.5h150.233l-112.965 195.662c-5.875 10.176-5.875 22.325 0 32.5 5.874 10.175 16.396 16.25 28.146 16.25h275.939c11.749 0 22.271-6.074 28.145-16.25 5.875-10.175 5.875-22.324 0-32.5l-112.965-195.662h44.559c4.142 0 7.5-3.357 7.5-7.5s-3.358-7.5-7.5-7.5h-53.219l-16.344-28.309c-5.875-10.176-16.397-16.25-28.146-16.25s-22.271 6.075-28.145 16.25l-16.345 28.309h-158.893c-12.407 0-22.5 10.094-22.5 22.5v261.904h-12.617c-9.649 0-17.5 7.851-17.5 17.5v27.607c0 17.921 14.58 32.5 32.5 32.5h339.986c4.142 0 7.5-3.357 7.5-7.5 0-4.141-3.358-7.499-7.5-7.499zm-131.641-367.82c3.163-5.479 8.829-8.75 15.155-8.75 6.327 0 11.992 3.271 15.156 8.75l137.969 238.97c3.163 5.479 3.163 12.021 0 17.5s-8.829 8.75-15.155 8.75h-275.939c-6.327 0-11.992-3.272-15.156-8.75-3.163-5.479-3.163-12.021 0-17.5z"/><path d="m256 316.646c12.483 0 22.639-10.155 22.639-22.639s-10.156-22.639-22.639-22.639-22.639 10.155-22.639 22.639 10.156 22.639 22.639 22.639zm0-30.278c4.212 0 7.639 3.427 7.639 7.639s-3.427 7.639-7.639 7.639-7.639-3.427-7.639-7.639 3.427-7.639 7.639-7.639z"/><path d="m256.153 260.644c12.398 0 22.485-10.087 22.485-22.485v-88.62c0-12.398-10.087-22.485-22.485-22.485-12.399 0-22.486 10.087-22.486 22.485v88.62c0 12.398 10.087 22.485 22.486 22.485zm-7.486-111.106c0-4.127 3.358-7.485 7.486-7.485s7.485 3.358 7.485 7.485v88.62c0 4.128-3.358 7.485-7.485 7.485-4.128 0-7.486-3.357-7.486-7.485z"/></g></g></svg>