<svg id="Capa_1" enable-background="new 0 0 512 512" height="512" viewBox="0 0 512 512" width="512" xmlns="http://www.w3.org/2000/svg"><g><g><path d="m390.786 494.5-276.186 3.032c-10.858 0-26.173-1.283-27.247-11.858-.072-.705-.108-1.42-.108-2.144v-187.023c0-.635.028-1.264.083-1.884.953-10.699 29.94-9.086 40.887-9.086h262.571c11.582 0 20.97-.611 20.97 10.97v187.023c0 11.581-9.389 10.97-20.97 10.97z" fill="#f9f6f9"/><path d="m403.786 285.536h-30c11.582 0 20.97-.611 20.97 10.97v187.024c0 11.582-9.389 10.97-20.97 10.97h30c10.858 0 19.788 1.748 20.862-8.826.072-.705.108-1.42.108-2.144v-187.023c0-.635-.028-1.264-.083-1.885-.953-10.699-9.941-9.086-20.887-9.086z" fill="#dedbec"/><path d="m394.756 434.734-33.743-57.184c-21.928-37.16-61.864-59.965-105.013-59.965-43.149 0-83.084 22.804-105.013 59.966l-63.648 107.862c.954 10.698 9.93 19.087 20.875 19.087h285.571c10.946 0 5.486-55.135.971-69.766z" fill="#95c7f8"/><path d="m424.661 485.413-29.905-50.679v48.795c0 11.582-9.389 20.97-20.97 20.97h30c10.945.001 19.921-8.388 20.875-19.086z" fill="#75b5f8"/><path d="m87.339 294.623 63.648 107.862c21.928 37.161 61.864 59.966 105.013 59.966 43.149 0 83.084-22.805 105.013-59.966l33.743-57.184c6.33-27.717 9.975-69.766-.97-69.766h-285.572c-10.945.001-19.921 8.39-20.875 19.088z" fill="#dedbec"/><path d="m424.661 294.623c-.954-10.698-9.93-19.087-20.875-19.087h-29.997c11.581.001 20.968 9.39 20.968 20.97v48.795z" fill="#d1cfe7"/><path d="m390.786 226.464-276.186 3.032c-10.858 0-26.173-1.283-27.247-11.858-.072-.705-.108-1.42-.108-2.144v-187.023c0-.635.028-1.264.083-1.885.953-10.699 29.94-9.086 40.887-9.086h262.571c11.582 0 20.97-.611 20.97 10.97v187.023c0 11.582-9.389 10.971-20.97 10.971z" fill="#f9f6f9"/><path d="m403.786 17.5h-30c11.582 0 20.97-.611 20.97 10.971v187.023c0 11.582-9.389 10.971-20.97 10.971h30c10.858 0 19.788 1.748 20.862-8.826.072-.705.108-1.42.108-2.144v-187.024c0-.635-.028-1.264-.083-1.885-.953-10.699-9.941-9.086-20.887-9.086z" fill="#dedbec"/><path d="m394.756 166.698-33.743-57.183c-21.928-37.161-61.864-59.966-105.013-59.966-43.149 0-83.084 22.805-105.013 59.966l-63.648 107.862c.954 10.698 9.93 19.087 20.875 19.087h285.571c10.946 0 5.486-55.135.971-69.766z" fill="#95c7f8"/><path d="m424.661 217.377-29.905-50.679v48.795c0 11.582-9.389 20.971-20.97 20.971h30c10.945 0 19.921-8.389 20.875-19.087z" fill="#75b5f8"/><path d="m87.339 26.587 63.648 107.862c21.928 37.161 61.864 59.966 105.013 59.966 43.149 0 83.084-22.804 105.013-59.966l33.743-57.184c6.33-27.717 9.975-69.766-.97-69.766h-285.572c-10.945.001-19.921 8.39-20.875 19.088z" fill="#dedbec"/><path d="m424.661 26.587c-.954-10.698-9.93-19.087-20.875-19.087h-29.997c11.581.002 20.968 9.39 20.968 20.971v48.795z" fill="#d1cfe7"/></g><g><path d="m496.717 382.519h-64.857v-36.848h30.844c4.143 0 7.5-3.357 7.5-7.5s-3.357-7.5-7.5-7.5h-30.844v-34.164c0-15.699-12.771-28.471-28.471-28.471h-295.572c-15.699 0-28.47 12.771-28.47 28.471v187.022c0 15.699 12.771 28.471 28.47 28.471h295.571c15.699 0 28.471-12.772 28.471-28.471v-34.164h30.844c4.143 0 7.5-3.357 7.5-7.5s-3.357-7.5-7.5-7.5h-30.844v-36.847h64.857c4.143 0 7.5-3.357 7.5-7.5.001-4.142-3.357-7.499-7.499-7.499zm-120.036 7.499 40.178-68.088v136.177zm-282.334-68.088 40.178 68.089-40.178 68.088zm309.042 175.07h-295.572c-6.27 0-11.536-4.311-13.032-10.121l48.448-82.103.897 1.52c23.169 39.264 65.883 63.654 111.473 63.654 18.944 0 37.259-4.038 54.437-12.004 3.758-1.742 5.392-6.201 3.648-9.959-1.741-3.757-6.199-5.393-9.959-3.648-15.186 7.041-31.377 10.611-48.127 10.611-40.306 0-78.07-21.565-98.553-56.277l-62.263-105.516c1.495-5.809 6.762-10.121 13.032-10.121h295.571c6.27 0 11.538 4.312 13.032 10.122l-62.264 105.516c-6.587 11.161-14.948 21.048-24.851 29.383-3.169 2.668-3.575 7.399-.908 10.568 1.484 1.762 3.605 2.67 5.742 2.67 1.705 0 3.42-.578 4.826-1.763 11.201-9.429 20.659-20.611 28.108-33.235l.898-1.522 48.448 82.103c-1.494 5.81-6.761 10.122-13.031 10.122z"/><path d="m324.149 312.824c-4.057-.852-8.027 1.756-8.873 5.811l-14.223 68.188c-.846 4.055 1.756 8.027 5.811 8.873.517.108 1.031.16 1.539.16 3.477 0 6.596-2.433 7.334-5.971l14.223-68.188c.846-4.054-1.756-8.027-5.811-8.873z"/><path d="m195.93 318.635c-.846-4.055-4.818-6.649-8.873-5.811-4.055.846-6.656 4.818-5.811 8.873l14.222 68.188c.738 3.539 3.857 5.971 7.334 5.971.507 0 1.023-.053 1.539-.16 4.055-.846 6.657-4.818 5.811-8.873z"/><path d="m308.403 127.819c3.477 0 6.596-2.433 7.334-5.971l14.223-68.188c.846-4.055-1.756-8.027-5.811-8.873-4.057-.857-8.027 1.756-8.873 5.81l-14.223 68.188c-.846 4.055 1.756 8.027 5.811 8.873.517.11 1.032.161 1.539.161z"/><path d="m187.057 44.788c-4.055.846-6.656 4.818-5.811 8.873l14.222 68.188c.738 3.539 3.857 5.971 7.334 5.971.507 0 1.023-.053 1.539-.16 4.055-.846 6.657-4.818 5.811-8.873l-14.222-68.188c-.846-4.055-4.818-6.653-8.873-5.811z"/><path d="m79.347 215.493c0 15.699 12.771 28.471 28.47 28.471h38.106c4.142 0 7.5-3.357 7.5-7.5s-3.358-7.5-7.5-7.5h-38.106c-6.27 0-11.536-4.312-13.032-10.121l48.448-82.103.897 1.52c23.169 39.264 65.883 63.654 111.473 63.654 45.589 0 88.303-24.391 111.472-63.654l.898-1.521 48.448 82.102c-1.495 5.81-6.762 10.122-13.032 10.122h-224.779c-4.142 0-7.5 3.357-7.5 7.5s3.358 7.5 7.5 7.5h224.779c15.699 0 28.471-12.771 28.471-28.471v-187.021c-.001-15.7-12.772-28.471-28.471-28.471h-111.468c-4.143 0-7.5 3.357-7.5 7.5s3.357 7.5 7.5 7.5h111.468c6.27 0 11.538 4.312 13.032 10.122l-62.264 105.516c-20.484 34.713-58.248 56.277-98.554 56.277s-78.07-21.564-98.553-56.277l-62.264-105.517c1.495-5.809 6.762-10.121 13.031-10.121h151.079c4.143 0 7.5-3.357 7.5-7.5s-3.357-7.5-7.5-7.5h-151.079c-15.699 0-28.47 12.771-28.47 28.471v34.164h-30.05c-4.142 0-7.5 3.357-7.5 7.5 0 4.142 3.358 7.5 7.5 7.5h30.05v36.847h-64.064c-4.142 0-7.5 3.357-7.5 7.5s3.358 7.5 7.5 7.5h64.064v36.848h-30.05c-4.142 0-7.5 3.357-7.5 7.5s3.358 7.5 7.5 7.5h30.05zm337.512-25.423-40.178-68.088 40.178-68.088zm-322.512 0v-136.176l40.178 68.088z"/></g></g></svg>