<svg id="Capa_1" enable-background="new 0 0 512 512" height="512" viewBox="0 0 512 512" width="512" xmlns="http://www.w3.org/2000/svg"><g><g><path d="m37.617 97.494v269.404l417.766 20v-289.404c0-8.284-6.716-15-15-15h-387.766c-8.284 0-15 6.716-15 15z" fill="#95c7f8"/><path d="m459.383 82.494h-30c8.284 0 15 6.716 15 15v289.405l30-20v-269.405c0-8.284-6.716-15-15-15z" fill="#75b5f8"/><path d="m268.805 376.899h-45.61v-61.372h45.61l10 30.686z" fill="#ffe187"/><path d="m268.805 315.527h20v61.371h-20z" fill="#ffd26f"/><path d="m390.537 200.623h-269.074c-5.5 0-10 4.5-10 10v55.593c0 5.5 4.5 10 10 10h269.074c5.5 0 10-4.5 10-10v-55.593c0-5.5-4.5-10-10-10z" fill="#dedbec"/><path d="m390.537 200.623h-134.537v75.593h134.537c5.5 0 10-4.5 10-10v-55.593c0-5.5-4.5-10-10-10z" fill="#d1cfe7"/><path d="m331.107 325.994h-160.214c-13.807 0-25-11.193-25-25v-24.777l10-24.094-10-51.499v-24.777c0-13.807 11.193-25 25-25h160.214c13.807 0 25 11.193 25 25v125.148c0 13.806-11.193 24.999-25 24.999z" fill="#245e7c"/><path d="m341.107 150.846h-30c13.807 0 25 11.193 25 25v125.148c0 13.807-11.193 25-25 25h30c13.807 0 25-11.193 25-25v-24.778l-10-31.594 10-43.999v-24.777c0-13.807-11.193-25-25-25z" fill="#1a4c65"/><path d="m336.107 276.216h-190.214v-75.593h190.214l10 37.797z" fill="#f9f6f9"/><path d="m336.107 200.623h30v75.593h-30z" fill="#dedbec"/><path d="m469.5 429.506h-437c-13.807 0-25-11.193-25-25v-27.607c0-5.523 4.477-10 10-10h179.641l62.409 10 55.31-10h169.64c5.523 0 10 4.477 10 10v27.607c0 13.807-11.193 25-25 25z" fill="#f9f6f9"/><g fill="#dedbec"><path d="m494.5 366.899h-30c5.523 0 10 4.477 10 10v27.607c0 13.807-11.193 25-25 25h30c13.807 0 25-11.193 25-25v-27.607c0-5.523-4.477-10-10-10z"/><path d="m304.859 398.202h-97.718c-5.523 0-10-4.477-10-10v-21.304h117.718v21.304c0 5.523-4.477 10-10 10z"/></g></g><g><path d="m494.5 359.398h-12.617v-261.904c0-12.406-10.094-22.5-22.5-22.5h-92.987c-4.143 0-7.5 3.357-7.5 7.5s3.357 7.5 7.5 7.5h92.987c4.136 0 7.5 3.364 7.5 7.5v261.904h-170.577v-25.905h44.802c17.921 0 32.5-14.579 32.5-32.5v-17.277h16.93c9.649 0 17.5-7.851 17.5-17.5v-55.593c0-9.649-7.851-17.5-17.5-17.5h-16.93v-17.277c0-17.921-14.579-32.5-32.5-32.5h-77.608v-20.611c0-4.143-3.357-7.5-7.5-7.5s-7.5 3.357-7.5 7.5v20.611h-77.607c-17.921 0-32.5 14.579-32.5 32.5v17.277h-16.93c-9.649 0-17.5 7.851-17.5 17.5v55.593c0 9.649 7.851 17.5 17.5 17.5h16.93v17.277c0 17.921 14.579 32.5 32.5 32.5h44.802v25.905h-105.645c-4.143 0-7.5 3.357-7.5 7.5s3.357 7.5 7.5 7.5h79.591v13.804c0 9.65 7.851 17.5 17.5 17.5h97.719c9.649 0 17.5-7.85 17.5-17.5v-13.804h172.14c1.379 0 2.5 1.121 2.5 2.5v27.607c0 9.649-7.851 17.5-17.5 17.5h-74.328c-4.143 0-7.5 3.357-7.5 7.5s3.357 7.5 7.5 7.5h74.328c17.921 0 32.5-14.579 32.5-32.5v-27.607c0-9.649-7.851-17.5-17.5-17.5zm-341.107-151.275h205.215v60.593h-205.215zm239.644 2.5v55.593c0 1.355-1.145 2.5-2.5 2.5h-16.93v-60.593h16.93c1.356 0 2.5 1.145 2.5 2.5zm-222.144-52.277h170.215c9.649 0 17.5 7.851 17.5 17.5v17.277h-205.215v-17.277c0-9.65 7.85-17.5 17.5-17.5zm-51.93 107.87v-55.593c0-1.355 1.145-2.5 2.5-2.5h16.93v60.593h-16.93c-1.356 0-2.5-1.145-2.5-2.5zm34.43 34.777v-17.277h205.215v17.277c0 9.649-7.851 17.5-17.5 17.5h-170.215c-9.65 0-17.5-7.85-17.5-17.5zm77.301 32.5h50.611v25.905h-50.611zm76.665 54.709c0 1.379-1.121 2.5-2.5 2.5h-97.719c-1.379 0-2.5-1.121-2.5-2.5v-13.804h102.719z"/><path d="m372.485 422.006h-339.985c-9.649 0-17.5-7.851-17.5-17.5v-27.607c0-1.379 1.121-2.5 2.5-2.5h59.863c4.143 0 7.5-3.357 7.5-7.5s-3.357-7.5-7.5-7.5h-32.246v-261.905c0-4.136 3.364-7.5 7.5-7.5h281.092c4.143 0 7.5-3.357 7.5-7.5s-3.357-7.5-7.5-7.5h-281.092c-12.406 0-22.5 10.094-22.5 22.5v261.904h-12.617c-9.649 0-17.5 7.851-17.5 17.5v27.607c0 17.921 14.579 32.5 32.5 32.5h339.985c4.142 0 7.5-3.357 7.5-7.5 0-4.142-3.357-7.499-7.5-7.499z"/><path d="m201.421 224.718c-4.143 0-7.5 3.357-7.5 7.5v12.404c0 4.143 3.357 7.5 7.5 7.5s7.5-3.357 7.5-7.5v-12.404c0-4.143-3.357-7.5-7.5-7.5z"/><path d="m310.579 224.718c-4.143 0-7.5 3.357-7.5 7.5v12.404c0 4.143 3.357 7.5 7.5 7.5s7.5-3.357 7.5-7.5v-12.404c0-4.143-3.357-7.5-7.5-7.5z"/></g></g></svg>