<svg id="Capa_1" enable-background="new 0 0 512 512" height="512" viewBox="0 0 512 512" width="512" xmlns="http://www.w3.org/2000/svg"><g><g><path d="m390.55 504.5h-279.1c-13.807 0-25-11.193-25-25v-94.847l10-342.153c0-13.807 11.193-25 25-25h269.1c13.807 0 25 11.193 25 25v437c0 13.807-11.193 25-25 25z" fill="#245e7c"/><path d="m400.55 7.5h-30c13.807 0 25 11.193 25 25v447c0 13.807-11.193 25-25 25h30c13.807 0 25-11.193 25-25v-447c0-13.807-11.193-25-25-25z" fill="#1a4c65"/><path d="m390.55 7.5h-279.1c-13.807 0-25 11.193-25 25v352.153h309.1l20-352.153c0-13.807-11.193-25-25-25z" fill="#f9f6f9"/><path d="m400.55 7.5h-30c13.807 0 25 11.193 25 25v352.153h30v-352.153c0-13.807-11.193-25-25-25z" fill="#dedbec"/><path d="m280.719 414.653h-49.439c-16.191 0-29.317 13.126-29.317 29.317 0 16.191 13.126 29.317 29.317 29.317h49.439c16.191 0 29.317-13.126 29.317-29.317.001-16.192-13.125-29.317-29.317-29.317z" fill="#f9f6f9"/><path d="m299.267 228.322c0 4.087 4.637 6.448 7.942 4.043l72.053-52.424c2.745-1.997 2.745-6.09 0-8.087l-72.053-52.423c-3.305-2.405-7.942-.044-7.942 4.043v24.924c0 2.761-2.239 5-5 5h-78.969c-46.937 0-85.071 38.413-84.615 85.454.451 46.585 39.107 83.785 85.694 83.785h86.084c2.761 0 5-2.239 5-5v-35c0-2.761-2.239-5-5-5h-87.163c-22.164 0-40.135-18.294-39.608-40.575.512-21.629 18.716-38.664 40.351-38.664h78.226c2.761 0 5 2.239 5 5z" fill="#ade4a4"/></g><g><path d="m310.037 63.95c4.142 0 7.5-3.357 7.5-7.5s-3.358-7.5-7.5-7.5h-108.074c-4.142 0-7.5 3.357-7.5 7.5s3.358 7.5 7.5 7.5z"/><path d="m231.281 407.152c-20.301 0-36.817 16.517-36.817 36.817 0 20.301 16.516 36.817 36.817 36.817h49.438c20.301 0 36.817-16.517 36.817-36.817 0-20.301-16.516-36.817-36.817-36.817zm71.256 36.818c0 12.03-9.787 21.817-21.817 21.817h-49.438c-12.03 0-21.817-9.787-21.817-21.817s9.787-21.817 21.817-21.817h49.438c12.03-.001 21.817 9.787 21.817 21.817z"/><path d="m400.55 0h-289.1c-17.92 0-32.5 14.579-32.5 32.5v67.166c0 4.143 3.358 7.5 7.5 7.5s7.5-3.357 7.5-7.5v-67.166c0-9.649 7.851-17.5 17.5-17.5h289.1c9.649 0 17.5 7.851 17.5 17.5v344.652h-53.778c-4.142 0-7.5 3.357-7.5 7.5s3.358 7.5 7.5 7.5h53.778v87.348c0 9.649-7.851 17.5-17.5 17.5h-289.1c-9.649 0-17.5-7.851-17.5-17.5v-87.348h237.636c4.142 0 7.5-3.357 7.5-7.5s-3.358-7.5-7.5-7.5h-237.636v-244.8c0-4.143-3.358-7.5-7.5-7.5s-7.5 3.357-7.5 7.5v347.148c0 17.921 14.58 32.5 32.5 32.5h289.1c17.92 0 32.5-14.579 32.5-32.5v-447c0-17.921-14.58-32.5-32.5-32.5z"/><path d="m123.184 238.925c.487 50.295 42.294 91.212 93.194 91.212h86.084c6.893 0 12.5-5.607 12.5-12.5v-35c0-6.893-5.607-12.5-12.5-12.5h-87.163c-8.706 0-16.864-3.442-22.969-9.694-6.101-6.247-9.348-14.487-9.141-23.202.409-17.282 15.147-31.342 32.853-31.342h18.615c4.142 0 7.5-3.357 7.5-7.5s-3.358-7.5-7.5-7.5h-18.615c-25.784 0-47.249 20.63-47.849 45.986-.303 12.788 4.458 24.877 13.406 34.038 8.951 9.166 20.92 14.214 33.7 14.214h84.663v30h-83.584c-42.708 0-77.787-34.254-78.195-76.356-.201-20.714 7.735-40.246 22.346-54.999 14.614-14.756 34.065-22.883 54.77-22.883h78.969c6.893 0 12.5-5.607 12.5-12.5v-20.013l65.303 47.513-65.303 47.513v-20.013c0-6.893-5.607-12.5-12.5-12.5h-26.924c-4.142 0-7.5 3.357-7.5 7.5s3.358 7.5 7.5 7.5h24.424v22.424c0 4.727 2.617 8.995 6.829 11.14 4.212 2.144 9.203 1.749 13.025-1.032l72.053-52.424c3.222-2.345 5.146-6.123 5.146-10.107s-1.924-7.763-5.146-10.107l-72.054-52.424c-3.822-2.781-8.812-3.177-13.025-1.032-4.212 2.145-6.829 6.413-6.829 11.14v22.424h-76.469c-24.739 0-47.975 9.705-65.427 27.328-17.449 17.617-26.927 40.949-26.687 65.696z"/></g></g></svg>