<svg id="Capa_1" enable-background="new 0 0 512 512" height="512" viewBox="0 0 512 512" width="512" xmlns="http://www.w3.org/2000/svg"><g><g><path d="m7.5 480.894c0 8.284 6.716 15 15 15h449c8.284 0 15-6.716 15-15v-439.788c0-8.284-6.716-15-15-15h-439c-8.284 0-15 6.716-15 15l-10 82.184z" fill="#f9f6f9"/><path d="m479.5 18.106h-20c8.284 0 15 4.716 15 13v449.788c0 8.284-6.716 15-15 15h30c8.284 0 15-6.716 15-15v-357.604l-10-92.184c0-8.284-6.716-13-15-13z" fill="#dedbec"/><path d="m477.5 16.106h-455c-8.284 0-15 6.716-15 15v92.184h485v-92.184c0-8.284-6.716-15-15-15z" fill="#95c7f8"/><path d="m489.5 16.106h-30c8.284 0 15 6.716 15 15v92.184h30v-92.184c0-8.284-6.716-15-15-15z" fill="#75b5f8"/><path d="m221.915 69.698c0 9.826-6.965 16.791-16.791 16.791-2.456 0-4.797.502-6.925-.398-6.386-2.701-10.866-9.024-10.866-16.393 0-7.34 4.445-13.642 10.79-16.36 2.149-.921 4.516-.431 7.002-.431 9.825 0 16.79 6.965 16.79 16.791z" fill="#ade4a4"/><path d="m205.124 51.907c-2.486 0-4.851.513-7 1.434 6.345 2.719 10.791 9.017 10.791 16.357s-4.446 13.638-10.791 16.357c2.149.921 4.514 1.434 7 1.434 9.826 0 17.791-7.965 17.791-17.791s-7.965-17.791-17.791-17.791z" fill="#8bd5a7"/><path d="m150.5 69.698c0 9.826-6.965 16.791-16.791 16.791-2.456 0-4.797.502-6.925-.398-6.386-2.701-10.866-9.024-10.866-16.393 0-7.34 4.445-13.642 10.79-16.36 2.149-.921 4.516-.431 7.002-.431 9.825 0 16.79 6.965 16.79 16.791z" fill="#ffe187"/><path d="m133.709 51.907c-2.486 0-4.851.513-7 1.434 6.345 2.719 10.791 9.017 10.791 16.357s-4.446 13.638-10.791 16.357c2.149.921 4.514 1.434 7 1.434 9.826 0 17.791-7.965 17.791-17.791s-7.965-17.791-17.791-17.791z" fill="#ffd26f"/><path d="m79.086 69.698c0 9.826-6.965 16.791-16.791 16.791-2.456 0-4.797.502-6.925-.398-6.386-2.701-10.866-9.024-10.866-16.393 0-7.34 4.445-13.642 10.79-16.36 2.149-.921 4.516-.431 7.002-.431 9.824 0 16.79 6.965 16.79 16.791z" fill="#ea7bc1"/><path d="m62.295 51.907c-2.486 0-4.851.513-7 1.434 6.345 2.719 10.791 9.017 10.791 16.357s-4.446 13.638-10.791 16.357c2.149.921 4.514 1.434 7 1.434 9.826 0 17.791-7.965 17.791-17.791s-7.966-17.791-17.791-17.791z" fill="#ea5bb1"/><path d="m338.415 386.225h-17.453c-.458 0-.915-.031-1.369-.094l-62.225-8.597c-.908-.125-1.829-.125-2.737 0l-62.225 8.597c-.453.063-.911.094-1.369.094h-17.453c-5.523 0-10-4.477-10-10v-188.467c0-5.523 4.477-10 10-10h164.83c5.523 0 10 4.477 10 10v188.466c.001 5.523-4.476 10.001-9.999 10.001z" fill="#95c7f8"/><path d="m320.274 386.225h-128.549v-47.818c0-12.261 9.94-22.201 22.201-22.201h84.147c12.261 0 22.201 9.94 22.201 22.201z" fill="#245e7c"/><path d="m256 342.847c-10.163 0-18.403-8.239-18.403-18.402v-50.79h36.805v50.79c0 10.163-8.239 18.402-18.402 18.402z" fill="#ffbd86"/><path d="m256 308.213c-20.646 0-37.383-16.737-37.383-37.383v-14.839c0-20.646 16.737-37.383 37.383-37.383 20.646 0 37.383 16.737 37.383 37.383v14.839c0 20.646-16.737 37.383-37.383 37.383z" fill="#fed2a4"/></g><g><path d="m179.833 69.697c0 13.946 11.346 25.292 25.292 25.292 13.945 0 25.291-11.346 25.291-25.292 0-13.945-11.346-25.291-25.291-25.291-13.946 0-25.292 11.346-25.292 25.291zm35.582 0c0 5.675-4.617 10.292-10.291 10.292-5.675 0-10.292-4.617-10.292-10.292s4.617-10.291 10.292-10.291 10.291 4.616 10.291 10.291z"/><path d="m108.418 69.697c0 13.946 11.346 25.292 25.291 25.292s25.291-11.346 25.291-25.292c0-13.945-11.346-25.291-25.291-25.291s-25.291 11.346-25.291 25.291zm35.582 0c0 5.675-4.617 10.292-10.291 10.292-5.675 0-10.291-4.617-10.291-10.292s4.617-10.291 10.291-10.291c5.675 0 10.291 4.616 10.291 10.291z"/><path d="m37.003 69.697c0 13.946 11.346 25.292 25.291 25.292s25.291-11.346 25.291-25.292c0-13.945-11.346-25.291-25.291-25.291s-25.291 11.346-25.291 25.291zm35.582 0c0 5.675-4.617 10.292-10.291 10.292s-10.291-4.617-10.291-10.292 4.617-10.291 10.291-10.291c5.675 0 10.291 4.616 10.291 10.291z"/><path d="m489.5 8.606h-467c-12.407 0-22.5 10.093-22.5 22.499v291.272c0 4.142 3.358 7.5 7.5 7.5s7.5-3.358 7.5-7.5v-191.587h280.597c4.142 0 7.5-3.357 7.5-7.5s-3.358-7.5-7.5-7.5h-280.597v-84.685c0-4.136 3.364-7.5 7.5-7.5h467c4.136 0 7.5 3.364 7.5 7.5v84.685h-168.717c-4.142 0-7.5 3.357-7.5 7.5s3.358 7.5 7.5 7.5h168.717v350.104c0 4.136-3.364 7.5-7.5 7.5h-467c-4.136 0-7.5-3.364-7.5-7.5v-125.83c0-4.143-3.358-7.5-7.5-7.5s-7.5 3.357-7.5 7.5v125.831c0 12.406 10.093 22.5 22.5 22.5h467c12.407 0 22.5-10.094 22.5-22.5v-449.79c0-12.406-10.093-22.499-22.5-22.499z"/><path d="m348.415 242.388c4.142 0 7.5-3.357 7.5-7.5v-47.13c0-9.649-7.851-17.5-17.5-17.5h-164.83c-9.65 0-17.5 7.851-17.5 17.5v188.467c0 9.649 7.85 17.5 17.5 17.5h164.83c9.649 0 17.5-7.851 17.5-17.5v-108.652c0-4.143-3.358-7.5-7.5-7.5s-7.5 3.357-7.5 7.5v108.651c0 1.379-1.122 2.5-2.5 2.5h-10.641v-40.318c0-16.377-13.324-29.701-29.701-29.701h-16.171v-1.255c11.472-8.139 18.98-21.515 18.98-36.62v-14.839c0-24.748-20.134-44.883-44.883-44.883s-44.883 20.135-44.883 44.883v14.839c0 15.105 7.508 28.481 18.98 36.62v1.255h-16.171c-16.378 0-29.701 13.324-29.701 29.701v40.318h-10.641c-1.379 0-2.5-1.121-2.5-2.5v-188.466c0-1.379 1.121-2.5 2.5-2.5h164.83c1.378 0 2.5 1.121 2.5 2.5v47.13c.002 4.142 3.36 7.5 7.502 7.5zm-103.317 71.979c3.492.875 7.143 1.346 10.902 1.346s7.41-.471 10.902-1.346v10.077c0 6.012-4.891 10.902-10.902 10.902-6.012 0-10.902-4.891-10.902-10.902zm-18.981-58.376c0-16.477 13.405-29.883 29.883-29.883 16.477 0 29.883 13.405 29.883 29.883v14.839c0 16.477-13.405 29.883-29.883 29.883s-29.883-13.405-29.883-29.883zm-26.891 82.415c0-8.107 6.595-14.701 14.701-14.701h16.171v.739c0 14.282 11.62 25.902 25.902 25.902 14.283 0 25.902-11.62 25.902-25.902v-.739h16.171c8.107 0 14.701 6.595 14.701 14.701v40.318h-113.548z"/><path d="m163.585 448.926h184.83c4.142 0 7.5-3.357 7.5-7.5s-3.358-7.5-7.5-7.5h-184.83c-4.142 0-7.5 3.357-7.5 7.5 0 4.142 3.358 7.5 7.5 7.5z"/></g></g></svg>