<svg id="Capa_1" enable-background="new 0 0 512 512" height="512" viewBox="0 0 512 512" width="512" xmlns="http://www.w3.org/2000/svg"><g><g><path d="m425.489 504.5h-278.211l-64.951-10c-13.807 0-25-11.193-25-25v-427c0-13.807 11.193-25 25-25l64.951-10h278.211c13.807 0 25 11.193 25 25v447c0 13.807-11.193 25-25 25z" fill="#f9f6f9"/><path d="m493.2 392.228h-40.711l10-69.388h30.711c5.523 0 10 4.477 10 10v49.388c0 5.523-4.477 10-10 10z" fill="#ade4a4"/><path d="m493.2 290.694h-40.711l10-69.388h30.711c5.523 0 10 4.477 10 10v49.388c0 5.523-4.477 10-10 10z" fill="#ffe187"/><path d="m493.2 189.16h-40.711l10-69.388h30.711c5.523 0 10 4.477 10 10v49.388c0 5.522-4.477 10-10 10z" fill="#ea7bc1"/><path d="m147.278 7.5h-74.95c-13.807 0-25 11.193-25 25v447c0 13.807 11.193 25 25 25h74.951v-497z" fill="#95c7f8"/><path d="m437.489 7.5h-30c13.807 0 25 11.193 25 25v447c0 13.807-11.193 25-25 25h30c13.807 0 25-11.193 25-25v-447c0-13.807-11.193-25-25-25z" fill="#dedbec"/><g fill="#ffe187"><path d="m67.956 332.36h-41.257c-9.885 0-17.899-8.014-17.899-17.899 0-9.885 8.014-17.899 17.899-17.899h41.257c9.886 0 17.899 8.014 17.899 17.899 0 9.885-8.013 17.899-17.899 17.899z"/><path d="m67.956 449.282h-41.257c-9.885 0-17.899-8.014-17.899-17.899 0-9.885 8.014-17.899 17.899-17.899h41.257c9.886 0 17.899 8.014 17.899 17.899 0 9.885-8.013 17.899-17.899 17.899z"/><path d="m67.956 98.516h-41.257c-9.885 0-17.899-8.014-17.899-17.899 0-9.885 8.014-17.899 17.899-17.899h41.257c9.886 0 17.899 8.014 17.899 17.899 0 9.885-8.013 17.899-17.899 17.899z"/><path d="m67.956 215.438h-41.257c-9.885 0-17.899-8.014-17.899-17.899 0-9.885 8.014-17.899 17.899-17.899h41.257c9.886 0 17.899 8.014 17.899 17.899 0 9.885-8.013 17.899-17.899 17.899z"/><path d="m353.853 80.432c5.974 1.965 9.383 8.245 7.776 14.326l-21.13 79.948c-1.081 4.09-4.255 7.297-8.333 8.421l-27.705 7.632c-7.508 2.068-12.805 8.771-13.081 16.555v97.372c.276 7.783 5.572 14.486 13.081 16.555l27.705 7.632c4.079 1.124 7.252 4.331 8.333 8.421l21.13 79.948c1.607 6.081-1.802 12.36-7.776 14.326l-38.343 12.614c-14.445 4.752-30.13-2.175-36.388-16.034-32.899-72.859-31.369-172.148-31.369-172.148s-1.529-99.289 31.369-172.148c6.258-13.859 21.943-20.786 36.388-16.034z"/></g></g><g><path d="m493.2 196.66c9.649 0 17.5-7.851 17.5-17.5v-49.388c0-9.649-7.851-17.5-17.5-17.5h-23.21v-21.826c0-4.142-3.358-7.5-7.5-7.5s-7.5 3.358-7.5 7.5v389.054c0 9.649-7.851 17.5-17.5 17.5h-282.712v-482h282.711c9.649 0 17.5 7.851 17.5 17.5v25.26c0 4.142 3.358 7.5 7.5 7.5s7.5-3.358 7.5-7.5v-25.26c0-17.92-14.58-32.5-32.5-32.5h-365.161c-17.92 0-32.5 14.58-32.5 32.5v22.718h-13.129c-14.005 0-25.399 11.394-25.399 25.399s11.394 25.399 25.399 25.399h13.128v16.719c0 4.142 3.358 7.5 7.5 7.5s7.5-3.358 7.5-7.5v-16.719h13.129c14.005 0 25.399-11.394 25.399-25.399s-11.394-25.399-25.399-25.399h-13.128v-22.718c0-9.649 7.851-17.5 17.5-17.5h67.451v482h-67.451c-9.649 0-17.5-7.851-17.5-17.5v-22.718h13.129c14.005 0 25.399-11.394 25.399-25.399s-11.394-25.399-25.399-25.399h-13.129v-66.124h13.129c14.005 0 25.399-11.394 25.399-25.399s-11.394-25.399-25.399-25.399h-13.129v-66.124h13.129c14.005 0 25.399-11.394 25.399-25.399s-11.394-25.399-25.399-25.399h-13.129v-16.719c0-4.142-3.358-7.5-7.5-7.5s-7.5 3.358-7.5 7.5v16.719h-13.129c-14.005 0-25.399 11.394-25.399 25.399s11.394 25.399 25.399 25.399h13.128v66.124h-13.128c-14.005 0-25.399 11.394-25.399 25.399s11.394 25.399 25.399 25.399h13.128v66.124h-13.128c-14.005 0-25.399 11.394-25.399 25.399s11.394 25.399 25.399 25.399h13.128v22.718c0 17.92 14.58 32.5 32.5 32.5h365.162c17.92 0 32.5-14.58 32.5-32.5v-79.772h23.21c9.649 0 17.5-7.851 17.5-17.5v-49.388c0-9.649-7.851-17.5-17.5-17.5h-23.21v-17.146h23.21c9.649 0 17.5-7.851 17.5-17.5v-49.389c0-9.649-7.851-17.5-17.5-17.5h-23.21v-17.145zm-414.845-116.043c0 5.734-4.665 10.399-10.399 10.399h-41.257c-5.734 0-10.399-4.665-10.399-10.399s4.665-10.399 10.399-10.399h41.257c5.734 0 10.399 4.665 10.399 10.399zm-62.055 116.922c0-5.734 4.665-10.399 10.399-10.399h41.257c5.734 0 10.399 4.665 10.399 10.399s-4.665 10.399-10.399 10.399h-41.257c-5.734 0-10.399-4.665-10.399-10.399zm0 116.922c0-5.734 4.665-10.399 10.399-10.399h41.257c5.734 0 10.399 4.665 10.399 10.399s-4.665 10.399-10.399 10.399h-41.257c-5.734 0-10.399-4.665-10.399-10.399zm0 116.922c0-5.734 4.665-10.399 10.399-10.399h41.257c5.734 0 10.399 4.665 10.399 10.399s-4.665 10.399-10.399 10.399h-41.257c-5.734 0-10.399-4.665-10.399-10.399zm476.9-304.112c1.378 0 2.5 1.122 2.5 2.5v49.388c0 1.378-1.122 2.5-2.5 2.5h-23.21v-54.388zm0 203.069c1.378 0 2.5 1.122 2.5 2.5v49.388c0 1.378-1.122 2.5-2.5 2.5h-23.21v-54.388zm0-101.534c1.378 0 2.5 1.122 2.5 2.5v49.389c0 1.379-1.122 2.5-2.5 2.5h-23.21v-54.389z"/><path d="m306.453 197.99 27.704-7.632c6.628-1.826 11.837-7.088 13.593-13.735l21.13-79.949c2.617-9.902-2.954-20.165-12.683-23.366l-38.343-12.614c-18.118-5.961-37.709 2.669-45.567 20.072-32.947 72.966-32.112 169.703-32.035 175.237-.031 2.35-.296 30.902 4.451 68.525.519 4.109 4.267 7.02 8.379 6.502 4.11-.519 7.021-4.27 6.503-8.379-4.71-37.337-4.337-66.249-4.333-66.537.001-.075.001-.153 0-.228-.015-.977-1.1-98.508 30.706-168.948 4.694-10.397 16.39-15.555 27.209-11.996l38.343 12.614c2.201.724 3.46 3.045 2.869 5.285l-21.13 79.948c-.397 1.503-1.575 2.694-3.075 3.107l-27.704 7.632c-10.722 2.953-18.191 12.405-18.584 23.52-.003.088-.005.177-.005.266v97.372c0 .088.001.177.005.266.393 11.114 7.862 20.566 18.584 23.52l27.705 7.632c1.499.413 2.677 1.604 3.074 3.107l21.13 79.948c.592 2.24-.668 4.561-2.869 5.285l-38.343 12.614c-10.814 3.559-22.514-1.599-27.209-11.996-9.05-20.043-16.295-44.149-21.536-71.647-.775-4.069-4.703-6.743-8.771-5.963-4.069.775-6.739 4.702-5.964 8.771 5.461 28.657 13.064 53.895 22.6 75.013 6.182 13.691 19.622 21.952 33.897 21.951 3.871-.001 7.805-.608 11.67-1.879l38.343-12.614c9.729-3.201 15.3-13.464 12.683-23.367l-21.13-79.948c-1.756-6.646-6.965-11.909-13.593-13.735l-27.705-7.632c-4.334-1.194-7.365-4.993-7.573-9.475v-97.071c.208-4.484 3.239-8.282 7.574-9.476z"/></g></g></svg>