<svg id="Capa_1" enable-background="new 0 0 512 512" height="512" viewBox="0 0 512 512" width="512" xmlns="http://www.w3.org/2000/svg"><g><g><path d="m390.55 504.5h-279.1c-13.807 0-25-11.193-25-25v-94.847l10-342.153c0-13.807 11.193-25 25-25h269.1c13.807 0 25 11.193 25 25v437c0 13.807-11.193 25-25 25z" fill="#245e7c"/><path d="m400.55 7.5h-30c13.807 0 25 11.193 25 25v447c0 13.807-11.193 25-25 25h30c13.807 0 25-11.193 25-25v-447c0-13.807-11.193-25-25-25z" fill="#1a4c65"/><path d="m390.55 7.5h-279.1c-13.807 0-25 11.193-25 25v352.153h309.1l20-352.153c0-13.807-11.193-25-25-25z" fill="#f9f6f9"/><circle cx="256" cy="220.551" fill="#ade4a4" r="91.929"/><path d="m400.55 7.5h-30c13.807 0 25 11.193 25 25v352.153h30v-352.153c0-13.807-11.193-25-25-25z" fill="#dedbec"/><path d="m280.719 414.653h-49.439c-16.191 0-29.317 13.126-29.317 29.317 0 16.191 13.126 29.317 29.317 29.317h49.439c16.191 0 29.317-13.126 29.317-29.317.001-16.192-13.125-29.317-29.317-29.317z" fill="#f9f6f9"/></g><g><path d="m310.036 63.95c4.143 0 7.5-3.358 7.5-7.5s-3.357-7.5-7.5-7.5h-108.072c-4.143 0-7.5 3.358-7.5 7.5s3.357 7.5 7.5 7.5z"/><path d="m231.28 407.153c-20.301 0-36.816 16.516-36.816 36.817s16.516 36.817 36.816 36.817h49.439c20.301 0 36.816-16.516 36.816-36.817s-16.516-36.817-36.816-36.817zm71.256 36.817c0 12.03-9.787 21.817-21.816 21.817h-49.44c-12.029 0-21.816-9.787-21.816-21.817s9.787-21.817 21.816-21.817h49.439c12.03 0 21.817 9.787 21.817 21.817z"/><path d="m301.763 186.096c-3.145-2.696-7.88-2.333-10.575.812l-44.053 51.378-26.713-26.705c-2.931-2.929-7.68-2.928-10.607.002-2.929 2.929-2.928 7.678.001 10.606l32.439 32.429c1.409 1.409 3.318 2.196 5.303 2.196.096 0 .191-.002.288-.005 2.087-.08 4.046-1.027 5.405-2.613l49.322-57.524c2.698-3.145 2.334-7.88-.81-10.576z"/><path d="m156.571 220.551c0 48.205 34.385 89.362 81.761 97.863 4.076.729 7.975-1.98 8.706-6.058.731-4.077-1.98-7.975-6.058-8.707-40.218-7.216-69.409-42.164-69.409-83.098 0-46.554 37.875-84.429 84.429-84.429s84.429 37.874 84.429 84.429c0 40.934-29.191 75.882-69.409 83.098-4.077.732-6.789 4.63-6.058 8.707.651 3.629 3.811 6.177 7.373 6.177.439 0 .886-.039 1.333-.119 47.376-8.501 81.761-49.658 81.761-97.863 0-54.825-44.604-99.429-99.429-99.429s-99.429 44.604-99.429 99.429z"/><path d="m400.55 0h-289.1c-17.921 0-32.5 14.58-32.5 32.5v67.165c0 4.142 3.357 7.5 7.5 7.5s7.5-3.358 7.5-7.5v-67.165c0-9.649 7.851-17.5 17.5-17.5h289.1c9.649 0 17.5 7.851 17.5 17.5v344.653h-53.777c-4.143 0-7.5 3.358-7.5 7.5s3.357 7.5 7.5 7.5h53.777v87.347c0 9.649-7.851 17.5-17.5 17.5h-289.1c-9.649 0-17.5-7.851-17.5-17.5v-87.347h237.636c4.143 0 7.5-3.358 7.5-7.5s-3.357-7.5-7.5-7.5h-237.636v-244.801c0-4.142-3.357-7.5-7.5-7.5s-7.5 3.358-7.5 7.5v347.148c0 17.92 14.579 32.5 32.5 32.5h289.1c17.921 0 32.5-14.58 32.5-32.5v-447c0-17.92-14.579-32.5-32.5-32.5z"/></g></g></svg>